<svg xmlns="http://www.w3.org/2000/svg" viewBox="0 0 1200 900" width="1200" height="900" fill="none">
<defs><radialGradient id="bg" cx="40%" cy="60%" r="95%"><stop offset="0%" stop-color="#12121B"/><stop offset="100%" stop-color="#0B0B10"/></radialGradient></defs>
<rect width="1200" height="900" fill="url(#bg)"/><line x1="784" y1="625" x2="723" y2="629" stroke="#ECE9E2" stroke-opacity="0.29" stroke-width="0.8"/><line x1="784" y1="625" x2="794" y2="608" stroke="#ECE9E2" stroke-opacity="0.39" stroke-width="0.8"/><line x1="784" y1="625" x2="762" y2="588" stroke="#ECE9E2" stroke-opacity="0.34" stroke-width="0.8"/><line x1="784" y1="625" x2="794" y2="518" stroke="#ECE9E2" stroke-opacity="0.06" stroke-width="0.8"/><line x1="784" y1="625" x2="750" y2="617" stroke="#ECE9E2" stroke-opacity="0.36" stroke-width="0.8"/><line x1="784" y1="625" x2="777" y2="605" stroke="#ECE9E2" stroke-opacity="0.39" stroke-width="0.8"/><line x1="784" y1="625" x2="847" y2="576" stroke="#ECE9E2" stroke-opacity="0.21" stroke-width="0.8"/><line x1="784" y1="625" x2="705" y2="677" stroke="#ECE9E2" stroke-opacity="0.14" stroke-width="0.8"/><line x1="784" y1="625" x2="838" y2="551" stroke="#ECE9E2" stroke-opacity="0.15" stroke-width="0.8"/><line x1="784" y1="625" x2="802" y2="550" stroke="#ECE9E2" stroke-opacity="0.22" stroke-width="0.8"/><line x1="348" y1="374" x2="353" y2="359" stroke="#ECE9E2" stroke-opacity="0.39" stroke-width="0.8"/><line x1="348" y1="374" x2="367" y2="407" stroke="#ECE9E2" stroke-opacity="0.36" stroke-width="0.8"/><line x1="348" y1="374" x2="327" y2="313" stroke="#ECE9E2" stroke-opacity="0.28" stroke-width="0.8"/><line x1="348" y1="374" x2="407" y2="448" stroke="#ECE9E2" stroke-opacity="0.13" stroke-width="0.8"/><line x1="348" y1="374" x2="427" y2="428" stroke="#ECE9E2" stroke-opacity="0.13" stroke-width="0.8"/><line x1="348" y1="374" x2="306" y2="304" stroke="#ECE9E2" stroke-opacity="0.20" stroke-width="0.8"/><line x1="348" y1="374" x2="247" y2="396" stroke="#ECE9E2" stroke-opacity="0.08" stroke-width="0.8"/><line x1="372" y1="648" x2="344" y2="550" stroke="#ECE9E2" stroke-opacity="0.09" stroke-width="0.8"/><line x1="372" y1="648" x2="390" y2="685" stroke="#ECE9E2" stroke-opacity="0.35" stroke-width="0.8"/><line x1="372" y1="648" x2="425" y2="553" stroke="#ECE9E2" stroke-opacity="0.05" stroke-width="0.8"/><line x1="372" y1="648" x2="350" y2="595" stroke="#ECE9E2" stroke-opacity="0.30" stroke-width="0.8"/><line x1="372" y1="648" x2="445" y2="635" stroke="#ECE9E2" stroke-opacity="0.24" stroke-width="0.8"/><line x1="372" y1="648" x2="306" y2="648" stroke="#ECE9E2" stroke-opacity="0.27" stroke-width="0.8"/><line x1="353" y1="359" x2="367" y2="407" stroke="#ECE9E2" stroke-opacity="0.33" stroke-width="0.8"/><line x1="353" y1="359" x2="327" y2="313" stroke="#ECE9E2" stroke-opacity="0.32" stroke-width="0.8"/><line x1="353" y1="359" x2="407" y2="448" stroke="#ECE9E2" stroke-opacity="0.08" stroke-width="0.8"/><line x1="353" y1="359" x2="427" y2="428" stroke="#ECE9E2" stroke-opacity="0.10" stroke-width="0.8"/><line x1="353" y1="359" x2="306" y2="304" stroke="#ECE9E2" stroke-opacity="0.24" stroke-width="0.8"/><line x1="344" y1="550" x2="425" y2="553" stroke="#ECE9E2" stroke-opacity="0.20" stroke-width="0.8"/><line x1="344" y1="550" x2="350" y2="595" stroke="#ECE9E2" stroke-opacity="0.34" stroke-width="0.8"/><line x1="344" y1="550" x2="397" y2="538" stroke="#ECE9E2" stroke-opacity="0.31" stroke-width="0.8"/><line x1="344" y1="550" x2="261" y2="613" stroke="#ECE9E2" stroke-opacity="0.07" stroke-width="0.8"/><line x1="344" y1="550" x2="306" y2="648" stroke="#ECE9E2" stroke-opacity="0.07" stroke-width="0.8"/><line x1="344" y1="550" x2="301" y2="549" stroke="#ECE9E2" stroke-opacity="0.35" stroke-width="0.8"/><line x1="465" y1="240" x2="370" y2="188" stroke="#ECE9E2" stroke-opacity="0.05" stroke-width="0.8"/><line x1="465" y1="240" x2="420" y2="227" stroke="#ECE9E2" stroke-opacity="0.34" stroke-width="0.8"/><line x1="465" y1="240" x2="518" y2="205" stroke="#ECE9E2" stroke-opacity="0.28" stroke-width="0.8"/><line x1="465" y1="240" x2="561" y2="275" stroke="#ECE9E2" stroke-opacity="0.09" stroke-width="0.8"/><line x1="370" y1="188" x2="303" y2="227" stroke="#ECE9E2" stroke-opacity="0.22" stroke-width="0.8"/><line x1="370" y1="188" x2="420" y2="227" stroke="#ECE9E2" stroke-opacity="0.28" stroke-width="0.8"/><line x1="747" y1="306" x2="731" y2="213" stroke="#ECE9E2" stroke-opacity="0.13" stroke-width="0.8"/><line x1="747" y1="306" x2="773" y2="266" stroke="#ECE9E2" stroke-opacity="0.33" stroke-width="0.8"/><line x1="747" y1="306" x2="757" y2="387" stroke="#ECE9E2" stroke-opacity="0.20" stroke-width="0.8"/><line x1="747" y1="306" x2="682" y2="389" stroke="#ECE9E2" stroke-opacity="0.07" stroke-width="0.8"/><line x1="747" y1="306" x2="808" y2="277" stroke="#ECE9E2" stroke-opacity="0.27" stroke-width="0.8"/><line x1="747" y1="306" x2="832" y2="306" stroke="#ECE9E2" stroke-opacity="0.19" stroke-width="0.8"/><line x1="747" y1="306" x2="826" y2="268" stroke="#ECE9E2" stroke-opacity="0.17" stroke-width="0.8"/><line x1="747" y1="306" x2="776" y2="360" stroke="#ECE9E2" stroke-opacity="0.29" stroke-width="0.8"/><line x1="747" y1="306" x2="773" y2="263" stroke="#ECE9E2" stroke-opacity="0.33" stroke-width="0.8"/><line x1="747" y1="306" x2="789" y2="244" stroke="#ECE9E2" stroke-opacity="0.24" stroke-width="0.8"/><line x1="701" y1="842" x2="748" y2="771" stroke="#ECE9E2" stroke-opacity="0.19" stroke-width="0.8"/><line x1="804" y1="438" x2="757" y2="387" stroke="#ECE9E2" stroke-opacity="0.25" stroke-width="0.8"/><line x1="804" y1="438" x2="861" y2="355" stroke="#ECE9E2" stroke-opacity="0.09" stroke-width="0.8"/><line x1="804" y1="438" x2="809" y2="446" stroke="#ECE9E2" stroke-opacity="0.40" stroke-width="0.8"/><line x1="804" y1="438" x2="736" y2="467" stroke="#ECE9E2" stroke-opacity="0.24" stroke-width="0.8"/><line x1="804" y1="438" x2="794" y2="518" stroke="#ECE9E2" stroke-opacity="0.21" stroke-width="0.8"/><line x1="804" y1="438" x2="776" y2="360" stroke="#ECE9E2" stroke-opacity="0.19" stroke-width="0.8"/><line x1="804" y1="438" x2="897" y2="430" stroke="#ECE9E2" stroke-opacity="0.14" stroke-width="0.8"/><line x1="804" y1="438" x2="816" y2="512" stroke="#ECE9E2" stroke-opacity="0.23" stroke-width="0.8"/><line x1="804" y1="438" x2="757" y2="427" stroke="#ECE9E2" stroke-opacity="0.33" stroke-width="0.8"/><line x1="1098" y1="281" x2="1075" y2="207" stroke="#ECE9E2" stroke-opacity="0.22" stroke-width="0.8"/><line x1="1098" y1="281" x2="1067" y2="263" stroke="#ECE9E2" stroke-opacity="0.36" stroke-width="0.8"/><line x1="1098" y1="281" x2="1082" y2="357" stroke="#ECE9E2" stroke-opacity="0.22" stroke-width="0.8"/><line x1="1098" y1="281" x2="1135" y2="285" stroke="#ECE9E2" stroke-opacity="0.36" stroke-width="0.8"/><line x1="1098" y1="281" x2="998" y2="237" stroke="#ECE9E2" stroke-opacity="0.05" stroke-width="0.8"/><line x1="141" y1="427" x2="151" y2="443" stroke="#ECE9E2" stroke-opacity="0.39" stroke-width="0.8"/><line x1="141" y1="427" x2="107" y2="382" stroke="#ECE9E2" stroke-opacity="0.31" stroke-width="0.8"/><line x1="141" y1="427" x2="208" y2="430" stroke="#ECE9E2" stroke-opacity="0.26" stroke-width="0.8"/><line x1="141" y1="427" x2="181" y2="393" stroke="#ECE9E2" stroke-opacity="0.31" stroke-width="0.8"/><line x1="723" y1="629" x2="794" y2="608" stroke="#ECE9E2" stroke-opacity="0.23" stroke-width="0.8"/><line x1="723" y1="629" x2="762" y2="588" stroke="#ECE9E2" stroke-opacity="0.30" stroke-width="0.8"/><line x1="723" y1="629" x2="616" y2="657" stroke="#ECE9E2" stroke-opacity="0.04" stroke-width="0.8"/><line x1="723" y1="629" x2="750" y2="617" stroke="#ECE9E2" stroke-opacity="0.37" stroke-width="0.8"/><line x1="723" y1="629" x2="777" y2="605" stroke="#ECE9E2" stroke-opacity="0.29" stroke-width="0.8"/><line x1="723" y1="629" x2="705" y2="677" stroke="#ECE9E2" stroke-opacity="0.32" stroke-width="0.8"/><line x1="625" y1="340" x2="634" y2="359" stroke="#ECE9E2" stroke-opacity="0.39" stroke-width="0.8"/><line x1="625" y1="340" x2="690" y2="407" stroke="#ECE9E2" stroke-opacity="0.14" stroke-width="0.8"/><line x1="625" y1="340" x2="682" y2="389" stroke="#ECE9E2" stroke-opacity="0.23" stroke-width="0.8"/><line x1="625" y1="340" x2="583" y2="277" stroke="#ECE9E2" stroke-opacity="0.23" stroke-width="0.8"/><line x1="625" y1="340" x2="572" y2="336" stroke="#ECE9E2" stroke-opacity="0.31" stroke-width="0.8"/><line x1="625" y1="340" x2="548" y2="350" stroke="#ECE9E2" stroke-opacity="0.22" stroke-width="0.8"/><line x1="625" y1="340" x2="561" y2="275" stroke="#ECE9E2" stroke-opacity="0.15" stroke-width="0.8"/><line x1="886" y1="535" x2="794" y2="518" stroke="#ECE9E2" stroke-opacity="0.14" stroke-width="0.8"/><line x1="886" y1="535" x2="847" y2="576" stroke="#ECE9E2" stroke-opacity="0.30" stroke-width="0.8"/><line x1="886" y1="535" x2="881" y2="544" stroke="#ECE9E2" stroke-opacity="0.40" stroke-width="0.8"/><line x1="886" y1="535" x2="921" y2="582" stroke="#ECE9E2" stroke-opacity="0.30" stroke-width="0.8"/><line x1="886" y1="535" x2="897" y2="430" stroke="#ECE9E2" stroke-opacity="0.07" stroke-width="0.8"/><line x1="886" y1="535" x2="816" y2="512" stroke="#ECE9E2" stroke-opacity="0.24" stroke-width="0.8"/><line x1="886" y1="535" x2="838" y2="551" stroke="#ECE9E2" stroke-opacity="0.32" stroke-width="0.8"/><line x1="886" y1="535" x2="961" y2="589" stroke="#ECE9E2" stroke-opacity="0.15" stroke-width="0.8"/><line x1="886" y1="535" x2="802" y2="550" stroke="#ECE9E2" stroke-opacity="0.18" stroke-width="0.8"/><line x1="633" y1="750" x2="616" y2="657" stroke="#ECE9E2" stroke-opacity="0.14" stroke-width="0.8"/><line x1="633" y1="750" x2="705" y2="677" stroke="#ECE9E2" stroke-opacity="0.08" stroke-width="0.8"/><line x1="872" y1="852" x2="804" y2="771" stroke="#ECE9E2" stroke-opacity="0.07" stroke-width="0.8"/><line x1="731" y1="213" x2="773" y2="266" stroke="#ECE9E2" stroke-opacity="0.27" stroke-width="0.8"/><line x1="731" y1="213" x2="655" y2="224" stroke="#ECE9E2" stroke-opacity="0.22" stroke-width="0.8"/><line x1="731" y1="213" x2="808" y2="277" stroke="#ECE9E2" stroke-opacity="0.11" stroke-width="0.8"/><line x1="731" y1="213" x2="826" y2="268" stroke="#ECE9E2" stroke-opacity="0.04" stroke-width="0.8"/><line x1="731" y1="213" x2="773" y2="263" stroke="#ECE9E2" stroke-opacity="0.27" stroke-width="0.8"/><line x1="731" y1="213" x2="760" y2="180" stroke="#ECE9E2" stroke-opacity="0.34" stroke-width="0.8"/><line x1="731" y1="213" x2="789" y2="244" stroke="#ECE9E2" stroke-opacity="0.27" stroke-width="0.8"/><line x1="731" y1="213" x2="780" y2="188" stroke="#ECE9E2" stroke-opacity="0.31" stroke-width="0.8"/><line x1="773" y1="266" x2="808" y2="277" stroke="#ECE9E2" stroke-opacity="0.36" stroke-width="0.8"/><line x1="773" y1="266" x2="832" y2="306" stroke="#ECE9E2" stroke-opacity="0.25" stroke-width="0.8"/><line x1="773" y1="266" x2="826" y2="268" stroke="#ECE9E2" stroke-opacity="0.31" stroke-width="0.8"/><line x1="773" y1="266" x2="776" y2="360" stroke="#ECE9E2" stroke-opacity="0.14" stroke-width="0.8"/><line x1="773" y1="266" x2="773" y2="263" stroke="#ECE9E2" stroke-opacity="0.40" stroke-width="0.8"/><line x1="773" y1="266" x2="760" y2="180" stroke="#ECE9E2" stroke-opacity="0.18" stroke-width="0.8"/><line x1="773" y1="266" x2="789" y2="244" stroke="#ECE9E2" stroke-opacity="0.38" stroke-width="0.8"/><line x1="773" y1="266" x2="780" y2="188" stroke="#ECE9E2" stroke-opacity="0.22" stroke-width="0.8"/><line x1="913" y1="125" x2="940" y2="219" stroke="#ECE9E2" stroke-opacity="0.11" stroke-width="0.8"/><line x1="390" y1="685" x2="350" y2="595" stroke="#ECE9E2" stroke-opacity="0.12" stroke-width="0.8"/><line x1="390" y1="685" x2="445" y2="635" stroke="#ECE9E2" stroke-opacity="0.24" stroke-width="0.8"/><line x1="390" y1="685" x2="306" y2="648" stroke="#ECE9E2" stroke-opacity="0.15" stroke-width="0.8"/><line x1="303" y1="227" x2="250" y2="225" stroke="#ECE9E2" stroke-opacity="0.32" stroke-width="0.8"/><line x1="303" y1="227" x2="258" y2="197" stroke="#ECE9E2" stroke-opacity="0.31" stroke-width="0.8"/><line x1="303" y1="227" x2="327" y2="313" stroke="#ECE9E2" stroke-opacity="0.16" stroke-width="0.8"/><line x1="303" y1="227" x2="306" y2="304" stroke="#ECE9E2" stroke-opacity="0.22" stroke-width="0.8"/><line x1="151" y1="443" x2="107" y2="382" stroke="#ECE9E2" stroke-opacity="0.23" stroke-width="0.8"/><line x1="151" y1="443" x2="208" y2="430" stroke="#ECE9E2" stroke-opacity="0.30" stroke-width="0.8"/><line x1="151" y1="443" x2="247" y2="396" stroke="#ECE9E2" stroke-opacity="0.06" stroke-width="0.8"/><line x1="151" y1="443" x2="181" y2="393" stroke="#ECE9E2" stroke-opacity="0.30" stroke-width="0.8"/><line x1="794" y1="608" x2="762" y2="588" stroke="#ECE9E2" stroke-opacity="0.36" stroke-width="0.8"/><line x1="794" y1="608" x2="794" y2="518" stroke="#ECE9E2" stroke-opacity="0.16" stroke-width="0.8"/><line x1="794" y1="608" x2="750" y2="617" stroke="#ECE9E2" stroke-opacity="0.34" stroke-width="0.8"/><line x1="794" y1="608" x2="777" y2="605" stroke="#ECE9E2" stroke-opacity="0.39" stroke-width="0.8"/><line x1="794" y1="608" x2="847" y2="576" stroke="#ECE9E2" stroke-opacity="0.29" stroke-width="0.8"/><line x1="794" y1="608" x2="881" y2="544" stroke="#ECE9E2" stroke-opacity="0.05" stroke-width="0.8"/><line x1="794" y1="608" x2="816" y2="512" stroke="#ECE9E2" stroke-opacity="0.11" stroke-width="0.8"/><line x1="794" y1="608" x2="838" y2="551" stroke="#ECE9E2" stroke-opacity="0.25" stroke-width="0.8"/><line x1="794" y1="608" x2="802" y2="550" stroke="#ECE9E2" stroke-opacity="0.30" stroke-width="0.8"/><line x1="804" y1="771" x2="897" y2="721" stroke="#ECE9E2" stroke-opacity="0.07" stroke-width="0.8"/><line x1="804" y1="771" x2="748" y2="771" stroke="#ECE9E2" stroke-opacity="0.30" stroke-width="0.8"/><line x1="250" y1="225" x2="258" y2="197" stroke="#ECE9E2" stroke-opacity="0.37" stroke-width="0.8"/><line x1="250" y1="225" x2="306" y2="304" stroke="#ECE9E2" stroke-opacity="0.12" stroke-width="0.8"/><line x1="973" y1="244" x2="1075" y2="207" stroke="#ECE9E2" stroke-opacity="0.05" stroke-width="0.8"/><line x1="973" y1="244" x2="1067" y2="263" stroke="#ECE9E2" stroke-opacity="0.12" stroke-width="0.8"/><line x1="973" y1="244" x2="940" y2="219" stroke="#ECE9E2" stroke-opacity="0.35" stroke-width="0.8"/><line x1="973" y1="244" x2="998" y2="237" stroke="#ECE9E2" stroke-opacity="0.38" stroke-width="0.8"/><line x1="973" y1="244" x2="918" y2="297" stroke="#ECE9E2" stroke-opacity="0.23" stroke-width="0.8"/><line x1="655" y1="224" x2="577" y2="202" stroke="#ECE9E2" stroke-opacity="0.20" stroke-width="0.8"/><line x1="655" y1="224" x2="583" y2="277" stroke="#ECE9E2" stroke-opacity="0.16" stroke-width="0.8"/><line x1="655" y1="224" x2="561" y2="275" stroke="#ECE9E2" stroke-opacity="0.06" stroke-width="0.8"/><line x1="1075" y1="207" x2="1067" y2="263" stroke="#ECE9E2" stroke-opacity="0.31" stroke-width="0.8"/><line x1="1075" y1="207" x2="1135" y2="285" stroke="#ECE9E2" stroke-opacity="0.11" stroke-width="0.8"/><line x1="1075" y1="207" x2="998" y2="237" stroke="#ECE9E2" stroke-opacity="0.20" stroke-width="0.8"/><line x1="685" y1="107" x2="620" y2="115" stroke="#ECE9E2" stroke-opacity="0.27" stroke-width="0.8"/><line x1="685" y1="107" x2="760" y2="180" stroke="#ECE9E2" stroke-opacity="0.07" stroke-width="0.8"/><line x1="762" y1="588" x2="794" y2="518" stroke="#ECE9E2" stroke-opacity="0.23" stroke-width="0.8"/><line x1="762" y1="588" x2="750" y2="617" stroke="#ECE9E2" stroke-opacity="0.37" stroke-width="0.8"/><line x1="762" y1="588" x2="777" y2="605" stroke="#ECE9E2" stroke-opacity="0.38" stroke-width="0.8"/><line x1="762" y1="588" x2="847" y2="576" stroke="#ECE9E2" stroke-opacity="0.18" stroke-width="0.8"/><line x1="762" y1="588" x2="705" y2="677" stroke="#ECE9E2" stroke-opacity="0.07" stroke-width="0.8"/><line x1="762" y1="588" x2="816" y2="512" stroke="#ECE9E2" stroke-opacity="0.14" stroke-width="0.8"/><line x1="762" y1="588" x2="838" y2="551" stroke="#ECE9E2" stroke-opacity="0.19" stroke-width="0.8"/><line x1="762" y1="588" x2="802" y2="550" stroke="#ECE9E2" stroke-opacity="0.31" stroke-width="0.8"/><line x1="367" y1="407" x2="327" y2="313" stroke="#ECE9E2" stroke-opacity="0.09" stroke-width="0.8"/><line x1="367" y1="407" x2="407" y2="448" stroke="#ECE9E2" stroke-opacity="0.30" stroke-width="0.8"/><line x1="367" y1="407" x2="427" y2="428" stroke="#ECE9E2" stroke-opacity="0.28" stroke-width="0.8"/><line x1="616" y1="657" x2="705" y2="677" stroke="#ECE9E2" stroke-opacity="0.15" stroke-width="0.8"/><line x1="620" y1="115" x2="577" y2="202" stroke="#ECE9E2" stroke-opacity="0.12" stroke-width="0.8"/><line x1="620" y1="115" x2="514" y2="128" stroke="#ECE9E2" stroke-opacity="0.06" stroke-width="0.8"/><line x1="634" y1="359" x2="690" y2="407" stroke="#ECE9E2" stroke-opacity="0.24" stroke-width="0.8"/><line x1="634" y1="359" x2="682" y2="389" stroke="#ECE9E2" stroke-opacity="0.31" stroke-width="0.8"/><line x1="634" y1="359" x2="583" y2="277" stroke="#ECE9E2" stroke-opacity="0.12" stroke-width="0.8"/><line x1="634" y1="359" x2="572" y2="336" stroke="#ECE9E2" stroke-opacity="0.27" stroke-width="0.8"/><line x1="634" y1="359" x2="548" y2="350" stroke="#ECE9E2" stroke-opacity="0.17" stroke-width="0.8"/><line x1="757" y1="387" x2="861" y2="355" stroke="#ECE9E2" stroke-opacity="0.04" stroke-width="0.8"/><line x1="757" y1="387" x2="809" y2="446" stroke="#ECE9E2" stroke-opacity="0.21" stroke-width="0.8"/><line x1="757" y1="387" x2="736" y2="467" stroke="#ECE9E2" stroke-opacity="0.20" stroke-width="0.8"/><line x1="757" y1="387" x2="690" y2="407" stroke="#ECE9E2" stroke-opacity="0.26" stroke-width="0.8"/><line x1="757" y1="387" x2="682" y2="389" stroke="#ECE9E2" stroke-opacity="0.23" stroke-width="0.8"/><line x1="757" y1="387" x2="776" y2="360" stroke="#ECE9E2" stroke-opacity="0.37" stroke-width="0.8"/><line x1="757" y1="387" x2="757" y2="427" stroke="#ECE9E2" stroke-opacity="0.35" stroke-width="0.8"/><line x1="102" y1="639" x2="169" y2="595" stroke="#ECE9E2" stroke-opacity="0.21" stroke-width="0.8"/><line x1="1067" y1="263" x2="1082" y2="357" stroke="#ECE9E2" stroke-opacity="0.13" stroke-width="0.8"/><line x1="1067" y1="263" x2="1135" y2="285" stroke="#ECE9E2" stroke-opacity="0.25" stroke-width="0.8"/><line x1="1067" y1="263" x2="998" y2="237" stroke="#ECE9E2" stroke-opacity="0.24" stroke-width="0.8"/><line x1="420" y1="227" x2="518" y2="205" stroke="#ECE9E2" stroke-opacity="0.10" stroke-width="0.8"/><line x1="327" y1="313" x2="306" y2="304" stroke="#ECE9E2" stroke-opacity="0.38" stroke-width="0.8"/><line x1="425" y1="553" x2="407" y2="448" stroke="#ECE9E2" stroke-opacity="0.06" stroke-width="0.8"/><line x1="425" y1="553" x2="498" y2="629" stroke="#ECE9E2" stroke-opacity="0.07" stroke-width="0.8"/><line x1="425" y1="553" x2="350" y2="595" stroke="#ECE9E2" stroke-opacity="0.18" stroke-width="0.8"/><line x1="425" y1="553" x2="465" y2="492" stroke="#ECE9E2" stroke-opacity="0.24" stroke-width="0.8"/><line x1="425" y1="553" x2="397" y2="538" stroke="#ECE9E2" stroke-opacity="0.37" stroke-width="0.8"/><line x1="425" y1="553" x2="511" y2="596" stroke="#ECE9E2" stroke-opacity="0.13" stroke-width="0.8"/><line x1="425" y1="553" x2="445" y2="635" stroke="#ECE9E2" stroke-opacity="0.19" stroke-width="0.8"/><line x1="407" y1="448" x2="427" y2="428" stroke="#ECE9E2" stroke-opacity="0.38" stroke-width="0.8"/><line x1="407" y1="448" x2="465" y2="492" stroke="#ECE9E2" stroke-opacity="0.24" stroke-width="0.8"/><line x1="407" y1="448" x2="397" y2="538" stroke="#ECE9E2" stroke-opacity="0.16" stroke-width="0.8"/><line x1="861" y1="355" x2="809" y2="446" stroke="#ECE9E2" stroke-opacity="0.07" stroke-width="0.8"/><line x1="861" y1="355" x2="808" y2="277" stroke="#ECE9E2" stroke-opacity="0.13" stroke-width="0.8"/><line x1="861" y1="355" x2="832" y2="306" stroke="#ECE9E2" stroke-opacity="0.30" stroke-width="0.8"/><line x1="861" y1="355" x2="826" y2="268" stroke="#ECE9E2" stroke-opacity="0.14" stroke-width="0.8"/><line x1="861" y1="355" x2="776" y2="360" stroke="#ECE9E2" stroke-opacity="0.18" stroke-width="0.8"/><line x1="861" y1="355" x2="897" y2="430" stroke="#ECE9E2" stroke-opacity="0.19" stroke-width="0.8"/><line x1="861" y1="355" x2="918" y2="297" stroke="#ECE9E2" stroke-opacity="0.21" stroke-width="0.8"/><line x1="498" y1="629" x2="511" y2="596" stroke="#ECE9E2" stroke-opacity="0.36" stroke-width="0.8"/><line x1="498" y1="629" x2="445" y2="635" stroke="#ECE9E2" stroke-opacity="0.32" stroke-width="0.8"/><line x1="897" y1="721" x2="919" y2="651" stroke="#ECE9E2" stroke-opacity="0.24" stroke-width="0.8"/><line x1="897" y1="721" x2="903" y2="682" stroke="#ECE9E2" stroke-opacity="0.35" stroke-width="0.8"/><line x1="897" y1="721" x2="960" y2="632" stroke="#ECE9E2" stroke-opacity="0.05" stroke-width="0.8"/><line x1="809" y1="446" x2="736" y2="467" stroke="#ECE9E2" stroke-opacity="0.23" stroke-width="0.8"/><line x1="809" y1="446" x2="794" y2="518" stroke="#ECE9E2" stroke-opacity="0.24" stroke-width="0.8"/><line x1="809" y1="446" x2="776" y2="360" stroke="#ECE9E2" stroke-opacity="0.14" stroke-width="0.8"/><line x1="809" y1="446" x2="897" y2="430" stroke="#ECE9E2" stroke-opacity="0.16" stroke-width="0.8"/><line x1="809" y1="446" x2="816" y2="512" stroke="#ECE9E2" stroke-opacity="0.27" stroke-width="0.8"/><line x1="809" y1="446" x2="838" y2="551" stroke="#ECE9E2" stroke-opacity="0.05" stroke-width="0.8"/><line x1="809" y1="446" x2="757" y2="427" stroke="#ECE9E2" stroke-opacity="0.31" stroke-width="0.8"/><line x1="809" y1="446" x2="802" y2="550" stroke="#ECE9E2" stroke-opacity="0.08" stroke-width="0.8"/><line x1="736" y1="467" x2="690" y2="407" stroke="#ECE9E2" stroke-opacity="0.23" stroke-width="0.8"/><line x1="736" y1="467" x2="794" y2="518" stroke="#ECE9E2" stroke-opacity="0.22" stroke-width="0.8"/><line x1="736" y1="467" x2="682" y2="389" stroke="#ECE9E2" stroke-opacity="0.13" stroke-width="0.8"/><line x1="736" y1="467" x2="816" y2="512" stroke="#ECE9E2" stroke-opacity="0.15" stroke-width="0.8"/><line x1="736" y1="467" x2="757" y2="427" stroke="#ECE9E2" stroke-opacity="0.34" stroke-width="0.8"/><line x1="736" y1="467" x2="802" y2="550" stroke="#ECE9E2" stroke-opacity="0.07" stroke-width="0.8"/><line x1="690" y1="407" x2="682" y2="389" stroke="#ECE9E2" stroke-opacity="0.39" stroke-width="0.8"/><line x1="690" y1="407" x2="776" y2="360" stroke="#ECE9E2" stroke-opacity="0.12" stroke-width="0.8"/><line x1="690" y1="407" x2="757" y2="427" stroke="#ECE9E2" stroke-opacity="0.25" stroke-width="0.8"/><line x1="794" y1="518" x2="750" y2="617" stroke="#ECE9E2" stroke-opacity="0.05" stroke-width="0.8"/><line x1="794" y1="518" x2="777" y2="605" stroke="#ECE9E2" stroke-opacity="0.17" stroke-width="0.8"/><line x1="794" y1="518" x2="847" y2="576" stroke="#ECE9E2" stroke-opacity="0.22" stroke-width="0.8"/><line x1="794" y1="518" x2="881" y2="544" stroke="#ECE9E2" stroke-opacity="0.15" stroke-width="0.8"/><line x1="794" y1="518" x2="816" y2="512" stroke="#ECE9E2" stroke-opacity="0.38" stroke-width="0.8"/><line x1="794" y1="518" x2="838" y2="551" stroke="#ECE9E2" stroke-opacity="0.31" stroke-width="0.8"/><line x1="794" y1="518" x2="757" y2="427" stroke="#ECE9E2" stroke-opacity="0.11" stroke-width="0.8"/><line x1="794" y1="518" x2="802" y2="550" stroke="#ECE9E2" stroke-opacity="0.37" stroke-width="0.8"/><line x1="682" y1="389" x2="776" y2="360" stroke="#ECE9E2" stroke-opacity="0.11" stroke-width="0.8"/><line x1="682" y1="389" x2="757" y2="427" stroke="#ECE9E2" stroke-opacity="0.19" stroke-width="0.8"/><line x1="577" y1="202" x2="583" y2="277" stroke="#ECE9E2" stroke-opacity="0.23" stroke-width="0.8"/><line x1="577" y1="202" x2="518" y2="205" stroke="#ECE9E2" stroke-opacity="0.29" stroke-width="0.8"/><line x1="577" y1="202" x2="514" y2="128" stroke="#ECE9E2" stroke-opacity="0.12" stroke-width="0.8"/><line x1="577" y1="202" x2="561" y2="275" stroke="#ECE9E2" stroke-opacity="0.23" stroke-width="0.8"/><line x1="808" y1="277" x2="832" y2="306" stroke="#ECE9E2" stroke-opacity="0.36" stroke-width="0.8"/><line x1="808" y1="277" x2="826" y2="268" stroke="#ECE9E2" stroke-opacity="0.39" stroke-width="0.8"/><line x1="808" y1="277" x2="776" y2="360" stroke="#ECE9E2" stroke-opacity="0.17" stroke-width="0.8"/><line x1="808" y1="277" x2="773" y2="263" stroke="#ECE9E2" stroke-opacity="0.36" stroke-width="0.8"/><line x1="808" y1="277" x2="760" y2="180" stroke="#ECE9E2" stroke-opacity="0.06" stroke-width="0.8"/><line x1="808" y1="277" x2="789" y2="244" stroke="#ECE9E2" stroke-opacity="0.36" stroke-width="0.8"/><line x1="808" y1="277" x2="780" y2="188" stroke="#ECE9E2" stroke-opacity="0.14" stroke-width="0.8"/><line x1="69" y1="279" x2="107" y2="382" stroke="#ECE9E2" stroke-opacity="0.04" stroke-width="0.8"/><line x1="832" y1="306" x2="826" y2="268" stroke="#ECE9E2" stroke-opacity="0.36" stroke-width="0.8"/><line x1="832" y1="306" x2="776" y2="360" stroke="#ECE9E2" stroke-opacity="0.22" stroke-width="0.8"/><line x1="832" y1="306" x2="773" y2="263" stroke="#ECE9E2" stroke-opacity="0.24" stroke-width="0.8"/><line x1="832" y1="306" x2="789" y2="244" stroke="#ECE9E2" stroke-opacity="0.23" stroke-width="0.8"/><line x1="832" y1="306" x2="918" y2="297" stroke="#ECE9E2" stroke-opacity="0.18" stroke-width="0.8"/><line x1="826" y1="268" x2="776" y2="360" stroke="#ECE9E2" stroke-opacity="0.07" stroke-width="0.8"/><line x1="826" y1="268" x2="773" y2="263" stroke="#ECE9E2" stroke-opacity="0.31" stroke-width="0.8"/><line x1="826" y1="268" x2="760" y2="180" stroke="#ECE9E2" stroke-opacity="0.04" stroke-width="0.8"/><line x1="826" y1="268" x2="789" y2="244" stroke="#ECE9E2" stroke-opacity="0.34" stroke-width="0.8"/><line x1="826" y1="268" x2="780" y2="188" stroke="#ECE9E2" stroke-opacity="0.15" stroke-width="0.8"/><line x1="826" y1="268" x2="918" y2="297" stroke="#ECE9E2" stroke-opacity="0.12" stroke-width="0.8"/><line x1="107" y1="382" x2="181" y2="393" stroke="#ECE9E2" stroke-opacity="0.23" stroke-width="0.8"/><line x1="30" y1="478" x2="-56" y2="529" stroke="#ECE9E2" stroke-opacity="0.11" stroke-width="0.8"/><line x1="750" y1="617" x2="777" y2="605" stroke="#ECE9E2" stroke-opacity="0.37" stroke-width="0.8"/><line x1="750" y1="617" x2="847" y2="576" stroke="#ECE9E2" stroke-opacity="0.07" stroke-width="0.8"/><line x1="750" y1="617" x2="705" y2="677" stroke="#ECE9E2" stroke-opacity="0.23" stroke-width="0.8"/><line x1="750" y1="617" x2="838" y2="551" stroke="#ECE9E2" stroke-opacity="0.04" stroke-width="0.8"/><line x1="750" y1="617" x2="802" y2="550" stroke="#ECE9E2" stroke-opacity="0.19" stroke-width="0.8"/><line x1="777" y1="605" x2="847" y2="576" stroke="#ECE9E2" stroke-opacity="0.23" stroke-width="0.8"/><line x1="777" y1="605" x2="705" y2="677" stroke="#ECE9E2" stroke-opacity="0.09" stroke-width="0.8"/><line x1="777" y1="605" x2="816" y2="512" stroke="#ECE9E2" stroke-opacity="0.10" stroke-width="0.8"/><line x1="777" y1="605" x2="838" y2="551" stroke="#ECE9E2" stroke-opacity="0.20" stroke-width="0.8"/><line x1="777" y1="605" x2="802" y2="550" stroke="#ECE9E2" stroke-opacity="0.29" stroke-width="0.8"/><line x1="427" y1="428" x2="465" y2="492" stroke="#ECE9E2" stroke-opacity="0.24" stroke-width="0.8"/><line x1="847" y1="576" x2="881" y2="544" stroke="#ECE9E2" stroke-opacity="0.33" stroke-width="0.8"/><line x1="847" y1="576" x2="921" y2="582" stroke="#ECE9E2" stroke-opacity="0.23" stroke-width="0.8"/><line x1="847" y1="576" x2="919" y2="651" stroke="#ECE9E2" stroke-opacity="0.08" stroke-width="0.8"/><line x1="847" y1="576" x2="816" y2="512" stroke="#ECE9E2" stroke-opacity="0.25" stroke-width="0.8"/><line x1="847" y1="576" x2="838" y2="551" stroke="#ECE9E2" stroke-opacity="0.38" stroke-width="0.8"/><line x1="847" y1="576" x2="802" y2="550" stroke="#ECE9E2" stroke-opacity="0.32" stroke-width="0.8"/><line x1="1030" y1="606" x2="960" y2="632" stroke="#ECE9E2" stroke-opacity="0.24" stroke-width="0.8"/><line x1="1030" y1="606" x2="1078" y2="630" stroke="#ECE9E2" stroke-opacity="0.31" stroke-width="0.8"/><line x1="1030" y1="606" x2="961" y2="589" stroke="#ECE9E2" stroke-opacity="0.25" stroke-width="0.8"/><line x1="350" y1="595" x2="397" y2="538" stroke="#ECE9E2" stroke-opacity="0.23" stroke-width="0.8"/><line x1="350" y1="595" x2="261" y2="613" stroke="#ECE9E2" stroke-opacity="0.16" stroke-width="0.8"/><line x1="350" y1="595" x2="445" y2="635" stroke="#ECE9E2" stroke-opacity="0.08" stroke-width="0.8"/><line x1="350" y1="595" x2="306" y2="648" stroke="#ECE9E2" stroke-opacity="0.26" stroke-width="0.8"/><line x1="350" y1="595" x2="301" y2="549" stroke="#ECE9E2" stroke-opacity="0.27" stroke-width="0.8"/><line x1="881" y1="544" x2="921" y2="582" stroke="#ECE9E2" stroke-opacity="0.31" stroke-width="0.8"/><line x1="881" y1="544" x2="816" y2="512" stroke="#ECE9E2" stroke-opacity="0.24" stroke-width="0.8"/><line x1="881" y1="544" x2="838" y2="551" stroke="#ECE9E2" stroke-opacity="0.34" stroke-width="0.8"/><line x1="881" y1="544" x2="961" y2="589" stroke="#ECE9E2" stroke-opacity="0.15" stroke-width="0.8"/><line x1="881" y1="544" x2="802" y2="550" stroke="#ECE9E2" stroke-opacity="0.21" stroke-width="0.8"/><line x1="306" y1="304" x2="247" y2="396" stroke="#ECE9E2" stroke-opacity="0.04" stroke-width="0.8"/><line x1="583" y1="277" x2="572" y2="336" stroke="#ECE9E2" stroke-opacity="0.29" stroke-width="0.8"/><line x1="583" y1="277" x2="548" y2="350" stroke="#ECE9E2" stroke-opacity="0.20" stroke-width="0.8"/><line x1="583" y1="277" x2="518" y2="205" stroke="#ECE9E2" stroke-opacity="0.12" stroke-width="0.8"/><line x1="583" y1="277" x2="561" y2="275" stroke="#ECE9E2" stroke-opacity="0.38" stroke-width="0.8"/><line x1="940" y1="219" x2="998" y2="237" stroke="#ECE9E2" stroke-opacity="0.29" stroke-width="0.8"/><line x1="940" y1="219" x2="918" y2="297" stroke="#ECE9E2" stroke-opacity="0.20" stroke-width="0.8"/><line x1="572" y1="336" x2="548" y2="350" stroke="#ECE9E2" stroke-opacity="0.38" stroke-width="0.8"/><line x1="572" y1="336" x2="561" y2="275" stroke="#ECE9E2" stroke-opacity="0.29" stroke-width="0.8"/><line x1="208" y1="430" x2="247" y2="396" stroke="#ECE9E2" stroke-opacity="0.32" stroke-width="0.8"/><line x1="208" y1="430" x2="181" y2="393" stroke="#ECE9E2" stroke-opacity="0.34" stroke-width="0.8"/><line x1="548" y1="350" x2="561" y2="275" stroke="#ECE9E2" stroke-opacity="0.23" stroke-width="0.8"/><line x1="921" y1="582" x2="919" y2="651" stroke="#ECE9E2" stroke-opacity="0.26" stroke-width="0.8"/><line x1="921" y1="582" x2="903" y2="682" stroke="#ECE9E2" stroke-opacity="0.10" stroke-width="0.8"/><line x1="921" y1="582" x2="960" y2="632" stroke="#ECE9E2" stroke-opacity="0.28" stroke-width="0.8"/><line x1="921" y1="582" x2="838" y2="551" stroke="#ECE9E2" stroke-opacity="0.16" stroke-width="0.8"/><line x1="921" y1="582" x2="961" y2="589" stroke="#ECE9E2" stroke-opacity="0.35" stroke-width="0.8"/><line x1="1082" y1="357" x2="1135" y2="285" stroke="#ECE9E2" stroke-opacity="0.16" stroke-width="0.8"/><line x1="1082" y1="357" x2="1041" y2="405" stroke="#ECE9E2" stroke-opacity="0.28" stroke-width="0.8"/><line x1="1082" y1="357" x2="1129" y2="436" stroke="#ECE9E2" stroke-opacity="0.15" stroke-width="0.8"/><line x1="465" y1="492" x2="397" y2="538" stroke="#ECE9E2" stroke-opacity="0.20" stroke-width="0.8"/><line x1="1041" y1="405" x2="946" y2="425" stroke="#ECE9E2" stroke-opacity="0.12" stroke-width="0.8"/><line x1="1041" y1="405" x2="1129" y2="436" stroke="#ECE9E2" stroke-opacity="0.14" stroke-width="0.8"/><line x1="705" y1="677" x2="748" y2="771" stroke="#ECE9E2" stroke-opacity="0.08" stroke-width="0.8"/><line x1="919" y1="651" x2="903" y2="682" stroke="#ECE9E2" stroke-opacity="0.36" stroke-width="0.8"/><line x1="919" y1="651" x2="960" y2="632" stroke="#ECE9E2" stroke-opacity="0.34" stroke-width="0.8"/><line x1="919" y1="651" x2="961" y2="589" stroke="#ECE9E2" stroke-opacity="0.23" stroke-width="0.8"/><line x1="441" y1="94" x2="514" y2="128" stroke="#ECE9E2" stroke-opacity="0.21" stroke-width="0.8"/><line x1="903" y1="682" x2="960" y2="632" stroke="#ECE9E2" stroke-opacity="0.23" stroke-width="0.8"/><line x1="903" y1="682" x2="961" y2="589" stroke="#ECE9E2" stroke-opacity="0.04" stroke-width="0.8"/><line x1="397" y1="538" x2="445" y2="635" stroke="#ECE9E2" stroke-opacity="0.05" stroke-width="0.8"/><line x1="397" y1="538" x2="301" y2="549" stroke="#ECE9E2" stroke-opacity="0.12" stroke-width="0.8"/><line x1="511" y1="596" x2="445" y2="635" stroke="#ECE9E2" stroke-opacity="0.22" stroke-width="0.8"/><line x1="261" y1="613" x2="230" y2="605" stroke="#ECE9E2" stroke-opacity="0.37" stroke-width="0.8"/><line x1="261" y1="613" x2="306" y2="648" stroke="#ECE9E2" stroke-opacity="0.30" stroke-width="0.8"/><line x1="261" y1="613" x2="169" y2="595" stroke="#ECE9E2" stroke-opacity="0.14" stroke-width="0.8"/><line x1="261" y1="613" x2="301" y2="549" stroke="#ECE9E2" stroke-opacity="0.23" stroke-width="0.8"/><line x1="230" y1="605" x2="306" y2="648" stroke="#ECE9E2" stroke-opacity="0.17" stroke-width="0.8"/><line x1="230" y1="605" x2="169" y2="595" stroke="#ECE9E2" stroke-opacity="0.29" stroke-width="0.8"/><line x1="230" y1="605" x2="301" y2="549" stroke="#ECE9E2" stroke-opacity="0.15" stroke-width="0.8"/><line x1="306" y1="648" x2="301" y2="549" stroke="#ECE9E2" stroke-opacity="0.11" stroke-width="0.8"/><line x1="776" y1="360" x2="773" y2="263" stroke="#ECE9E2" stroke-opacity="0.12" stroke-width="0.8"/><line x1="776" y1="360" x2="757" y2="427" stroke="#ECE9E2" stroke-opacity="0.25" stroke-width="0.8"/><line x1="998" y1="237" x2="918" y2="297" stroke="#ECE9E2" stroke-opacity="0.10" stroke-width="0.8"/><line x1="518" y1="205" x2="514" y2="128" stroke="#ECE9E2" stroke-opacity="0.22" stroke-width="0.8"/><line x1="518" y1="205" x2="561" y2="275" stroke="#ECE9E2" stroke-opacity="0.20" stroke-width="0.8"/><line x1="946" y1="425" x2="897" y2="430" stroke="#ECE9E2" stroke-opacity="0.33" stroke-width="0.8"/><line x1="960" y1="632" x2="961" y2="589" stroke="#ECE9E2" stroke-opacity="0.34" stroke-width="0.8"/><line x1="816" y1="512" x2="838" y2="551" stroke="#ECE9E2" stroke-opacity="0.34" stroke-width="0.8"/><line x1="816" y1="512" x2="757" y2="427" stroke="#ECE9E2" stroke-opacity="0.08" stroke-width="0.8"/><line x1="816" y1="512" x2="802" y2="550" stroke="#ECE9E2" stroke-opacity="0.35" stroke-width="0.8"/><line x1="773" y1="263" x2="760" y2="180" stroke="#ECE9E2" stroke-opacity="0.19" stroke-width="0.8"/><line x1="773" y1="263" x2="789" y2="244" stroke="#ECE9E2" stroke-opacity="0.38" stroke-width="0.8"/><line x1="773" y1="263" x2="780" y2="188" stroke="#ECE9E2" stroke-opacity="0.23" stroke-width="0.8"/><line x1="838" y1="551" x2="802" y2="550" stroke="#ECE9E2" stroke-opacity="0.36" stroke-width="0.8"/><line x1="760" y1="180" x2="789" y2="244" stroke="#ECE9E2" stroke-opacity="0.25" stroke-width="0.8"/><line x1="760" y1="180" x2="780" y2="188" stroke="#ECE9E2" stroke-opacity="0.39" stroke-width="0.8"/><line x1="789" y1="244" x2="780" y2="188" stroke="#ECE9E2" stroke-opacity="0.30" stroke-width="0.8"/><line x1="247" y1="396" x2="181" y2="393" stroke="#ECE9E2" stroke-opacity="0.27" stroke-width="0.8"/><circle cx="784" cy="625" r="5.0" fill="#8B7CFF" fill-opacity="1.00"/><circle cx="784" cy="625" r="14" stroke="#8B7CFF" stroke-opacity="0.5" stroke-width="1"/><circle cx="348" cy="374" r="2.2" fill="#ECE9E2" fill-opacity="0.76"/><circle cx="372" cy="648" r="1.4" fill="#ECE9E2" fill-opacity="0.63"/><circle cx="353" cy="359" r="2.2" fill="#ECE9E2" fill-opacity="0.48"/><circle cx="344" cy="550" r="2.5" fill="#ECE9E2" fill-opacity="0.55"/><circle cx="465" cy="240" r="1.5" fill="#ECE9E2" fill-opacity="0.47"/><circle cx="370" cy="188" r="1.4" fill="#ECE9E2" fill-opacity="0.76"/><circle cx="747" cy="306" r="1.3" fill="#ECE9E2" fill-opacity="0.50"/><circle cx="701" cy="842" r="1.8" fill="#ECE9E2" fill-opacity="0.81"/><circle cx="804" cy="438" r="2.2" fill="#ECE9E2" fill-opacity="0.50"/><circle cx="1098" cy="281" r="1.9" fill="#ECE9E2" fill-opacity="0.65"/><circle cx="141" cy="427" r="1.7" fill="#ECE9E2" fill-opacity="0.62"/><circle cx="723" cy="629" r="2.1" fill="#ECE9E2" fill-opacity="0.50"/><circle cx="625" cy="340" r="2.5" fill="#ECE9E2" fill-opacity="0.48"/><circle cx="886" cy="535" r="1.5" fill="#ECE9E2" fill-opacity="0.78"/><circle cx="633" cy="750" r="2.4" fill="#ECE9E2" fill-opacity="0.56"/><circle cx="872" cy="852" r="1.7" fill="#ECE9E2" fill-opacity="0.66"/><circle cx="731" cy="213" r="5.0" fill="#8B7CFF" fill-opacity="1.00"/><circle cx="731" cy="213" r="14" stroke="#8B7CFF" stroke-opacity="0.5" stroke-width="1"/><circle cx="773" cy="266" r="2.6" fill="#ECE9E2" fill-opacity="0.83"/><circle cx="913" cy="125" r="2.0" fill="#ECE9E2" fill-opacity="0.67"/><circle cx="390" cy="685" r="1.8" fill="#ECE9E2" fill-opacity="0.76"/><circle cx="303" cy="227" r="2.1" fill="#ECE9E2" fill-opacity="0.82"/><circle cx="151" cy="443" r="2.5" fill="#ECE9E2" fill-opacity="0.42"/><circle cx="794" cy="608" r="2.2" fill="#ECE9E2" fill-opacity="0.50"/><circle cx="804" cy="771" r="2.5" fill="#ECE9E2" fill-opacity="0.78"/><circle cx="250" cy="225" r="1.3" fill="#ECE9E2" fill-opacity="0.68"/><circle cx="973" cy="244" r="2.3" fill="#ECE9E2" fill-opacity="0.89"/><circle cx="655" cy="224" r="1.7" fill="#ECE9E2" fill-opacity="0.82"/><circle cx="1075" cy="207" r="1.4" fill="#ECE9E2" fill-opacity="0.62"/><circle cx="685" cy="107" r="2.2" fill="#ECE9E2" fill-opacity="0.69"/><circle cx="762" cy="588" r="1.7" fill="#ECE9E2" fill-opacity="0.60"/><circle cx="367" cy="407" r="2.2" fill="#ECE9E2" fill-opacity="0.56"/><circle cx="258" cy="197" r="1.7" fill="#ECE9E2" fill-opacity="0.63"/><circle cx="616" cy="657" r="2.0" fill="#ECE9E2" fill-opacity="0.63"/><circle cx="620" cy="115" r="5.0" fill="#8B7CFF" fill-opacity="1.00"/><circle cx="620" cy="115" r="14" stroke="#8B7CFF" stroke-opacity="0.5" stroke-width="1"/><circle cx="1171" cy="545" r="1.7" fill="#ECE9E2" fill-opacity="0.57"/><circle cx="588" cy="860" r="1.5" fill="#ECE9E2" fill-opacity="0.54"/><circle cx="634" cy="359" r="1.5" fill="#ECE9E2" fill-opacity="0.89"/><circle cx="757" cy="387" r="1.7" fill="#ECE9E2" fill-opacity="0.77"/><circle cx="102" cy="639" r="2.3" fill="#ECE9E2" fill-opacity="0.50"/><circle cx="1067" cy="263" r="2.3" fill="#ECE9E2" fill-opacity="0.48"/><circle cx="420" cy="227" r="1.3" fill="#ECE9E2" fill-opacity="0.74"/><circle cx="327" cy="313" r="2.2" fill="#ECE9E2" fill-opacity="0.57"/><circle cx="425" cy="553" r="1.5" fill="#ECE9E2" fill-opacity="0.73"/><circle cx="407" cy="448" r="1.3" fill="#ECE9E2" fill-opacity="0.55"/><circle cx="861" cy="355" r="1.2" fill="#ECE9E2" fill-opacity="0.79"/><circle cx="498" cy="629" r="2.0" fill="#ECE9E2" fill-opacity="0.79"/><circle cx="897" cy="721" r="1.8" fill="#ECE9E2" fill-opacity="0.64"/><circle cx="809" cy="446" r="2.1" fill="#ECE9E2" fill-opacity="0.62"/><circle cx="736" cy="467" r="2.1" fill="#ECE9E2" fill-opacity="0.85"/><circle cx="690" cy="407" r="5.0" fill="#8B7CFF" fill-opacity="1.00"/><circle cx="690" cy="407" r="14" stroke="#8B7CFF" stroke-opacity="0.5" stroke-width="1"/><circle cx="794" cy="518" r="2.1" fill="#ECE9E2" fill-opacity="0.60"/><circle cx="682" cy="389" r="2.1" fill="#ECE9E2" fill-opacity="0.67"/><circle cx="577" cy="202" r="1.8" fill="#ECE9E2" fill-opacity="0.42"/><circle cx="808" cy="277" r="1.9" fill="#ECE9E2" fill-opacity="0.54"/><circle cx="69" cy="279" r="1.3" fill="#ECE9E2" fill-opacity="0.76"/><circle cx="832" cy="306" r="1.2" fill="#ECE9E2" fill-opacity="0.78"/><circle cx="826" cy="268" r="2.4" fill="#ECE9E2" fill-opacity="0.66"/><circle cx="1209" cy="184" r="2.4" fill="#ECE9E2" fill-opacity="0.70"/><circle cx="107" cy="382" r="2.2" fill="#ECE9E2" fill-opacity="0.52"/><circle cx="30" cy="478" r="2.2" fill="#ECE9E2" fill-opacity="0.73"/><circle cx="858" cy="-4" r="1.6" fill="#ECE9E2" fill-opacity="0.43"/><circle cx="750" cy="617" r="2.1" fill="#ECE9E2" fill-opacity="0.71"/><circle cx="777" cy="605" r="1.3" fill="#ECE9E2" fill-opacity="0.56"/><circle cx="427" cy="428" r="2.1" fill="#ECE9E2" fill-opacity="0.47"/><circle cx="847" cy="576" r="1.5" fill="#ECE9E2" fill-opacity="0.68"/><circle cx="1030" cy="606" r="2.2" fill="#ECE9E2" fill-opacity="0.68"/><circle cx="350" cy="595" r="5.0" fill="#8B7CFF" fill-opacity="1.00"/><circle cx="350" cy="595" r="14" stroke="#8B7CFF" stroke-opacity="0.5" stroke-width="1"/><circle cx="881" cy="544" r="1.7" fill="#ECE9E2" fill-opacity="0.71"/><circle cx="306" cy="304" r="2.0" fill="#ECE9E2" fill-opacity="0.55"/><circle cx="583" cy="277" r="1.4" fill="#ECE9E2" fill-opacity="0.87"/><circle cx="940" cy="219" r="1.8" fill="#ECE9E2" fill-opacity="0.66"/><circle cx="572" cy="336" r="1.8" fill="#ECE9E2" fill-opacity="0.88"/><circle cx="208" cy="430" r="1.9" fill="#ECE9E2" fill-opacity="0.86"/><circle cx="548" cy="350" r="2.0" fill="#ECE9E2" fill-opacity="0.48"/><circle cx="921" cy="582" r="2.0" fill="#ECE9E2" fill-opacity="0.46"/><circle cx="1082" cy="357" r="2.0" fill="#ECE9E2" fill-opacity="0.88"/><circle cx="1135" cy="285" r="2.1" fill="#ECE9E2" fill-opacity="0.52"/><circle cx="465" cy="492" r="1.9" fill="#ECE9E2" fill-opacity="0.51"/><circle cx="1041" cy="405" r="2.2" fill="#ECE9E2" fill-opacity="0.68"/><circle cx="705" cy="677" r="1.3" fill="#ECE9E2" fill-opacity="0.55"/><circle cx="919" cy="651" r="2.2" fill="#ECE9E2" fill-opacity="0.88"/><circle cx="441" cy="94" r="1.9" fill="#ECE9E2" fill-opacity="0.55"/><circle cx="903" cy="682" r="5.0" fill="#8B7CFF" fill-opacity="1.00"/><circle cx="903" cy="682" r="14" stroke="#8B7CFF" stroke-opacity="0.5" stroke-width="1"/><circle cx="397" cy="538" r="1.3" fill="#ECE9E2" fill-opacity="0.55"/><circle cx="748" cy="771" r="2.5" fill="#ECE9E2" fill-opacity="0.46"/><circle cx="511" cy="596" r="2.2" fill="#ECE9E2" fill-opacity="0.46"/><circle cx="261" cy="613" r="2.0" fill="#ECE9E2" fill-opacity="0.68"/><circle cx="445" cy="635" r="1.4" fill="#ECE9E2" fill-opacity="0.54"/><circle cx="230" cy="605" r="2.6" fill="#ECE9E2" fill-opacity="0.60"/><circle cx="306" cy="648" r="2.1" fill="#ECE9E2" fill-opacity="0.58"/><circle cx="776" cy="360" r="2.6" fill="#ECE9E2" fill-opacity="0.77"/><circle cx="998" cy="237" r="1.4" fill="#ECE9E2" fill-opacity="0.57"/><circle cx="518" cy="205" r="2.5" fill="#ECE9E2" fill-opacity="0.63"/><circle cx="946" cy="425" r="1.7" fill="#ECE9E2" fill-opacity="0.51"/><circle cx="897" cy="430" r="2.4" fill="#ECE9E2" fill-opacity="0.69"/><circle cx="960" cy="632" r="1.3" fill="#ECE9E2" fill-opacity="0.66"/><circle cx="816" cy="512" r="2.5" fill="#ECE9E2" fill-opacity="0.88"/><circle cx="169" cy="595" r="2.1" fill="#ECE9E2" fill-opacity="0.75"/><circle cx="514" cy="128" r="2.0" fill="#ECE9E2" fill-opacity="0.72"/><circle cx="773" cy="263" r="5.0" fill="#8B7CFF" fill-opacity="1.00"/><circle cx="773" cy="263" r="14" stroke="#8B7CFF" stroke-opacity="0.5" stroke-width="1"/><circle cx="838" cy="551" r="2.0" fill="#ECE9E2" fill-opacity="0.52"/><circle cx="1078" cy="630" r="1.3" fill="#ECE9E2" fill-opacity="0.83"/><circle cx="1007" cy="24" r="2.6" fill="#ECE9E2" fill-opacity="0.46"/><circle cx="757" cy="427" r="1.8" fill="#ECE9E2" fill-opacity="0.58"/><circle cx="760" cy="180" r="1.9" fill="#ECE9E2" fill-opacity="0.69"/><circle cx="789" cy="244" r="2.3" fill="#ECE9E2" fill-opacity="0.72"/><circle cx="301" cy="549" r="2.2" fill="#ECE9E2" fill-opacity="0.73"/><circle cx="561" cy="275" r="1.6" fill="#ECE9E2" fill-opacity="0.52"/><circle cx="780" cy="188" r="1.3" fill="#ECE9E2" fill-opacity="0.80"/><circle cx="247" cy="396" r="1.9" fill="#ECE9E2" fill-opacity="0.43"/><circle cx="961" cy="589" r="2.1" fill="#ECE9E2" fill-opacity="0.59"/><circle cx="1129" cy="436" r="2.4" fill="#ECE9E2" fill-opacity="0.45"/><circle cx="802" cy="550" r="1.6" fill="#ECE9E2" fill-opacity="0.85"/><circle cx="181" cy="393" r="1.6" fill="#ECE9E2" fill-opacity="0.84"/><circle cx="918" cy="297" r="5.0" fill="#8B7CFF" fill-opacity="1.00"/><circle cx="918" cy="297" r="14" stroke="#8B7CFF" stroke-opacity="0.5" stroke-width="1"/>
</svg>
