<svg xmlns="http://www.w3.org/2000/svg" viewBox="0 0 1600 1600" width="1600" height="1600" fill="none">
<defs></defs>
<path d="M840 800 L840 802 L841 804 L843 806 L845 808 L847 811 L850 814 L854 817 L857 821 L860 826 L863 830 L864 835 L866 839 L866 843 L865 847 L863 850 L861 853 L857 855 L853 856 L849 856 L844 856 L840 855 L835 853 L831 852 L827 850 L824 849 L821 848 L818 847 L815 847 L813 848 L811 849 L809 850 L807 852 L805 854 L803 856 L800 859 L797 861 L794 862 L791 863 L788 864 L785 864 L782 864 L779 863 L777 862 L774 861 L771 859 L769 858 L767 856 L764 854 L762 853 L759 851 L757 849 L754 848 L752 846 L750 844 L748 842 L746 839 L744 837 L743 834 L743 831 L743 828 L743 824 L744 821 L746 818 L748 814 L749 812 L751 809 L753 806 L755 804 L756 802 L756 800 L756 798 L755 796 L754 794 L752 791 L750 789 L748 786 L746 782 L744 779 L743 776 L742 772 L742 769 L743 766 L744 763 L747 761 L749 760 L753 759 L757 759 L761 759 L764 759 L768 760 L771 761 L774 761 L777 761 L779 761 L780 759 L782 757 L783 754 L784 751 L785 746 L787 741 L788 736 L791 731 L793 726 L796 721 L800 717 L804 714 L808 713 L812 712 L816 713 L819 715 L823 718 L825 722 L828 726 L829 731 L831 736 L832 741 L832 746 L833 750 L833 754 L834 757 L835 760 L836 762 L837 764 L839 766 L841 768 L842 769 L844 771 L846 773 L847 775 L848 777 L849 779 L848 782 L848 784 L847 787 L846 790 L844 792 L843 794 L842 796 L841 798 L840 800 Z" stroke="#ECE9E2" stroke-opacity="0.050" stroke-width="1"/><path d="M866 800 L866 803 L868 806 L870 809 L873 813 L875 817 L878 822 L882 826 L884 832 L887 837 L888 842 L889 848 L889 853 L888 858 L885 862 L882 866 L878 868 L874 870 L868 872 L863 872 L857 872 L852 872 L847 871 L842 870 L837 869 L833 868 L829 868 L826 869 L823 870 L820 871 L817 873 L814 875 L810 877 L807 880 L804 882 L800 885 L796 886 L792 888 L788 889 L784 889 L780 889 L776 888 L772 886 L768 885 L765 883 L761 881 L758 879 L754 876 L751 874 L748 872 L745 869 L741 867 L738 865 L735 862 L732 859 L730 856 L728 853 L726 849 L725 845 L724 841 L724 837 L724 833 L725 828 L726 824 L727 820 L729 816 L730 813 L731 809 L732 806 L732 803 L732 800 L731 797 L730 794 L728 790 L726 787 L724 783 L722 779 L721 774 L719 770 L719 765 L719 761 L720 757 L722 753 L724 750 L727 747 L731 745 L736 744 L740 743 L745 742 L750 742 L754 742 L758 742 L761 741 L764 740 L767 738 L769 735 L771 732 L773 728 L775 723 L777 718 L780 713 L783 707 L787 702 L791 697 L795 693 L800 690 L805 689 L810 688 L815 689 L820 691 L824 694 L828 698 L832 703 L834 708 L837 714 L839 719 L841 725 L842 730 L844 734 L845 738 L847 741 L849 744 L851 747 L853 749 L855 752 L858 754 L861 756 L863 758 L865 761 L867 764 L868 767 L869 770 L870 774 L869 777 L869 781 L868 784 L867 788 L866 791 L866 794 L865 797 L866 800 Z" stroke="#ECE9E2" stroke-opacity="0.061" stroke-width="1"/><path d="M892 800 L893 804 L895 809 L898 813 L901 818 L904 824 L907 829 L909 836 L911 842 L913 848 L913 855 L913 861 L911 866 L909 872 L905 876 L901 880 L895 883 L889 885 L883 887 L877 888 L870 888 L864 888 L858 888 L852 888 L847 888 L843 888 L838 889 L834 890 L830 892 L826 895 L822 897 L818 900 L814 903 L810 906 L805 908 L800 910 L795 912 L790 913 L785 914 L779 913 L774 913 L769 911 L764 909 L760 907 L755 905 L751 902 L747 899 L742 896 L738 894 L734 891 L730 888 L726 885 L722 881 L719 878 L715 874 L712 870 L710 866 L707 861 L706 856 L705 851 L704 846 L704 841 L705 836 L706 831 L706 826 L707 821 L708 817 L709 812 L709 808 L708 804 L707 800 L706 796 L704 791 L702 787 L700 782 L698 777 L696 771 L695 766 L695 760 L695 755 L696 750 L698 745 L701 741 L704 737 L709 734 L714 731 L719 729 L724 727 L729 726 L734 725 L739 724 L744 722 L747 720 L751 718 L754 715 L757 711 L760 706 L763 701 L766 696 L770 690 L774 684 L778 679 L783 674 L788 670 L794 666 L800 664 L806 664 L812 665 L818 667 L824 670 L829 674 L833 679 L837 685 L841 691 L844 697 L847 702 L850 708 L852 713 L854 718 L857 722 L860 725 L863 728 L866 731 L869 734 L873 737 L876 739 L879 742 L882 746 L885 749 L887 753 L889 757 L890 761 L891 766 L891 770 L891 775 L891 779 L891 784 L890 788 L890 792 L891 796 L892 800 Z" stroke="#ECE9E2" stroke-opacity="0.085" stroke-width="1"/><path d="M919 800 L921 805 L924 811 L926 817 L929 823 L932 830 L935 837 L937 844 L938 852 L938 859 L938 866 L936 873 L933 879 L929 885 L924 890 L918 894 L912 897 L905 900 L897 902 L890 903 L883 904 L876 905 L869 905 L863 906 L858 907 L852 908 L847 910 L842 913 L838 915 L833 919 L828 922 L823 925 L817 929 L812 932 L806 934 L800 936 L794 938 L788 938 L781 938 L775 937 L769 936 L763 934 L757 932 L752 929 L746 926 L741 923 L736 920 L730 916 L725 913 L721 909 L716 906 L711 902 L706 898 L702 894 L698 889 L695 884 L692 879 L689 873 L687 867 L686 861 L685 855 L685 849 L685 843 L685 837 L685 832 L685 826 L685 821 L685 816 L684 810 L683 805 L682 800 L680 795 L678 789 L676 783 L674 777 L672 771 L671 764 L670 758 L670 751 L671 745 L673 739 L676 733 L680 728 L685 724 L690 720 L696 717 L702 714 L708 712 L713 709 L719 707 L724 705 L729 702 L733 699 L738 695 L741 691 L745 686 L749 681 L753 675 L757 668 L762 662 L767 656 L773 651 L779 647 L786 643 L793 641 L800 640 L807 641 L814 642 L821 646 L827 650 L833 655 L838 661 L843 667 L848 673 L851 680 L855 686 L859 691 L862 696 L865 701 L869 705 L873 709 L877 712 L881 715 L886 718 L890 721 L894 725 L898 728 L902 733 L905 737 L908 742 L910 747 L912 752 L913 758 L914 763 L914 768 L914 774 L915 779 L915 784 L916 790 L917 795 L919 800 Z" stroke="#ECE9E2" stroke-opacity="0.100" stroke-width="1"/><path d="M947 800 L949 807 L952 814 L955 821 L958 829 L960 837 L962 845 L964 853 L964 861 L963 870 L961 878 L958 885 L954 892 L948 898 L942 903 L935 907 L927 911 L919 914 L911 916 L903 918 L896 920 L888 921 L881 923 L874 925 L868 927 L862 929 L856 932 L851 936 L845 939 L839 943 L834 947 L827 951 L821 954 L814 957 L807 960 L800 962 L793 963 L785 963 L778 962 L771 961 L764 959 L757 957 L750 954 L743 951 L737 947 L731 944 L725 940 L719 936 L713 932 L707 928 L701 924 L696 919 L691 914 L686 909 L681 904 L677 898 L674 892 L671 885 L669 878 L667 872 L666 865 L665 858 L664 851 L664 844 L663 838 L663 831 L662 825 L661 819 L660 813 L658 806 L656 800 L653 793 L651 787 L649 780 L647 772 L645 765 L645 757 L645 750 L646 742 L648 735 L651 728 L655 722 L660 716 L665 711 L672 707 L678 703 L685 699 L691 696 L697 693 L703 689 L709 686 L714 682 L719 678 L724 673 L728 667 L733 661 L738 655 L743 648 L748 641 L754 635 L761 629 L768 624 L776 621 L784 618 L792 617 L800 617 L808 619 L816 622 L824 626 L831 631 L837 637 L843 643 L849 650 L854 656 L859 663 L863 669 L868 674 L872 679 L877 684 L882 688 L887 691 L892 695 L897 698 L903 702 L908 706 L913 710 L918 714 L922 719 L926 725 L929 730 L932 736 L934 743 L936 749 L937 756 L938 762 L939 768 L940 775 L941 781 L942 787 L944 794 L947 800 Z" stroke="#ECE9E2" stroke-opacity="0.091" stroke-width="1"/><path d="M975 800 L978 808 L981 816 L984 825 L986 834 L988 843 L989 852 L990 862 L989 871 L987 880 L983 888 L979 896 L973 904 L967 910 L959 916 L951 920 L942 924 L934 928 L925 931 L916 933 L908 936 L900 938 L893 941 L886 944 L879 947 L872 950 L866 955 L860 959 L853 963 L846 968 L839 972 L832 977 L824 980 L816 983 L808 986 L800 987 L792 988 L783 987 L775 986 L766 985 L758 982 L751 979 L743 976 L735 972 L728 968 L721 964 L714 960 L707 956 L700 951 L694 947 L687 942 L681 936 L675 931 L670 925 L665 918 L660 912 L656 905 L653 897 L650 890 L648 882 L646 874 L645 866 L643 859 L642 851 L641 844 L640 837 L638 829 L636 822 L634 815 L631 808 L629 800 L626 792 L624 784 L622 776 L620 767 L619 759 L619 750 L620 741 L622 733 L625 725 L629 718 L634 711 L640 704 L646 699 L653 693 L660 689 L667 684 L674 680 L681 676 L687 671 L693 666 L699 661 L705 656 L710 649 L715 643 L721 636 L727 629 L733 622 L740 615 L747 609 L755 603 L763 599 L772 596 L781 594 L791 594 L800 595 L809 598 L818 602 L826 607 L834 613 L841 619 L848 626 L854 633 L860 639 L866 645 L872 651 L877 656 L883 661 L889 666 L895 670 L901 673 L907 677 L914 681 L920 685 L926 690 L932 694 L938 700 L943 706 L947 712 L951 719 L954 726 L956 733 L959 740 L960 748 L962 755 L964 763 L965 770 L967 777 L970 785 L972 792 L975 800 Z" stroke="#ECE9E2" stroke-opacity="0.068" stroke-width="1"/><path d="M1003 800 L1007 809 L1010 819 L1012 829 L1014 839 L1016 849 L1016 860 L1015 870 L1013 880 L1010 890 L1005 899 L999 907 L992 915 L984 922 L976 928 L967 933 L957 937 L948 941 L939 945 L930 948 L921 952 L913 955 L905 959 L897 963 L890 968 L883 972 L876 977 L869 983 L861 988 L853 993 L845 998 L837 1002 L828 1006 L819 1009 L809 1011 L800 1012 L790 1012 L781 1011 L772 1010 L762 1008 L753 1005 L744 1001 L736 998 L727 994 L719 989 L711 985 L703 980 L695 975 L688 970 L680 965 L673 959 L666 953 L659 947 L653 940 L648 933 L643 925 L638 918 L634 909 L631 901 L628 892 L626 884 L624 875 L622 867 L620 859 L618 850 L616 842 L613 834 L610 826 L608 817 L605 809 L602 800 L599 791 L596 782 L594 772 L593 762 L593 753 L594 743 L596 734 L599 724 L603 716 L608 707 L614 700 L620 693 L627 686 L635 680 L642 674 L650 669 L657 664 L664 658 L671 653 L678 647 L684 640 L690 633 L696 626 L702 618 L709 611 L716 603 L723 596 L731 589 L740 583 L749 578 L759 574 L769 572 L779 571 L790 572 L800 575 L810 578 L820 583 L829 589 L837 595 L845 602 L853 608 L860 615 L867 622 L874 628 L880 633 L887 638 L894 643 L901 647 L908 651 L916 655 L923 659 L931 663 L938 668 L945 673 L952 679 L958 685 L964 692 L968 699 L973 707 L976 715 L979 723 L982 732 L984 740 L987 748 L989 757 L992 765 L994 774 L997 782 L1000 791 L1003 800 Z" stroke="#ECE9E2" stroke-opacity="0.051" stroke-width="1"/><path d="M1032 800 L1035 811 L1038 821 L1040 833 L1042 844 L1042 855 L1041 867 L1039 878 L1036 889 L1031 899 L1025 908 L1018 917 L1010 925 L1001 933 L992 939 L982 945 L972 950 L962 955 L953 960 L943 964 L934 968 L926 973 L917 978 L909 983 L902 989 L894 995 L886 1001 L878 1007 L869 1013 L860 1018 L851 1023 L841 1028 L831 1031 L821 1034 L811 1036 L800 1037 L789 1036 L779 1035 L768 1033 L758 1030 L748 1027 L738 1023 L729 1019 L719 1015 L710 1010 L701 1005 L692 1000 L683 995 L675 989 L667 984 L659 977 L651 971 L644 963 L637 956 L631 948 L625 939 L620 931 L616 922 L612 912 L608 903 L605 894 L602 884 L600 875 L597 866 L594 857 L591 848 L588 839 L584 829 L581 820 L577 810 L574 800 L571 790 L569 779 L568 769 L567 758 L567 747 L569 736 L572 726 L576 716 L581 706 L587 697 L593 689 L601 681 L609 674 L617 667 L625 660 L633 654 L640 647 L648 641 L655 634 L662 626 L668 619 L675 611 L682 603 L689 594 L697 586 L705 578 L714 570 L723 564 L733 558 L744 554 L755 551 L766 550 L778 550 L789 552 L800 555 L811 559 L821 565 L831 571 L840 577 L849 584 L858 591 L866 597 L874 603 L882 609 L890 614 L898 619 L906 623 L914 627 L923 631 L931 635 L940 640 L948 645 L957 650 L964 656 L972 663 L979 670 L985 678 L990 686 L995 695 L999 704 L1003 713 L1006 723 L1009 732 L1012 741 L1015 751 L1018 760 L1021 770 L1025 780 L1028 790 L1032 800 Z" stroke="#ECE9E2" stroke-opacity="0.056" stroke-width="1"/><path d="M1060 800 L1063 812 L1066 824 L1067 836 L1068 849 L1067 861 L1066 873 L1062 885 L1058 897 L1052 908 L1045 918 L1036 927 L1027 936 L1018 944 L1007 951 L997 957 L987 963 L977 969 L967 974 L957 980 L948 985 L939 991 L930 997 L922 1004 L913 1011 L905 1018 L896 1025 L887 1031 L877 1038 L867 1044 L857 1049 L846 1053 L835 1057 L823 1059 L812 1060 L800 1061 L788 1060 L777 1058 L765 1056 L754 1053 L743 1049 L732 1045 L722 1041 L711 1036 L701 1031 L691 1026 L681 1020 L672 1015 L662 1009 L653 1002 L644 995 L636 988 L628 980 L621 972 L614 963 L608 953 L602 944 L597 934 L592 924 L588 914 L584 904 L580 894 L577 884 L573 874 L569 864 L565 854 L561 843 L557 833 L554 822 L550 811 L547 800 L544 788 L542 777 L541 765 L541 753 L542 741 L545 730 L548 718 L553 707 L559 697 L566 687 L573 678 L581 669 L590 661 L598 653 L607 646 L615 638 L623 631 L630 623 L638 615 L645 606 L653 597 L660 588 L668 579 L676 570 L685 561 L695 553 L705 546 L715 540 L727 535 L739 531 L751 529 L763 529 L776 530 L788 532 L800 536 L812 541 L823 547 L833 553 L844 560 L853 566 L863 573 L872 579 L881 584 L890 590 L899 594 L908 599 L918 603 L928 607 L937 611 L947 616 L957 620 L966 626 L975 632 L984 639 L992 647 L999 655 L1006 664 L1012 673 L1017 683 L1022 693 L1026 703 L1030 714 L1034 724 L1038 734 L1041 745 L1045 756 L1049 766 L1053 777 L1057 788 L1060 800 Z" stroke="#ECE9E2" stroke-opacity="0.079" stroke-width="1"/><path d="M1088 800 L1091 813 L1093 826 L1094 840 L1093 853 L1092 867 L1089 880 L1084 892 L1079 905 L1072 916 L1063 927 L1054 937 L1044 946 L1034 954 L1023 962 L1012 969 L1002 976 L991 983 L981 989 L971 996 L962 1003 L953 1010 L944 1018 L935 1025 L925 1033 L916 1041 L906 1049 L896 1056 L885 1063 L874 1069 L863 1074 L851 1079 L838 1082 L826 1084 L813 1085 L800 1084 L787 1083 L775 1081 L762 1078 L750 1075 L738 1071 L726 1067 L715 1062 L704 1057 L692 1052 L681 1046 L671 1041 L660 1034 L650 1028 L640 1021 L630 1013 L621 1005 L612 996 L604 987 L597 978 L590 968 L583 957 L578 947 L572 936 L567 925 L562 914 L558 904 L553 893 L549 882 L544 871 L540 859 L535 848 L530 837 L526 825 L522 812 L519 800 L517 787 L515 774 L515 761 L516 748 L518 736 L521 723 L526 711 L531 699 L538 688 L546 678 L554 667 L562 658 L571 649 L580 640 L588 631 L597 623 L605 614 L613 605 L621 595 L629 586 L637 576 L645 566 L654 556 L664 547 L674 538 L684 529 L696 522 L708 516 L721 512 L734 509 L747 508 L761 508 L774 510 L787 514 L800 518 L812 523 L824 529 L836 536 L847 542 L857 548 L868 554 L878 559 L888 565 L899 569 L909 573 L920 577 L931 581 L942 586 L953 590 L963 595 L974 601 L985 607 L995 614 L1004 622 L1013 630 L1021 640 L1028 650 L1034 660 L1040 671 L1045 682 L1050 693 L1055 704 L1059 716 L1064 727 L1068 739 L1072 751 L1076 763 L1081 775 L1084 787 L1088 800 Z" stroke="#ECE9E2" stroke-opacity="0.098" stroke-width="1"/><path d="M1115 800 L1118 814 L1119 829 L1119 843 L1118 858 L1115 872 L1111 886 L1105 899 L1099 912 L1090 924 L1081 935 L1071 946 L1061 956 L1050 965 L1039 973 L1028 981 L1017 989 L1006 997 L996 1005 L986 1013 L976 1021 L967 1030 L957 1038 L948 1047 L938 1056 L927 1065 L917 1073 L905 1081 L894 1088 L881 1094 L868 1099 L855 1103 L841 1106 L828 1108 L814 1108 L800 1108 L786 1106 L773 1104 L759 1101 L746 1097 L733 1093 L720 1088 L708 1083 L696 1078 L683 1073 L671 1067 L660 1061 L648 1054 L637 1047 L626 1039 L616 1031 L606 1023 L596 1013 L587 1003 L579 993 L572 982 L564 971 L558 960 L552 948 L546 937 L540 925 L535 913 L529 902 L524 890 L519 878 L513 865 L508 853 L503 840 L499 827 L495 814 L492 800 L490 786 L489 772 L489 758 L491 744 L494 730 L498 717 L503 704 L510 691 L517 679 L526 668 L534 657 L543 647 L552 636 L561 626 L570 617 L579 607 L587 597 L596 586 L604 576 L613 565 L621 554 L631 544 L641 533 L651 523 L662 514 L675 506 L687 500 L701 494 L715 491 L729 489 L743 488 L758 489 L772 492 L786 495 L800 500 L813 506 L826 511 L838 517 L850 523 L862 529 L873 534 L885 539 L896 543 L908 548 L920 551 L932 555 L944 559 L956 564 L968 568 L980 574 L992 580 L1003 587 L1014 595 L1024 604 L1033 614 L1042 624 L1049 635 L1056 647 L1063 659 L1069 671 L1074 683 L1080 695 L1085 708 L1090 720 L1094 733 L1099 746 L1104 759 L1108 772 L1112 786 L1115 800 Z" stroke="#ECE9E2" stroke-opacity="0.096" stroke-width="1"/><path d="M1142 800 L1144 815 L1144 831 L1143 847 L1141 862 L1137 877 L1132 892 L1126 906 L1118 919 L1108 932 L1099 944 L1088 955 L1077 965 L1066 975 L1054 985 L1043 994 L1032 1003 L1022 1012 L1011 1021 L1001 1030 L991 1040 L981 1050 L971 1060 L961 1070 L950 1079 L939 1089 L927 1098 L915 1106 L902 1113 L888 1119 L874 1124 L860 1128 L845 1130 L830 1132 L815 1132 L800 1131 L785 1129 L771 1126 L756 1123 L742 1119 L728 1115 L714 1110 L701 1105 L688 1100 L674 1094 L661 1088 L649 1081 L636 1074 L624 1067 L612 1058 L601 1050 L590 1040 L580 1030 L570 1019 L562 1008 L553 997 L545 985 L538 973 L531 961 L524 948 L518 936 L511 923 L505 911 L499 898 L493 885 L487 872 L481 858 L476 844 L471 830 L468 815 L465 800 L463 785 L463 770 L464 755 L467 740 L470 725 L476 710 L482 697 L489 683 L497 671 L506 658 L515 647 L524 635 L533 624 L542 613 L551 602 L560 591 L569 579 L578 568 L587 556 L596 544 L606 533 L616 522 L627 511 L639 501 L652 492 L665 484 L679 478 L694 473 L709 470 L724 469 L740 469 L755 471 L771 474 L786 478 L800 482 L814 488 L828 493 L841 498 L854 504 L866 509 L879 513 L892 517 L905 521 L918 525 L931 528 L944 532 L958 536 L971 541 L984 546 L997 552 L1010 560 L1022 568 L1034 577 L1044 587 L1054 597 L1063 609 L1071 621 L1079 633 L1086 646 L1092 659 L1098 672 L1104 686 L1110 699 L1116 713 L1121 727 L1126 741 L1131 755 L1135 770 L1139 785 L1142 800 Z" stroke="#ECE9E2" stroke-opacity="0.075" stroke-width="1"/><path d="M1168 800 L1169 817 L1168 833 L1167 850 L1163 866 L1159 882 L1152 897 L1145 912 L1136 926 L1126 939 L1116 952 L1104 964 L1093 975 L1082 986 L1070 996 L1059 1007 L1048 1017 L1038 1027 L1027 1038 L1017 1049 L1007 1059 L997 1070 L986 1081 L975 1092 L963 1103 L951 1113 L938 1122 L924 1130 L910 1138 L895 1144 L880 1149 L864 1152 L848 1154 L832 1155 L816 1155 L800 1153 L784 1151 L769 1148 L753 1145 L738 1141 L723 1136 L708 1132 L694 1127 L680 1121 L665 1115 L651 1109 L638 1102 L624 1094 L611 1086 L598 1077 L586 1068 L575 1058 L564 1047 L553 1036 L544 1024 L534 1012 L526 999 L517 987 L510 974 L502 960 L494 947 L487 934 L480 920 L473 906 L466 892 L460 878 L454 863 L449 848 L444 832 L441 816 L439 800 L438 784 L438 767 L440 751 L443 735 L448 720 L454 704 L461 690 L469 676 L477 662 L486 649 L495 636 L505 624 L514 611 L523 599 L533 587 L542 574 L551 562 L560 549 L570 537 L580 524 L591 512 L602 500 L614 489 L627 479 L641 470 L656 463 L671 457 L687 453 L704 450 L720 450 L737 450 L753 452 L769 456 L785 460 L800 464 L815 469 L829 474 L844 479 L857 483 L871 487 L885 491 L899 495 L913 498 L928 501 L942 504 L957 508 L972 513 L986 518 L1001 524 L1015 531 L1028 539 L1041 548 L1053 558 L1064 569 L1075 581 L1084 593 L1093 607 L1101 620 L1109 634 L1116 648 L1123 662 L1129 677 L1135 691 L1141 706 L1147 721 L1153 736 L1157 752 L1162 767 L1165 784 L1168 800 Z" stroke="#ECE9E2" stroke-opacity="0.054" stroke-width="1"/><path d="M1192 800 L1193 818 L1192 835 L1189 853 L1185 870 L1179 886 L1172 903 L1163 918 L1154 933 L1143 947 L1132 960 L1121 973 L1110 985 L1098 997 L1087 1009 L1076 1020 L1065 1032 L1055 1043 L1044 1055 L1034 1067 L1023 1080 L1012 1092 L1000 1104 L988 1115 L976 1127 L962 1137 L948 1147 L933 1155 L918 1162 L902 1168 L885 1172 L868 1176 L851 1177 L834 1178 L817 1177 L800 1176 L783 1173 L767 1170 L750 1167 L734 1163 L718 1158 L702 1154 L687 1148 L671 1143 L656 1137 L641 1130 L626 1123 L612 1115 L598 1106 L584 1097 L571 1087 L559 1076 L547 1064 L536 1052 L525 1040 L515 1027 L506 1014 L497 1000 L488 987 L479 973 L471 959 L463 944 L455 930 L447 915 L440 899 L433 884 L427 868 L422 851 L418 834 L415 817 L413 800 L413 783 L414 765 L416 748 L421 731 L426 715 L432 699 L440 683 L448 668 L457 653 L466 639 L476 626 L485 612 L495 598 L504 585 L513 572 L523 558 L533 544 L542 531 L553 517 L564 504 L576 491 L588 479 L602 468 L616 458 L631 449 L647 442 L664 437 L681 433 L698 431 L716 431 L733 432 L750 434 L767 437 L784 441 L800 445 L816 450 L831 454 L846 458 L861 461 L877 465 L892 468 L907 470 L923 473 L938 476 L954 480 L970 484 L986 488 L1002 494 L1017 501 L1032 509 L1046 518 L1060 528 L1073 539 L1084 552 L1095 565 L1105 578 L1115 592 L1123 607 L1131 622 L1139 637 L1147 652 L1154 667 L1160 683 L1167 699 L1173 715 L1179 731 L1183 748 L1188 765 L1191 782 L1192 800 Z" stroke="#ECE9E2" stroke-opacity="0.052" stroke-width="1"/><path d="M1216 800 L1216 819 L1214 837 L1210 856 L1205 874 L1198 891 L1190 908 L1181 924 L1171 939 L1161 954 L1150 968 L1138 982 L1127 995 L1116 1008 L1104 1021 L1094 1034 L1083 1047 L1072 1060 L1061 1073 L1051 1087 L1039 1100 L1028 1113 L1015 1126 L1002 1139 L989 1150 L974 1161 L958 1171 L942 1179 L925 1186 L908 1192 L890 1196 L872 1199 L854 1200 L836 1200 L818 1200 L800 1198 L782 1196 L765 1193 L747 1189 L730 1185 L713 1181 L696 1176 L680 1171 L663 1165 L647 1158 L631 1151 L615 1144 L600 1135 L585 1126 L570 1116 L556 1105 L543 1094 L530 1082 L518 1069 L507 1056 L496 1042 L486 1028 L475 1014 L466 1000 L456 985 L447 970 L438 955 L430 939 L421 923 L414 907 L407 890 L401 872 L396 855 L392 837 L389 818 L388 800 L388 782 L390 763 L394 745 L398 727 L404 710 L412 693 L419 676 L428 660 L437 645 L447 630 L456 615 L466 600 L475 586 L485 571 L494 556 L504 541 L514 527 L525 512 L536 498 L548 484 L561 471 L574 458 L589 447 L605 437 L621 429 L639 423 L657 418 L675 415 L693 413 L712 413 L730 414 L748 416 L766 419 L783 422 L800 426 L817 429 L833 432 L849 435 L866 438 L882 441 L899 443 L915 445 L932 448 L949 451 L967 454 L984 458 L1001 464 L1018 470 L1034 478 L1050 487 L1065 497 L1079 509 L1092 521 L1104 534 L1116 548 L1126 563 L1136 578 L1145 594 L1154 609 L1162 625 L1170 642 L1178 658 L1185 675 L1192 692 L1198 709 L1204 727 L1209 745 L1212 763 L1215 781 L1216 800 Z" stroke="#ECE9E2" stroke-opacity="0.072" stroke-width="1"/><path d="M1239 800 L1238 820 L1235 839 L1231 858 L1225 877 L1217 895 L1209 913 L1199 930 L1189 946 L1178 962 L1167 977 L1156 991 L1145 1006 L1133 1020 L1123 1034 L1112 1049 L1101 1063 L1090 1078 L1079 1092 L1068 1107 L1056 1121 L1044 1135 L1030 1149 L1016 1162 L1001 1174 L985 1185 L969 1195 L951 1203 L933 1210 L915 1215 L896 1219 L876 1221 L857 1223 L838 1223 L819 1222 L800 1220 L781 1218 L763 1215 L744 1211 L726 1207 L708 1203 L690 1198 L672 1193 L655 1187 L637 1180 L620 1173 L604 1165 L587 1156 L571 1147 L556 1136 L541 1125 L527 1112 L514 1100 L501 1086 L488 1072 L476 1058 L465 1043 L454 1028 L443 1013 L433 997 L423 982 L413 965 L404 949 L396 931 L388 914 L381 896 L375 877 L370 858 L366 839 L364 820 L364 800 L365 780 L367 761 L372 742 L377 723 L383 705 L391 687 L399 670 L408 653 L417 636 L427 620 L436 604 L446 588 L455 572 L465 557 L475 541 L485 525 L496 509 L507 494 L519 479 L532 464 L546 451 L561 438 L577 427 L594 418 L612 410 L631 404 L650 399 L669 396 L688 395 L707 395 L727 396 L745 397 L764 400 L782 402 L800 405 L818 408 L835 410 L853 412 L870 414 L888 415 L906 417 L924 419 L942 421 L961 424 L979 428 L998 433 L1016 439 L1033 446 L1051 455 L1067 465 L1083 477 L1097 489 L1111 503 L1124 517 L1136 532 L1147 548 L1157 564 L1167 581 L1176 597 L1185 614 L1194 632 L1202 649 L1210 667 L1217 685 L1223 703 L1229 722 L1233 741 L1237 761 L1238 780 L1239 800 Z" stroke="#ECE9E2" stroke-opacity="0.094" stroke-width="1"/><path d="M1261 800 L1259 821 L1255 841 L1250 861 L1244 881 L1236 899 L1227 918 L1217 936 L1207 953 L1196 969 L1185 985 L1174 1001 L1163 1017 L1152 1032 L1141 1048 L1131 1064 L1120 1080 L1109 1096 L1098 1111 L1086 1127 L1073 1143 L1060 1158 L1046 1172 L1030 1185 L1014 1198 L997 1209 L979 1218 L960 1226 L941 1233 L921 1238 L901 1241 L881 1244 L860 1245 L840 1245 L820 1244 L800 1242 L780 1240 L761 1237 L741 1234 L722 1230 L703 1226 L684 1221 L665 1216 L646 1210 L628 1203 L610 1195 L592 1187 L575 1177 L558 1167 L542 1156 L526 1144 L511 1131 L496 1118 L483 1103 L469 1089 L457 1074 L444 1058 L432 1043 L421 1027 L410 1010 L399 993 L389 976 L379 958 L370 940 L362 921 L355 902 L349 882 L345 862 L342 841 L340 821 L340 800 L342 779 L345 759 L350 739 L356 719 L363 700 L371 681 L379 663 L388 645 L397 628 L406 610 L416 593 L425 576 L435 559 L445 542 L455 525 L466 508 L477 491 L489 475 L503 460 L517 445 L532 431 L548 419 L566 408 L584 398 L603 391 L623 385 L643 381 L663 378 L683 377 L703 376 L723 377 L743 378 L762 380 L781 381 L800 383 L819 385 L837 386 L856 387 L875 388 L894 389 L913 390 L933 392 L952 394 L972 397 L992 402 L1011 407 L1030 414 L1049 423 L1067 433 L1084 444 L1100 456 L1115 470 L1130 485 L1143 500 L1155 517 L1167 533 L1178 550 L1188 568 L1198 586 L1208 604 L1217 622 L1226 640 L1233 659 L1241 678 L1247 698 L1253 718 L1257 738 L1260 759 L1261 779 L1261 800 Z" stroke="#ECE9E2" stroke-opacity="0.099" stroke-width="1"/><path d="M1282 800 L1279 822 L1275 843 L1269 864 L1262 884 L1254 904 L1245 923 L1235 941 L1225 959 L1214 977 L1204 994 L1193 1011 L1182 1028 L1172 1045 L1161 1062 L1151 1080 L1140 1097 L1128 1114 L1117 1131 L1104 1148 L1091 1164 L1076 1180 L1061 1195 L1044 1208 L1026 1221 L1008 1232 L989 1241 L969 1249 L948 1255 L927 1260 L906 1263 L884 1266 L863 1267 L842 1267 L821 1266 L800 1264 L779 1262 L759 1260 L738 1257 L718 1253 L698 1249 L677 1244 L657 1239 L638 1232 L618 1225 L599 1217 L580 1208 L562 1199 L544 1188 L527 1176 L510 1163 L494 1150 L479 1136 L464 1121 L450 1106 L437 1090 L423 1074 L411 1057 L398 1040 L386 1023 L375 1005 L364 986 L354 967 L345 948 L337 928 L330 907 L324 886 L320 865 L318 843 L317 822 L318 800 L320 778 L324 757 L329 736 L335 716 L342 696 L350 676 L359 657 L368 638 L377 619 L386 601 L395 582 L405 564 L415 546 L425 527 L435 509 L447 491 L459 474 L472 457 L486 441 L502 426 L518 412 L536 400 L554 389 L574 380 L594 372 L615 367 L636 362 L657 360 L678 358 L699 357 L720 358 L740 358 L760 359 L780 359 L800 360 L820 360 L840 361 L859 361 L880 361 L900 361 L921 362 L942 364 L963 366 L984 370 L1005 375 L1025 382 L1045 390 L1065 399 L1083 410 L1101 423 L1117 437 L1133 452 L1148 467 L1162 484 L1175 501 L1187 519 L1199 537 L1210 555 L1220 574 L1230 593 L1240 612 L1249 632 L1257 652 L1264 672 L1271 693 L1276 714 L1280 735 L1282 757 L1283 778 L1282 800 Z" stroke="#ECE9E2" stroke-opacity="0.082" stroke-width="1"/><path d="M1302 800 L1299 822 L1295 845 L1288 866 L1281 887 L1273 908 L1263 928 L1254 947 L1244 967 L1233 985 L1223 1004 L1213 1022 L1203 1041 L1192 1059 L1182 1077 L1171 1096 L1160 1115 L1148 1133 L1136 1151 L1122 1169 L1108 1186 L1092 1202 L1075 1217 L1058 1231 L1039 1244 L1019 1254 L998 1264 L977 1271 L955 1277 L933 1282 L911 1285 L888 1287 L866 1288 L844 1288 L822 1288 L800 1287 L778 1285 L757 1283 L735 1280 L714 1276 L692 1272 L671 1268 L650 1262 L629 1256 L608 1248 L588 1240 L568 1230 L549 1220 L530 1208 L512 1196 L495 1183 L478 1169 L462 1154 L446 1138 L431 1122 L416 1106 L402 1089 L389 1072 L376 1054 L363 1035 L351 1016 L340 997 L330 977 L320 956 L312 935 L306 913 L300 891 L297 868 L295 845 L294 823 L296 800 L299 777 L303 755 L308 733 L315 712 L322 691 L330 670 L338 650 L347 630 L356 610 L365 591 L374 571 L384 551 L394 532 L404 513 L416 494 L428 475 L441 457 L455 439 L470 423 L487 407 L505 393 L523 381 L543 370 L564 361 L585 354 L607 348 L629 344 L651 341 L673 339 L695 338 L716 337 L737 337 L758 336 L779 336 L800 335 L821 335 L842 334 L863 333 L885 333 L907 333 L929 334 L951 336 L973 339 L995 343 L1017 349 L1039 356 L1060 366 L1080 376 L1099 389 L1117 402 L1134 417 L1150 433 L1166 450 L1180 468 L1194 486 L1206 505 L1219 524 L1230 543 L1241 562 L1252 582 L1262 603 L1271 623 L1280 644 L1287 666 L1293 687 L1298 710 L1302 732 L1304 755 L1304 777 L1302 800 Z" stroke="#ECE9E2" stroke-opacity="0.058" stroke-width="1"/><path d="M1322 800 L1319 823 L1314 846 L1307 869 L1300 891 L1291 912 L1282 933 L1273 954 L1263 974 L1254 994 L1244 1014 L1234 1033 L1224 1053 L1214 1073 L1203 1093 L1192 1113 L1181 1133 L1169 1152 L1155 1172 L1141 1190 L1125 1208 L1108 1224 L1090 1240 L1071 1253 L1051 1266 L1029 1277 L1008 1286 L985 1293 L962 1299 L939 1303 L916 1307 L892 1309 L869 1310 L846 1310 L823 1310 L800 1309 L777 1308 L754 1306 L732 1303 L709 1300 L687 1296 L664 1291 L642 1286 L620 1279 L599 1271 L577 1262 L557 1252 L536 1241 L517 1229 L498 1216 L479 1202 L461 1188 L444 1172 L428 1156 L412 1139 L396 1122 L381 1104 L367 1086 L353 1067 L340 1048 L327 1028 L316 1007 L305 986 L296 964 L288 941 L282 918 L277 895 L274 871 L272 847 L273 824 L274 800 L278 777 L282 753 L288 731 L294 708 L302 686 L309 665 L318 643 L326 622 L335 601 L344 580 L353 560 L363 539 L373 518 L384 498 L396 478 L409 458 L423 439 L438 421 L455 405 L472 389 L491 375 L512 363 L533 352 L554 343 L577 336 L599 330 L622 326 L645 322 L667 320 L690 318 L712 316 L734 314 L756 313 L778 311 L800 310 L822 308 L844 306 L867 305 L890 304 L913 304 L937 305 L960 307 L984 311 L1007 316 L1030 323 L1052 332 L1074 342 L1094 354 L1114 368 L1133 383 L1151 399 L1167 416 L1183 434 L1198 452 L1212 471 L1225 491 L1238 511 L1251 531 L1262 551 L1273 572 L1284 593 L1293 615 L1302 637 L1309 659 L1315 682 L1320 706 L1323 729 L1325 753 L1324 776 L1322 800 Z" stroke="#ECE9E2" stroke-opacity="0.050" stroke-width="1"/><path d="M1342 800 L1338 824 L1333 848 L1326 871 L1319 894 L1311 917 L1302 939 L1293 960 L1284 982 L1275 1003 L1265 1024 L1256 1045 L1246 1066 L1236 1088 L1225 1109 L1214 1130 L1202 1151 L1189 1172 L1175 1192 L1159 1211 L1142 1229 L1124 1246 L1105 1261 L1084 1275 L1062 1288 L1040 1298 L1017 1307 L993 1314 L969 1320 L945 1325 L921 1328 L896 1330 L872 1332 L848 1333 L824 1333 L800 1332 L776 1331 L752 1330 L729 1327 L705 1324 L681 1320 L658 1315 L634 1310 L611 1303 L589 1294 L566 1285 L545 1275 L523 1263 L503 1250 L483 1237 L463 1222 L445 1207 L427 1190 L409 1174 L392 1156 L376 1138 L360 1119 L345 1100 L331 1080 L317 1060 L304 1039 L292 1017 L282 994 L273 971 L265 948 L259 924 L254 899 L252 874 L251 849 L251 825 L253 800 L257 776 L262 752 L267 728 L274 705 L281 682 L289 659 L296 636 L305 614 L313 592 L322 570 L331 548 L341 526 L352 504 L364 483 L376 462 L390 442 L405 422 L421 404 L439 387 L458 371 L478 357 L500 345 L522 334 L545 325 L568 318 L591 312 L615 307 L638 303 L662 299 L685 296 L708 294 L731 291 L754 288 L777 285 L800 283 L823 280 L847 278 L871 276 L895 275 L920 275 L945 276 L969 279 L994 283 L1018 289 L1042 298 L1065 307 L1087 319 L1109 333 L1129 347 L1148 364 L1166 381 L1183 399 L1200 418 L1215 437 L1230 457 L1244 477 L1258 498 L1271 519 L1283 540 L1294 562 L1305 584 L1315 607 L1324 630 L1331 653 L1337 677 L1341 702 L1344 726 L1345 751 L1344 776 L1342 800 Z" stroke="#ECE9E2" stroke-opacity="0.065" stroke-width="1"/><path d="M1361 800 L1357 825 L1352 850 L1346 874 L1339 898 L1331 921 L1323 944 L1314 967 L1306 990 L1297 1012 L1288 1035 L1279 1058 L1269 1080 L1259 1103 L1248 1126 L1236 1148 L1223 1170 L1209 1191 L1194 1212 L1177 1232 L1159 1250 L1139 1267 L1119 1283 L1097 1297 L1074 1309 L1050 1319 L1026 1328 L1001 1335 L976 1341 L951 1346 L925 1349 L900 1352 L875 1354 L850 1355 L825 1356 L800 1356 L775 1355 L750 1354 L725 1352 L700 1349 L676 1345 L651 1340 L627 1334 L602 1326 L579 1318 L555 1308 L533 1297 L510 1285 L489 1271 L468 1257 L448 1242 L428 1226 L409 1209 L391 1191 L373 1173 L356 1154 L339 1135 L324 1114 L309 1094 L295 1072 L281 1050 L270 1027 L259 1003 L250 979 L242 954 L237 929 L233 903 L230 877 L230 851 L230 826 L233 800 L236 775 L241 750 L247 725 L253 701 L260 677 L267 653 L275 629 L283 606 L291 583 L300 559 L309 536 L320 513 L331 490 L343 468 L356 446 L371 425 L387 405 L405 387 L424 370 L444 354 L466 340 L488 327 L511 317 L535 308 L559 300 L583 293 L608 287 L632 282 L656 278 L680 274 L704 270 L728 266 L752 262 L776 258 L800 254 L825 251 L850 248 L875 246 L901 245 L927 245 L953 247 L978 251 L1004 256 L1029 264 L1054 273 L1078 284 L1100 297 L1122 312 L1143 328 L1163 345 L1181 363 L1199 382 L1216 402 L1232 422 L1248 443 L1262 464 L1277 485 L1290 507 L1303 529 L1315 552 L1326 575 L1336 599 L1345 623 L1352 648 L1358 673 L1362 698 L1364 724 L1365 749 L1364 775 L1361 800 Z" stroke="#ECE9E2" stroke-opacity="0.089" stroke-width="1"/><path d="M1381 800 L1377 826 L1372 851 L1366 877 L1359 901 L1352 926 L1344 950 L1336 974 L1328 998 L1320 1022 L1311 1046 L1302 1070 L1293 1094 L1282 1118 L1271 1142 L1259 1166 L1245 1189 L1230 1211 L1213 1232 L1195 1252 L1176 1271 L1155 1288 L1132 1303 L1109 1317 L1085 1329 L1060 1340 L1034 1348 L1009 1356 L983 1362 L956 1367 L930 1371 L904 1374 L878 1376 L852 1378 L826 1379 L800 1379 L774 1379 L748 1378 L722 1376 L696 1373 L670 1369 L644 1364 L619 1358 L594 1350 L569 1341 L544 1331 L521 1319 L498 1306 L475 1292 L453 1277 L432 1261 L412 1245 L392 1227 L373 1209 L354 1190 L336 1170 L319 1150 L302 1128 L287 1107 L272 1084 L259 1060 L247 1036 L237 1011 L228 986 L221 960 L215 934 L211 907 L209 880 L209 853 L210 826 L212 800 L216 774 L221 748 L226 722 L232 697 L238 672 L245 647 L253 622 L260 597 L269 573 L278 548 L287 524 L298 500 L310 476 L322 453 L337 431 L353 409 L370 389 L389 370 L409 353 L431 337 L453 322 L477 310 L501 299 L525 289 L550 281 L575 274 L600 267 L625 261 L650 256 L675 250 L699 245 L724 240 L749 235 L774 230 L800 225 L826 221 L852 218 L879 216 L906 215 L933 216 L960 219 L987 223 L1014 230 L1040 239 L1065 249 L1090 262 L1113 276 L1135 292 L1157 309 L1177 327 L1196 346 L1215 366 L1232 387 L1249 408 L1265 429 L1281 451 L1295 473 L1309 496 L1323 519 L1335 542 L1347 566 L1357 591 L1366 616 L1373 642 L1378 668 L1382 694 L1385 721 L1385 747 L1384 774 L1381 800 Z" stroke="#ECE9E2" stroke-opacity="0.100" stroke-width="1"/><path d="M1401 800 L1397 827 L1392 853 L1387 880 L1381 905 L1374 931 L1367 956 L1360 982 L1352 1007 L1344 1033 L1336 1058 L1327 1084 L1317 1109 L1306 1134 L1294 1159 L1281 1184 L1266 1207 L1250 1230 L1232 1252 L1213 1272 L1192 1291 L1169 1308 L1146 1324 L1121 1337 L1096 1349 L1069 1360 L1043 1368 L1016 1376 L989 1382 L962 1388 L935 1392 L908 1396 L881 1399 L854 1401 L827 1402 L800 1403 L773 1404 L746 1403 L719 1401 L691 1398 L664 1394 L637 1389 L611 1382 L585 1374 L559 1364 L533 1353 L509 1341 L485 1328 L461 1313 L439 1297 L417 1281 L395 1263 L374 1245 L354 1226 L335 1206 L316 1186 L298 1164 L282 1142 L266 1119 L251 1096 L237 1071 L225 1046 L215 1020 L206 993 L199 966 L194 938 L191 911 L189 883 L188 855 L190 827 L192 800 L195 773 L200 746 L205 719 L210 693 L216 667 L223 641 L230 615 L237 589 L246 563 L255 537 L265 512 L276 487 L288 462 L302 438 L317 415 L334 393 L353 373 L373 353 L394 336 L417 320 L441 305 L465 292 L490 281 L515 271 L541 262 L566 254 L592 246 L618 239 L643 232 L669 226 L695 219 L720 213 L747 207 L773 201 L800 196 L827 191 L855 188 L883 186 L911 186 L940 188 L968 191 L996 197 L1023 205 L1050 215 L1076 227 L1101 240 L1125 256 L1148 273 L1170 291 L1191 310 L1210 330 L1230 351 L1248 372 L1265 393 L1282 415 L1298 438 L1314 461 L1329 484 L1342 508 L1355 533 L1367 558 L1377 583 L1386 610 L1393 636 L1399 663 L1403 691 L1405 718 L1405 746 L1404 773 L1401 800 Z" stroke="#ECE9E2" stroke-opacity="0.088" stroke-width="1"/><path d="M1422 800 L1418 828 L1414 855 L1409 882 L1403 909 L1397 936 L1391 963 L1384 990 L1377 1017 L1369 1043 L1361 1070 L1352 1097 L1342 1124 L1330 1150 L1318 1176 L1303 1201 L1287 1226 L1270 1249 L1250 1271 L1230 1292 L1207 1311 L1183 1328 L1158 1343 L1133 1357 L1106 1369 L1079 1379 L1051 1388 L1024 1396 L996 1403 L968 1409 L940 1414 L912 1418 L884 1421 L856 1424 L828 1427 L800 1428 L772 1428 L743 1428 L715 1426 L687 1423 L659 1419 L631 1414 L603 1406 L576 1398 L549 1388 L523 1376 L497 1363 L472 1349 L448 1334 L424 1318 L401 1300 L379 1282 L357 1263 L336 1243 L316 1223 L297 1201 L278 1179 L261 1156 L245 1132 L230 1107 L216 1081 L204 1055 L194 1027 L185 1000 L178 972 L173 943 L170 914 L168 886 L168 857 L169 828 L171 800 L174 772 L178 744 L183 716 L188 689 L194 662 L200 634 L207 607 L214 580 L222 553 L232 526 L242 500 L254 474 L267 448 L282 424 L298 400 L316 377 L336 356 L357 337 L380 319 L403 303 L428 288 L453 275 L479 263 L505 252 L531 242 L558 233 L584 224 L610 216 L637 208 L663 200 L690 192 L717 185 L744 178 L772 171 L800 166 L829 161 L858 158 L887 157 L917 157 L946 160 L975 164 L1004 171 L1033 180 L1060 192 L1087 205 L1112 220 L1137 237 L1160 255 L1182 274 L1204 294 L1224 314 L1244 335 L1263 357 L1281 379 L1299 402 L1316 425 L1332 449 L1348 473 L1362 498 L1375 523 L1387 549 L1397 576 L1406 603 L1414 631 L1419 659 L1423 687 L1425 715 L1425 744 L1424 772 L1422 800 Z" stroke="#ECE9E2" stroke-opacity="0.064" stroke-width="1"/><path d="M1443 800 L1440 829 L1436 857 L1432 886 L1427 914 L1421 942 L1416 970 L1409 998 L1403 1026 L1395 1054 L1387 1083 L1377 1111 L1367 1139 L1355 1166 L1341 1193 L1325 1219 L1308 1244 L1289 1268 L1268 1290 L1246 1310 L1222 1329 L1197 1347 L1171 1362 L1144 1376 L1116 1388 L1088 1399 L1060 1408 L1031 1416 L1003 1423 L974 1430 L945 1436 L916 1440 L887 1445 L858 1448 L829 1451 L800 1453 L771 1454 L741 1453 L712 1452 L682 1449 L653 1444 L624 1438 L595 1431 L567 1421 L539 1411 L512 1399 L485 1385 L459 1370 L434 1354 L409 1338 L386 1320 L362 1301 L340 1281 L318 1260 L298 1239 L278 1217 L259 1193 L241 1169 L224 1144 L209 1118 L196 1091 L184 1063 L173 1035 L165 1006 L158 977 L153 948 L150 918 L148 888 L148 859 L148 829 L150 800 L153 771 L156 742 L160 713 L165 685 L170 656 L176 628 L183 599 L190 571 L199 543 L208 515 L219 487 L232 460 L246 434 L262 409 L279 385 L299 362 L319 341 L342 321 L365 302 L390 286 L415 270 L441 257 L468 244 L494 232 L521 221 L548 211 L575 201 L602 192 L629 182 L657 173 L685 164 L713 156 L741 148 L770 141 L800 135 L830 131 L860 128 L891 128 L922 129 L952 133 L983 139 L1012 147 L1041 157 L1069 170 L1096 184 L1123 201 L1148 218 L1172 237 L1195 257 L1217 277 L1238 299 L1259 320 L1278 343 L1297 365 L1316 389 L1334 412 L1350 437 L1366 462 L1381 487 L1395 514 L1407 541 L1418 568 L1427 596 L1434 625 L1439 654 L1443 683 L1445 713 L1446 742 L1445 771 L1443 800 Z" stroke="#ECE9E2" stroke-opacity="0.050" stroke-width="1"/><path d="M1465 800 L1462 830 L1459 859 L1456 889 L1451 918 L1447 948 L1442 977 L1436 1007 L1429 1036 L1422 1066 L1413 1095 L1403 1125 L1392 1153 L1378 1182 L1364 1209 L1347 1236 L1328 1262 L1308 1286 L1286 1308 L1262 1329 L1237 1348 L1210 1365 L1183 1380 L1155 1394 L1126 1407 L1097 1418 L1068 1428 L1039 1436 L1009 1444 L980 1451 L950 1458 L920 1464 L891 1469 L861 1473 L830 1476 L800 1478 L769 1479 L739 1479 L708 1477 L678 1474 L647 1469 L617 1463 L587 1455 L558 1445 L529 1434 L501 1421 L473 1407 L447 1391 L420 1375 L395 1357 L370 1339 L346 1319 L323 1299 L301 1277 L279 1255 L259 1232 L239 1207 L221 1182 L204 1156 L189 1129 L175 1101 L163 1072 L153 1043 L145 1013 L138 983 L133 952 L130 922 L128 891 L127 861 L127 830 L129 800 L131 770 L134 740 L137 710 L141 680 L146 651 L152 621 L158 592 L166 562 L175 533 L185 504 L196 475 L210 447 L225 420 L242 394 L261 370 L281 347 L303 325 L326 305 L351 286 L376 269 L402 253 L429 238 L456 225 L484 212 L511 200 L539 188 L566 177 L594 166 L622 156 L651 146 L679 136 L709 127 L739 118 L769 111 L800 105 L831 102 L863 100 L895 100 L927 102 L958 107 L989 114 L1020 124 L1049 136 L1078 149 L1106 165 L1133 182 L1158 201 L1183 220 L1207 240 L1229 262 L1251 283 L1273 306 L1293 328 L1313 351 L1333 375 L1351 400 L1369 425 L1385 450 L1401 477 L1415 504 L1427 532 L1438 561 L1447 590 L1454 619 L1460 649 L1464 680 L1466 710 L1467 740 L1466 770 L1465 800 Z" stroke="#ECE9E2" stroke-opacity="0.059" stroke-width="1"/><path d="M1488 800 L1486 831 L1484 862 L1481 892 L1477 923 L1473 954 L1468 984 L1463 1015 L1456 1046 L1448 1077 L1439 1108 L1429 1138 L1416 1168 L1402 1197 L1386 1226 L1368 1253 L1348 1279 L1326 1303 L1302 1325 L1277 1346 L1251 1365 L1223 1383 L1195 1398 L1166 1412 L1136 1425 L1107 1437 L1077 1447 L1046 1457 L1016 1465 L986 1473 L955 1481 L925 1487 L894 1493 L863 1498 L831 1501 L800 1504 L768 1505 L737 1505 L705 1503 L673 1499 L642 1494 L610 1487 L580 1478 L549 1468 L519 1456 L490 1443 L462 1428 L434 1412 L407 1395 L381 1377 L355 1358 L330 1337 L306 1316 L283 1294 L261 1271 L240 1246 L220 1221 L202 1195 L185 1168 L169 1139 L156 1110 L144 1081 L133 1050 L125 1019 L118 988 L113 957 L109 925 L107 894 L106 862 L106 831 L107 800 L108 769 L110 738 L113 707 L117 676 L122 645 L127 614 L134 583 L141 553 L150 522 L161 492 L174 463 L188 434 L204 407 L222 380 L242 355 L264 331 L287 309 L311 288 L336 269 L363 251 L389 235 L417 219 L444 205 L472 191 L500 178 L529 165 L557 153 L586 140 L615 129 L644 117 L674 107 L705 97 L736 89 L768 81 L800 76 L833 73 L866 72 L899 73 L931 76 L964 82 L996 91 L1027 102 L1057 115 L1086 130 L1115 146 L1142 164 L1168 183 L1194 204 L1218 224 L1242 246 L1265 268 L1287 291 L1309 314 L1330 337 L1350 362 L1369 387 L1387 412 L1404 439 L1420 466 L1434 495 L1447 523 L1458 553 L1467 583 L1475 614 L1481 645 L1485 676 L1487 707 L1489 738 L1489 769 L1488 800 Z" stroke="#ECE9E2" stroke-opacity="0.082" stroke-width="1"/><path d="M1512 800 L1511 832 L1509 864 L1507 896 L1504 928 L1500 960 L1496 992 L1490 1024 L1483 1056 L1475 1089 L1465 1120 L1454 1152 L1441 1183 L1425 1213 L1408 1241 L1388 1269 L1367 1295 L1343 1319 L1318 1342 L1292 1363 L1264 1382 L1236 1400 L1206 1416 L1177 1430 L1146 1444 L1116 1456 L1085 1467 L1054 1477 L1023 1487 L992 1496 L961 1504 L929 1511 L897 1517 L865 1523 L833 1527 L800 1530 L767 1531 L734 1530 L701 1528 L669 1524 L636 1519 L604 1511 L572 1502 L541 1491 L510 1479 L480 1465 L450 1450 L422 1433 L394 1415 L367 1396 L340 1376 L315 1355 L290 1333 L266 1310 L243 1286 L222 1261 L202 1235 L183 1207 L166 1179 L150 1150 L136 1120 L124 1089 L114 1058 L105 1026 L98 994 L93 961 L89 929 L86 897 L84 864 L84 832 L84 800 L85 768 L86 736 L89 704 L92 672 L96 639 L102 607 L108 575 L116 543 L126 512 L138 481 L151 451 L166 421 L184 393 L203 366 L224 340 L246 316 L270 294 L295 272 L322 253 L349 234 L376 217 L404 200 L432 185 L461 170 L489 155 L518 141 L547 127 L577 114 L607 101 L638 89 L669 78 L701 68 L733 59 L766 52 L800 47 L834 45 L868 45 L902 47 L936 52 L969 59 L1002 69 L1034 81 L1064 95 L1094 111 L1123 128 L1151 147 L1178 167 L1204 187 L1230 208 L1254 230 L1278 253 L1301 276 L1324 299 L1346 323 L1367 348 L1387 374 L1406 400 L1423 428 L1440 456 L1454 485 L1467 515 L1479 545 L1488 576 L1496 608 L1502 640 L1506 672 L1509 704 L1511 736 L1512 768 L1512 800 Z" stroke="#ECE9E2" stroke-opacity="0.099" stroke-width="1"/><path d="M1537 800 L1536 833 L1535 866 L1534 899 L1531 933 L1528 966 L1523 1000 L1518 1033 L1511 1067 L1502 1100 L1491 1133 L1479 1165 L1464 1197 L1447 1227 L1429 1257 L1408 1285 L1385 1311 L1360 1335 L1334 1358 L1306 1379 L1278 1399 L1248 1417 L1218 1433 L1187 1448 L1156 1462 L1125 1475 L1094 1487 L1062 1498 L1030 1509 L998 1519 L966 1528 L933 1535 L901 1542 L867 1548 L834 1553 L800 1555 L766 1557 L732 1556 L698 1554 L664 1549 L630 1543 L597 1535 L564 1525 L532 1514 L500 1501 L469 1486 L439 1471 L410 1453 L381 1435 L353 1416 L326 1395 L299 1373 L274 1351 L249 1327 L226 1302 L204 1275 L183 1248 L164 1220 L147 1190 L131 1160 L117 1129 L105 1097 L94 1065 L85 1032 L78 999 L72 966 L68 933 L64 900 L62 866 L61 833 L60 800 L61 767 L62 734 L64 700 L67 667 L71 634 L76 600 L83 567 L92 534 L102 502 L114 470 L129 439 L145 409 L163 380 L184 352 L206 326 L229 301 L254 278 L280 256 L307 236 L334 216 L363 198 L391 180 L420 164 L449 147 L478 131 L508 116 L538 101 L568 87 L599 73 L631 60 L664 49 L697 39 L731 30 L765 24 L800 20 L835 18 L870 19 L905 23 L940 29 L974 37 L1007 48 L1040 62 L1072 77 L1102 93 L1132 111 L1160 130 L1188 150 L1215 171 L1241 193 L1267 215 L1292 237 L1316 260 L1340 284 L1362 309 L1384 334 L1405 360 L1425 388 L1443 416 L1459 445 L1475 475 L1488 506 L1499 537 L1509 570 L1517 602 L1524 635 L1529 668 L1532 701 L1535 734 L1536 767 L1537 800 Z" stroke="#ECE9E2" stroke-opacity="0.094" stroke-width="1"/><path d="M1562 800 L1563 834 L1563 869 L1561 903 L1559 938 L1556 973 L1552 1007 L1546 1042 L1538 1077 L1528 1111 L1517 1145 L1503 1178 L1487 1211 L1469 1242 L1449 1271 L1426 1299 L1402 1326 L1376 1351 L1349 1374 L1320 1395 L1290 1415 L1260 1433 L1229 1450 L1198 1466 L1166 1481 L1135 1495 L1102 1508 L1070 1520 L1038 1531 L1005 1542 L972 1552 L938 1560 L904 1568 L870 1574 L835 1578 L800 1581 L765 1582 L730 1582 L695 1579 L660 1574 L625 1567 L591 1559 L557 1548 L524 1536 L491 1523 L459 1508 L428 1491 L398 1474 L368 1455 L339 1435 L311 1413 L284 1391 L258 1367 L232 1343 L209 1317 L186 1290 L165 1261 L146 1232 L128 1202 L112 1170 L98 1138 L85 1106 L74 1072 L65 1039 L57 1005 L51 971 L46 937 L42 903 L39 868 L37 834 L36 800 L36 766 L36 731 L38 697 L41 662 L45 628 L50 593 L58 559 L67 525 L78 491 L91 459 L107 427 L124 396 L143 367 L165 338 L188 312 L212 286 L238 262 L264 240 L292 218 L320 198 L349 179 L378 160 L407 142 L436 124 L466 107 L497 91 L528 75 L559 59 L592 45 L625 32 L658 20 L693 10 L728 2 L764 -4 L800 -7 L836 -7 L872 -5 L908 -0 L944 7 L979 17 L1013 29 L1046 43 L1078 59 L1110 76 L1140 94 L1169 114 L1198 134 L1226 155 L1253 176 L1280 198 L1306 221 L1331 245 L1355 269 L1379 294 L1402 320 L1423 347 L1444 375 L1462 404 L1480 434 L1495 465 L1509 497 L1521 530 L1531 563 L1539 596 L1546 630 L1552 664 L1556 698 L1559 732 L1561 766 L1562 800 Z" stroke="#ECE9E2" stroke-opacity="0.071" stroke-width="1"/><path d="M1589 800 L1590 835 L1591 871 L1590 907 L1588 943 L1585 979 L1580 1015 L1573 1051 L1565 1087 L1554 1122 L1542 1157 L1527 1191 L1509 1224 L1490 1255 L1468 1285 L1444 1314 L1419 1341 L1392 1366 L1363 1389 L1334 1411 L1303 1431 L1272 1450 L1241 1468 L1209 1484 L1177 1500 L1144 1515 L1111 1529 L1078 1542 L1045 1554 L1011 1566 L977 1576 L943 1585 L907 1593 L872 1600 L836 1604 L800 1607 L764 1608 L727 1607 L691 1604 L655 1598 L619 1591 L584 1582 L549 1571 L515 1559 L482 1544 L449 1529 L417 1512 L386 1494 L355 1474 L325 1453 L296 1432 L268 1408 L242 1384 L216 1358 L192 1332 L169 1304 L147 1274 L127 1244 L109 1213 L93 1180 L78 1148 L66 1114 L54 1080 L45 1045 L36 1011 L30 976 L24 941 L19 906 L15 871 L13 835 L11 800 L10 765 L10 729 L11 693 L14 657 L18 622 L24 586 L32 551 L42 516 L54 481 L68 448 L85 415 L103 384 L124 354 L146 325 L170 297 L195 271 L221 247 L249 223 L277 201 L305 180 L334 159 L364 139 L394 120 L424 101 L454 83 L486 65 L518 48 L550 32 L584 17 L618 4 L653 -8 L689 -18 L726 -25 L763 -30 L800 -32 L837 -31 L875 -28 L911 -22 L948 -14 L983 -3 L1018 10 L1052 25 L1085 41 L1117 59 L1148 77 L1178 97 L1208 117 L1237 138 L1265 160 L1293 182 L1320 205 L1346 229 L1372 253 L1396 279 L1420 306 L1442 333 L1463 362 L1482 392 L1500 423 L1516 455 L1530 488 L1542 521 L1553 555 L1562 590 L1569 624 L1576 659 L1580 694 L1584 729 L1587 765 L1589 800 Z" stroke="#ECE9E2" stroke-opacity="0.052" stroke-width="1"/><path d="M1617 800 L1618 837 L1619 874 L1618 911 L1616 948 L1613 986 L1608 1023 L1600 1060 L1591 1097 L1580 1133 L1566 1169 L1549 1203 L1531 1236 L1510 1268 L1486 1299 L1461 1327 L1435 1354 L1406 1380 L1377 1404 L1347 1426 L1316 1447 L1284 1466 L1252 1485 L1220 1503 L1187 1519 L1154 1535 L1121 1550 L1087 1564 L1053 1578 L1018 1590 L983 1601 L947 1611 L911 1619 L874 1626 L837 1630 L800 1633 L763 1633 L725 1632 L688 1628 L651 1622 L614 1615 L578 1605 L542 1594 L507 1580 L473 1566 L439 1550 L406 1532 L374 1513 L342 1493 L312 1472 L282 1450 L253 1426 L226 1401 L200 1374 L175 1346 L151 1317 L129 1287 L109 1256 L91 1224 L74 1191 L59 1157 L46 1122 L34 1087 L24 1052 L15 1017 L7 981 L1 945 L-5 909 L-9 873 L-13 836 L-15 800 L-16 763 L-17 726 L-15 690 L-13 653 L-8 616 L-2 579 L7 542 L18 506 L31 471 L46 437 L63 404 L83 371 L104 341 L127 311 L152 283 L178 257 L205 231 L233 207 L261 183 L290 161 L320 139 L350 118 L380 97 L411 77 L442 58 L475 39 L508 21 L542 5 L576 -11 L612 -24 L648 -35 L686 -44 L723 -51 L762 -55 L800 -56 L838 -54 L876 -50 L914 -43 L951 -33 L987 -21 L1023 -8 L1058 7 L1091 24 L1124 42 L1156 61 L1187 80 L1218 100 L1248 121 L1277 143 L1306 165 L1334 188 L1362 212 L1389 237 L1414 263 L1438 291 L1461 319 L1483 349 L1503 380 L1521 412 L1537 445 L1552 479 L1565 513 L1576 548 L1585 583 L1593 619 L1600 655 L1606 691 L1610 727 L1614 763 L1617 800 Z" stroke="#ECE9E2" stroke-opacity="0.054" stroke-width="1"/><path d="M1645 800 L1647 838 L1648 876 L1647 915 L1645 953 L1641 992 L1635 1030 L1627 1069 L1617 1107 L1604 1144 L1589 1180 L1571 1215 L1551 1249 L1528 1281 L1504 1312 L1478 1341 L1450 1368 L1421 1394 L1391 1418 L1360 1441 L1328 1463 L1296 1483 L1264 1503 L1231 1521 L1198 1539 L1164 1556 L1130 1572 L1096 1587 L1060 1602 L1025 1615 L989 1626 L952 1637 L914 1645 L877 1652 L838 1656 L800 1658 L761 1659 L723 1657 L685 1652 L646 1646 L609 1638 L572 1628 L535 1616 L499 1602 L464 1587 L429 1570 L395 1552 L362 1533 L330 1513 L298 1491 L268 1467 L238 1443 L210 1417 L183 1390 L158 1361 L134 1331 L112 1300 L91 1268 L72 1235 L55 1201 L40 1166 L26 1131 L13 1095 L2 1059 L-7 1023 L-16 986 L-23 949 L-29 912 L-34 875 L-39 838 L-42 800 L-43 762 L-44 724 L-42 686 L-39 648 L-34 610 L-27 572 L-18 534 L-6 497 L7 461 L24 426 L42 392 L63 359 L85 328 L109 298 L134 269 L161 242 L188 215 L217 190 L245 165 L275 141 L305 118 L335 96 L366 74 L398 53 L430 32 L464 13 L498 -5 L533 -22 L569 -37 L606 -51 L644 -61 L682 -70 L721 -75 L761 -78 L800 -78 L839 -75 L878 -70 L917 -62 L955 -52 L992 -39 L1028 -25 L1063 -10 L1098 7 L1131 25 L1164 43 L1197 63 L1228 83 L1260 104 L1290 125 L1320 148 L1350 171 L1378 195 L1406 221 L1432 248 L1457 276 L1481 305 L1503 336 L1524 368 L1542 401 L1559 434 L1574 469 L1587 505 L1599 540 L1609 577 L1618 613 L1625 650 L1632 687 L1637 725 L1641 762 L1645 800 Z" stroke="#ECE9E2" stroke-opacity="0.075" stroke-width="1"/>
</svg>
