<svg xmlns="http://www.w3.org/2000/svg" width="800" height="395" stroke-linecap="round" stroke-linejoin="round" baseProfile="tiny" viewBox="0 0 800 395"><g fill="#000" stroke="none"><path d="M635 2H183.2l3.9-1h427.7z"/><path d="M431.9 176.4v4.4h-2.2l.3 11 1.6.3z" class="landxx sd"/><path d="m193.4 212.6-2-.5" class="landxx pe"/><path d="m364 174.5-1-.4" class="landxx bf"/><path d="m397.5 124.6 1.3.6.5 22.2-2.1 1.3-17.6-10-4 2" class="landxx ly"/><path d="m424.2 68.6-1-.3" class="landxx eaeu by"/><path d="m357 184.6.2-1.4" class="landxx ci"/><path d="m358.2 131.6.1-3.2-1.8.4-3.2-2.5" class="landxx dz"/><path d="m390.7 83.8.3-.4" class="landxx ch"/><path d="m395.7 189-.4-2-2.3.8" class="landxx cm"/><path d="m420.7 264.3.3-7.1h2l.6-8-1.2.2" class="landxx bw"/><path d="m453 203.8 2.4-1-.3 5.8-7.4-4.6" class="landxx ke"/><path d="M452.9 126.3v-1.9l2.3-1.4.8 2.2 2.4 2.6" class="landxx jo"/><path d="m349.2 163.5-1.5-20.6h3.9l-.1 1.3-2.3.2" class="landxx ml"/><path d="m403.8 215.9.5 4.5-3.2-.5" class="landxx cd"/><path d="m506.4 114.3-.7.7" class="landxx af"/><path d="m369.2 185.2.3-.2" class="landxx gh"/><path d="M397.9 81h-.7" class="landxx eu at"/><path d="m442.9 204.1-.5-.4" class="landxx ug"/><path d="m198.6 197.1-.1 3.3" class="landxx co"/><path d="M460.4 116h-2.6l-.6-1.7" class="landxx iq"/><path d="m377 164.4 5.2-2.7-.1 1.8-2.4 2.5" class="landxx ne"/><path d="m419.3 58.4-1.3-.3" class="landxx eu lv"/><path d="m419.4 83.9 2.6-1.4" class="landxx eu ro"/><path d="m425.5 242.4.1-11.3-.8-.9" class="landxx zm"/><path d="m450.4 181-7.1 8.4" class="landxx et"/><path d="m170.8 164 2.7-.2" class="landxx gt"/><path d="m246.5 192-1-2.8" class="landxx sr"/><path d="m402.9 73.4-2.3-.5" class="landxx eu cz"/><path d="m406.6 164.4.1-4 2.2-1.6 17.5 10 .2 7.8" class="landxx td"/><path d="m418 97.6.5-.2" class="landxx al"/><path d="m453.6 116.4-.9 1.1" class="landxx sy"/><path d="M522.4 99h1" class="landxx eaeu kg"/><path d="m238.8 257.9.2 2.5" class="landxx py"/><path d="m406.8 67.2-1 1.2" class="landxx eu pl"/><path d="m402.7 245.1-.3 9.4h-2l-.4 16-.8-1.8" class="landxx na"/><path d="m435.6 276.7-1.4.1m-22.7-2.7-.7-6.9" class="landxx za"/><path d="M430.8 124.7h.6l.6-.5 1.7 4.7 2.9 5h-4.8l-.4-16" class="landxx eg"/><path d="m238.4 186-.4.5" class="landxx gy"/><path d="m384.3 71.6-.7-.3" class="landxx eu be"/><path d="m435.6 276.7-1.4.1" class="landxx ls"/><path d="m424 89.7-.2.3" class="landxx eu bg"/><path d="m470 173 1-1.3" class="landxx dj"/><path d="m252.3 279-.8-.4" class="landxx uy"/><path d="m401.4 211.2-.6 4.2-1.5 1.7" class="landxx cg"/><path d="M337.9 163.6h-4.4" class="landxx sn"/><path d="m376 172.8.1 3.4" class="landxx tg"/><path d="m518.3 101 1 1.5" class="landxx tj"/><path d="m341.1 37.8-1 .4" class="landxx coastxx is"/><path d="M180.8 167.9v-1" class="landxx ni"/><path d="m350.5 183.5-1.7-2.3" class="landxx lr"/><path d="m412.5 77.6-1.4-.5" class="landxx eu sk"/><path d="m432.7 246.6 1.6.6" class="landxx zw"/><path d="m598 149.3.5.1" class="landxx la"/><path d="M636 99h.2" class="landxx kp"/><path d="m486 94.9 1.6-1.4" class="landxx tm"/><path d="m378.2 173.9-.4 1.3" class="landxx bj"/><path d="m406 84.2-.4-.1" class="landxx eu si"/><path d="m550.8 127.3-1.1-.6" class="landxx np"/><path d="m491.6 86.7 4.8-1.5.3-.2-.2-.7 1.5.8 2.3 1.2-1.1.2-1.6-1.2h-1.4l-2-9.3" class="landxx uz"/><path d="m551.7 76.2 5.5.1.2 3.7-5-.8" class="landxx mn"/><path d="M570.5 132h-1" class="landxx bt"/></g><g fill="none" stroke="#000"><path d="m459.9 90.7-.4.9" class="landxx ge"/><path d="m459.9 90.7.5-.6" class="limitxx ge xa"/></g><path fill="none" stroke="#000" d="M508.8 125h-.1" class="landxx pk"/><g fill="none" stroke="#000"><path d="m671.8 203.7.9-.8-.7 14.4M621.5 199l-.8 1.2" class="landxx id"/><path d="m678.1 211.2-.1-.2m.9-4.7v-.2m2.4-.9h-1.8m5.8 17.2-.1.3m2.7-.1h.2m-43.4-8.3-.4-6.4m7.5 7.1-.4.7m1.7-3.3.1-.8m.5-6.2.1-.5m.2-.7v-.2m0 1.5.2-.2m-.2 9.2-.1-.2m.5.8-.2-.2m.8 1.3-.1-.2m1.5-10.6.7-.1m1.5-11.1v-.2m2.8-2.5.1.4m1.5 7.1v-.2m.4 3.2h-.4m.1-1.8v-.2m.2 4.8h1m-.8-.6h-.4m.3 5.3-.2-.2m1.1-.7-.3.3m.7-13.6v.2m.6 14.6v-.2m3.7-3.6.4.1m-.7-2.4-.2.2m.7-3 .1.2m1.3.9.1.3m.8 1.1.1-.2m.1 8-.2-.2m.5 0-.1-.2m-59.1 6.7-.2.2m3.6-1.4.7.2m13.1 1.9h.6m2.5.5-.2-.2m.6.4h-.2m2.4 4.2v.4m4.4-1.4.4-.6m2.5 3.5-.6-.8m2.4-1.7h-.2m2.8-4-.3-.1m.6.8h-.4m1.3 8.5h-.2m.6-.2v.2m2.6.4-.2-.4m.8-5.3v.2m1.1-.8.2.2m2.2-.5h-.5m7.7 0h-.2m1.2 0-.2.3m6.5-2h-.2m.6-.3-.3.2m1.7-.9-.2-.2m3.1-3.7v-.3m0 1.4-.5 1m4.6.1-.1-.2m-88.4-31 .1.2m4.9 1.1 3 2.6m-2.3 9.3.3.5m1.5 2.3-.2.5m-.1-1.8.4 1m.1-5.1h.2m8.6.3v-.6m0 1.4.1-.6m1.2 1.7v-.2m.6.7.2-.2m.1-.9-.3-.3m.5 1v-.2m.9-.3.3.1m.3.2.1.2m.5 2.7-.4.2m.3-1.4-.1-.2m.4 0-.4-.4m2.2 5.3.2.7m3 2.4-.3-.2m5.2-3.2.2-.3m16.5 4.9v-.4m2.2-16.7-.2-.1m.7 9.5v-.2m2.2-6.6-.2-.4m-3-2.7v-.2m38 24.5-.1 1.3"/></g><g fill="none" stroke="#000"><path d="M472 165.7v-.3m21.5 4.8.4.1"/><path d="M494.8 158.6v-1" class="landxx ye"/></g><path fill="none" stroke="#000" d="m472 257.4 1.2-4m14.5-9.6.3-.8m-267.4-14 3 .6m-.6 12.9h-.3"/><path d="m418.3 83.7-1-.8 1 .4z" class="landxx rs"/><g fill="none" stroke="#000"><path d="m126.4 118.2-.5.6 7 3h6v-1.2h3.8l-.4 1.8h-3v.7l-.7-.7-.8-1-1-.6-1.1-1-1 .8" class="landxx mx"/><path d="m139.8 137.5.2.2m-6.6-9.8.5.2"/></g><g fill="none" stroke="#000"><path d="M494.9 139.7h.2"/><path d="m490 139.3-3-.7-1.8-2.2" class="landxx ae"/></g><g fill="none" stroke="#000"><path d="m181.3 156.8-.2.4"/><path d="m178 160.7-.6 2" class="landxx bz"/></g><g fill="none" stroke="#000"><path d="m210.2 220.4 3.9.7-.2-.5" class="landxx br"/><path d="m262.7 195.8.1-.3m-1 6.4.5-.5m-.6-.3v.2m.3 3.7v.8m1.2-5.2.3-.3m2.5 5.5.2-.6m8.8-.6v.2m.5.5h.2m2.3 1.8.1-.3m-7.4 61.4.2.2"/></g><g fill="none" stroke="#000"><path d="m347.4 181.8.9.3"/><path d="m346.6 178.1.6 1.2" class="landxx sl"/></g><g fill="none" stroke="#000"><path d="m392 86.3-.7-.3" class="landxx eu it"/><path d="m403 107.5-.1-.2m-7.4-9.1-.4.3m4.6-6.1v.4"/></g><path fill="none" stroke="#000" d="m468.6 195.3 6.4-7.6-1.3-1.1-4.2 5.3v-6.7" class="landxx so"/><g fill="none" stroke="#000"><path d="M576 143.4v.5m.2 1.1-.1.2m.3-1.2v.3m3 2.1.2.7"/><path d="m569.8 133.7.1-.6-.7-.7" class="landxx bd"/></g><g fill="none" stroke="#000"><path d="M217.4 155.2v-.5" class="landxx do"/><path d="m224.5 155-.4-.1"/></g><g fill="none" stroke="#000"><path d="M340.2 173h.3m.1-2.1h-.3m.3.9-.3.2m1.9.7.2.2"/><path d="M339 169.8h2" class="landxx gw"/></g><g fill="none" stroke="#000"><path d="m401 52.3.2 3.5.4-.5" class="landxx eu se"/><path d="m402 54.3-.5.2m.3.2-.4.3m9.3 3.6.7-1.2m2.3-5-.2.1m.4-3.2v.2m.3 2.8-.2.2m.4-1.1.3-.2m5.1-13.7h-.2m-7.8 6.9v-.2"/></g><path fill="none" stroke="#000" d="m432.2 100.5.8.3"/><g fill="none" stroke="#000"><path d="m444 239.4 1 .5" class="landxx mz"/><path d="M457.2 249.3v.2"/></g><path fill="none" stroke="#000" d="m648.4 139 .3.3m5-5.3-.1-.3m3.9-3.7-.3-.4m.6-.3-.2-.1m-4.6-11.4.5.3m.1-1.2-.2-.5m.8-.1-.2.3m.2-1.6-.3-.2m.9 1.4h.2m1.6-1.5-.7-.8m3-4.9v-.2m.7 5.1v-.2m.7 1.8v-.7m-.5-.8-.1-.1m1-.1v-.2m3.1-28.1-1.8-1.2m11.7 28.2-.2-.2m40.4 208.1.2-.2m-1.4-2h-2m27.9-11.9 1.3-.2m6.9-11.3-.3.1m4.2 18.3h.4m-.1.8-.3.1m-561-168.7-.3 1.1m14.2 2.4-.2-.2m.7-4.7h-.7m2.1 1.3-.4-.3"/><g fill="none" stroke="#000"><path d="m211.8 177.8 1 1.3" class="landxx ve"/><path d="m239.2 179.5.3-.3m-.1-.1h-.4m.7.1h-.3m.4-.7-.4.2m.5-.7-.1.2m.2-.2-.7.5m.7-.5-.3.1m-9.5-4.7v-.2"/></g><g fill="none" stroke="#000"><path d="M358.5 101v.4" class="landxx eu pt"/><path d="M318.8 103.4h-.4"/></g><path d="M339.2 147.1h8.3l.3-6.4 7.3-.1.1-3.2h-4l1.7 21.5h-4.7l-.4 1.3z" class="landxx mr"/><path fill="none" stroke="#000" d="m402.7 245.2 5.3.4-.2 4.3m-4.4-35.9h-.2m-7.1-151.2h.2m4.6.6.5.2m4.6.7V64"/><g fill="none" stroke="#000"><path d="m592.5 153.8.5.9" class="landxx th"/><path d="m597.5 180.5.2.4m2.5 3.1v-.3m.4-7.5-.2-.2m4.9-5.4.2.3"/></g><g fill="none" stroke="#000"><path d="m692.6 224.4 1-14.6 1 1.7" class="landxx pg"/><path d="m698.5 222.8.5.1m-.2-.2.3.2m-.1-1.1.2.1m.4-.8.2.2m9.1-14.1-.1.2m3.8 5.8h.2m1.8 13.4h.2m.8-17.8.4-.2m3.8 2.4.8.7m-1.2 18.3.2.1m1.8.2.2.1m4.6-11.1h.4m.4-.3v.4"/></g><g fill="none" stroke="#000"><path d="m414.5 92-.2-.2" class="landxx eu hr"/><path d="m408.3 87 .2.2m.2 1.5-.2-.2m.5.5-.2-.1m.6.2-.2-.1m1.1 1h.2m1.3.9-.2-.1m.9.2-.4.2m.8.8-.5-.1m.8-.5h-.2m1.7 1-.7-.1"/></g><path fill="none" stroke="#000" d="m294.2 27.8-.8.1m.9-1.1v-.3m.6-2.7h-.5m4.6.8.4-.1m.3 1.2-.4-.2m.7.9.5.1m-.2.3h.5m-7 5.2h-.2m1.5-1-.4.3m-.4-2.5h-.2m5.9-.8-.4-.3m-4-5.2.5-.1m.1-2.3h-.2m-.3 2.4h-.2m.3-2.1h-.2m.4-2-.2.1m1.2 3.3h-.2m-.2-1.8.5-.2m-.5.9-.3.2m.1-.9-.2-.1m.3 1.9h-.2m.7-.1h.6m-.7-1.3.4.3m-.6-.1h-.2m.6.3.5-.2m-10.5-8h-.2m-8.2.1-1.1-.2m9.2-.1.4-.1M322 4h.2m.8-.4 1 .1m6.4-.7h.6m2.7.2h.4m22.6 2.3h-.9m4.2-.1.2-.1m-.6-.5.4.2m-6.2 6.7.4-.2m1.1.5.6.2m1-1.9h-.2m1.7.2.4-.2m-.1-.2.3-.2m.6-.4v-.2m-15.1 11.6h.3m6.7-2.3-.5-.1m1.7-4 .6-.2m-.1 3.7.7-.4m-.5-3.2h.5m2.8 2.3.3-.3m-15.2 9.1-.5-.3m6.5-2.3-1.4-.5m-35.8 18h.2m0 .1h.7m2.7-2.5h.4m4.3-.6h.4M280.7 14l1.8 3 15.3-10.7-4.9.7m.1 36.1h.2m-.2-.3v-.2m1 3.2.2-.1m10.3 2.4h-.5m-12.3-10.3h.2m.6.6.2-.1m2.6 9.3h.2m3.1.5V48m2.6 2.2-.2.1m.7.4v.2m1.3-.7-.2.2m4.4-6 .1.2m2.2-1.6h.2m-7.8 7.2.2-.1m50.8-35.3-.6-.2"/><g fill="none" stroke="#000"><path d="M395.4 58.2V58h.6l.5-.7" class="landxx eu dk"/><path d="m396.3 58-.1.4m2.1 2.4v-.4m1.3 2.1.4.3m-.2-.8.2.1m.6-5.4h.2m.1 4.5h.5m-.7 1.3-.1.3m2.4-.8-.2.3m.8-1.8h-.3m-7.4-2.5-.2-.2"/></g><g fill="none" stroke="#000"><path d="m580.2 147.1-1-.1h-.2l-1.6-2" class="landxx mm"/><path d="m581.8 149-.2-.2m.6 1.4.4.6m1.5 2.2-.3.1m3.9 7.5v-.2m8.2 11.1.1.4m0-3.9.2.5m.3 5.3v.2m-.3-2-.2.9m.4 2.8-.2.3m.5-5.4.4.3m-.5-1.4v.2"/></g><g fill="none" stroke="#000"><path d="m416.2 29.8-1.7-.2-.7 2.7" class="landxx eu fi"/><path d="m418.5 42.9.2.2m.5 5.8h.2m.5-6.5h-.3m.5.1h-.2m.4 6.7-.4-.3m.4.8-.2.1m1.1-8.5v.2m-.2 7.9h.2m-.1.8h.5m.3 0h-.5m-.6-.6h-.2m.4-.3"/></g><path fill="none" stroke="#000" d="m728.6 219.3-.6-.5m2.4 4.2v.2m-.4.4h.2m0-3.4h.2m.1 0v.3m1.5-.1.2.2m.1.1.4.1m2 2.2-.1-.5m1.2 2.1.3-.2m2.8 4.2 1 .2m8.1.1.1.1m1.7 2 .4.1"/><g fill="none" stroke="#000"><path d="m499.5 134.7.2-.5m-7.8 18.3 1.3-2" class="landxx om"/><path d="m506.4 149.7.1-.1"/></g><g fill="none" stroke="#000"><path d="m190.2 180-.5.4" class="landxx pa"/><path d="M191.5 180.1h-.2"/></g><g fill="none" stroke="#000"><path d="m225.5 275.8 1 2.6h16l-.7-1.7m6.4 57.9h.7" class="landxx ar"/><path d="M248.7 300.7h.2m.1.5.5.3m8.8 38.5.3.2"/></g><g fill="none" stroke="#000"><path d="m364.6 63.4-.4-.2" class="landxx gb"/><path d="m367 56.3.2.1m.2 2.2.3-.2m.5-3.5-.7.5m.9 5.3.4-.2m.4-3.3v.4m-.2 16.6.7-.4m-1.1-16.4h.4m0 2.7.2.2m6.7-8.3.3-.2m2.3-1.6-.4.3m1.3-1.6.2-.1"/></g><circle cx="182" cy="187.4" r=".3"/><g fill="none" stroke="#000"><path d="m342.8 173.2 1.3-.5" class="landxx gn"/><path d="M342.8 173.2h-.3"/></g><path fill="none" stroke="#000" d="M360.2 70.3h-3.6" class="landxx eu ie"/><g fill="none" stroke="#000"><path d="m382.4 181-.6.1" class="landxx ng"/><path d="m393 189.9.4-.1"/></g><g fill="none" stroke="#000"><path d="m443.2 215 7.3 4-1.6.4" class="landxx tz"/><path d="m465.5 213.9.2.3"/></g><g fill="none" stroke="#000"><path d="m471.8 159.3 1-1" class="landxx sa"/><path d="m469.7 157.8-.1-.1m.1.3v-.3m15.2-26.1h-.4"/></g><g fill="none" stroke="#000"><path d="m601.7 144-.8.2" class="landxx vn"/><path d="m614.2 176.3-.4-.5m7.1-6.8-.2-.3m-8.1-20.7.1.2m1.2-1.2-.1.5m.9-.8"/></g><g fill="none" stroke="#000"><path d="m417.3 63.4-.4-.4m118.6-50.7-1.2-2.2 2.7-.5 2.6 2.4h1.8l4.9 1.6-.1 2-5.3.8-6.4-.1z" class="landxx eaeu ru"/><path d="M442.8 38.7h.3m.2-.1h.2m6.8.9.9.2m-.7-.9v-.3M637.2 62v.2m2.8 1.3-.4-.4m.6.4v-.3m10.1 1.3-1.8-.8m25.9 24.2v-.2m3.6-2.3h-.2m4.2-4.1v.3m.4-2.6v.2m.3-2.9.2.2m8.9-15.3-1.1-.8m-91.1-40.7.6-.3M588 16.8l.5-.1m1.1-.4h-.4m5.9-.1-.5-.1m5.5 4.5h-.5m2.9 3.7h.4m7.6-6.3-1.3-.1m2.2-2.6.5.2m-117.8-9v.2M578 20.5l-.4-.3m2.9.3h.9m2.9 1.2h.5m.3.1.4.1m-15.7-.7-.5-.1M552 14.8l.4.1m-27.8-.7h-.5m.9.8h-.6m1-.8h-.4m2.6 1.1-.3-.1m.7-1.1h.4m-.4 1.1.3-.1m.7.2-.6.2m-16-7.5-.4.1m.5-.5 2.1.2m-.9.9h.2m1.7.5h.4m1.3-1.2 1.8.3m9.2 2.7h.8m8.4.4h.6m1.6.2h.1m1.6 1.5h.7m-70.3 2.5-.5.1M473 30h.4m-.1-14.8h-.6m1.8 11.4h.2M457.5 7.5l-.5-.1m7.7-1.9h-.6m.9.7h-.4m4.8-.7h-.5m-25.3 32.8h.5M447.2 7l-.5-.1m4.7 1-.2.1m2.2 26.7h-.2M454.5 8l.5.1m2.8-.4h.3m.7-.5.2.2m2.3-1.4.5.3m1 1.5-.1.3m1.5-2.8h.3m-.2 1.7-1 .1m2.2 15.1.6-.4m1.9-1.6-3.2.5m2.8 5 .4.2m-1.4-17.7h-.2m.8-1 .2.1m10.2 20.5 1.2.4m.5 1.4.9.5m10.1-.4 1.1.4m2.2-9.3-.2.1m6.2 14.1h-.7m1.7 0h-.4m3.9-22.4.5.1m1.4 3-1-.1m2.4.9-.3-.4m.6 4.4.5.1m1.9-1.4-.4-.2m3.1-.5h-.4m.7-.2h-.2m1.8.3.5-.1m-.2.7-.5-.1m1.1-1.6-.2-.1m-.4-4.1.1.2m1.1-.2h-.5m.8 6.4-.5-.2M640.3 26l-.7-.2M676 50.3l.3.2"/></g><g fill="none" stroke="#000"><path d="M212.4 153.7h1" class="landxx ht"/><path d="m213.3 155.2-.2-.1m2.7-4.9h-.5"/></g><g fill="none" stroke="#000"><path d="m526.6 140.6-1.5.2" class="landxx in"/><path d="M584.7 170.1v-.2m-1 3.8-.2-.3m.9-2.8-.2-.2"/></g><g fill="none" stroke="#000"><path d="m270.8 44.6.6-2.6-2-.5-36.3-18-4.4 1.8-4.4.8L199 47l2.7.5h54.6v-1.2l6-.2 3.4-1.5z" class="landxx ca"/><path d="m134.7 62.6.4-.2m-4.4 11.8.8.8m1.2-7.3.1.2m1.6-.6-.3.1m1.3 8h-.2m.8 1.3-.4-.3m96.9-18.7.2-.2m.2 2.1-.6.6m18.9 19-.1.3m-6.8 8.9-.2.1m-7.5-37.7.4-.3m-3.4 5.6-.1.2m14.6-45 .3.1m1.1-3.3-2.2 1m15 .8-2 .3m-73.7 12.5 1.9-1m15.6-5.7-.2.7m-3.4-1.2h-.4m8.3-.1 1.2-.3m-1.8 2.3-2.6 1.3m11.6-2.8.4-.1m7.7-3.8-1.3.4m5.5 3.5h-.7m5.1-5 .5-.2m7.1 3h-.5m1.8 1.7-.4.1m1.5-3.3h2.4m-14 5.4-2.4-.1m3.4-1h-1m9.3-.2-.2.2m3.1-1.4-2.3.3m6.9-3h-1.5m3.5.8h-.3m2.2 1.3 3.7.3 3.4-.7 18.3-.2-1.8.9M260 12.5h-.5m3.2 2.7h-.3m3.9.1-.2-.2m-24.5 12.7h.8m4.6.5.5-.1m1.2-.2h-.2m3.4 3.3.4-.1m2.4-2.1h-.3m-1.8 2h.2m6.7-.5.3-.2M245 19.5l.5-.1m12.9 2.4h-1.1m1 .9.2-.2m6.5 1.6h-.3m.8-.9.2-.1m.8 1.9h-.2m.7-.8.4-.3m-.1.4-.4.3m-3.1 10.3-.3.1m5.9.6-.4-.1m.9 4.5v-.2m.3-9.5-1-.2m1.3 11.5h-.2m.3-10.9h-.2m2.3 1.1h.4m.7-.1h-.2m2.6 2h.7m-.7 3.3h-.4m.9-2.8h-.2m-22.7 5.7.3-.1m2.9 3.6h-.2m.2 0-.2-.1m-46.6-12.5-.2-.2m6.7-1.1-.5.2m7.1 1.4-.4-.7m-1.4-4-.2-.2m6 2.5-.3.5m-10-8.8.4-.1m.3.3-.2.2m5.5 2 1 .2m9 18.5h-1.6m2.2-18.2 1.8-.3m4.5 13.5.4.1m-.3-11.9-2 1-1.7-1.1 1.7-2 2.4-.7m.2 15 .2-.1m3.7 7.4h-.2m.6 0h-.2m.9-2.1-.7.1m6.1 1.6-.2.2m.6-3.8h-.2m-86.4-11.5h-.2m-8.3.1.7-.2m4.9.7.3.1m30.5-1.6-1.7-.3m7.8 4.7-.7.2m2-1.4.4-.1m-.1 1-.7.2m1.6 2.1-.2.2m.3-2.5-.2.1m.5 2.3.4-.3m0-1h.2m.4-.7h.5m-.7 1.6h.3m66.5 7.4.2.2M266 58.7h-.7m.8-.4-.2.1m.8-2.2h-.2m.3 0 .3-.2m-15.7 27.5.4.2m3.7 1.5.7-.3m-.4-4 .8-.4M271.9 63l-.2.2m1.7 2.5h-.4m-10 14.4.2 1m8.4-8.8-.2.2m1.9 2.4.2.2m-141.1-2.4h.3m-.2-7.2v-.3m.2 3.8.3-.2m.6 3.9-.6.2m.3-8.6.2-.3m-.2 4.9-.4.2m.3 3.3h-.3m.4-6.5.1-.2m-1.7.6v.2m-4.7-1.1h1.2m-1 1.1-.2.1m87 18.7.2.2m-7.8-8.5"/></g><path fill="none" stroke="#000" d="M398 197.1h2.4v3l-2.7-.1" class="landxx gq"/><path fill="none" stroke="#000" d="m471 96 .3.3"/><g fill="none" stroke="#000"><path d="M493.2 132.9h.5m1.3.8h.1"/><path d="m469.7 100.8.2-.2" class="landxx ir"/></g><g fill="none" stroke="#000"><path d="m601.3 184.8.4-.9m21.4 12 .5-2" class="landxx my"/><path d="m641 190.5-.5-.2m-13.7 4.5.1.7m8.3-7.8v.2m4.8-3.7h-.2m2.8 5h-.4m-28 4.8v.4m6.9-.6h-.2m-20.2-9.1-.4.3m44.7 4.3v.7"/></g><path fill="none" stroke="#000" d="M656 169.1h-.2m-13.2 14.3.3.2m4.3 1.4v.3m2.9-.8.2.2m-.3 1-.3-.2m-10.3-6.1-.1 1.5m5.2-8.6h.3m-.1-2.2-.2-.3m.3 1.1h-.3m.6-3.9.2-.7m.1 4.8v-.4m-2.4-10.6-.5.1m2.9-7h.3m3.3 10.5.3.2m-.1 0h.2m.3 5.5v.2m.6-.2.5.4m1.1.9v.3m1.5-3.4h.2m.6 1.8-.1-.7m2.8 7.1.4.4m.4-.4-.2-.6m-2.7-.9v-.2"/><g fill="none" stroke="#000"><path d="M420.9 55h.6m1.3-1.4v.2"/><path d="M423.4 53.5h-.3" class="landxx eu ee"/></g><g fill="none" stroke="#000"><path d="m359.7 92 .7-.7" class="landxx eu es"/><path d="m338 130.7-.3.5m.8-2.8-.2.2m2.5 1.3-.4-1m5.6.8-.3-.1m1.6-2h-.3m33.8-24.9-.2.1"/></g><g fill="none" stroke="#000"><path d="M396.5 203v.3"/><path d="M396.2 203.4h2.6v-7.7.6" class="landxx ga"/></g><g fill="none" stroke="#000"><path d="m605.1 167.3-1.2.3" class="landxx kh"/><path d="m607.7 174 .2.2"/></g><g fill="none" stroke="#000"><path d="m645.9 112.2-.2-.2"/><path d="m643.3 105-1.3-.4" class="landxx kr"/></g><path fill="none" stroke="#000" d="m177.2 164.4-.7-.6" class="landxx hn"/><g fill="none" stroke="#000"><path d="M254 342.5v-.2m.7.2h.2m-.9-1.9h.5m-1 1.2.1-.2m.8.6.3.3m-.7-2.2-.4-.2m1 .8-.2-.2m.8.3.2.2m-16.9-5.2.3-.1m.6 1 .1-.2m.5-.3-.7.2m2.7 1.6-.3.6m1.3-.8h-.2m.2 1h.2m-.2-1.5h.3m.4 1.5h.2m.9-1 .4-.3m-.8 2 .2.2m.1-1.4-.2-.2m1.9 1.9v-.2m.3-1.7h.2m.1.3h.4m.9 1.5-.1.2m.4.6.2.1m-.2-.6.2.2m-.2 0-.4-.3m1.3 1.1.2.1m-14.4-8.1.3.4m0-.3.1.6m.3-.2.5.2m.3-1.5-.5-.6m.7 1.5h.2m0-.6.2.1m.5 1.1.7.4m-1.2-1.4.2.2m1.1 2.5-.2-.1m-5.3-6.6h.2m1.2 1.9-.3.5m.2.3h.3m.8-.6.5.6m0-.2h.4m-6.5-8.7v.3m0 1.8h-.2m.4.2.1.3m0-2.8.1.2m.2 3.1h.2m.4-.3.6.4m-.8-2.7.2.2m.8 1.4.4.8m-1.2 1.3.2.1m1.6 1-1.3-.2m-.4-5v.2m.3 3.2h.2m0-2.3.3.4m.8 0 .4.2m-.3-1.4.3.2m.1 3.8.4.3m-5.1-10 .1-.4m1.8.5.2.2m-2.9-4.4h.2m.7.9h.2m-1.9-6.6 1 .2m-1.7 4.4h.4m.2 3.2.2.2m.2-.8.2.2m.1-5.3h.2m.1 5.2h.5m-.3-7.2.2.2m.1 2.6.5.2m-.4 3.2v-.3m.2.9-.4-.3m.6-.3h.2m-.3.3.2.2m.3 1.2-.6.2m.8.7h.4m-.5-1.6h.3m-.4-6.5.2.1m0 6.7.3.2m0 1.3h.2m1.1-1.8-.1-.2m-1.7 2.9v-.3m10 16.1"/><path d="m220.5 248-.2 1.4m25.1 86.8v-.3" class="landxx cl"/></g><circle cx="139" cy="269.3" r=".5"/><path d="m349 130-.3.4-9.8.1z" class="landxx ma"/><path d="m339.3 146 .6-1.4h9.8l-.1 4.2-7.4.1-.3 6.4h-8.1z" class="landxx ma eh"/><path d="m348 146.7.2-6.4 2.3-.2z" class="limitxx ma eh xz"/><path fill="none" stroke="#000" d="m555.5 176.5-.2-.2"/><path d="M451.5 120.6v1l-1.8-4.7z" class="landxx il"/><g fill="none" stroke="#000"><path d="M419.7 100h.5" class="landxx eu gr"/><path d="m419.6 100.6.2.2m1 2.6-.2-.1m6.5 1.9-.1-.3m.4-3.3-.2-.2m1.6 10 .2.2m0-3.8v-.3m.2-5.1h-.2m1.2 2.7.2-.1m0 2.9-.3-.1m.9-2v.3m.2 1.7-.2-.2m.2-9.6.3.2m.5 9.3-.4.3m1.4-5.9.3-.2m1 4.9-.2-.2m.4.6v.3"/></g><g fill="none" stroke="#000"><path d="m194.1 206.7-2-.5" class="landxx ec"/><path d="m196.3 208-.3-.2m-23.4-7.3.1.2m0 3.9.2-.2"/></g><g fill="none" stroke="#000"><path d="m401.7 11.1-.2-.1m-1.3-2.4h.5m-.2.9 4.1-1.2m6.2-.3-.7.3m.4-.6.7-.1m1.4 11.2.5.3m-.1-9.9h.6m-.1.7h.3m-.2-2.9.2.1m9 3.5h.6m.4-2.8h-.5m1.4 2.4h.3"/><path d="m390 46.9-5-1.2-1.4-1" class="landxx no"/><path d="m390.1 49.3-.3-.2m.2-.1.1.1m.2-3.5.2.2m-.3 6v.2m.6-1.8h-.2m1.3-5.6-.2.4m1.8-1.4h-.2m1.4-.3.2-.1m.6-.3h.4m4.6-4.1-.5.1m1.1 1h.2m-.2-.5-.2-.2m.3.4-.2-.2m2.2-2.7.7-.2m-.1-4.5-.5.5m.6 3.5h-.2m.3 0 .3-.1m.5-4.2v.3m1-.5.2.2m-.3 2.3h-.2m1.5-3.2-.5.1.1.2m.1-.1.2.1m.1-.9h.3m-.5 1.4.3-.1m.7-.9-.6.5m1 .9h-.7m2.1-1.8h.4m.3-.9-.2.2m.4 1h.5m2.2-2 .2-.5m-.2-.2h-.5m.8-.4h.2m1 .4-.6.3m2.1.1.3-.2m3.9-1.8.3.2m-1.2.9h.3m.9-.7v-.2m.5-.9h-.2m3.4.2h.2m-34.6 23-.4-.1m.7-2.8h.2m.5 3.3.2-.6m3.8-5.3.1-.2"/></g><path fill="none" stroke="#000" d="m431.7 78.5-.7.5" class="landxx md"/><path d="m443.4 68.4-1.8.1 1-.6z" class="landxx ua"/><path d="m454.7 78.2.3.5-1 1.3-.1-1z" class="limitxx ua xd"/><path d="m456.9 77.2 1 .3-.5.5z" class="limitxx ua xl"/><path fill="none" stroke="#000" d="m457.8 162.6.4-1.4" class="landxx er"/><g fill="none" stroke="#000"><path d="m74.2 62 3.1-1.4h2.5l-25.2 21L55 79m19.2-7.2-.3.2m5.4-3 .7-.3m40.5 34.8-.5.5h54.6l-.4 1h6.6l-2.3 2.6h-3.9v1.2h-6l-7-3" class="landxx us"/><path d="m135.6 80.7.3-.1m0-.7.1-.2m-14.3 34.9-.4-.1m2.6 2.5h-.2m41.7 14 .4-.7m1-1-.9.6m-29.2-52.1.1-.2m65 44.7-.2.4m-29.9 3.8-.9.6m13.6-2.7-.2.1m17.7 4.5v.2m-.7 7.4-.8.9m-2.8-3.9.2.1m0-.1v-.4m.3.3-.4.4m19.8-22.5h-.4m9.2-13.8-.3.6m13-10v.2M211.2 84l-.5.3m-180.5 64 .2.4m680.4-81.2.1.2m10.6 2.1v.2m2.2-.1.4.1m-.5-.4h.2m1.2.6h-.4m6.6.1v.2m-.5-13.5.4.1m.5 13.1.4.3m2.2-.6h.2m4.3-.6h1.4m-29.9-27h.3m22.6 28v.2m-598.8-8 .2-.2M130 61l.7-.3m-.5.1.2-.3m2.4-4.5.7-1M60 66.3h-1m6.5-1.9h.2m.6-.2.6-.5m-.3.6h.2m5.8-1h-.2M109 49l.8-.2m6.7.4V49m0-.6.2-.2m4.7 2 1-.5m-22.3 4.9.4-.2m.7.6h.2m1.6-.7.3-.2m-26.9 7.6.2-.2M79 61h.4l.2-.1m.9 1-.4.3m7.1-8.9-.2.3m1.6 4.6-.5.2m1.9 1.4.3-.3m5.3-2.1-2.5.2m7.4-2.7-.2.2m4-2.5h.5M85 42.9h-.2m29.9 7.1-.7.3m15.7 7.9.5-.7m-.1 2.1h.3m0-4.5V55m1.7 1.3h.3m-.2 2.3.6-.1m-2.8 1.4.3-.2m.7 2.3 1.3-.7m-1.6-.5.2-.1m.6-.7-.2.1"/></g><path d="m497.7 84.7-4.8 1.3 2 9.4-.2-.6-.8-1.5-3.9-2.1z" class="landxx eaeu kz"/><path fill="none" stroke="#000" d="m515.2 325.9-1 .4" class="antxx landxx coastxx tf"/><path fill="none" stroke="#000" d="M301.2 354h.6m324.7 36.3.9-.2m9-17.6h-.2m10.4 9.1.3-.2m9.3-15v-.2m.6 2.8.1-.2m-112-2.4h.2M384 376.8l.3-.2m2.3-.6h.3m-16.9 0h.5m-72 18.2 1-.1m30.7-2.3h.5m-18.7 2.4-.8-.5-5.4.4m-138.9-4.5h.4m-.1-.6h.4m.3-3.2h-.5m19.5-3.6.4-.2m5.9.3-1.3-.6m-2.7 2-.2-.2m32.8-4.3-2-.8m45.6 2 .2-.2m4.9-10.8.4-.1m-.1.7.2.2m6.4-12.6.2-.2m-8.8 10.4.3.4m0-1.6.3.4m3.7-3.6-.5.3m.2-3.9.2.2m2.8-1.8h-.1m.7-.2.4.1m-.1-.2.6.1m.7-.6.7-.3m4.4 2.4.6.3m.3.6.5.2m-130.8 28.5.8 1.5 3.5.5 4-1 5.9-.7 7.3 1.3 7.3-.7 3.8.6v2l-3.7.8-2-.4m83.5-15.1-1 .3m16.7-14.3.3.2m2.1 7.8h-.3m1.1 2.6-.2-.1m2.5 2h.1m-11.2-6.9.5-.1"/><g fill="none" stroke="#000"><path d="m706 253-.1.4M681 232.1l.3-.3m-12.9-.4.1-.8m11 79.5 1.1-.9m-4-6.1-.1.4M623.4 287l-1.6 3-2-.4M673 231v-.2"/><path d="m744.8 271.4-.7-.4" class="landxx coastxx au nf"/></g><circle cx="612.4" cy="227.8" r=".8" class="landxx coastxx au cx"/><circle cx="593.9" cy="231.3" r=".3" class="landxx coastxx au cc"/><circle cx="521.1" cy="333.9" r=".8" class="landxx coastxx au hm"/><g fill="none" stroke="#000"><path d="m531.3 100.6 4.5-.4 1.5 1.8-1.6 1.1-1.9-.4" class="landxx cn cnx"/><path d="m630.7 100.9.2.1m10.1 23.7v.2m.4.6h.2m-7 15.3.1.1m4.1-4.7v.3m-1.3-1.8.4.2M617.3 152l.1.2m3.3-5.1-.2-.2m6.1-3.7-.1-.2"/><path d="m627.8 143.8-.2.2" class="landxx cn hk"/><path d="M636.5 138.6h-.4m4.6 2.6.2-.5"/></g><g fill="none" stroke="#000"><path d="M369.7 79v2.1" class="landxx eu fr frx"/><path d="m372.8 81-.3-.3m2.1 1.2.2.1M396 93.2l-.2-.3"/><path d="m253.4 195.2-.2.5" class="landxx eu fr gf"/></g><path fill="none" stroke="#000" d="M387 70h-.3m2.6-3.8.2-.1"/><path fill="none" stroke="#000" d="M452.5 116.8v.4" class="landxx lb"/><path d="m444.2 269.3-.2-.3.2-.5.4.2z" class="landxx sz"/><path fill="none" stroke="#000" d="m739.7 253.9.2.9m4.6-.8-.4.6m1.3 4.4.2-.3m24.7-13.7.2-.3m.6 5.3.6-.3m1.8-3.3.2-.2m1.8 2.5.1-.2m-564.8-107h-.2m-4.8-1.9-.2.2m.7.9h-.3m1.2-3.2-.5.2m1.5-2.5.1-.4m4.2 6.1h-.2m1-1.1.3-.4m2.1 7.1-.2.3m533.3 94.5.2.1m2.1-1-.1 1.1m1.1 11.3.2-.2m-488.9 79-.1-.1m-.5 0v.2m.9-.5-.7-.1m1.7 2.5.2.2m-.2-.5-.2-.2"/><path fill="none" stroke="#000" d="M312 340.1v-.3" class="antxx landxx coastxx gs"/><path fill="none" stroke="#000" d="M339 167h1.8" class="landxx gm"/><path fill="none" stroke="#000" d="m488 136.7-.1.6" class="landxx qa"/><path fill="none" stroke="#000" d="m202.8 154.6-.4-.4" class="landxx coastxx jm"/><path fill="none" stroke="#000" d="m446.2 112-.1-.3" class="landxx coastxx eu cy"/><path fill="none" stroke="#000" d="M230.3 155.4v-.3" class="landxx coastxx pr"/><path fill="none" stroke="#000" d="m322.5 159.2.2.4m-283 84.1.2.2m.1.3v.2m3.8 1.6h.2m18.3-20.8.1.2m.9-1.4.2-.2m305-178.3.3-.2m.2-.1.3.3m-.3-.3-.1-.3m.5 1.2.2.2m.1-1.1v.4m414.9 209.8.3-.4m.1.9v-.3m-17-59.5.3.2"/><path fill="none" stroke="#000" d="M487.2 134.4v.5" class="landxx coastxx bh"/><path fill="none" stroke="#000" d="M381.3 92.7v-.4" class="landxx ad"/><path fill="none" stroke="#000" d="M217.4 145.8h-.4m1.8 0-.2-.2m.6.4-.2-.2"/><path fill="none" stroke="#000" d="m196.5 151.9.6-.2" class="landxx coastxx ky"/><path fill="none" stroke="#000" d="m237.4 157.3-.5-.4m.6.7v-.2"/><path fill="none" stroke="#000" d="M237.1 155.5h-.3" class="landxx coastxx bl"/><path fill="none" stroke="#000" d="m1 250.8.2.1" class="landxx coastxx nu"/><path fill="none" stroke="#000" d="m23 255.5.1.2" class="landxx coastxx ck"/><path fill="none" stroke="#000" d="m798.7 237.8.3-.3" class="landxx coastxx as"/><path fill="none" stroke="#000" d="m761.4 184.1.2.1" class="landxx coastxx mh"/><path fill="none" stroke="#000" d="m220 169.3-.4-.4" class="landxx coastxx aw"/><path fill="none" stroke="#000" d="m232.7 154.5-.2-.1m1.7-.9h-.2"/><path fill="none" stroke="#000" d="m375 76.3.4-.2" class="landxx coastxx je"/><path fill="none" stroke="#000" d="m236.5 154.9.4-.3" class="landxx coastxx ai"/><path fill="none" stroke="#000" d="m374.2 75.5-.2.3" class="landxx coastxx gg"/><path d="m403.6 89.8.2-.2.2.1-.2.2z" class="landxx sm"/><path fill="none" stroke="#000" d="m747.7 196.3.4.2" class="landxx coastxx nr"/><path fill="none" stroke="#000" d="M366.5 109h.2" class="landxx gi"/><path fill="none" stroke="#000" d="m94 263.7.1.3" class="landxx coastxx pn"/></svg>