<svg xmlns="http://www.w3.org/2000/svg" viewBox="0 0 1200 900" width="1200" height="900" fill="none">
<defs><radialGradient id="bg" cx="60%" cy="40%" r="90%"><stop offset="0%" stop-color="#101019"/><stop offset="100%" stop-color="#0B0B10"/></radialGradient></defs>
<rect width="1200" height="900" fill="url(#bg)"/><path d="M-7.3 -40.2 L15.5 -40.7 L39.3 -40.8 L64.1 -40.2 L89.6 -39.1 L115.6 -37.3 L141.8 -34.8 L168.1 -31.6 L194.1 -27.7 L219.8 -23.2 L245.0 -18.3 L269.7 -13.1 L294.0 -8.0 L318.0 -3.2 L341.8 1.0 L365.7 4.6 L389.7 7.2 L413.6 8.6 L437.5 8.9 L461.2 8.3 L484.9 7.0 L508.5 5.2 L531.9 2.9 L555.3 0.2 L578.6 -2.8 L601.8 -6.0 L625.1 -9.2 L648.5 -12.3 L672.0 -15.2 L695.8 -17.8 L720.2 -20.1 L747.0 -22.0 L773.7 -23.3 L796.7 -24.1 L812.4 -24.2 L819.8 -23.5 L821.5 -21.8 L823.6 -19.4 L832.0 -16.2 L850.1 -12.3 L876.7 -8.0 L908.1 -3.4 L939.7 1.4 L968.0 6.2 L991.7 10.6 L1013.1 14.7 L1032.8 18.2 L1051.8 21.0 L1071.1 23.0 L1091.6 24.2 L1114.0 24.4 L1138.8 22.7 L1165.8 19.0 L1194.4 13.2" stroke="#ECE9E2" stroke-opacity="0.12" stroke-width="1"/><path d="M-6.5 -14.5 L16.4 -15.0 L40.2 -15.1 L64.9 -14.6 L90.3 -13.5 L116.1 -11.7 L142.1 -9.3 L168.2 -6.2 L194.1 -2.5 L219.6 1.7 L244.8 6.4 L269.5 11.2 L293.9 16.0 L318.0 20.6 L341.9 24.6 L365.9 27.9 L389.9 30.4 L413.8 31.8 L437.7 32.1 L461.5 31.5 L485.2 30.2 L508.8 28.4 L532.2 26.2 L555.5 23.5 L578.8 20.7 L602.0 17.6 L625.2 14.6 L648.5 11.6 L672.0 8.8 L695.7 6.2 L720.2 4.0 L746.9 2.3 L773.7 1.0 L796.7 0.2 L812.5 0.1 L819.9 0.9 L821.7 2.5 L823.7 5.0 L832.1 8.2 L850.1 12.0 L876.7 16.3 L908.0 21.0 L939.6 25.9 L967.9 30.6 L991.6 35.2 L1013.0 39.3 L1032.8 42.8 L1051.8 45.6 L1071.1 47.7 L1091.6 48.9 L1114.0 49.1 L1138.8 47.4 L1165.7 43.7 L1194.3 38.0" stroke="#ECE9E2" stroke-opacity="0.12" stroke-width="1"/><path d="M-4.5 12.5 L18.7 12.0 L42.6 11.9 L67.1 12.4 L92.1 13.4 L117.4 15.0 L142.9 17.1 L168.4 19.8 L193.9 23.0 L219.2 26.6 L244.2 30.4 L269.0 34.4 L293.5 38.4 L317.8 42.1 L341.9 45.5 L366.0 48.3 L390.0 50.3 L414.0 51.5 L438.0 51.8 L461.9 51.2 L485.8 50.1 L509.4 48.5 L532.9 46.4 L556.2 44.0 L579.3 41.4 L602.4 38.7 L625.4 36.0 L648.5 33.4 L671.8 30.9 L695.4 28.6 L719.9 26.7 L746.7 25.2 L773.7 24.0 L796.8 23.4 L812.8 23.3 L820.3 24.0 L822.1 25.7 L824.0 28.1 L832.3 31.3 L850.1 35.2 L876.6 39.6 L907.8 44.3 L939.3 49.3 L967.6 54.2 L991.4 58.8 L1012.8 63.0 L1032.6 66.7 L1051.7 69.6 L1071.1 71.7 L1091.6 73.0 L1114.0 73.2 L1138.7 71.6 L1165.5 67.9 L1193.9 62.4" stroke="#ECE9E2" stroke-opacity="0.12" stroke-width="1"/><path d="M-1.7 41.2 L22.0 40.6 L45.9 40.5 L70.1 40.9 L94.6 41.7 L119.3 42.9 L144.0 44.6 L168.8 46.6 L193.6 48.8 L218.4 51.3 L243.1 54.0 L267.6 56.7 L292.1 59.4 L316.4 62.0 L340.7 64.2 L364.8 66.1 L388.8 67.6 L413.0 68.4 L437.4 68.5 L461.7 68.1 L486.0 67.1 L510.0 65.8 L533.7 64.1 L557.0 62.2 L580.1 60.1 L602.9 57.9 L625.7 55.7 L648.5 53.6 L671.6 51.6 L695.1 49.8 L719.5 48.3 L746.5 47.1 L773.6 46.2 L797.0 45.6 L813.2 45.6 L820.9 46.3 L822.7 47.9 L824.5 50.3 L832.6 53.5 L850.1 57.4 L876.4 61.8 L907.5 66.7 L939.0 71.8 L967.2 76.8 L991.0 81.7 L1012.5 86.1 L1032.4 89.9 L1051.7 93.0 L1071.1 95.3 L1091.7 96.6 L1114.1 96.8 L1138.6 95.2 L1165.2 91.7 L1193.3 86.3" stroke="#ECE9E2" stroke-opacity="0.12" stroke-width="1"/><path d="M1.3 71.7 L25.3 71.0 L49.3 70.9 L73.3 71.1 L97.3 71.5 L121.3 72.2 L145.3 73.0 L169.3 73.9 L193.3 74.9 L217.2 76.0 L241.2 77.2 L265.2 78.3 L289.2 79.5 L313.2 80.5 L337.2 81.5 L361.2 82.3 L385.2 82.9 L409.8 83.2 L434.8 83.3 L459.9 82.9 L485.0 82.3 L509.7 81.3 L534.0 80.1 L557.7 78.8 L580.8 77.3 L603.5 75.8 L626.0 74.3 L648.5 72.8 L671.3 71.4 L694.6 70.2 L719.0 69.2 L746.1 68.3 L773.4 67.7 L797.2 67.3 L813.7 67.3 L821.7 68.0 L823.5 69.6 L825.2 71.9 L832.9 75.1 L850.2 78.9 L876.2 83.4 L907.1 88.4 L938.5 93.6 L966.7 98.9 L990.5 103.9 L1012.0 108.6 L1032.1 112.6 L1051.6 115.9 L1071.1 118.3 L1091.8 119.7 L1114.1 119.9 L1138.5 118.4 L1164.8 115.1 L1192.5 110.0" stroke="#ECE9E2" stroke-opacity="0.12" stroke-width="1"/><path d="M3.9 104.0 L28.1 103.5 L52.2 103.4 L76.0 103.2 L99.7 103.0 L123.2 102.7 L146.6 102.2 L169.8 101.7 L192.8 101.2 L215.8 100.7 L238.6 100.1 L261.4 99.5 L284.3 99.0 L307.4 98.5 L330.7 98.1 L354.2 97.8 L378.3 97.5 L403.4 97.4 L429.3 97.3 L455.8 97.2 L482.2 96.8 L508.2 96.3 L533.6 95.7 L558.0 94.9 L581.5 94.2 L604.2 93.4 L626.4 92.6 L648.5 91.8 L670.9 91.1 L694.0 90.4 L718.4 89.8 L745.6 89.4 L773.2 89.1 L797.4 88.9 L814.3 88.9 L822.5 89.5 L824.5 90.9 L826.0 93.2 L833.4 96.2 L850.3 100.0 L876.0 104.5 L906.7 109.5 L937.9 114.9 L966.1 120.3 L989.9 125.7 L1011.6 130.6 L1031.8 134.9 L1051.4 138.4 L1071.2 140.9 L1091.9 142.4 L1114.2 142.7 L1138.3 141.3 L1164.3 138.1 L1191.8 133.4" stroke="#ECE9E2" stroke-opacity="0.12" stroke-width="1"/><path d="M5.5 138.1 L29.8 137.7 L53.8 137.5 L77.7 137.0 L101.4 135.9 L124.8 134.3 L147.8 132.3 L170.3 130.1 L192.3 127.7 L213.9 125.3 L235.2 122.9 L256.3 120.6 L277.5 118.5 L299.0 116.7 L321.1 115.2 L344.0 114.0 L368.0 113.2 L393.7 112.7 L420.9 112.6 L449.0 112.6 L477.3 112.5 L505.2 112.4 L532.1 112.2 L557.7 112.1 L581.9 111.9 L604.8 111.7 L626.8 111.5 L648.5 111.3 L670.5 111.1 L693.3 111.0 L717.8 110.8 L745.1 110.7 L773.0 110.6 L797.5 110.5 L814.9 110.6 L823.4 111.1 L825.5 112.4 L826.8 114.5 L833.9 117.3 L850.4 121.0 L875.7 125.4 L906.2 130.4 L937.3 135.8 L965.4 141.5 L989.3 147.0 L1011.1 152.2 L1031.5 156.8 L1051.3 160.5 L1071.2 163.2 L1092.0 164.8 L1114.2 165.1 L1138.2 163.8 L1163.9 161.0 L1190.9 156.7" stroke="#ECE9E2" stroke-opacity="0.12" stroke-width="1"/><path d="M6.0 173.4 L29.8 173.1 L53.8 172.9 L77.9 171.9 L102.0 169.8 L125.7 166.7 L148.7 163.0 L170.8 158.8 L191.8 154.3 L211.8 149.8 L231.1 145.6 L250.0 141.8 L268.9 138.5 L288.5 135.9 L309.2 133.9 L331.3 132.5 L355.2 131.6 L381.6 131.2 L410.1 131.1 L439.9 131.1 L470.4 131.1 L500.5 131.2 L529.5 131.3 L556.8 131.4 L582.0 131.6 L605.3 131.7 L627.2 131.9 L648.5 132.0 L670.0 132.2 L692.6 132.3 L717.0 132.5 L744.5 132.6 L772.7 132.7 L797.7 132.7 L815.5 132.8 L824.4 133.2 L826.5 134.3 L827.7 136.1 L834.4 138.6 L850.5 142.0 L875.5 146.2 L905.8 151.2 L936.7 156.7 L964.8 162.4 L988.6 168.2 L1010.5 173.6 L1031.2 178.4 L1051.1 182.4 L1071.2 185.3 L1092.1 187.0 L1114.3 187.4 L1138.1 186.2 L1163.5 183.6 L1190.2 179.8" stroke="#ECE9E2" stroke-opacity="0.12" stroke-width="1"/><path d="M5.1 208.9 L28.3 208.8 L52.2 208.7 L76.8 207.2 L101.6 204.1 L126.0 199.6 L149.4 194.0 L171.3 187.7 L191.3 181.0 L209.6 174.4 L226.5 168.4 L242.9 163.3 L259.5 159.4 L277.2 156.7 L296.4 155.0 L317.7 154.3 L341.7 154.0 L368.5 154.0 L398.0 154.0 L429.5 154.0 L462.1 154.0 L494.7 154.0 L526.0 154.0 L555.2 154.1 L581.8 154.1 L605.6 154.2 L627.6 154.4 L648.5 154.6 L669.6 154.8 L691.9 155.0 L716.3 155.2 L744.0 155.4 L772.5 155.5 L797.8 155.6 L816.0 155.7 L825.3 156.0 L827.5 156.8 L828.6 158.2 L835.0 160.4 L850.7 163.5 L875.3 167.4 L905.3 172.2 L936.1 177.6 L964.1 183.4 L988.0 189.3 L1010.0 194.9 L1030.8 200.0 L1051.0 204.2 L1071.3 207.3 L1092.2 209.1 L1114.4 209.5 L1138.1 208.5 L1163.2 206.2 L1189.5 202.9" stroke="#ECE9E2" stroke-opacity="0.12" stroke-width="1"/><path d="M3.2 243.9 L25.6 244.0 L49.3 243.9 L74.4 242.0 L100.2 238.2 L125.7 232.4 L149.8 225.1 L171.7 216.6 L190.8 207.7 L207.3 199.0 L221.9 191.3 L235.8 185.4 L250.2 181.4 L266.2 179.4 L284.4 179.0 L305.2 179.7 L329.1 180.8 L356.2 181.7 L386.3 181.9 L419.0 181.7 L453.3 181.5 L488.2 181.1 L521.9 180.7 L553.2 180.2 L581.2 179.8 L605.9 179.5 L627.9 179.2 L648.5 179.1 L669.2 179.0 L691.2 179.0 L715.6 179.1 L743.4 179.2 L772.2 179.3 L797.9 179.4 L816.5 179.4 L826.1 179.6 L828.5 180.1 L829.4 181.1 L835.5 182.8 L850.8 185.4 L875.1 189.0 L904.9 193.5 L935.6 198.8 L963.6 204.6 L987.5 210.5 L1009.6 216.3 L1030.5 221.6 L1050.9 226.0 L1071.3 229.2 L1092.3 231.2 L1114.5 231.6 L1138.0 230.7 L1162.9 228.8 L1188.9 226.0" stroke="#ECE9E2" stroke-opacity="0.12" stroke-width="1"/><path d="M0.6 277.5 L22.0 277.7 L45.6 277.6 L71.3 275.6 L98.2 271.3 L124.9 264.7 L150.0 255.9 L172.0 245.5 L190.3 234.3 L205.1 223.6 L217.5 214.5 L229.2 208.0 L241.8 204.6 L256.7 204.1 L274.4 205.8 L295.0 208.6 L318.9 211.5 L346.0 213.4 L376.2 213.9 L409.5 213.5 L445.1 212.8 L481.8 211.9 L517.7 210.7 L551.0 209.5 L580.5 208.3 L606.0 207.2 L628.1 206.2 L648.5 205.4 L668.8 204.8 L690.5 204.4 L714.9 204.2 L742.9 204.1 L771.9 204.0 L797.9 204.0 L817.0 204.0 L826.8 204.0 L829.4 204.2 L830.2 204.8 L836.0 206.0 L851.0 208.1 L875.0 211.2 L904.5 215.3 L935.1 220.4 L963.0 226.1 L987.0 232.1 L1009.2 238.0 L1030.2 243.4 L1050.8 247.9 L1071.3 251.3 L1092.5 253.4 L1114.6 253.8 L1138.0 253.1 L1162.7 251.5 L1188.4 249.2" stroke="#ECE9E2" stroke-opacity="0.12" stroke-width="1"/><path d="M-2.0 309.3 L18.5 309.6 L42.0 309.5 L68.2 307.5 L96.1 303.1 L124.0 296.0 L150.0 286.2 L172.2 274.0 L189.9 260.8 L203.2 248.2 L213.8 237.9 L223.7 231.4 L235.2 229.0 L249.4 230.5 L267.0 234.6 L287.8 239.8 L311.6 244.6 L338.5 247.7 L368.6 248.3 L401.9 247.8 L438.3 246.6 L476.2 245.0 L513.9 243.1 L549.0 241.0 L579.8 238.8 L606.0 236.8 L628.3 234.9 L648.5 233.3 L668.5 231.9 L690.0 230.9 L714.4 230.2 L742.4 229.7 L771.6 229.5 L798.0 229.3 L817.3 229.3 L827.4 229.2 L830.0 229.0 L830.8 229.1 L836.4 229.8 L851.1 231.3 L874.9 233.9 L904.2 237.7 L934.7 242.4 L962.6 248.0 L986.6 253.9 L1008.8 259.9 L1030.0 265.4 L1050.7 270.1 L1071.3 273.7 L1092.5 275.8 L1114.7 276.2 L1138.0 275.6 L1162.5 274.4 L1188.0 272.5" stroke="#ECE9E2" stroke-opacity="0.12" stroke-width="1"/><path d="M-4.2 339.1 L15.6 339.4 L39.0 339.3 L65.7 337.6 L94.4 333.4 L123.2 326.2 L149.9 315.6 L172.4 302.1 L189.6 287.2 L201.9 272.9 L211.1 261.7 L219.8 255.2 L230.6 254.2 L244.7 257.9 L262.5 264.5 L283.5 272.0 L307.3 278.5 L333.9 282.6 L363.6 283.4 L396.8 282.7 L433.4 281.1 L472.2 278.9 L511.0 276.2 L547.3 273.3 L579.2 270.2 L606.0 267.2 L628.5 264.3 L648.5 261.8 L668.2 259.7 L689.6 258.1 L714.0 256.8 L742.1 256.0 L771.4 255.4 L798.0 255.2 L817.5 255.1 L827.8 254.8 L830.5 254.3 L831.2 254.0 L836.7 254.2 L851.2 255.2 L874.8 257.3 L904.0 260.7 L934.5 265.1 L962.3 270.5 L986.3 276.3 L1008.6 282.3 L1029.9 287.9 L1050.6 292.7 L1071.4 296.3 L1092.6 298.5 L1114.7 299.0 L1138.0 298.5 L1162.4 297.5 L1187.8 296.0" stroke="#ECE9E2" stroke-opacity="0.12" stroke-width="1"/><path d="M-5.4 367.1 L14.1 367.4 L37.5 367.3 L64.3 365.8 L93.4 362.0 L122.7 355.0 L149.8 344.1 L172.5 329.6 L189.5 313.3 L201.2 297.6 L209.7 285.7 L217.9 279.6 L228.4 280.0 L242.5 285.7 L260.5 294.4 L281.6 303.8 L305.5 311.6 L331.9 316.3 L361.3 317.3 L394.4 316.4 L431.1 314.6 L470.2 311.9 L509.6 308.7 L546.5 305.0 L578.9 301.2 L606.0 297.3 L628.5 293.7 L648.5 290.4 L668.1 287.6 L689.4 285.4 L713.8 283.6 L741.9 282.4 L771.3 281.6 L798.0 281.2 L817.7 281.1 L828.0 280.7 L830.8 279.9 L831.5 279.3 L836.8 279.0 L851.2 279.6 L874.7 281.3 L904.0 284.2 L934.4 288.4 L962.2 293.5 L986.1 299.3 L1008.5 305.3 L1029.8 310.9 L1050.6 315.8 L1071.4 319.5 L1092.6 321.7 L1114.8 322.2 L1138.0 321.8 L1162.4 321.0 L1187.7 319.8" stroke="#ECE9E2" stroke-opacity="0.12" stroke-width="1"/><path d="M-4.5 393.7 L15.3 394.0 L38.6 393.9 L65.4 392.7 L94.2 389.3 L123.2 382.5 L149.9 371.5 L172.3 356.4 L189.1 339.0 L200.8 322.5 L209.5 310.0 L217.9 304.3 L228.6 305.8 L242.8 313.0 L260.7 323.4 L281.9 334.0 L305.7 342.6 L332.2 347.7 L361.7 348.8 L394.8 347.8 L431.4 345.8 L470.5 342.8 L509.8 339.2 L546.6 335.1 L578.9 330.8 L606.0 326.4 L628.5 322.2 L648.5 318.3 L668.1 315.0 L689.4 312.3 L713.8 310.1 L741.9 308.6 L771.3 307.6 L798.0 307.1 L817.7 306.9 L828.0 306.4 L830.8 305.5 L831.5 304.6 L836.9 304.0 L851.3 304.3 L874.7 305.6 L903.9 308.3 L934.3 312.2 L962.1 317.2 L986.1 322.9 L1008.4 328.8 L1029.7 334.5 L1050.5 339.4 L1071.3 343.1 L1092.6 345.4 L1114.8 345.9 L1138.0 345.6 L1162.4 345.0 L1187.7 344.0" stroke="#5FD4C4" stroke-opacity="0.5" stroke-width="1"/><path d="M-0.1 419.4 L20.7 419.6 L44.2 419.6 L70.3 418.5 L97.8 415.3 L125.0 408.7 L149.9 397.6 L170.9 382.3 L187.2 364.4 L199.3 347.4 L209.0 334.7 L218.6 329.2 L230.1 331.2 L244.8 339.3 L262.9 350.5 L284.0 361.7 L307.9 370.6 L334.5 376.0 L364.3 377.0 L397.5 376.0 L434.1 373.9 L472.8 370.9 L511.4 367.1 L547.6 362.8 L579.3 358.2 L606.0 353.5 L628.4 349.0 L648.5 344.9 L668.2 341.3 L689.6 338.3 L714.0 336.0 L742.1 334.3 L771.4 333.2 L798.0 332.6 L817.6 332.4 L828.0 331.9 L830.8 330.9 L831.6 329.8 L837.0 329.1 L851.3 329.2 L874.7 330.3 L903.8 332.8 L934.1 336.7 L961.9 341.6 L985.8 347.2 L1008.1 353.1 L1029.5 358.8 L1050.3 363.7 L1071.2 367.5 L1092.5 369.7 L1114.7 370.3 L1138.0 370.0 L1162.4 369.4 L1187.8 368.6" stroke="#5FD4C4" stroke-opacity="0.5" stroke-width="1"/><path d="M4.7 444.2 L27.3 444.4 L51.1 444.4 L76.0 443.2 L101.4 440.0 L126.0 433.3 L148.4 422.2 L167.7 406.9 L183.6 389.2 L196.6 372.2 L208.1 359.7 L219.7 354.2 L232.8 356.2 L248.5 364.2 L266.9 375.2 L288.1 386.3 L312.0 395.2 L338.9 400.5 L369.0 401.6 L402.4 400.6 L438.7 398.5 L476.6 395.5 L514.2 391.7 L549.2 387.4 L579.9 382.8 L606.0 378.2 L628.3 373.7 L648.4 369.6 L668.4 366.1 L689.9 363.1 L714.3 360.8 L742.3 359.2 L771.5 358.1 L798.0 357.5 L817.5 357.4 L828.0 356.8 L830.9 355.9 L831.7 354.8 L837.1 354.1 L851.4 354.2 L874.6 355.3 L903.5 357.8 L933.7 361.5 L961.4 366.3 L985.3 371.9 L1007.7 377.7 L1029.1 383.2 L1050.0 388.1 L1070.9 391.8 L1092.3 394.0 L1114.6 394.5 L1138.0 394.3 L1162.5 393.8 L1188.0 393.0" stroke="#5FD4C4" stroke-opacity="0.5" stroke-width="1"/><path d="M5.5 467.6 L29.9 467.9 L53.9 467.8 L77.8 466.4 L101.1 462.6 L123.2 455.4 L143.6 444.2 L161.9 429.3 L178.1 412.4 L192.9 396.5 L206.9 384.6 L221.1 379.2 L236.6 380.7 L253.7 387.8 L273.0 397.8 L294.5 408.0 L318.4 416.4 L345.5 421.4 L375.8 422.4 L409.1 421.4 L444.8 419.4 L481.6 416.6 L517.6 413.0 L551.0 409.0 L580.6 404.7 L606.0 400.4 L628.0 396.3 L648.3 392.6 L668.5 389.4 L690.2 386.8 L714.6 384.7 L742.6 383.3 L771.7 382.3 L798.0 381.8 L817.5 381.7 L827.9 381.2 L831.0 380.4 L831.9 379.6 L837.4 379.0 L851.5 379.2 L874.5 380.3 L903.2 382.6 L933.1 385.9 L960.8 390.3 L984.7 395.3 L1007.1 400.5 L1028.5 405.5 L1049.5 409.9 L1070.5 413.3 L1092.0 415.4 L1114.4 415.9 L1138.0 415.7 L1162.7 415.2 L1188.3 414.5" stroke="#5FD4C4" stroke-opacity="0.5" stroke-width="1"/><path d="M-1.9 488.6 L23.5 488.9 L47.7 488.9 L70.9 487.0 L93.1 482.5 L114.2 474.9 L134.1 463.8 L153.0 449.7 L170.9 434.4 L188.3 420.1 L205.4 409.5 L222.9 404.4 L241.1 405.1 L260.3 410.5 L280.9 418.7 L303.1 427.4 L327.1 434.7 L354.3 439.2 L384.5 440.1 L417.3 439.2 L452.0 437.4 L487.2 434.8 L521.4 431.7 L553.0 428.2 L581.2 424.5 L605.9 420.8 L627.8 417.4 L648.2 414.3 L668.8 411.7 L690.6 409.6 L715.1 408.0 L742.9 406.8 L771.8 406.1 L798.0 405.8 L817.3 405.7 L827.8 405.4 L831.0 404.8 L832.2 404.3 L837.7 404.0 L851.7 404.3 L874.4 405.3 L902.8 407.2 L932.5 410.0 L960.1 413.5 L984.0 417.6 L1006.4 421.8 L1027.9 426.0 L1048.9 429.6 L1070.0 432.4 L1091.7 434.1 L1114.3 434.5 L1138.0 434.4 L1162.9 434.1 L1188.7 433.7" stroke="#5FD4C4" stroke-opacity="0.5" stroke-width="1"/><path d="M-18.8 506.1 L6.3 506.4 L30.4 506.3 L53.8 504.1 L76.5 499.2 L98.5 491.4 L120.1 481.0 L141.3 468.5 L162.2 455.4 L183.0 443.4 L203.9 434.4 L224.8 429.7 L246.1 429.4 L267.9 433.0 L290.3 438.9 L313.4 445.5 L337.6 451.2 L364.6 454.8 L394.4 455.5 L426.3 454.8 L459.6 453.3 L492.9 451.3 L525.0 448.7 L554.8 446.0 L581.7 443.1 L605.7 440.3 L627.4 437.7 L648.1 435.5 L669.0 433.6 L691.1 432.1 L715.5 431.1 L743.3 430.4 L772.0 429.9 L798.0 429.7 L817.2 429.7 L827.7 429.5 L831.1 429.2 L832.5 429.0 L838.0 429.0 L851.9 429.4 L874.3 430.3 L902.4 431.8 L931.9 433.8 L959.3 436.3 L983.2 439.2 L1005.7 442.3 L1027.2 445.2 L1048.3 447.8 L1069.6 449.9 L1091.4 451.1 L1114.2 451.4 L1138.1 451.4 L1163.2 451.3 L1189.1 451.2" stroke="#5FD4C4" stroke-opacity="0.5" stroke-width="1"/><path d="M-41.9 519.2 L-18.2 519.4 L5.8 519.3 L29.9 517.1 L54.3 512.3 L78.7 505.3 L103.3 496.3 L128.0 486.1 L152.7 475.7 L177.5 466.4 L202.2 459.3 L226.9 455.1 L251.5 454.0 L276.0 455.7 L300.3 459.2 L324.5 463.4 L348.9 467.3 L375.6 469.7 L404.6 470.2 L435.3 469.7 L466.8 468.7 L498.1 467.2 L528.2 465.5 L556.3 463.6 L582.0 461.7 L605.3 459.9 L627.1 458.3 L648.0 456.9 L669.2 455.9 L691.6 455.1 L716.0 454.6 L743.6 454.3 L772.2 454.1 L797.9 454.1 L817.1 454.1 L827.7 454.0 L831.2 454.0 L832.8 454.0 L838.3 454.2 L852.1 454.6 L874.2 455.3 L902.0 456.3 L931.2 457.5 L958.5 459.1 L982.4 460.7 L1004.9 462.5 L1026.5 464.2 L1047.8 465.7 L1069.1 466.9 L1091.1 467.6 L1114.1 467.8 L1138.2 467.9 L1163.5 468.0 L1189.6 468.1" stroke="#5FD4C4" stroke-opacity="0.5" stroke-width="1"/><path d="M-64.6 528.7 L-42.0 528.6 L-18.2 528.5 L6.7 526.6 L32.5 522.8 L59.2 517.3 L86.6 510.5 L114.7 503.2 L143.2 495.9 L171.9 489.3 L200.5 484.1 L228.9 480.7 L256.8 479.1 L283.9 479.3 L310.2 480.6 L335.5 482.6 L359.9 484.6 L386.1 485.9 L414.2 486.2 L443.5 485.9 L473.2 485.3 L502.6 484.5 L530.8 483.6 L557.3 482.6 L582.0 481.7 L604.9 480.8 L626.7 480.1 L647.9 479.6 L669.5 479.2 L692.0 479.1 L716.5 479.0 L744.0 479.0 L772.3 479.1 L797.9 479.2 L817.0 479.2 L827.6 479.2 L831.3 479.3 L833.0 479.4 L838.7 479.6 L852.3 479.9 L874.1 480.3 L901.6 480.8 L930.6 481.3 L957.8 481.9 L981.7 482.6 L1004.2 483.3 L1025.9 483.9 L1047.2 484.5 L1068.7 484.9 L1090.9 485.2 L1114.0 485.3 L1138.4 485.4 L1163.8 485.6 L1190.2 485.9" stroke="#5FD4C4" stroke-opacity="0.5" stroke-width="1"/><path d="M-80.2 536.5 L-57.6 536.2 L-33.8 536.0 L-8.9 534.8 L17.0 532.4 L44.2 529.0 L72.9 524.9 L103.0 520.5 L134.4 516.2 L166.6 512.2 L198.9 508.9 L230.8 506.4 L261.7 504.9 L291.2 504.1 L319.0 504.0 L345.0 504.4 L369.5 504.9 L395.2 505.2 L422.3 505.3 L450.2 505.2 L478.2 505.0 L505.9 504.8 L532.5 504.6 L557.9 504.3 L581.8 504.1 L604.4 504.0 L626.3 504.0 L647.8 504.1 L669.7 504.2 L692.5 504.4 L716.9 504.7 L744.3 504.9 L772.5 505.1 L797.9 505.3 L816.8 505.3 L827.5 505.3 L831.4 505.3 L833.3 505.3 L839.0 505.3 L852.5 505.3 L874.1 505.3 L901.2 505.3 L930.0 505.3 L957.0 505.3 L981.0 505.3 L1003.5 505.3 L1025.3 505.3 L1046.7 505.3 L1068.3 505.3 L1090.6 505.3 L1114.0 505.3 L1138.5 505.4 L1164.2 505.6 L1190.7 505.9" stroke="#5FD4C4" stroke-opacity="0.5" stroke-width="1"/><path d="M-85.9 545.7 L-62.0 545.2 L-37.9 545.1 L-14.0 544.6 L10.4 543.6 L36.0 542.2 L63.8 540.6 L94.1 538.8 L127.1 537.0 L161.9 535.3 L197.5 533.7 L232.5 532.4 L266.0 531.3 L297.3 530.5 L326.1 529.9 L352.5 529.5 L377.0 529.3 L402.3 529.2 L428.4 529.2 L455.1 529.2 L481.8 529.3 L508.1 529.4 L533.5 529.5 L558.0 529.7 L581.4 529.9 L603.9 530.2 L625.9 530.5 L647.7 530.8 L669.9 531.2 L692.9 531.5 L717.3 531.8 L744.6 532.1 L772.6 532.3 L797.8 532.5 L816.7 532.5 L827.4 532.4 L831.5 532.1 L833.6 531.7 L839.3 531.2 L852.7 530.8 L874.0 530.3 L900.9 529.9 L929.5 529.5 L956.4 529.3 L980.3 529.1 L1002.9 529.0 L1024.7 529.0 L1046.3 529.0 L1068.0 529.1 L1090.5 529.1 L1114.0 529.1 L1138.7 529.1 L1164.6 529.0 L1191.3 529.0" stroke="#ECE9E2" stroke-opacity="0.12" stroke-width="1"/><path d="M-83.7 559.3 L-57.6 558.9 L-33.3 558.8 L-10.7 558.8 L11.3 558.8 L34.0 558.8 L59.3 558.7 L88.3 558.7 L121.5 558.6 L158.1 558.6 L196.2 558.5 L234.0 558.5 L269.5 558.4 L302.0 558.4 L331.2 558.4 L357.8 558.3 L382.2 558.3 L407.1 558.3 L432.5 558.3 L458.3 558.3 L484.0 558.4 L509.3 558.5 L534.0 558.7 L557.8 558.9 L580.9 559.1 L603.4 559.3 L625.5 559.5 L647.6 559.8 L670.1 560.0 L693.2 560.2 L717.6 560.4 L744.8 560.5 L772.7 560.7 L797.8 560.7 L816.6 560.7 L827.4 560.3 L831.6 559.6 L833.8 558.6 L839.6 557.4 L852.8 556.3 L874.0 555.3 L900.7 554.5 L929.0 554.1 L955.9 554.0 L979.8 554.2 L1002.4 554.7 L1024.3 555.3 L1045.9 556.0 L1067.8 556.6 L1090.4 556.9 L1114.0 557.0 L1138.9 556.8 L1164.9 556.3 L1191.7 555.7" stroke="#ECE9E2" stroke-opacity="0.12" stroke-width="1"/><path d="M-77.8 579.2 L-49.9 579.1 L-25.3 579.1 L-3.9 579.2 L15.8 579.3 L35.6 579.5 L58.0 579.9 L85.1 580.4 L117.8 581.2 L155.3 582.2 L195.3 583.4 L235.1 584.7 L272.0 586.1 L305.2 587.6 L334.5 589.0 L360.9 590.2 L385.3 591.1 L409.9 591.7 L434.9 591.8 L460.1 591.8 L485.1 591.7 L509.8 591.6 L534.0 591.4 L557.5 591.3 L580.5 591.1 L603.0 590.9 L625.3 590.7 L647.6 590.5 L670.2 590.3 L693.4 590.2 L717.9 590.0 L745.0 589.9 L772.8 589.8 L797.8 589.8 L816.5 589.7 L827.3 589.0 L831.6 587.7 L833.9 585.8 L839.8 583.8 L853.0 581.8 L874.0 580.3 L900.5 579.3 L928.7 579.0 L955.5 579.4 L979.4 580.5 L1002.1 582.1 L1024.0 584.0 L1045.6 585.8 L1067.6 587.4 L1090.3 588.3 L1114.1 588.5 L1139.1 588.1 L1165.2 587.1 L1192.1 585.7" stroke="#ECE9E2" stroke-opacity="0.12" stroke-width="1"/><path d="M-73.0 605.5 L-43.9 605.8 L-19.2 605.9 L1.6 605.6 L19.8 605.0 L37.8 604.4 L58.2 604.0 L83.7 604.1 L115.8 604.7 L153.7 606.1 L194.8 608.2 L235.7 611.0 L273.5 614.2 L306.9 617.6 L336.2 620.9 L362.4 623.9 L386.8 626.2 L411.2 627.6 L436.0 627.9 L460.8 627.8 L485.6 627.4 L510.0 626.9 L533.9 626.3 L557.3 625.6 L580.2 624.8 L602.8 624.0 L625.1 623.2 L647.5 622.4 L670.3 621.6 L693.6 620.9 L718.0 620.3 L745.1 619.9 L772.8 619.5 L797.8 619.3 L816.5 619.2 L827.3 618.2 L831.7 616.1 L834.0 613.3 L839.9 610.2 L853.1 607.4 L874.0 605.3 L900.4 604.1 L928.6 604.2 L955.3 605.5 L979.2 607.8 L1001.9 610.9 L1023.8 614.4 L1045.5 617.7 L1067.5 620.4 L1090.2 622.1 L1114.1 622.4 L1139.1 621.7 L1165.3 620.2 L1192.3 618.0" stroke="#ECE9E2" stroke-opacity="0.12" stroke-width="1"/><path d="M-72.1 636.3 L-42.9 637.2 L-18.2 637.3 L2.5 636.4 L20.5 634.6 L38.2 632.5 L58.3 630.6 L83.6 629.3 L115.5 629.1 L153.4 630.3 L194.7 633.1 L235.7 637.2 L273.6 642.2 L307.1 647.8 L336.4 653.3 L362.6 658.2 L387.0 661.9 L411.4 664.1 L436.1 664.6 L460.9 664.3 L485.6 663.7 L510.0 662.7 L533.9 661.6 L557.3 660.3 L580.3 658.9 L602.9 657.4 L625.3 655.9 L647.8 654.4 L670.5 653.1 L693.8 651.8 L718.3 650.7 L745.3 649.8 L772.9 649.2 L797.7 648.8 L816.3 648.7 L827.1 647.3 L831.5 644.5 L833.9 640.8 L839.9 636.7 L853.1 633.0 L874.0 630.3 L900.3 629.0 L928.5 629.6 L955.2 631.9 L979.1 635.7 L1001.8 640.5 L1023.7 645.6 L1045.4 650.4 L1067.5 654.2 L1090.2 656.6 L1114.1 657.1 L1139.2 656.1 L1165.3 654.1 L1192.3 651.2" stroke="#ECE9E2" stroke-opacity="0.12" stroke-width="1"/><path d="M-76.1 669.1 L-47.8 670.5 L-23.1 670.7 L-1.9 669.1 L17.3 666.1 L36.4 662.3 L58.0 658.4 L84.4 655.4 L116.7 654.0 L154.1 654.8 L194.3 658.0 L234.4 663.2 L271.7 670.1 L305.0 677.6 L334.5 685.1 L361.0 691.6 L385.4 696.5 L409.9 699.4 L434.7 700.0 L459.8 699.5 L484.8 698.7 L509.5 697.4 L534.0 695.9 L557.9 694.1 L581.5 692.1 L604.6 690.0 L627.6 687.9 L650.5 685.9 L673.6 683.9 L697.1 682.1 L721.5 680.6 L747.7 679.4 L773.8 678.4 L796.9 677.9 L814.0 677.7 L824.0 676.0 L828.6 672.6 L832.0 668.0 L839.0 663.0 L852.9 658.5 L874.0 655.3 L900.1 654.0 L927.9 655.1 L954.4 658.4 L978.3 663.6 L1001.1 670.0 L1023.2 676.6 L1045.1 682.6 L1067.3 687.4 L1090.2 690.3 L1114.1 691.0 L1139.2 689.8 L1165.2 687.5 L1192.1 684.0" stroke="#ECE9E2" stroke-opacity="0.12" stroke-width="1"/><path d="M-82.2 701.5 L-55.7 703.2 L-31.3 703.4 L-8.9 701.3 L12.4 697.2 L34.3 691.9 L58.6 686.4 L86.7 681.9 L119.2 679.3 L155.4 679.5 L193.6 682.9 L231.6 689.1 L267.6 697.3 L300.4 706.5 L330.0 715.4 L356.7 723.1 L381.2 728.8 L405.8 732.1 L430.9 732.8 L456.2 732.3 L481.7 731.3 L507.2 729.8 L532.4 728.0 L557.3 725.8 L581.8 723.4 L606.0 720.9 L629.9 718.4 L653.7 715.9 L677.4 713.5 L701.2 711.4 L725.4 709.5 L749.9 707.9 L773.4 706.8 L793.4 706.2 L808.2 705.9 L817.4 704.0 L822.9 700.1 L828.3 694.8 L837.4 689.1 L852.6 683.9 L874.0 680.3 L899.6 679.0 L926.8 680.5 L952.8 684.7 L976.8 691.1 L999.7 698.7 L1022.2 706.5 L1044.4 713.5 L1066.9 718.9 L1090.1 722.2 L1114.1 722.9 L1139.1 721.7 L1165.0 719.1 L1191.5 715.3" stroke="#ECE9E2" stroke-opacity="0.12" stroke-width="1"/><path d="M-86.0 731.3 L-61.5 733.2 L-37.5 733.4 L-13.8 731.1 L10.0 726.4 L34.9 720.2 L61.7 713.6 L91.1 708.0 L123.1 704.5 L157.3 704.4 L192.6 707.8 L227.7 714.6 L261.4 723.7 L293.0 733.9 L322.2 743.7 L348.9 752.0 L373.3 758.2 L398.0 761.7 L423.2 762.4 L448.8 761.9 L474.6 760.8 L500.5 759.2 L526.4 757.2 L552.1 754.9 L577.6 752.3 L602.8 749.5 L627.7 746.7 L652.3 744.0 L676.7 741.4 L700.9 739.0 L724.8 736.9 L747.5 735.1 L768.0 733.9 L785.0 733.2 L798.0 732.9 L807.3 730.8 L814.8 726.6 L823.3 720.9 L835.3 714.7 L852.2 709.1 L874.0 705.3 L899.1 704.0 L925.4 705.8 L950.9 710.6 L974.9 717.7 L998.1 726.1 L1020.9 734.6 L1043.6 742.1 L1066.6 747.9 L1090.0 751.3 L1114.2 752.1 L1139.1 750.8 L1164.7 748.1 L1190.9 744.1" stroke="#ECE9E2" stroke-opacity="0.12" stroke-width="1"/><path d="M-82.3 757.6 L-59.4 759.5 L-35.5 759.7 L-10.9 757.3 L14.6 752.4 L41.1 746.0 L68.9 739.2 L98.1 733.2 L128.5 729.6 L159.8 729.3 L191.4 732.8 L222.8 739.7 L253.5 749.1 L282.9 759.5 L310.8 769.5 L337.0 778.0 L361.3 784.2 L385.9 787.8 L410.9 788.5 L436.4 788.0 L462.1 786.9 L488.0 785.3 L514.0 783.2 L539.9 780.8 L565.7 778.2 L591.3 775.4 L616.7 772.5 L641.8 769.7 L666.6 767.0 L691.0 764.5 L714.6 762.4 L736.0 760.6 L754.6 759.3 L770.3 758.6 L783.3 758.3 L794.5 756.2 L805.3 751.9 L817.7 746.1 L832.9 739.9 L851.8 734.2 L874.0 730.3 L898.6 729.0 L924.0 730.9 L949.0 735.9 L972.9 743.2 L996.4 751.7 L1019.6 760.4 L1042.8 768.0 L1066.2 773.9 L1090.0 777.4 L1114.3 778.1 L1139.1 776.9 L1164.4 774.1 L1190.1 770.1" stroke="#ECE9E2" stroke-opacity="0.12" stroke-width="1"/><path d="M-68.3 782.4 L-45.3 784.3 L-21.4 784.5 L3.2 782.1 L28.5 777.2 L54.5 770.8 L80.9 764.0 L107.9 758.1 L135.1 754.6 L162.6 754.4 L190.0 757.9 L217.4 764.9 L244.4 774.3 L270.9 784.8 L296.7 794.8 L321.7 803.3 L345.9 809.6 L370.3 813.1 L394.9 813.8 L419.8 813.2 L444.9 812.0 L470.1 810.3 L495.4 808.0 L520.8 805.4 L546.0 802.5 L571.2 799.4 L596.3 796.3 L621.2 793.2 L645.8 790.3 L670.1 787.6 L693.7 785.2 L714.9 783.4 L733.6 782.0 L750.4 781.2 L765.8 780.9 L780.5 778.9 L795.7 774.8 L812.2 769.3 L830.7 763.5 L851.4 758.3 L874.1 754.9 L898.2 754.1 L922.8 756.4 L947.3 761.6 L971.3 768.9 L995.0 777.5 L1018.6 786.1 L1042.3 793.6 L1066.0 799.4 L1090.0 802.8 L1114.4 803.5 L1139.1 802.3 L1164.1 799.6 L1189.3 795.7" stroke="#ECE9E2" stroke-opacity="0.12" stroke-width="1"/><path d="M-45.6 807.0 L-21.2 808.8 L2.8 809.0 L26.6 806.6 L50.1 801.7 L73.4 795.4 L96.6 788.7 L119.6 782.9 L142.6 779.5 L165.6 779.4 L188.6 783.2 L211.7 790.4 L234.8 799.9 L258.1 810.4 L281.6 820.5 L305.3 829.1 L329.3 835.3 L353.4 838.8 L377.5 839.5 L401.6 838.8 L425.8 837.4 L450.0 835.3 L474.3 832.6 L498.5 829.5 L522.7 826.0 L546.9 822.3 L571.1 818.6 L595.3 814.9 L619.4 811.5 L643.4 808.4 L667.2 805.7 L689.3 803.5 L710.0 802.0 L729.7 801.0 L748.8 800.7 L767.9 799.0 L787.3 795.3 L807.5 790.6 L828.7 785.7 L851.0 781.6 L874.2 779.2 L898.0 779.5 L922.2 782.5 L946.3 788.1 L970.3 795.7 L994.2 804.2 L1018.1 812.6 L1042.0 819.9 L1066.0 825.4 L1090.2 828.7 L1114.5 829.4 L1139.1 828.3 L1163.7 825.7 L1188.5 822.0" stroke="#ECE9E2" stroke-opacity="0.12" stroke-width="1"/><path d="M-21.1 831.4 L4.9 833.1 L29.1 833.3 L52.0 830.8 L73.5 826.1 L94.0 819.8 L113.5 813.1 L132.2 807.6 L150.5 804.4 L168.7 804.6 L187.1 808.6 L206.1 816.0 L225.7 825.8 L246.3 836.4 L267.9 846.6 L290.7 855.1 L314.4 861.3 L338.3 864.9 L362.0 865.5 L385.5 864.7 L409.0 862.9 L432.4 860.3 L455.8 857.0 L479.2 853.1 L502.6 848.8 L526.0 844.3 L549.5 839.7 L573.1 835.3 L596.9 831.1 L620.7 827.5 L644.6 824.4 L668.0 822.0 L691.0 820.3 L713.6 819.3 L736.2 819.0 L758.7 817.5 L781.3 814.6 L804.2 811.0 L827.3 807.4 L850.7 804.8 L874.3 804.0 L898.1 805.5 L922.0 809.5 L946.0 815.7 L970.0 823.4 L994.0 831.8 L1018.0 839.8 L1042.1 846.7 L1066.2 852.0 L1090.4 855.1 L1114.7 855.7 L1139.0 854.7 L1163.4 852.3 L1187.8 848.9" stroke="#ECE9E2" stroke-opacity="0.12" stroke-width="1"/><path d="M-2.5 855.6 L23.6 857.2 L47.9 857.3 L70.7 854.9 L91.9 850.2 L111.2 844.0 L128.6 837.5 L144.1 832.2 L158.3 829.2 L171.8 829.8 L185.8 834.1 L200.9 841.8 L217.9 851.8 L236.8 862.7 L257.7 872.9 L280.1 881.4 L303.9 887.6 L327.7 891.2 L351.2 891.8 L374.6 890.8 L397.9 888.6 L421.2 885.4 L444.6 881.2 L468.0 876.4 L491.4 871.1 L515.0 865.5 L538.7 859.9 L562.5 854.6 L586.4 849.8 L610.3 845.7 L634.3 842.4 L658.3 839.9 L682.3 838.2 L706.3 837.2 L730.3 837.0 L754.4 836.0 L778.4 834.0 L802.4 831.7 L826.4 829.8 L850.4 829.0 L874.4 829.9 L898.4 832.8 L922.4 837.7 L946.4 844.3 L970.4 852.1 L994.5 860.1 L1018.5 867.6 L1042.6 874.1 L1066.7 878.9 L1090.8 881.7 L1114.9 882.4 L1139.0 881.4 L1163.1 879.3 L1187.3 876.3" stroke="#ECE9E2" stroke-opacity="0.12" stroke-width="1"/><path d="M5.6 879.8 L30.0 881.2 L54.0 881.3 L77.9 878.9 L101.0 874.2 L122.0 868.1 L139.9 861.8 L154.1 856.7 L165.2 854.1 L174.7 855.0 L184.5 859.8 L196.5 867.8 L211.8 878.1 L230.5 889.1 L251.8 899.4 L274.9 908.0 L298.7 914.2 L322.6 917.6 L346.4 918.3 L370.2 917.0 L394.0 914.4 L418.0 910.4 L442.2 905.3 L466.5 899.4 L491.1 892.9 L515.7 886.1 L540.4 879.5 L565.1 873.5 L589.6 868.3 L613.9 864.1 L637.9 860.9 L661.5 858.7 L684.9 857.3 L708.2 856.6 L731.4 856.4 L754.8 855.9 L778.3 855.0 L802.0 854.2 L826.0 854.0 L850.2 855.0 L874.6 857.4 L899.0 861.5 L923.3 867.1 L947.5 874.0 L971.5 881.5 L995.4 889.0 L1019.4 896.0 L1043.3 901.8 L1067.3 906.2 L1091.2 908.7 L1115.1 909.3 L1139.0 908.4 L1162.9 906.7 L1186.9 904.0" stroke="#ECE9E2" stroke-opacity="0.12" stroke-width="1"/><path d="M33.9 -78.9 L31.7 -56.5 L31.4 -32.7 L32.7 -7.7 L35.3 18.5 L38.6 46.4 L41.8 76.0 L44.4 107.4 L45.8 140.4 L45.8 174.4 L44.2 208.8 L41.4 242.6 L37.8 275.1 L34.2 305.9 L31.2 334.8 L29.5 361.9 L29.7 387.7 L34.2 412.5 L40.9 436.6 L45.7 459.7 L43.6 480.9 L31.3 499.3 L10.1 513.7 L-14.4 524.2 L-34.5 531.9 L-44.8 539.3 L-45.0 549.4 L-38.7 564.6 L-31.0 586.0 L-26.1 613.1 L-26.5 644.0 L-32.1 676.1 L-40.1 707.3 L-45.7 735.9 L-43.2 760.9 L-29.5 784.7 L-6.3 808.2 L19.3 831.5 L38.4 854.6 L45.9 877.6 L42.6 900.6" stroke="#ECE9E2" stroke-opacity="0.1" stroke-width="1"/><path d="M59.2 -78.5 L57.2 -56.2 L56.9 -32.4 L58.2 -7.4 L60.6 18.9 L63.7 46.6 L66.8 76.1 L69.3 107.3 L70.8 140.0 L70.9 173.7 L69.5 207.8 L67.1 241.4 L63.9 273.8 L60.7 304.6 L58.0 333.6 L56.4 361.0 L56.6 386.9 L60.7 411.8 L66.9 435.9 L70.9 458.9 L68.2 479.8 L55.8 497.9 L34.9 512.3 L11.0 522.8 L-8.8 530.9 L-19.4 538.7 L-20.4 549.2 L-14.9 564.6 L-7.9 586.0 L-3.4 612.8 L-3.7 643.3 L-8.9 675.0 L-16.1 705.9 L-20.8 734.3 L-17.8 759.3 L-4.1 783.0 L18.6 806.6 L43.5 829.9 L62.5 853.0 L70.7 876.1 L68.5 899.0" stroke="#ECE9E2" stroke-opacity="0.1" stroke-width="1"/><path d="M85.2 -77.6 L83.5 -55.2 L83.2 -31.4 L84.3 -6.4 L86.4 19.8 L89.0 47.3 L91.8 76.4 L94.1 107.0 L95.5 138.9 L96.0 171.8 L95.4 205.0 L93.8 238.0 L91.6 270.0 L89.3 300.8 L87.3 330.0 L86.1 357.7 L86.3 384.0 L89.6 409.2 L94.0 433.3 L96.0 455.9 L91.8 476.3 L79.2 493.8 L59.4 507.9 L37.0 518.9 L18.0 527.9 L6.8 537.1 L4.1 548.7 L7.3 564.7 L12.4 586.0 L16.0 612.1 L15.7 641.4 L11.7 672.0 L6.5 702.1 L4.0 729.9 L8.5 754.8 L22.1 778.6 L43.3 802.1 L66.4 825.5 L85.0 848.7 L94.7 871.7 L95.4 894.7" stroke="#ECE9E2" stroke-opacity="0.1" stroke-width="1"/><path d="M111.7 -76.0 L110.4 -53.5 L110.2 -29.7 L111.0 -4.8 L112.6 21.2 L114.5 48.4 L116.7 76.8 L118.6 106.5 L120.0 137.2 L120.8 168.8 L121.0 200.7 L120.5 232.5 L119.6 263.7 L118.4 294.0 L117.4 323.2 L116.8 351.1 L116.9 377.7 L118.8 403.2 L120.8 427.4 L120.2 449.5 L114.3 469.3 L101.7 486.4 L83.7 500.7 L63.7 512.7 L46.1 523.4 L34.4 534.5 L29.4 547.9 L29.6 564.9 L32.2 586.1 L34.3 611.1 L34.1 638.9 L31.8 667.9 L29.4 696.6 L29.8 723.7 L35.9 748.4 L49.0 772.2 L67.7 795.8 L88.2 819.2 L105.6 842.5 L116.7 865.6 L120.9 888.7" stroke="#ECE9E2" stroke-opacity="0.1" stroke-width="1"/><path d="M138.4 -73.8 L137.6 -51.1 L137.5 -27.2 L138.0 -2.5 L138.9 23.3 L140.2 49.9 L141.5 77.5 L142.9 105.9 L144.1 135.1 L145.0 164.9 L145.6 195.0 L145.9 225.2 L146.0 255.0 L145.9 284.4 L145.7 312.9 L145.6 340.5 L145.6 367.1 L146.0 392.6 L145.5 416.8 L142.5 438.8 L135.3 458.4 L123.4 475.7 L107.7 490.9 L90.7 504.6 L75.3 517.7 L63.8 531.5 L57.0 547.0 L54.3 565.1 L54.1 586.3 L54.6 610.3 L54.5 636.4 L54.1 663.6 L54.4 690.7 L57.4 716.8 L64.6 741.3 L76.5 765.1 L92.0 788.8 L108.9 812.3 L124.2 835.6 L135.7 859.0 L142.6 882.2" stroke="#ECE9E2" stroke-opacity="0.1" stroke-width="1"/><path d="M165.1 -70.9 L164.9 -47.9 L164.8 -24.0 L165.0 0.6 L165.3 25.8 L165.8 51.7 L166.4 78.2 L167.0 105.2 L167.6 132.7 L168.1 160.5 L168.6 188.5 L169.1 216.6 L169.4 244.5 L169.7 272.2 L169.9 299.5 L170.0 326.1 L169.9 352.1 L169.0 377.2 L166.7 401.4 L162.1 423.5 L154.7 443.7 L144.3 462.2 L131.6 479.2 L118.2 495.4 L105.6 511.5 L95.2 528.1 L87.8 545.9 L83.2 565.4 L80.9 586.8 L80.1 610.0 L80.1 634.6 L81.0 660.0 L83.3 685.5 L87.7 710.6 L94.7 734.9 L104.5 758.8 L116.2 782.5 L128.9 806.2 L140.9 829.8 L151.1 853.3 L158.7 876.8" stroke="#ECE9E2" stroke-opacity="0.1" stroke-width="1"/><path d="M191.8 -67.5 L191.9 -44.0 L192.0 -20.0 L191.9 4.3 L191.7 28.9 L191.5 53.8 L191.2 79.0 L190.9 104.4 L190.5 130.0 L190.1 155.7 L189.7 181.5 L189.3 207.3 L188.9 233.1 L188.6 258.7 L188.4 284.2 L188.3 309.4 L188.1 334.3 L186.7 358.9 L183.7 382.9 L179.1 405.7 L172.6 427.1 L164.6 447.4 L155.4 467.0 L145.9 486.1 L136.7 505.2 L128.5 524.7 L122.0 544.8 L117.2 565.7 L114.1 587.6 L112.7 610.4 L112.7 634.0 L114.1 658.1 L116.7 682.4 L120.8 706.7 L126.2 730.8 L132.8 754.8 L140.4 778.7 L148.4 802.5 L156.2 826.4 L163.3 850.2 L169.3 874.1" stroke="#ECE9E2" stroke-opacity="0.1" stroke-width="1"/><path d="M218.3 -63.5 L218.7 -39.4 L218.7 -15.4 L218.5 8.5 L218.0 32.4 L217.2 56.2 L216.0 79.9 L214.6 103.6 L212.9 127.3 L210.9 151.0 L208.8 174.7 L206.7 198.3 L204.7 222.0 L202.9 245.7 L201.6 269.5 L200.8 293.3 L200.6 317.1 L199.4 341.0 L197.1 365.0 L193.8 388.4 L189.5 411.3 L184.6 433.7 L179.2 455.8 L173.6 477.7 L168.2 499.6 L163.2 521.5 L158.9 543.7 L155.4 566.1 L153.1 588.8 L151.8 611.8 L151.8 635.1 L152.6 658.7 L154.1 682.4 L156.1 706.3 L158.6 730.3 L161.4 754.3 L164.5 778.4 L167.7 802.5 L170.9 826.7 L173.8 850.9 L176.4 875.2" stroke="#ECE9E2" stroke-opacity="0.1" stroke-width="1"/><path d="M244.4 -59.2 L244.9 -34.4 L245.0 -10.3 L244.7 13.2 L244.0 36.1 L242.8 58.7 L240.9 80.9 L238.2 102.8 L234.9 124.7 L230.9 146.5 L226.5 168.4 L222.1 190.4 L217.8 212.6 L214.2 235.1 L211.4 257.8 L209.9 280.9 L209.6 304.2 L209.2 327.8 L208.4 351.7 L207.3 375.7 L206.0 399.6 L204.6 423.5 L203.0 447.3 L201.4 471.2 L199.8 495.0 L198.3 518.8 L197.0 542.7 L195.9 566.5 L195.1 590.3 L194.7 614.2 L194.6 638.0 L194.2 661.9 L193.5 685.9 L192.5 709.8 L191.3 733.8 L190.0 757.9 L188.7 782.2 L187.3 806.6 L185.9 831.1 L184.7 855.7 L183.6 880.4" stroke="#ECE9E2" stroke-opacity="0.1" stroke-width="1"/><path d="M270.2 -54.8 L270.6 -29.2 L270.7 -5.0 L270.4 18.0 L269.7 40.0 L268.3 61.2 L265.7 81.8 L261.8 102.0 L256.7 122.2 L250.5 142.5 L243.6 163.1 L236.7 184.3 L230.2 206.0 L224.7 228.3 L220.7 251.2 L218.5 274.6 L218.2 298.3 L218.8 322.1 L219.8 346.1 L221.2 370.1 L222.9 394.2 L224.8 418.4 L226.8 442.8 L228.9 467.2 L231.0 491.9 L232.9 516.7 L234.6 541.7 L235.9 566.9 L236.9 592.1 L237.4 617.4 L237.2 642.6 L235.6 667.6 L232.7 692.5 L228.8 717.0 L223.9 741.1 L218.5 765.3 L212.9 789.7 L207.3 814.3 L202.2 839.1 L197.7 864.1 L194.1 889.1" stroke="#ECE9E2" stroke-opacity="0.1" stroke-width="1"/><path d="M295.7 -50.4 L296.0 -24.0 L296.0 0.3 L295.9 22.8 L295.3 43.9 L293.7 63.7 L290.6 82.7 L285.5 101.3 L278.6 119.9 L270.2 139.1 L261.0 159.1 L251.8 180.2 L243.6 202.6 L236.9 226.0 L232.2 250.3 L229.7 275.1 L229.4 300.0 L230.6 324.6 L233.0 348.7 L236.4 372.4 L240.7 395.7 L245.5 418.9 L250.8 442.3 L256.2 466.0 L261.4 490.3 L266.1 515.3 L270.1 540.9 L273.3 567.3 L275.5 594.1 L276.6 621.2 L276.4 648.3 L274.1 675.1 L269.8 701.3 L263.5 726.6 L255.6 750.9 L246.6 775.2 L237.1 799.7 L228.1 824.6 L220.3 849.6 L214.1 874.8 L209.7 900.2" stroke="#ECE9E2" stroke-opacity="0.1" stroke-width="1"/><path d="M320.9 -46.2 L321.0 -19.2 L321.0 5.2 L321.0 27.3 L320.6 47.5 L319.0 66.0 L315.4 83.5 L309.4 100.6 L300.9 118.0 L290.6 136.4 L279.5 156.4 L268.7 178.3 L259.4 202.2 L252.2 227.6 L247.3 254.1 L244.8 281.1 L244.6 307.7 L246.1 333.3 L249.3 357.6 L253.9 380.6 L259.9 402.5 L267.1 423.9 L275.0 445.2 L283.0 467.1 L290.7 490.1 L297.4 514.4 L302.9 540.3 L307.0 567.7 L309.7 596.2 L311.0 625.3 L310.8 654.6 L308.4 683.3 L303.5 711.0 L296.1 737.3 L286.1 761.8 L274.1 786.1 L261.6 810.7 L249.9 835.7 L240.3 860.8 L233.8 886.2 L230.3 911.7" stroke="#ECE9E2" stroke-opacity="0.1" stroke-width="1"/><path d="M346.0 -42.6 L345.9 -15.0 L345.8 9.5 L346.0 31.3 L345.8 50.6 L344.2 68.1 L340.3 84.3 L333.5 100.0 L323.9 116.4 L312.2 134.4 L299.8 154.9 L288.1 178.1 L278.3 203.9 L271.0 231.8 L266.3 260.9 L264.0 290.0 L263.8 318.3 L265.4 345.0 L268.8 369.5 L274.0 391.7 L281.0 412.1 L289.7 431.3 L299.4 450.3 L309.3 469.8 L318.6 490.8 L326.6 514.0 L332.8 539.8 L337.1 568.0 L339.7 598.1 L340.9 629.3 L340.7 660.7 L338.6 691.2 L333.9 720.3 L326.0 747.3 L314.8 772.0 L300.9 796.4 L286.2 821.0 L272.6 846.0 L262.3 871.3 L256.2 896.7 L254.0 922.3" stroke="#ECE9E2" stroke-opacity="0.1" stroke-width="1"/><path d="M371.0 -39.6 L370.8 -11.6 L370.7 13.0 L370.9 34.5 L370.8 53.2 L369.3 69.8 L365.3 84.9 L358.1 99.6 L347.9 115.2 L335.5 133.1 L322.5 154.2 L310.4 178.8 L300.4 206.8 L293.2 237.0 L288.7 268.3 L286.6 299.3 L286.4 328.9 L288.0 356.3 L291.3 380.9 L296.7 402.5 L304.2 421.7 L313.5 439.1 L324.1 455.8 L335.0 473.1 L345.0 492.1 L353.5 514.0 L359.9 539.5 L364.2 568.3 L366.7 599.8 L367.8 632.8 L367.6 665.9 L365.7 698.0 L361.2 728.1 L353.3 755.7 L341.6 780.5 L326.8 804.8 L311.0 829.5 L296.6 854.5 L286.0 879.8 L280.3 905.2 L279.1 930.8" stroke="#ECE9E2" stroke-opacity="0.1" stroke-width="1"/><path d="M396.0 -37.5 L395.7 -9.2 L395.7 15.4 L395.9 36.7 L395.9 55.1 L394.4 71.0 L390.5 85.3 L383.4 99.2 L373.3 114.4 L361.1 132.3 L348.1 154.0 L336.0 179.9 L326.1 209.5 L318.8 241.5 L314.2 274.3 L312.0 306.6 L311.9 337.0 L313.5 364.8 L316.9 389.5 L322.3 410.8 L329.9 429.2 L339.3 445.4 L349.9 460.5 L360.7 475.9 L370.7 493.3 L379.0 514.1 L385.3 539.2 L389.5 568.5 L392.0 601.0 L393.0 635.3 L392.9 669.7 L391.0 702.8 L386.5 733.6 L378.6 761.5 L366.9 786.4 L352.0 810.7 L336.0 835.4 L321.5 860.4 L310.8 885.6 L305.2 911.0 L304.1 936.6" stroke="#ECE9E2" stroke-opacity="0.1" stroke-width="1"/><path d="M421.0 -36.5 L420.7 -8.0 L420.6 16.7 L420.9 37.8 L420.9 56.0 L419.7 71.6 L416.3 85.5 L409.9 99.1 L400.7 114.0 L389.2 131.9 L376.9 154.0 L365.2 180.6 L355.2 211.1 L347.7 243.9 L342.8 277.6 L340.4 310.4 L340.2 341.2 L342.0 369.2 L345.7 393.8 L351.4 415.0 L359.1 433.0 L368.4 448.7 L378.6 463.0 L388.9 477.5 L398.3 494.0 L406.0 514.3 L411.7 539.1 L415.5 568.6 L417.6 601.7 L418.6 636.7 L418.4 671.7 L416.6 705.2 L412.3 736.3 L404.5 764.4 L392.6 789.3 L377.4 813.6 L361.1 838.3 L346.3 863.3 L335.5 888.5 L330.0 913.9 L329.2 939.4" stroke="#ECE9E2" stroke-opacity="0.1" stroke-width="1"/><path d="M445.9 -36.5 L445.5 -8.0 L445.4 16.6 L445.8 37.8 L446.0 55.9 L445.2 71.5 L442.5 85.4 L437.3 99.0 L429.4 114.0 L419.4 131.9 L408.4 154.0 L397.4 180.6 L387.7 211.1 L380.1 244.0 L374.9 277.7 L372.2 310.5 L372.0 341.3 L374.0 369.3 L378.0 393.9 L383.9 415.1 L391.6 433.1 L400.5 448.8 L410.0 463.0 L419.2 477.5 L427.4 494.1 L434.1 514.3 L438.9 539.1 L442.0 568.6 L443.7 601.7 L444.4 636.7 L444.2 671.8 L442.7 705.3 L438.6 736.4 L430.9 764.5 L418.8 789.4 L403.2 813.7 L386.2 838.4 L370.9 863.3 L360.0 888.5 L354.7 913.8 L354.4 939.2" stroke="#ECE9E2" stroke-opacity="0.1" stroke-width="1"/><path d="M470.8 -37.4 L470.2 -8.9 L470.1 15.7 L470.5 36.9 L471.0 55.2 L470.7 70.9 L468.9 85.0 L465.1 98.8 L459.0 113.9 L450.9 131.9 L441.7 154.0 L432.1 180.5 L423.3 210.6 L416.0 243.3 L410.8 276.6 L408.0 309.2 L407.8 339.9 L409.9 367.8 L414.0 392.5 L419.7 413.7 L426.9 431.8 L434.9 447.6 L443.1 462.1 L450.8 476.9 L457.5 493.8 L462.7 514.2 L466.3 539.2 L468.6 568.7 L469.7 601.6 L470.2 636.4 L470.1 671.3 L468.8 704.7 L465.1 735.7 L457.6 763.7 L445.4 788.6 L429.2 812.9 L411.4 837.4 L395.5 862.1 L384.3 887.0 L379.4 912.0 L379.8 937.1" stroke="#ECE9E2" stroke-opacity="0.1" stroke-width="1"/><path d="M495.5 -38.8 L494.9 -10.4 L494.8 14.2 L495.2 35.4 L495.8 53.8 L496.0 69.8 L495.1 84.3 L492.7 98.4 L488.6 113.8 L482.7 132.0 L475.7 154.0 L468.2 180.1 L460.9 209.9 L454.7 241.9 L450.0 274.8 L447.4 307.0 L447.2 337.4 L449.2 365.2 L452.8 389.9 L457.9 411.1 L464.0 429.5 L470.5 445.6 L476.9 460.6 L482.8 475.9 L487.6 493.3 L491.2 514.1 L493.6 539.3 L495.0 568.7 L495.6 601.4 L495.8 635.9 L495.7 670.4 L494.9 703.6 L491.8 734.4 L484.6 762.4 L472.3 787.3 L455.4 811.4 L436.7 835.6 L419.9 859.9 L408.6 884.3 L404.1 908.8 L405.6 933.3" stroke="#ECE9E2" stroke-opacity="0.1" stroke-width="1"/><path d="M520.0 -40.8 L519.4 -12.6 L519.3 12.0 L519.7 33.4 L520.4 52.0 L520.9 68.3 L520.8 83.2 L519.7 97.9 L517.4 113.7 L513.8 132.1 L509.3 154.0 L504.1 179.7 L498.9 208.8 L494.2 240.2 L490.6 272.4 L488.5 304.1 L488.4 334.1 L489.9 361.7 L492.8 386.3 L496.7 407.7 L501.2 426.3 L505.8 442.9 L510.2 458.6 L514.0 474.7 L516.9 492.7 L519.0 514.1 L520.2 539.4 L520.8 568.8 L521.0 601.2 L521.0 635.2 L521.0 669.3 L520.6 702.1 L518.3 732.7 L511.6 760.5 L499.3 785.4 L481.7 809.3 L461.9 833.1 L444.3 856.9 L432.8 880.6 L429.0 904.3 L431.7 927.9" stroke="#ECE9E2" stroke-opacity="0.1" stroke-width="1"/><path d="M544.4 -43.2 L543.7 -15.2 L543.6 9.4 L544.0 30.9 L544.8 49.7 L545.5 66.5 L546.0 82.0 L545.9 97.3 L545.0 113.6 L543.3 132.2 L541.0 154.0 L538.1 179.3 L535.0 207.7 L532.2 238.2 L529.9 269.5 L528.6 300.6 L528.5 330.2 L529.5 357.5 L531.4 382.1 L533.8 403.6 L536.5 422.6 L539.1 439.8 L541.5 456.2 L543.5 473.2 L544.8 492.1 L545.7 514.0 L546.0 539.7 L546.0 568.9 L545.8 600.9 L545.6 634.4 L545.7 667.9 L546.0 700.3 L544.5 730.6 L538.5 758.3 L526.3 783.1 L508.1 806.8 L487.2 830.1 L468.7 853.2 L457.1 876.1 L454.1 898.7 L458.1 921.2" stroke="#ECE9E2" stroke-opacity="0.1" stroke-width="1"/><path d="M568.6 -45.9 L568.0 -18.1 L567.9 6.4 L568.3 28.1 L568.9 47.2 L569.7 64.5 L570.4 80.6 L570.9 96.6 L571.0 113.4 L570.7 132.4 L569.9 154.1 L568.9 178.9 L567.6 206.5 L566.4 236.0 L565.4 266.5 L564.8 296.8 L564.7 325.8 L565.2 352.9 L566.0 377.4 L567.1 399.1 L568.3 418.6 L569.3 436.5 L570.2 453.8 L570.7 471.7 L571.0 491.4 L570.9 514.0 L570.7 539.9 L570.3 569.0 L570.0 600.6 L569.7 633.4 L569.9 666.3 L570.9 698.2 L570.3 728.2 L565.3 755.7 L553.2 780.4 L534.5 803.9 L512.5 826.7 L493.1 849.0 L481.5 870.8 L479.3 892.4 L484.8 913.6" stroke="#ECE9E2" stroke-opacity="0.1" stroke-width="1"/><path d="M592.6 -48.8 L592.2 -21.3 L592.1 3.2 L592.4 25.0 L592.9 44.6 L593.6 62.4 L594.2 79.2 L594.9 95.8 L595.4 113.3 L595.8 132.5 L596.0 154.2 L596.0 178.5 L595.9 205.3 L595.7 234.0 L595.5 263.5 L595.3 292.9 L595.3 321.3 L595.4 348.0 L595.6 372.5 L595.8 394.5 L595.9 414.5 L596.0 433.1 L595.9 451.3 L595.7 470.2 L595.4 490.9 L594.9 514.1 L594.4 540.2 L594.0 569.1 L593.6 600.2 L593.4 632.4 L593.7 664.7 L595.3 696.0 L595.8 725.6 L591.7 752.9 L580.0 777.6 L560.8 800.7 L537.8 823.0 L517.6 844.4 L505.9 865.2 L504.7 885.6 L511.7 905.6" stroke="#ECE9E2" stroke-opacity="0.1" stroke-width="1"/><path d="M616.7 -51.7 L616.4 -24.6 L616.4 -0.1 L616.5 21.9 L616.8 41.8 L617.2 60.2 L617.7 77.7 L618.2 95.1 L618.7 113.1 L619.1 132.7 L619.5 154.3 L619.8 178.3 L620.1 204.3 L620.3 232.0 L620.4 260.6 L620.5 289.2 L620.5 316.9 L620.4 343.3 L620.3 367.7 L620.1 390.0 L619.9 410.5 L619.6 429.9 L619.3 449.1 L618.8 469.0 L618.4 490.5 L617.9 514.2 L617.5 540.5 L617.1 569.3 L616.9 599.8 L616.7 631.4 L617.1 663.0 L619.4 693.7 L621.0 722.9 L617.8 750.0 L606.6 774.6 L586.9 797.5 L563.0 819.1 L542.1 839.7 L530.5 859.5 L530.2 878.8 L538.6 897.8" stroke="#ECE9E2" stroke-opacity="0.1" stroke-width="1"/><path d="M640.8 -54.7 L640.7 -27.8 L640.7 -3.4 L640.7 18.8 L640.8 39.2 L640.9 58.1 L641.0 76.3 L641.1 94.3 L641.3 113.0 L641.4 132.9 L641.6 154.5 L641.7 178.1 L641.8 203.5 L641.9 230.3 L641.9 258.0 L642.0 285.7 L642.0 312.9 L641.9 338.9 L641.8 363.2 L641.7 385.7 L641.6 406.8 L641.4 427.0 L641.2 447.1 L640.9 467.9 L640.7 490.2 L640.5 514.4 L640.4 540.9 L640.2 569.4 L640.1 599.5 L640.0 630.4 L640.6 661.3 L643.4 691.5 L645.9 720.2 L643.7 747.0 L632.8 771.6 L612.9 794.2 L588.2 815.3 L566.7 835.1 L555.1 854.0 L555.8 872.4 L565.4 890.7" stroke="#ECE9E2" stroke-opacity="0.1" stroke-width="1"/><path d="M665.0 -57.4 L665.1 -30.8 L665.1 -6.5 L665.1 15.9 L664.9 36.6 L664.8 56.1 L664.5 74.9 L664.3 93.6 L664.0 112.8 L663.7 133.0 L663.4 154.7 L663.1 178.0 L662.8 202.9 L662.6 229.0 L662.4 255.8 L662.3 282.8 L662.3 309.4 L662.3 335.0 L662.4 359.3 L662.5 382.1 L662.6 403.6 L662.8 424.6 L662.9 445.5 L663.0 467.1 L663.2 490.0 L663.3 514.7 L663.4 541.2 L663.5 569.5 L663.6 599.1 L663.6 629.4 L664.2 659.7 L667.5 689.3 L670.7 717.7 L669.2 744.2 L658.8 768.7 L638.6 791.1 L613.4 811.6 L591.4 830.8 L579.9 848.9 L581.2 866.7 L591.8 884.8" stroke="#ECE9E2" stroke-opacity="0.1" stroke-width="1"/><path d="M689.6 -59.9 L689.8 -33.6 L689.8 -9.3 L689.7 13.2 L689.4 34.3 L689.1 54.3 L688.6 73.7 L688.0 93.0 L687.4 112.7 L686.8 133.2 L686.1 154.9 L685.5 178.0 L684.9 202.4 L684.4 227.9 L684.1 254.1 L683.9 280.4 L683.8 306.5 L684.0 331.8 L684.2 356.0 L684.5 379.0 L684.8 401.0 L685.2 422.6 L685.6 444.2 L686.1 466.5 L686.5 490.0 L686.8 515.0 L687.1 541.6 L687.4 569.6 L687.6 598.8 L687.7 628.6 L688.3 658.3 L691.9 687.4 L695.6 715.3 L694.5 741.7 L684.3 766.1 L664.1 788.2 L638.5 808.3 L616.2 826.9 L604.8 844.5 L606.5 862.1 L617.6 880.4" stroke="#ECE9E2" stroke-opacity="0.1" stroke-width="1"/><path d="M714.7 -62.1 L714.9 -36.1 L714.9 -11.8 L714.8 10.9 L714.5 32.3 L714.1 52.8 L713.6 72.7 L713.0 92.4 L712.3 112.5 L711.6 133.3 L710.9 155.1 L710.2 178.1 L709.6 202.2 L709.0 227.2 L708.6 252.8 L708.4 278.6 L708.4 304.2 L708.5 329.3 L708.7 353.4 L709.1 376.6 L709.5 399.0 L709.9 421.1 L710.4 443.4 L710.9 466.2 L711.3 490.1 L711.7 515.3 L712.1 541.9 L712.4 569.7 L712.6 598.5 L712.7 627.8 L713.4 657.0 L716.9 685.6 L720.6 713.2 L719.5 739.4 L709.2 763.8 L689.0 785.7 L663.4 805.4 L641.1 823.5 L629.8 840.9 L631.6 858.5 L642.7 877.3" stroke="#ECE9E2" stroke-opacity="0.1" stroke-width="1"/><path d="M742.2 -63.9 L742.4 -38.0 L742.4 -13.8 L742.3 9.1 L742.1 30.7 L741.8 51.5 L741.4 71.8 L740.9 92.0 L740.4 112.4 L739.8 133.5 L739.2 155.4 L738.6 178.2 L738.1 202.0 L737.6 226.7 L737.3 251.9 L737.1 277.3 L737.1 302.6 L737.2 327.4 L737.4 351.6 L737.6 374.9 L737.9 397.6 L738.3 420.1 L738.7 442.8 L739.1 466.1 L739.4 490.3 L739.7 515.6 L740.0 542.2 L740.3 569.8 L740.4 598.3 L740.5 627.2 L741.0 655.9 L743.7 684.2 L746.0 711.5 L743.3 737.5 L731.9 761.8 L711.5 783.6 L686.7 803.1 L665.5 820.9 L654.8 838.1 L656.3 855.9 L666.8 875.5" stroke="#ECE9E2" stroke-opacity="0.1" stroke-width="1"/><path d="M770.4 -65.2 L770.5 -39.5 L770.5 -15.3 L770.5 7.7 L770.4 29.5 L770.3 50.6 L770.1 71.2 L769.9 91.7 L769.6 112.3 L769.3 133.6 L769.0 155.5 L768.6 178.3 L768.3 202.0 L768.1 226.4 L767.8 251.3 L767.7 276.4 L767.7 301.5 L767.8 326.2 L767.9 350.3 L768.0 373.8 L768.2 396.7 L768.4 419.5 L768.6 442.5 L768.8 466.0 L768.9 490.4 L769.1 515.9 L769.2 542.4 L769.3 569.9 L769.4 598.1 L769.5 626.7 L769.7 655.2 L770.8 683.2 L770.3 710.2 L764.8 736.1 L751.7 760.4 L731.4 782.1 L708.4 801.4 L689.3 819.0 L679.7 836.2 L680.9 854.3 L689.9 874.6" stroke="#ECE9E2" stroke-opacity="0.1" stroke-width="1"/><path d="M795.1 -66.0 L795.0 -40.3 L795.0 -16.1 L795.1 6.9 L795.2 28.8 L795.3 50.0 L795.5 70.8 L795.6 91.5 L795.7 112.3 L795.8 133.6 L795.9 155.6 L796.0 178.4 L796.0 202.0 L796.0 226.3 L796.0 251.0 L796.0 276.0 L796.0 300.9 L796.0 325.5 L796.0 349.6 L796.0 373.1 L796.0 396.2 L796.0 419.2 L796.0 442.3 L796.0 466.0 L796.0 490.5 L795.9 516.0 L795.9 542.5 L795.9 569.9 L795.9 598.0 L795.9 626.4 L795.8 654.7 L794.9 682.5 L791.3 709.5 L782.8 735.3 L768.4 759.6 L749.1 781.2 L728.9 800.3 L712.8 817.9 L704.7 835.1 L705.4 853.4 L712.5 874.3" stroke="#E58FB4" stroke-opacity="0.45" stroke-width="1"/><path d="M812.2 -66.1 L812.0 -40.5 L811.9 -16.3 L812.1 6.7 L812.4 28.7 L812.8 49.9 L813.3 70.7 L813.8 91.4 L814.4 112.3 L814.9 133.7 L815.5 155.7 L815.9 178.4 L816.3 202.0 L816.7 226.2 L816.9 250.9 L817.0 275.9 L817.0 300.8 L817.0 325.4 L816.9 349.5 L816.9 373.0 L816.8 396.1 L816.6 419.1 L816.5 442.3 L816.4 466.0 L816.3 490.5 L816.1 516.1 L816.0 542.6 L815.9 569.9 L815.9 598.0 L815.9 626.3 L815.5 654.5 L812.8 682.3 L806.7 709.2 L796.5 735.0 L782.1 759.3 L765.1 780.9 L748.6 800.0 L736.0 817.6 L729.7 834.8 L729.9 853.2 L735.0 874.2" stroke="#E58FB4" stroke-opacity="0.45" stroke-width="1"/><path d="M820.2 -65.3 L819.8 -39.8 L819.8 -15.5 L820.0 7.5 L820.4 29.4 L821.0 50.7 L821.8 71.4 L822.6 92.1 L823.5 112.9 L824.4 134.1 L825.3 156.0 L826.1 178.6 L826.8 202.0 L827.3 226.1 L827.8 250.7 L828.0 275.5 L828.0 300.3 L828.0 324.8 L828.0 348.9 L827.9 372.5 L827.9 395.7 L827.8 418.9 L827.7 442.2 L827.6 466.0 L827.5 490.6 L827.5 516.0 L827.4 542.3 L827.4 569.5 L827.3 597.2 L827.3 625.2 L826.8 653.1 L823.2 680.6 L816.4 707.3 L806.4 732.9 L793.9 757.2 L780.5 778.9 L768.3 798.2 L759.3 816.1 L754.6 833.7 L754.4 852.6 L757.6 874.1" stroke="#E58FB4" stroke-opacity="0.45" stroke-width="1"/><path d="M822.0 -63.6 L821.6 -38.0 L821.6 -13.8 L821.8 9.2 L822.3 31.2 L822.9 52.4 L823.7 73.1 L824.6 93.6 L825.6 114.2 L826.6 135.2 L827.6 156.9 L828.5 179.2 L829.3 202.3 L830.0 226.0 L830.5 250.2 L830.8 274.8 L830.8 299.4 L830.8 323.8 L830.9 347.9 L831.0 371.6 L831.0 395.0 L831.1 418.5 L831.2 442.1 L831.3 466.1 L831.4 490.6 L831.5 515.9 L831.6 541.9 L831.7 568.5 L831.7 595.5 L831.8 622.8 L831.3 650.0 L828.1 676.9 L822.2 703.1 L814.4 728.5 L805.4 752.7 L796.4 774.6 L788.4 794.4 L782.6 813.0 L779.6 831.5 L779.1 851.5 L780.7 874.0" stroke="#E58FB4" stroke-opacity="0.45" stroke-width="1"/><path d="M824.3 -61.0 L824.0 -35.4 L824.0 -11.2 L824.1 11.8 L824.5 33.8 L825.0 54.9 L825.7 75.6 L826.4 96.0 L827.2 116.4 L828.0 137.1 L828.9 158.4 L829.6 180.3 L830.3 202.9 L830.9 226.2 L831.4 250.0 L831.6 274.2 L831.7 298.5 L831.7 322.7 L831.9 346.7 L832.1 370.6 L832.3 394.3 L832.6 418.1 L832.8 442.0 L833.1 466.2 L833.4 490.8 L833.7 515.8 L833.9 541.3 L834.1 567.1 L834.2 593.3 L834.3 619.6 L834.0 645.9 L831.9 671.9 L828.3 697.5 L823.7 722.5 L818.6 746.6 L813.7 768.8 L809.4 789.4 L806.3 809.0 L804.5 829.0 L804.0 850.4 L804.5 874.3" stroke="#E58FB4" stroke-opacity="0.45" stroke-width="1"/><path d="M833.9 -57.6 L833.8 -32.0 L833.7 -7.8 L833.8 15.2 L834.0 37.2 L834.3 58.3 L834.6 78.9 L835.0 99.2 L835.5 119.4 L835.9 139.9 L836.4 160.7 L836.9 182.2 L837.3 204.3 L837.7 227.1 L837.9 250.3 L838.1 274.1 L838.1 298.0 L838.2 322.0 L838.3 346.1 L838.5 370.0 L838.8 394.0 L839.1 418.0 L839.4 442.1 L839.7 466.4 L840.1 490.9 L840.4 515.6 L840.6 540.5 L840.9 565.7 L841.0 590.9 L841.1 616.2 L841.0 641.5 L840.2 666.6 L838.8 691.5 L837.0 716.0 L835.0 740.1 L833.2 762.7 L831.5 784.2 L830.3 805.3 L829.5 826.9 L829.1 850.0 L829.0 875.5" stroke="#E58FB4" stroke-opacity="0.45" stroke-width="1"/><path d="M854.0 -53.5 L854.0 -27.9 L854.0 -3.7 L854.0 19.3 L854.0 41.3 L854.0 62.5 L854.0 83.0 L854.0 103.2 L854.1 123.3 L854.1 143.5 L854.2 164.1 L854.3 185.1 L854.4 206.7 L854.5 228.9 L854.5 251.6 L854.6 274.9 L854.6 298.5 L854.6 322.3 L854.7 346.3 L854.8 370.3 L854.9 394.4 L855.0 418.5 L855.1 442.6 L855.3 466.8 L855.5 491.1 L855.6 515.4 L855.8 539.8 L855.9 564.2 L856.0 588.7 L856.0 613.1 L856.0 637.5 L855.9 661.9 L855.8 686.2 L855.5 710.4 L855.3 734.4 L855.1 757.5 L854.8 780.1 L854.6 802.6 L854.4 826.0 L854.3 850.9 L854.2 877.9" stroke="#E58FB4" stroke-opacity="0.45" stroke-width="1"/><path d="M882.9 -48.9 L883.0 -23.4 L883.0 0.9 L883.0 23.9 L882.8 46.0 L882.6 67.2 L882.4 87.8 L882.1 108.0 L881.8 128.0 L881.5 148.1 L881.3 168.3 L881.0 189.0 L880.8 210.2 L880.7 231.9 L880.6 254.2 L880.5 277.0 L880.5 300.2 L880.4 323.8 L880.3 347.7 L880.2 371.7 L880.1 395.7 L879.9 419.6 L879.7 443.5 L879.6 467.4 L879.5 491.4 L879.4 515.3 L879.3 539.2 L879.2 563.1 L879.2 587.0 L879.2 610.9 L879.2 634.9 L879.1 658.8 L879.1 682.8 L879.0 706.8 L879.0 730.7 L879.0 754.5 L879.1 778.1 L879.2 802.1 L879.4 827.1 L879.6 853.5 L879.8 881.8" stroke="#ECE9E2" stroke-opacity="0.1" stroke-width="1"/><path d="M915.9 -43.9 L916.1 -18.4 L916.1 5.8 L916.0 28.9 L915.8 51.0 L915.4 72.3 L915.0 93.1 L914.6 113.3 L914.1 133.4 L913.6 153.4 L913.1 173.5 L912.7 193.9 L912.3 214.7 L912.0 236.1 L911.7 258.0 L911.6 280.4 L911.6 303.3 L911.5 326.8 L911.2 350.6 L910.8 374.4 L910.4 398.0 L910.0 421.5 L909.5 444.9 L909.1 468.2 L908.6 491.6 L908.2 515.1 L907.9 538.6 L907.7 562.3 L907.5 586.1 L907.4 610.0 L907.3 634.0 L906.9 658.1 L906.3 682.1 L905.6 706.2 L904.8 730.2 L904.3 754.4 L904.0 778.9 L904.1 804.2 L904.4 830.4 L904.9 858.0 L905.6 887.1" stroke="#ECE9E2" stroke-opacity="0.1" stroke-width="1"/><path d="M948.1 -38.8 L948.4 -13.4 L948.4 10.8 L948.2 33.9 L948.0 56.2 L947.5 77.7 L947.1 98.6 L946.5 119.0 L945.9 139.1 L945.3 159.2 L944.7 179.3 L944.2 199.6 L943.7 220.2 L943.3 241.3 L943.0 262.9 L942.9 285.1 L942.8 307.8 L942.6 331.1 L942.3 354.9 L941.8 378.4 L941.2 401.5 L940.5 424.2 L939.9 446.7 L939.2 469.2 L938.5 491.9 L937.9 514.9 L937.4 538.3 L937.0 562.0 L936.7 586.1 L936.6 610.6 L936.5 635.2 L935.7 659.9 L934.4 684.6 L932.8 709.0 L931.3 733.1 L930.0 757.6 L929.2 782.8 L929.0 808.9 L929.4 836.0 L930.2 864.2 L931.3 893.5" stroke="#ECE9E2" stroke-opacity="0.1" stroke-width="1"/><path d="M976.0 -33.8 L976.3 -8.5 L976.3 15.6 L976.1 38.9 L975.8 61.3 L975.4 83.0 L974.9 104.1 L974.3 124.7 L973.7 145.0 L973.1 165.2 L972.4 185.4 L971.9 205.7 L971.4 226.3 L971.0 247.3 L970.7 268.8 L970.5 290.7 L970.4 313.3 L970.2 336.5 L969.8 360.3 L969.3 383.4 L968.6 405.7 L967.9 427.4 L967.1 448.9 L966.4 470.4 L965.7 492.3 L965.0 514.8 L964.4 538.0 L964.0 562.2 L963.7 587.1 L963.5 612.6 L963.3 638.4 L962.4 664.3 L960.8 689.8 L958.9 714.8 L957.0 739.1 L955.4 763.8 L954.3 789.4 L954.0 815.9 L954.4 843.3 L955.3 871.7 L956.6 900.8" stroke="#ECE9E2" stroke-opacity="0.1" stroke-width="1"/><path d="M999.7 -29.1 L999.9 -4.0 L1000.0 20.2 L999.8 43.5 L999.6 66.0 L999.2 87.9 L998.7 109.3 L998.2 130.2 L997.6 150.7 L997.0 171.1 L996.5 191.5 L995.9 211.9 L995.5 232.6 L995.1 253.6 L994.8 275.0 L994.7 296.9 L994.6 319.4 L994.4 342.6 L994.0 366.3 L993.5 389.0 L992.8 410.5 L992.1 431.1 L991.4 451.3 L990.6 471.6 L989.9 492.6 L989.3 514.6 L988.7 538.0 L988.3 562.8 L988.0 588.8 L987.8 615.7 L987.7 643.1 L986.8 670.4 L985.3 697.2 L983.5 722.9 L981.7 747.3 L980.2 772.1 L979.3 797.7 L979.0 824.3 L979.4 851.6 L980.3 879.6 L981.5 908.3" stroke="#ECE9E2" stroke-opacity="0.1" stroke-width="1"/><path d="M1021.3 -25.0 L1021.4 0.1 L1021.4 24.2 L1021.3 47.6 L1021.1 70.3 L1020.8 92.3 L1020.5 113.9 L1020.1 135.1 L1019.7 155.9 L1019.2 176.6 L1018.8 197.1 L1018.4 217.8 L1018.1 238.5 L1017.8 259.6 L1017.6 281.1 L1017.5 303.0 L1017.4 325.5 L1017.2 348.7 L1016.9 372.4 L1016.3 394.7 L1015.7 415.4 L1015.1 434.8 L1014.4 453.7 L1013.7 472.9 L1013.0 492.9 L1012.4 514.5 L1011.9 538.1 L1011.5 563.7 L1011.2 591.0 L1011.1 619.6 L1010.9 648.6 L1010.2 677.5 L1009.0 705.4 L1007.5 731.8 L1006.1 756.4 L1004.9 781.1 L1004.2 806.7 L1004.0 833.0 L1004.4 859.9 L1005.3 887.4 L1006.4 915.3" stroke="#ECE9E2" stroke-opacity="0.1" stroke-width="1"/><path d="M1041.5 -21.5 L1041.5 3.4 L1041.6 27.5 L1041.5 51.0 L1041.4 73.8 L1041.2 96.0 L1041.0 117.8 L1040.8 139.2 L1040.6 160.3 L1040.3 181.2 L1040.1 202.0 L1039.9 222.9 L1039.7 243.8 L1039.5 265.0 L1039.4 286.6 L1039.4 308.6 L1039.3 331.1 L1039.2 354.3 L1038.8 378.0 L1038.4 400.0 L1037.8 419.9 L1037.2 438.3 L1036.6 456.0 L1036.0 474.0 L1035.4 493.2 L1034.9 514.4 L1034.5 538.3 L1034.1 564.7 L1033.9 593.4 L1033.7 623.6 L1033.6 654.2 L1033.1 684.4 L1032.2 713.4 L1031.2 740.4 L1030.2 765.1 L1029.5 789.7 L1029.1 815.0 L1029.1 841.0 L1029.5 867.4 L1030.2 894.3 L1031.2 921.5" stroke="#ECE9E2" stroke-opacity="0.1" stroke-width="1"/><path d="M1061.3 -18.9 L1061.4 6.0 L1061.4 30.1 L1061.3 53.6 L1061.3 76.5 L1061.3 98.9 L1061.3 120.8 L1061.2 142.4 L1061.2 163.7 L1061.1 184.9 L1061.1 205.9 L1061.0 226.9 L1061.0 248.0 L1061.0 269.4 L1061.0 291.0 L1060.9 313.1 L1060.9 335.7 L1060.8 358.9 L1060.5 382.6 L1060.1 404.3 L1059.6 423.6 L1059.1 441.2 L1058.6 458.0 L1058.2 475.0 L1057.7 493.4 L1057.3 514.4 L1057.0 538.4 L1056.7 565.7 L1056.5 595.6 L1056.4 627.1 L1056.4 659.1 L1056.1 690.3 L1055.6 720.0 L1055.0 747.4 L1054.5 772.2 L1054.1 796.7 L1054.0 821.8 L1054.2 847.4 L1054.6 873.4 L1055.2 899.8 L1055.9 926.3" stroke="#ECE9E2" stroke-opacity="0.1" stroke-width="1"/><path d="M1082.0 -17.2 L1082.0 7.6 L1082.0 31.7 L1082.0 55.3 L1082.0 78.2 L1082.1 100.7 L1082.2 122.8 L1082.2 144.6 L1082.3 166.0 L1082.4 187.3 L1082.5 208.4 L1082.6 229.6 L1082.7 250.8 L1082.7 272.3 L1082.8 294.0 L1082.8 316.2 L1082.8 338.8 L1082.7 362.0 L1082.5 385.7 L1082.2 407.3 L1081.8 426.2 L1081.5 443.2 L1081.1 459.3 L1080.8 475.7 L1080.5 493.6 L1080.2 514.3 L1080.0 538.6 L1079.8 566.4 L1079.7 597.2 L1079.7 629.6 L1079.7 662.5 L1079.5 694.5 L1079.4 724.6 L1079.2 752.3 L1079.0 777.1 L1079.0 801.5 L1079.1 826.5 L1079.3 851.8 L1079.7 877.5 L1080.1 903.4 L1080.6 929.6" stroke="#ECE9E2" stroke-opacity="0.1" stroke-width="1"/><path d="M1104.4 -16.4 L1104.4 8.3 L1104.4 32.4 L1104.4 56.0 L1104.5 79.0 L1104.5 101.5 L1104.6 123.6 L1104.7 145.4 L1104.8 167.0 L1104.9 188.3 L1105.0 209.5 L1105.1 230.7 L1105.2 252.0 L1105.3 273.5 L1105.4 295.3 L1105.4 317.5 L1105.4 340.1 L1105.3 363.4 L1105.2 387.0 L1105.0 408.5 L1104.8 427.3 L1104.6 444.1 L1104.5 459.9 L1104.3 475.9 L1104.2 493.7 L1104.1 514.3 L1104.0 538.7 L1104.0 566.8 L1104.0 597.9 L1104.0 630.8 L1104.0 664.0 L1104.0 696.2 L1104.0 726.6 L1104.0 754.3 L1104.1 779.1 L1104.2 803.5 L1104.4 828.4 L1104.6 853.6 L1104.8 879.2 L1105.1 905.0 L1105.3 930.9" stroke="#ECE9E2" stroke-opacity="0.1" stroke-width="1"/><path d="M1129.2 -17.3 L1129.2 7.5 L1129.3 31.6 L1129.2 55.1 L1129.2 78.1 L1129.1 100.7 L1129.1 122.9 L1129.0 144.7 L1129.0 166.3 L1129.0 187.7 L1129.0 209.0 L1129.0 230.3 L1129.1 251.7 L1129.1 273.2 L1129.1 295.1 L1129.2 317.3 L1129.2 340.0 L1129.1 363.2 L1129.1 386.9 L1129.0 408.4 L1129.0 427.3 L1129.0 444.1 L1129.0 459.9 L1129.1 476.0 L1129.1 493.7 L1129.2 514.3 L1129.4 538.6 L1129.5 566.6 L1129.6 597.6 L1129.6 630.4 L1129.6 663.5 L1129.6 695.7 L1129.7 726.0 L1129.7 753.7 L1129.7 778.5 L1129.8 802.9 L1129.8 827.8 L1129.9 853.1 L1130.0 878.7 L1130.0 904.5 L1130.1 930.6" stroke="#ECE9E2" stroke-opacity="0.1" stroke-width="1"/><path d="M1156.4 -20.4 L1156.6 4.3 L1156.6 28.4 L1156.5 52.0 L1156.3 75.1 L1156.1 97.8 L1155.8 120.1 L1155.5 142.1 L1155.2 163.9 L1154.9 185.5 L1154.7 207.1 L1154.5 228.6 L1154.3 250.3 L1154.2 272.1 L1154.2 294.2 L1154.1 316.6 L1154.1 339.4 L1154.2 362.8 L1154.2 386.5 L1154.3 408.0 L1154.4 426.9 L1154.6 443.9 L1154.8 459.9 L1155.1 476.1 L1155.4 493.9 L1155.7 514.4 L1156.0 538.5 L1156.2 566.1 L1156.4 596.6 L1156.5 628.9 L1156.5 661.7 L1156.4 693.6 L1156.3 723.7 L1156.1 751.4 L1155.9 776.2 L1155.7 800.7 L1155.5 825.6 L1155.3 851.1 L1155.1 876.9 L1155.0 903.0 L1154.8 929.3" stroke="#ECE9E2" stroke-opacity="0.1" stroke-width="1"/>
</svg>
