<svg xmlns="http://www.w3.org/2000/svg" viewBox="0 0 1200 900" width="1200" height="900" fill="none">
<defs><radialGradient id="core" cx="50%" cy="50%" r="50%"><stop offset="0%" stop-color="#E0B458" stop-opacity=".9"/><stop offset="100%" stop-color="#E0B458" stop-opacity="0"/></radialGradient><radialGradient id="bg" cx="52%" cy="50%" r="85%"><stop offset="0%" stop-color="#15131D"/><stop offset="100%" stop-color="#0B0B10"/></radialGradient></defs>
<rect width="1200" height="900" fill="url(#bg)"/><circle cx="624.0" cy="450.0" r="90" fill="url(#core)"/><circle cx="624.0" cy="450.0" r="10" fill="#E0B458"/><ellipse cx="624.0" cy="450.0" rx="57" ry="52" stroke="#ECE9E2" stroke-opacity="0.34" stroke-width="0.7" stroke-dasharray="12 10" transform="rotate(341 624.0 450.0)"/><ellipse cx="624.0" cy="450.0" rx="77" ry="73" stroke="#ECE9E2" stroke-opacity="0.42" stroke-width="1.0" transform="rotate(80 624.0 450.0)"/><ellipse cx="624.0" cy="450.0" rx="107" ry="106" stroke="#E0B458" stroke-opacity="0.68" stroke-width="1.2" transform="rotate(129 624.0 450.0)"/><ellipse cx="624.0" cy="450.0" rx="128" ry="120" stroke="#E0B458" stroke-opacity="0.51" stroke-width="0.7" stroke-dasharray="49 81" transform="rotate(274 624.0 450.0)"/><ellipse cx="624.0" cy="450.0" rx="159" ry="155" stroke="#ECE9E2" stroke-opacity="0.18" stroke-width="0.9" transform="rotate(213 624.0 450.0)"/><ellipse cx="624.0" cy="450.0" rx="178" ry="170" stroke="#E0B458" stroke-opacity="0.82" stroke-width="0.9" transform="rotate(41 624.0 450.0)"/><ellipse cx="624.0" cy="450.0" rx="203" ry="196" stroke="#ECE9E2" stroke-opacity="0.15" stroke-width="1.4" transform="rotate(324 624.0 450.0)"/><ellipse cx="624.0" cy="450.0" rx="238" ry="211" stroke="#5FD4C4" stroke-opacity="0.43" stroke-width="1.6" transform="rotate(86 624.0 450.0)"/><ellipse cx="624.0" cy="450.0" rx="259" ry="259" stroke="#8B7CFF" stroke-opacity="0.82" stroke-width="1.1" transform="rotate(8 624.0 450.0)"/><ellipse cx="624.0" cy="450.0" rx="289" ry="280" stroke="#ECE9E2" stroke-opacity="0.22" stroke-width="1.1" transform="rotate(125 624.0 450.0)"/><ellipse cx="624.0" cy="450.0" rx="312" ry="278" stroke="#E0B458" stroke-opacity="0.63" stroke-width="0.8" transform="rotate(106 624.0 450.0)"/><ellipse cx="624.0" cy="450.0" rx="334" ry="322" stroke="#8B7CFF" stroke-opacity="0.69" stroke-width="1.0" transform="rotate(4 624.0 450.0)"/><ellipse cx="624.0" cy="450.0" rx="368" ry="351" stroke="#ECE9E2" stroke-opacity="0.23" stroke-width="1.5" stroke-dasharray="32 77" transform="rotate(230 624.0 450.0)"/><ellipse cx="624.0" cy="450.0" rx="385" ry="350" stroke="#ECE9E2" stroke-opacity="0.35" stroke-width="1.4" transform="rotate(103 624.0 450.0)"/><ellipse cx="624.0" cy="450.0" rx="421" ry="388" stroke="#8B7CFF" stroke-opacity="0.84" stroke-width="0.9" stroke-dasharray="16 38" transform="rotate(28 624.0 450.0)"/><ellipse cx="624.0" cy="450.0" rx="436" ry="388" stroke="#ECE9E2" stroke-opacity="0.30" stroke-width="1.0" transform="rotate(344 624.0 450.0)"/><ellipse cx="624.0" cy="450.0" rx="470" ry="417" stroke="#ECE9E2" stroke-opacity="0.55" stroke-width="0.8" stroke-dasharray="24 75" transform="rotate(173 624.0 450.0)"/><ellipse cx="624.0" cy="450.0" rx="499" ry="457" stroke="#ECE9E2" stroke-opacity="0.24" stroke-width="0.9" stroke-dasharray="4 66" transform="rotate(136 624.0 450.0)"/><ellipse cx="624.0" cy="450.0" rx="526" ry="518" stroke="#8B7CFF" stroke-opacity="0.68" stroke-width="1.4" stroke-dasharray="51 13" transform="rotate(123 624.0 450.0)"/><ellipse cx="624.0" cy="450.0" rx="546" ry="522" stroke="#5FD4C4" stroke-opacity="0.42" stroke-width="1.0" stroke-dasharray="51 35" transform="rotate(249 624.0 450.0)"/><ellipse cx="624.0" cy="450.0" rx="578" ry="577" stroke="#ECE9E2" stroke-opacity="0.48" stroke-width="0.8" transform="rotate(100 624.0 450.0)"/><ellipse cx="624.0" cy="450.0" rx="600" ry="534" stroke="#ECE9E2" stroke-opacity="0.17" stroke-width="1.4" transform="rotate(15 624.0 450.0)"/><ellipse cx="624.0" cy="450.0" rx="627" ry="555" stroke="#E0B458" stroke-opacity="0.70" stroke-width="1.2" transform="rotate(142 624.0 450.0)"/><ellipse cx="624.0" cy="450.0" rx="645" ry="591" stroke="#5FD4C4" stroke-opacity="0.50" stroke-width="1.5" transform="rotate(268 624.0 450.0)"/><ellipse cx="624.0" cy="450.0" rx="680" ry="668" stroke="#ECE9E2" stroke-opacity="0.16" stroke-width="0.7" transform="rotate(17 624.0 450.0)"/><ellipse cx="624.0" cy="450.0" rx="698" ry="645" stroke="#E0B458" stroke-opacity="0.78" stroke-width="1.0" transform="rotate(154 624.0 450.0)"/><circle cx="338" cy="74" r="4.0" fill="#E0B458" fill-opacity="0.73"/><circle cx="294" cy="-37" r="3.1" fill="#E0B458" fill-opacity="0.69"/><circle cx="705" cy="-54" r="1.3" fill="#E0B458" fill-opacity="0.68"/><circle cx="732" cy="849" r="1.7" fill="#E0B458" fill-opacity="0.70"/><circle cx="851" cy="532" r="2.5" fill="#ECE9E2" fill-opacity="0.79"/><circle cx="450" cy="548" r="2.1" fill="#5FD4C4" fill-opacity="0.65"/><circle cx="746" cy="201" r="2.3" fill="#E0B458" fill-opacity="0.98"/><circle cx="214" cy="360" r="2.5" fill="#5FD4C4" fill-opacity="0.59"/><circle cx="466" cy="509" r="3.5" fill="#ECE9E2" fill-opacity="0.73"/><circle cx="1053" cy="458" r="2.0" fill="#5FD4C4" fill-opacity="0.52"/><circle cx="141" cy="823" r="3.4" fill="#5FD4C4" fill-opacity="0.99"/><circle cx="959" cy="131" r="1.6" fill="#ECE9E2" fill-opacity="0.88"/><circle cx="748" cy="163" r="3.5" fill="#ECE9E2" fill-opacity="0.71"/><circle cx="380" cy="-94" r="3.6" fill="#ECE9E2" fill-opacity="0.81"/><circle cx="625" cy="63" r="2.8" fill="#ECE9E2" fill-opacity="0.93"/><circle cx="673" cy="228" r="3.3" fill="#E0B458" fill-opacity="0.75"/><circle cx="127" cy="311" r="2.1" fill="#5FD4C4" fill-opacity="0.51"/><circle cx="722" cy="95" r="3.9" fill="#ECE9E2" fill-opacity="0.53"/><circle cx="651" cy="320" r="4.0" fill="#5FD4C4" fill-opacity="0.96"/><circle cx="746" cy="428" r="3.7" fill="#ECE9E2" fill-opacity="0.91"/><circle cx="701" cy="432" r="2.6" fill="#5FD4C4" fill-opacity="0.52"/><circle cx="590" cy="802" r="2.5" fill="#5FD4C4" fill-opacity="0.82"/><circle cx="748" cy="334" r="3.4" fill="#5FD4C4" fill-opacity="0.84"/><circle cx="549" cy="343" r="3.7" fill="#E0B458" fill-opacity="0.53"/><circle cx="550" cy="336" r="4.1" fill="#ECE9E2" fill-opacity="0.80"/><circle cx="559" cy="503" r="3.5" fill="#E0B458" fill-opacity="0.90"/><circle cx="532" cy="350" r="3.6" fill="#E0B458" fill-opacity="0.82"/><circle cx="981" cy="318" r="4.1" fill="#ECE9E2" fill-opacity="0.93"/><circle cx="841" cy="565" r="3.2" fill="#5FD4C4" fill-opacity="0.52"/><circle cx="743" cy="644" r="3.7" fill="#ECE9E2" fill-opacity="0.57"/><circle cx="878" cy="738" r="4.1" fill="#5FD4C4" fill-opacity="0.92"/><circle cx="626" cy="286" r="1.7" fill="#5FD4C4" fill-opacity="0.77"/><circle cx="124" cy="138" r="3.6" fill="#ECE9E2" fill-opacity="0.63"/><circle cx="190" cy="153" r="3.4" fill="#ECE9E2" fill-opacity="0.56"/>
</svg>
