<svg xmlns="http://www.w3.org/2000/svg" viewBox="0 0 1600 1000" width="1600" height="1000" role="img"><defs><radialGradient id="au0"><stop offset="0%" stop-color="#6a55d6" stop-opacity="0.5"/><stop offset="100%" stop-color="#6a55d6" stop-opacity="0"/></radialGradient><radialGradient id="au1"><stop offset="0%" stop-color="#d8a24a" stop-opacity="0.42"/><stop offset="100%" stop-color="#d8a24a" stop-opacity="0"/></radialGradient><radialGradient id="au2"><stop offset="0%" stop-color="#3f8f8a" stop-opacity="0.34"/><stop offset="100%" stop-color="#3f8f8a" stop-opacity="0"/></radialGradient><radialGradient id="au3"><stop offset="0%" stop-color="#6a55d6" stop-opacity="0.3"/><stop offset="100%" stop-color="#6a55d6" stop-opacity="0"/></radialGradient><radialGradient id="au4"><stop offset="0%" stop-color="#edc27a" stop-opacity="0.26"/><stop offset="100%" stop-color="#edc27a" stop-opacity="0"/></radialGradient><filter id="soft" x="-40%" y="-40%" width="180%" height="180%"><feGaussianBlur stdDeviation="64"/></filter></defs><g filter="url(#soft)"><path d="M 915.5 340 Q 915.5 340 809.4 432.8 Q 703.3 525.6 601.8 575.9 Q 500.3 626.2 369.8 661.2 Q 239.3 696.2 146.4 614.1 Q 53.5 532.1 -42.7 436 Q -138.9 340 -91.3 215.7 Q -43.8 91.4 106.8 59.7 Q 257.3 28 396.3 -2.3 Q 535.3 -32.6 673.4 29.5 Q 811.4 91.6 863.5 215.8 Z" fill="url(#au0)"/><path d="M 1609.5 260 Q 1609.5 260 1587.8 371 Q 1566.1 482.1 1446.9 547.9 Q 1327.7 613.8 1192.6 592.6 Q 1057.6 571.3 991.4 490.9 Q 925.2 410.4 893.1 335.2 Q 861 260 840.6 154.2 Q 820.1 48.5 953.4 34.4 Q 1086.6 20.3 1207.9 -38.5 Q 1329.1 -97.3 1437.9 -24 Q 1546.7 49.2 1578.1 154.6 Z" fill="url(#au1)"/><path d="M 1387.6 740 Q 1387.6 740 1313.1 844.2 Q 1238.6 948.4 1127.3 1011.7 Q 1016.1 1075 870.9 1097.5 Q 725.7 1120 662.6 1011.5 Q 599.5 903 543.9 821.5 Q 488.3 740 482.3 622.7 Q 476.3 505.4 615.1 467.5 Q 754 429.7 883.9 420 Q 1013.9 410.3 1152 456 Q 1290 501.7 1338.8 620.8 Z" fill="url(#au2)"/><path d="M 1645.6 660 Q 1645.6 660 1651.2 741.6 Q 1656.7 823.1 1562 854 Q 1467.3 884.8 1381.1 872.2 Q 1294.9 859.6 1217.1 828.6 Q 1139.3 797.6 1128.8 728.8 Q 1118.3 660 1094.3 571.2 Q 1070.4 482.4 1175.6 453.9 Q 1280.8 425.5 1374.6 428.9 Q 1468.5 432.3 1549 472.5 Q 1629.4 512.7 1637.5 586.4 Z" fill="url(#au3)"/><path d="M 915.4 600 Q 915.4 600 868.2 661.9 Q 820.9 723.7 754.5 760.4 Q 688.1 797.1 615.9 777.7 Q 543.7 758.2 487.7 730.4 Q 431.6 702.5 413.9 651.3 Q 396.2 600 400 540.6 Q 403.7 481.3 463.4 436.2 Q 523.1 391.1 610.4 385.1 Q 697.7 379.2 756.2 429.5 Q 814.7 479.8 865.1 539.9 Z" fill="url(#au4)"/></g></svg>
