<svg xmlns="http://www.w3.org/2000/svg" viewBox="0 0 1200 900" width="1200" height="900" role="img"><defs><linearGradient id="sky" x1="0" y1="0" x2="0" y2="1"><stop offset="0%" stop-color="#6a55d6" stop-opacity="0.12"/><stop offset="100%" stop-color="#6a55d6" stop-opacity="0"/></linearGradient><radialGradient id="node"><stop offset="0%" stop-color="#d8a24a" stop-opacity="0.55"/><stop offset="100%" stop-color="#d8a24a" stop-opacity="0"/></radialGradient><radialGradient id="moon"><stop offset="60%" stop-color="#e9e4d8" stop-opacity="0.5"/><stop offset="100%" stop-color="#e9e4d8" stop-opacity="0"/></radialGradient><radialGradient id="vg" cx="50%" cy="46%" r="72%"><stop offset="58%" stop-color="#000" stop-opacity="0"/><stop offset="100%" stop-color="#000" stop-opacity="0.55"/></radialGradient><filter id="gr" x="0" y="0" width="100%" height="100%"><feTurbulence type="fractalNoise" baseFrequency="0.9" numOctaves="2" seed="7" stitchTiles="stitch" result="n"/><feColorMatrix in="n" type="matrix" values="0 0 0 0 0.9 0 0 0 0 0.88 0 0 0 0 0.84 0 0 0 0.6 0"/><feComposite operator="in" in2="SourceGraphic"/></filter></defs><rect width="1200" height="900" fill="#0c0c11"/><rect width="1200" height="360" fill="url(#sky)"/><path d="M0 297.7 L18.8 298.1 L37.5 298.4 L56.3 298.8 L75 299.1 L93.8 299.5 L112.5 299.9 L131.3 300.2 L150 300.6 L168.8 300.9 L187.5 301.2 L206.3 301.5 L225 301.8 L243.8 302 L262.5 302.2 L281.3 302.4 L300 302.6 L318.8 302.7 L337.5 302.8 L356.3 302.9 L375 302.9 L393.8 302.9 L412.5 302.9 L431.3 302.8 L450 302.7 L468.8 302.6 L487.5 302.5 L506.3 302.3 L525 302.1 L543.8 301.9 L562.5 301.7 L581.3 301.5 L600 301.2 L618.8 301 L637.5 300.7 L656.3 300.5 L675 300.2 L693.8 300 L712.5 299.8 L731.3 299.6 L750 299.3 L768.8 299.2 L787.5 299 L806.3 298.8 L825 298.7 L843.8 298.6 L862.5 298.5 L881.3 298.5 L900 298.5 L918.8 298.5 L937.5 298.5 L956.3 298.6 L975 298.7 L993.8 298.8 L1012.5 299 L1031.3 299.1 L1050 299.3 L1068.8 299.5 L1087.5 299.7 L1106.3 300 L1125 300.2 L1143.8 300.5 L1162.5 300.7 L1181.3 301 L1200 301.3" fill="none" stroke="#e9e4d8" stroke-opacity="0.08" stroke-width="0.7"/><path d="M0 304.8 L18.8 305.2 L37.5 305.6 L56.3 306 L75 306.3 L93.8 306.6 L112.5 306.8 L131.3 307 L150 307.2 L168.8 307.3 L187.5 307.4 L206.3 307.5 L225 307.5 L243.8 307.4 L262.5 307.3 L281.3 307.2 L300 307 L318.8 306.8 L337.5 306.6 L356.3 306.3 L375 306.1 L393.8 305.8 L412.5 305.5 L431.3 305.1 L450 304.8 L468.8 304.5 L487.5 304.2 L506.3 303.9 L525 303.6 L543.8 303.3 L562.5 303.1 L581.3 302.9 L600 302.7 L618.8 302.5 L637.5 302.4 L656.3 302.4 L675 302.3 L693.8 302.3 L712.5 302.3 L731.3 302.4 L750 302.5 L768.8 302.7 L787.5 302.9 L806.3 303.1 L825 303.3 L843.8 303.6 L862.5 303.9 L881.3 304.2 L900 304.5 L918.8 304.8 L937.5 305.1 L956.3 305.5 L975 305.8 L993.8 306.1 L1012.5 306.4 L1031.3 306.7 L1050 306.9 L1068.8 307.1 L1087.5 307.3 L1106.3 307.5 L1125 307.6 L1143.8 307.7 L1162.5 307.7 L1181.3 307.7 L1200 307.6" fill="none" stroke="#e9e4d8" stroke-opacity="0.10" stroke-width="0.7"/><path d="M0 317.5 L18.8 317.7 L37.5 317.8 L56.3 317.9 L75 317.9 L93.8 317.8 L112.5 317.7 L131.3 317.5 L150 317.3 L168.8 317 L187.5 316.7 L206.3 316.4 L225 316 L243.8 315.6 L262.5 315.2 L281.3 314.7 L300 314.3 L318.8 313.9 L337.5 313.5 L356.3 313.1 L375 312.7 L393.8 312.4 L412.5 312.1 L431.3 311.9 L450 311.7 L468.8 311.6 L487.5 311.5 L506.3 311.5 L525 311.5 L543.8 311.6 L562.5 311.7 L581.3 311.9 L600 312.2 L618.8 312.5 L637.5 312.8 L656.3 313.2 L675 313.6 L693.8 314 L712.5 314.4 L731.3 314.8 L750 315.3 L768.8 315.7 L787.5 316.1 L806.3 316.5 L825 316.9 L843.8 317.2 L862.5 317.4 L881.3 317.7 L900 317.8 L918.8 318 L937.5 318 L956.3 318 L975 317.9 L993.8 317.8 L1012.5 317.6 L1031.3 317.3 L1050 317 L1068.8 316.6 L1087.5 316.2 L1106.3 315.7 L1125 315.2 L1143.8 314.6 L1162.5 314 L1181.3 313.4 L1200 312.8" fill="none" stroke="#e9e4d8" stroke-opacity="0.12" stroke-width="0.8"/><path d="M0 332.7 L18.8 332.4 L37.5 332.1 L56.3 331.6 L75 331.1 L93.8 330.6 L112.5 330.1 L131.3 329.5 L150 328.9 L168.8 328.3 L187.5 327.7 L206.3 327.2 L225 326.7 L243.8 326.3 L262.5 325.9 L281.3 325.5 L300 325.3 L318.8 325.1 L337.5 325 L356.3 325 L375 325.1 L393.8 325.2 L412.5 325.4 L431.3 325.7 L450 326.1 L468.8 326.5 L487.5 327 L506.3 327.5 L525 328.1 L543.8 328.7 L562.5 329.3 L581.3 329.8 L600 330.4 L618.8 330.9 L637.5 331.4 L656.3 331.9 L675 332.2 L693.8 332.6 L712.5 332.8 L731.3 333 L750 333 L768.8 333 L787.5 332.9 L806.3 332.7 L825 332.4 L843.8 332 L862.5 331.5 L881.3 331 L900 330.3 L918.8 329.7 L937.5 328.9 L956.3 328.1 L975 327.3 L993.8 326.5 L1012.5 325.7 L1031.3 324.9 L1050 324.1 L1068.8 323.4 L1087.5 322.7 L1106.3 322 L1125 321.5 L1143.8 321 L1162.5 320.6 L1181.3 320.3 L1200 320.1" fill="none" stroke="#e9e4d8" stroke-opacity="0.13" stroke-width="0.8"/><path d="M0 348.6 L18.8 347.8 L37.5 347.1 L56.3 346.3 L75 345.5 L93.8 344.9 L112.5 344.2 L131.3 343.7 L150 343.2 L168.8 342.9 L187.5 342.6 L206.3 342.5 L225 342.5 L243.8 342.6 L262.5 342.8 L281.3 343.1 L300 343.5 L318.8 344.1 L337.5 344.7 L356.3 345.3 L375 346.1 L393.8 346.8 L412.5 347.6 L431.3 348.3 L450 349.1 L468.8 349.8 L487.5 350.4 L506.3 351 L525 351.5 L543.8 351.8 L562.5 352.1 L581.3 352.2 L600 352.3 L618.8 352.1 L637.5 351.9 L656.3 351.5 L675 351 L693.8 350.4 L712.5 349.6 L731.3 348.8 L750 347.9 L768.8 346.9 L787.5 345.8 L806.3 344.8 L825 343.7 L843.8 342.6 L862.5 341.6 L881.3 340.6 L900 339.7 L918.8 338.8 L937.5 338.1 L956.3 337.5 L975 337 L993.8 336.6 L1012.5 336.4 L1031.3 336.3 L1050 336.4 L1068.8 336.6 L1087.5 336.9 L1106.3 337.4 L1125 338.1 L1143.8 338.8 L1162.5 339.6 L1181.3 340.6 L1200 341.6" fill="none" stroke="#e9e4d8" stroke-opacity="0.15" stroke-width="0.9"/><path d="M0 365.9 L18.8 365.2 L37.5 364.6 L56.3 364.1 L75 363.8 L93.8 363.6 L112.5 363.6 L131.3 363.8 L150 364.1 L168.8 364.6 L187.5 365.2 L206.3 365.9 L225 366.7 L243.8 367.6 L262.5 368.6 L281.3 369.6 L300 370.6 L318.8 371.5 L337.5 372.4 L356.3 373.2 L375 374 L393.8 374.5 L412.5 375 L431.3 375.3 L450 375.4 L468.8 375.3 L487.5 375 L506.3 374.6 L525 374 L543.8 373.2 L562.5 372.3 L581.3 371.2 L600 370 L618.8 368.7 L637.5 367.4 L656.3 366 L675 364.6 L693.8 363.2 L712.5 361.9 L731.3 360.7 L750 359.5 L768.8 358.5 L787.5 357.7 L806.3 357 L825 356.5 L843.8 356.2 L862.5 356.1 L881.3 356.3 L900 356.6 L918.8 357.1 L937.5 357.8 L956.3 358.7 L975 359.7 L993.8 360.9 L1012.5 362.2 L1031.3 363.5 L1050 364.9 L1068.8 366.3 L1087.5 367.8 L1106.3 369.1 L1125 370.4 L1143.8 371.6 L1162.5 372.7 L1181.3 373.7 L1200 374.5" fill="none" stroke="#e9e4d8" stroke-opacity="0.17" stroke-width="0.9"/><path d="M0 388.1 L18.8 388.2 L37.5 388.5 L56.3 389 L75 389.8 L93.8 390.6 L112.5 391.7 L131.3 392.8 L150 394 L168.8 395.3 L187.5 396.5 L206.3 397.7 L225 398.8 L243.8 399.9 L262.5 400.7 L281.3 401.4 L300 401.9 L318.8 402.1 L337.5 402.1 L356.3 401.9 L375 401.4 L393.8 400.7 L412.5 399.7 L431.3 398.5 L450 397.1 L468.8 395.6 L487.5 394 L506.3 392.3 L525 390.5 L543.8 388.7 L562.5 387 L581.3 385.4 L600 383.9 L618.8 382.6 L637.5 381.4 L656.3 380.5 L675 379.8 L693.8 379.4 L712.5 379.3 L731.3 379.5 L750 379.9 L768.8 380.6 L787.5 381.6 L806.3 382.8 L825 384.2 L843.8 385.7 L862.5 387.4 L881.3 389.2 L900 391 L918.8 392.8 L937.5 394.6 L956.3 396.3 L975 397.8 L993.8 399.3 L1012.5 400.5 L1031.3 401.5 L1050 402.3 L1068.8 402.9 L1087.5 403.1 L1106.3 403.2 L1125 403 L1143.8 402.6 L1162.5 401.9 L1181.3 401.1 L1200 400.1" fill="none" stroke="#e9e4d8" stroke-opacity="0.19" stroke-width="1.0"/><path d="M0 419 L18.8 420.3 L37.5 421.7 L56.3 423.2 L75 424.8 L93.8 426.3 L112.5 427.8 L131.3 429.2 L150 430.3 L168.8 431.3 L187.5 431.9 L206.3 432.3 L225 432.4 L243.8 432.1 L262.5 431.5 L281.3 430.6 L300 429.4 L318.8 427.9 L337.5 426.2 L356.3 424.3 L375 422.2 L393.8 420 L412.5 417.8 L431.3 415.6 L450 413.6 L468.8 411.6 L487.5 409.9 L506.3 408.4 L525 407.2 L543.8 406.4 L562.5 405.9 L581.3 405.7 L600 406 L618.8 406.6 L637.5 407.5 L656.3 408.8 L675 410.4 L693.8 412.2 L712.5 414.2 L731.3 416.4 L750 418.7 L768.8 421 L787.5 423.2 L806.3 425.4 L825 427.4 L843.8 429.2 L862.5 430.8 L881.3 432.1 L900 433.1 L918.8 433.7 L937.5 434 L956.3 434 L975 433.7 L993.8 433 L1012.5 432.1 L1031.3 430.9 L1050 429.6 L1068.8 428.1 L1087.5 426.5 L1106.3 424.8 L1125 423.2 L1143.8 421.7 L1162.5 420.3 L1181.3 419 L1200 418" fill="none" stroke="#e9e4d8" stroke-opacity="0.20" stroke-width="1.0"/><path d="M0 458.6 L18.8 460.4 L37.5 462.1 L56.3 463.5 L75 464.7 L93.8 465.5 L112.5 465.9 L131.3 466 L150 465.5 L168.8 464.7 L187.5 463.5 L206.3 461.8 L225 459.9 L243.8 457.6 L262.5 455.1 L281.3 452.5 L300 449.8 L318.8 447.1 L337.5 444.6 L356.3 442.2 L375 440 L393.8 438.2 L412.5 436.8 L431.3 435.8 L450 435.3 L468.8 435.2 L487.5 435.7 L506.3 436.6 L525 438 L543.8 439.7 L562.5 441.9 L581.3 444.3 L600 446.9 L618.8 449.7 L637.5 452.6 L656.3 455.4 L675 458.1 L693.8 460.6 L712.5 462.8 L731.3 464.7 L750 466.3 L768.8 467.4 L787.5 468.1 L806.3 468.4 L825 468.2 L843.8 467.6 L862.5 466.7 L881.3 465.4 L900 463.8 L918.8 461.9 L937.5 460 L956.3 458 L975 455.9 L993.8 454 L1012.5 452.2 L1031.3 450.6 L1050 449.3 L1068.8 448.4 L1087.5 447.7 L1106.3 447.5 L1125 447.6 L1143.8 448.1 L1162.5 448.9 L1181.3 450 L1200 451.4" fill="none" stroke="#e9e4d8" stroke-opacity="0.22" stroke-width="1.1"/><path d="M0 501.8 L18.8 502.6 L37.5 502.8 L56.3 502.5 L75 501.6 L93.8 500.2 L112.5 498.3 L131.3 496 L150 493.3 L168.8 490.3 L187.5 487.1 L206.3 483.9 L225 480.6 L243.8 477.6 L262.5 474.8 L281.3 472.3 L300 470.3 L318.8 468.9 L337.5 467.9 L356.3 467.7 L375 468 L393.8 468.9 L412.5 470.5 L431.3 472.6 L450 475.1 L468.8 478 L487.5 481.3 L506.3 484.6 L525 488.1 L543.8 491.5 L562.5 494.8 L581.3 497.8 L600 500.4 L618.8 502.6 L637.5 504.3 L656.3 505.5 L675 506.1 L693.8 506.1 L712.5 505.5 L731.3 504.5 L750 503 L768.8 501.1 L787.5 498.9 L806.3 496.5 L825 494 L843.8 491.5 L862.5 489.1 L881.3 487 L900 485.1 L918.8 483.5 L937.5 482.4 L956.3 481.8 L975 481.6 L993.8 481.9 L1012.5 482.7 L1031.3 483.9 L1050 485.4 L1068.8 487.3 L1087.5 489.3 L1106.3 491.5 L1125 493.7 L1143.8 495.8 L1162.5 497.7 L1181.3 499.3 L1200 500.6" fill="none" stroke="#e9e4d8" stroke-opacity="0.24" stroke-width="1.1"/><path d="M0 541 L18.8 539.1 L37.5 536.7 L56.3 533.7 L75 530.3 L93.8 526.6 L112.5 522.7 L131.3 518.9 L150 515.1 L168.8 511.7 L187.5 508.7 L206.3 506.3 L225 504.4 L243.8 503.4 L262.5 503 L281.3 503.5 L300 504.8 L318.8 506.7 L337.5 509.4 L356.3 512.6 L375 516.3 L393.8 520.2 L412.5 524.4 L431.3 528.5 L450 532.6 L468.8 536.3 L487.5 539.7 L506.3 542.5 L525 544.7 L543.8 546.2 L562.5 547 L581.3 547.1 L600 546.5 L618.8 545.2 L637.5 543.3 L656.3 541 L675 538.3 L693.8 535.3 L712.5 532.3 L731.3 529.3 L750 526.5 L768.8 523.9 L787.5 521.8 L806.3 520.2 L825 519.1 L843.8 518.7 L862.5 518.8 L881.3 519.6 L900 520.9 L918.8 522.6 L937.5 524.8 L956.3 527.2 L975 529.8 L993.8 532.4 L1012.5 534.9 L1031.3 537.2 L1050 539.1 L1068.8 540.6 L1087.5 541.4 L1106.3 541.7 L1125 541.4 L1143.8 540.3 L1162.5 538.7 L1181.3 536.4 L1200 533.6" fill="none" stroke="#e9e4d8" stroke-opacity="0.26" stroke-width="1.2"/><path d="M0 571.4 L18.8 567 L37.5 562.4 L56.3 557.9 L75 553.6 L93.8 549.7 L112.5 546.4 L131.3 543.8 L150 542.1 L168.8 541.3 L187.5 541.5 L206.3 542.7 L225 544.8 L243.8 547.7 L262.5 551.4 L281.3 555.7 L300 560.4 L318.8 565.3 L337.5 570.2 L356.3 575 L375 579.5 L393.8 583.4 L412.5 586.6 L431.3 589.1 L450 590.6 L468.8 591.3 L487.5 591.1 L506.3 590 L525 588.1 L543.8 585.6 L562.5 582.5 L581.3 579.1 L600 575.4 L618.8 571.8 L637.5 568.3 L656.3 565.2 L675 562.6 L693.8 560.5 L712.5 559.2 L731.3 558.6 L750 558.8 L768.8 559.7 L787.5 561.3 L806.3 563.5 L825 566.1 L843.8 569.1 L862.5 572.2 L881.3 575.2 L900 578.1 L918.8 580.6 L937.5 582.6 L956.3 583.9 L975 584.5 L993.8 584.3 L1012.5 583.4 L1031.3 581.6 L1050 579 L1068.8 575.8 L1087.5 572.1 L1106.3 568 L1125 563.6 L1143.8 559.3 L1162.5 555.1 L1181.3 551.2 L1200 547.9" fill="none" stroke="#e9e4d8" stroke-opacity="0.27" stroke-width="1.2"/><path d="M0 596.4 L18.8 591.8 L37.5 588 L56.3 585 L75 583.1 L93.8 582.3 L112.5 582.7 L131.3 584.4 L150 587.1 L168.8 590.9 L187.5 595.5 L206.3 600.8 L225 606.5 L243.8 612.3 L262.5 618.1 L281.3 623.5 L300 628.3 L318.8 632.4 L337.5 635.5 L356.3 637.6 L375 638.6 L393.8 638.4 L412.5 637.2 L431.3 635 L450 632 L468.8 628.3 L487.5 624.2 L506.3 619.9 L525 615.6 L543.8 611.5 L562.5 607.9 L581.3 605 L600 602.9 L618.8 601.6 L637.5 601.3 L656.3 602 L675 603.5 L693.8 605.8 L712.5 608.7 L731.3 612 L750 615.6 L768.8 619.2 L787.5 622.7 L806.3 625.6 L825 628 L843.8 629.6 L862.5 630.3 L881.3 630 L900 628.8 L918.8 626.5 L937.5 623.4 L956.3 619.5 L975 614.9 L993.8 610 L1012.5 604.9 L1031.3 599.9 L1050 595.2 L1068.8 591 L1087.5 587.6 L1106.3 585.1 L1125 583.6 L1143.8 583.3 L1162.5 584.1 L1181.3 586.1 L1200 589.1" fill="none" stroke="#e9e4d8" stroke-opacity="0.29" stroke-width="1.3"/><path d="M0 627.3 L18.8 626.1 L37.5 626.4 L56.3 628.1 L75 631.2 L93.8 635.5 L112.5 640.9 L131.3 647.1 L150 653.7 L168.8 660.6 L187.5 667.2 L206.3 673.4 L225 678.9 L243.8 683.3 L262.5 686.6 L281.3 688.5 L300 689.1 L318.8 688.3 L337.5 686.2 L356.3 683 L375 679 L393.8 674.3 L412.5 669.2 L431.3 664.1 L450 659.3 L468.8 654.9 L487.5 651.3 L506.3 648.7 L525 647.2 L543.8 646.8 L562.5 647.5 L581.3 649.3 L600 652.1 L618.8 655.5 L637.5 659.5 L656.3 663.7 L675 667.9 L693.8 671.7 L712.5 674.9 L731.3 677.3 L750 678.7 L768.8 678.9 L787.5 678 L806.3 675.8 L825 672.5 L843.8 668.2 L862.5 663.1 L881.3 657.5 L900 651.6 L918.8 645.8 L937.5 640.4 L956.3 635.6 L975 631.7 L993.8 628.9 L1012.5 627.4 L1031.3 627.3 L1050 628.6 L1068.8 631.2 L1087.5 635.1 L1106.3 640.1 L1125 645.9 L1143.8 652.3 L1162.5 658.9 L1181.3 665.5 L1200 671.7" fill="none" stroke="#e9e4d8" stroke-opacity="0.31" stroke-width="1.3"/><path d="M0 676.6 L18.8 681 L37.5 686.9 L56.3 693.8 L75 701.4 L93.8 709.3 L112.5 717 L131.3 724.3 L150 730.7 L168.8 736 L187.5 739.7 L206.3 741.9 L225 742.4 L243.8 741.3 L262.5 738.7 L281.3 734.8 L300 729.8 L318.8 724.2 L337.5 718.2 L356.3 712.3 L375 706.9 L393.8 702.1 L412.5 698.5 L431.3 696 L450 694.9 L468.8 695.2 L487.5 696.9 L506.3 699.7 L525 703.5 L543.8 708 L562.5 712.8 L581.3 717.6 L600 722.1 L618.8 725.9 L637.5 728.6 L656.3 730.2 L675 730.4 L693.8 729.1 L712.5 726.4 L731.3 722.3 L750 717.2 L768.8 711.1 L787.5 704.6 L806.3 697.8 L825 691.3 L843.8 685.4 L862.5 680.4 L881.3 676.6 L900 674.4 L918.8 673.7 L937.5 674.8 L956.3 677.5 L975 681.8 L993.8 687.3 L1012.5 694 L1031.3 701.3 L1050 709 L1068.8 716.6 L1087.5 723.7 L1106.3 730 L1125 735.2 L1143.8 739 L1162.5 741.2 L1181.3 741.9 L1200 741" fill="none" stroke="#e9e4d8" stroke-opacity="0.33" stroke-width="1.4"/><path d="M0 748.6 L18.8 757.5 L37.5 766.6 L56.3 775.3 L75 783.2 L93.8 789.7 L112.5 794.7 L131.3 797.7 L150 798.8 L168.8 797.9 L187.5 795.2 L206.3 790.8 L225 785.2 L243.8 778.7 L262.5 771.8 L281.3 765 L300 758.6 L318.8 753.3 L337.5 749.1 L356.3 746.5 L375 745.6 L393.8 746.3 L412.5 748.5 L431.3 752.2 L450 756.8 L468.8 762.2 L487.5 767.8 L506.3 773.1 L525 777.9 L543.8 781.6 L562.5 784 L581.3 784.7 L600 783.8 L618.8 781.1 L637.5 776.8 L656.3 771.1 L675 764.4 L693.8 756.9 L712.5 749.3 L731.3 741.9 L750 735.2 L768.8 729.6 L787.5 725.6 L806.3 723.3 L825 723.1 L843.8 724.8 L862.5 728.5 L881.3 734 L900 740.9 L918.8 748.9 L937.5 757.6 L956.3 766.4 L975 774.9 L993.8 782.6 L1012.5 789 L1031.3 793.9 L1050 797 L1068.8 798.2 L1087.5 797.5 L1106.3 794.9 L1125 790.8 L1143.8 785.4 L1162.5 779.2 L1181.3 772.5 L1200 765.9" fill="none" stroke="#e9e4d8" stroke-opacity="0.34" stroke-width="1.4"/><path d="M0 834.9 L18.8 843.5 L37.5 850.3 L56.3 855.2 L75 857.7 L93.8 857.8 L112.5 855.7 L131.3 851.5 L150 845.6 L168.8 838.4 L187.5 830.6 L206.3 822.6 L225 815.1 L243.8 808.6 L262.5 803.5 L281.3 800.2 L300 798.8 L318.8 799.4 L337.5 801.9 L356.3 806 L375 811.4 L393.8 817.5 L412.5 823.9 L431.3 829.9 L450 835.1 L468.8 839 L487.5 841.3 L506.3 841.6 L525 839.8 L543.8 836.1 L562.5 830.5 L581.3 823.4 L600 815.3 L618.8 806.7 L637.5 798.2 L656.3 790.3 L675 783.5 L693.8 778.5 L712.5 775.5 L731.3 774.8 L750 776.5 L768.8 780.5 L787.5 786.7 L806.3 794.5 L825 803.7 L843.8 813.6 L862.5 823.7 L881.3 833.3 L900 841.8 L918.8 848.8 L937.5 853.9 L956.3 856.7 L975 857.3 L993.8 855.7 L1012.5 852 L1031.3 846.5 L1050 839.8 L1068.8 832.2 L1087.5 824.5 L1106.3 817.1 L1125 810.5 L1143.8 805.2 L1162.5 801.6 L1181.3 799.8 L1200 799.9" fill="none" stroke="#e9e4d8" stroke-opacity="0.36" stroke-width="1.5"/><path d="M0 917.7 L18.8 920 L37.5 919.6 L56.3 916.5 L75 911 L93.8 903.7 L112.5 895.1 L131.3 886 L150 877.1 L168.8 868.9 L187.5 862.3 L206.3 857.5 L225 854.9 L243.8 854.7 L262.5 856.8 L281.3 860.9 L300 866.6 L318.8 873.4 L337.5 880.6 L356.3 887.5 L375 893.6 L393.8 898.2 L412.5 900.8 L431.3 901.2 L450 899.1 L468.8 894.8 L487.5 888.3 L506.3 880.2 L525 870.9 L543.8 861.2 L562.5 851.7 L581.3 843.2 L600 836.3 L618.8 831.5 L637.5 829.3 L656.3 829.9 L675 833.2 L693.8 839.1 L712.5 847.3 L731.3 857.3 L750 868.3 L768.8 879.7 L787.5 890.8 L806.3 900.8 L825 909 L843.8 915.1 L862.5 918.6 L881.3 919.4 L900 917.5 L918.8 913.2 L937.5 906.9 L956.3 899.1 L975 890.4 L993.8 881.5 L1012.5 873.1 L1031.3 865.9 L1050 860.3 L1068.8 856.7 L1087.5 855.4 L1106.3 856.2 L1125 859.2 L1143.8 863.9 L1162.5 869.9 L1181.3 876.6 L1200 883.4" fill="none" stroke="#e9e4d8" stroke-opacity="0.38" stroke-width="1.5"/><path d="M390 297.7L367.1 304.8L344.1 317.5L321.2 332.7L298.2 348.6L275.3 365.9L252.4 388.1L229.4 419L206.5 458.6L183.5 501.8L160.6 541L137.6 571.4L114.7 596.4L91.8 627.3L68.8 676.6L45.9 748.6L22.9 834.9L0 917.7" fill="none" stroke="#e9e4d8" stroke-opacity="0.13" stroke-width="0.8"/><path d="M416.3 299.1L396.2 306.3L376.1 317.9L356 331.1L336 345.5L315.9 363.8L295.8 389.8L275.7 424.8L255.7 464.7L235.6 501.6L215.5 530.3L195.4 553.6L175.4 583.1L155.3 631.2L135.2 701.4L115.1 783.2L95.1 857.7L75 911" fill="none" stroke="#e9e4d8" stroke-opacity="0.13" stroke-width="0.8"/><path d="M442.5 300.6L425.3 307.2L408.1 317.3L390.9 328.9L373.7 343.2L356.5 364.1L339.3 394L322.1 430.3L304.9 465.5L287.6 493.3L270.4 515.1L253.2 542.1L236 587.1L218.8 653.7L201.6 730.7L184.4 798.8L167.2 845.6L150 877.1" fill="none" stroke="#e9e4d8" stroke-opacity="0.13" stroke-width="0.8"/><path d="M468.8 301.8L454.4 307.5L440.1 316L425.7 326.7L411.4 342.5L397.1 366.7L382.7 398.8L368.4 432.4L354 459.9L339.7 480.6L325.4 504.4L311 544.8L296.7 606.5L282.4 678.9L268 742.4L253.7 785.2L239.3 815.1L225 854.9" fill="none" stroke="#e9e4d8" stroke-opacity="0.13" stroke-width="0.8"/><path d="M495 302.6L483.5 307L472.1 314.3L460.6 325.3L449.1 343.5L437.6 370.6L426.2 401.9L414.7 429.4L403.2 449.8L391.8 470.3L380.3 504.8L368.8 560.4L357.4 628.3L345.9 689.1L334.4 729.8L322.9 758.6L311.5 798.8L300 866.6" fill="none" stroke="#e9e4d8" stroke-opacity="0.13" stroke-width="0.8"/><path d="M521.3 302.9L512.6 306.1L504 312.7L495.4 325.1L486.8 346.1L478.2 374L469.6 401.4L461 422.2L452.4 440L443.8 468L435.2 516.3L426.6 579.5L418 638.6L409.4 679L400.8 706.9L392.2 745.6L383.6 811.4L375 893.6" fill="none" stroke="#e9e4d8" stroke-opacity="0.13" stroke-width="0.8"/><path d="M547.5 302.7L541.8 304.8L536 311.7L530.3 326.1L524.6 349.1L518.8 375.4L513.1 397.1L507.4 413.6L501.6 435.3L495.9 475.1L490.1 532.6L484.4 590.6L478.7 632L472.9 659.3L467.2 694.9L461.5 756.8L455.7 835.1L450 899.1" fill="none" stroke="#e9e4d8" stroke-opacity="0.13" stroke-width="0.8"/><path d="M573.8 302.1L570.9 303.6L568 311.5L565.1 328.1L562.3 351.5L559.4 374L556.5 390.5L553.7 407.2L550.8 438L547.9 488.1L545.1 544.7L542.2 588.1L539.3 615.6L536.5 647.2L533.6 703.5L530.7 777.9L527.9 839.8L525 870.9" fill="none" stroke="#e9e4d8" stroke-opacity="0.13" stroke-width="0.8"/><path d="M600 301.2L600 302.7L600 312.2L600 330.4L600 352.3L600 370L600 383.9L600 406L600 446.9L600 500.4L600 546.5L600 575.4L600 602.9L600 652.1L600 722.1L600 783.8L600 815.3L600 836.3" fill="none" stroke="#e9e4d8" stroke-opacity="0.13" stroke-width="0.8"/><path d="M626.3 300.2L629.1 302.3L632 313.6L634.9 332.2L637.7 351L640.6 364.6L643.5 379.8L646.3 410.4L649.2 458.1L652.1 506.1L654.9 538.3L657.8 562.6L660.7 603.5L663.5 667.9L666.4 730.4L669.3 764.4L672.1 783.5L675 833.2" fill="none" stroke="#e9e4d8" stroke-opacity="0.13" stroke-width="0.8"/><path d="M652.5 299.3L658.2 302.5L664 315.3L669.7 333L675.4 347.9L681.2 359.5L686.9 379.9L692.6 418.7L698.4 466.3L704.1 503L709.9 526.5L715.6 558.8L721.3 615.6L727.1 678.7L732.8 717.2L738.5 735.2L744.3 776.5L750 868.3" fill="none" stroke="#e9e4d8" stroke-opacity="0.13" stroke-width="0.8"/><path d="M678.8 298.7L687.4 303.3L696 316.9L704.6 332.4L713.2 343.7L721.8 356.5L730.4 384.2L739 427.4L747.6 468.2L756.2 494L764.8 519.1L773.4 566.1L782 628L790.6 672.5L799.2 691.3L807.8 723.1L816.4 803.7L825 909" fill="none" stroke="#e9e4d8" stroke-opacity="0.13" stroke-width="0.8"/><path d="M705 298.5L716.5 304.5L727.9 317.8L739.4 330.3L750.9 339.7L762.4 356.6L773.8 391L785.3 433.1L796.8 463.8L808.2 485.1L819.7 520.9L831.2 578.1L842.6 628.8L854.1 651.6L865.6 674.4L877.1 740.9L888.5 841.8L900 917.5" fill="none" stroke="#e9e4d8" stroke-opacity="0.13" stroke-width="0.8"/><path d="M731.3 298.7L745.6 305.8L759.9 317.9L774.3 327.3L788.6 337L802.9 359.7L817.3 397.8L831.6 433.7L846 455.9L860.3 481.6L874.6 529.8L889 584.5L903.3 614.9L917.6 631.7L932 681.8L946.3 774.9L960.7 857.3L975 890.4" fill="none" stroke="#e9e4d8" stroke-opacity="0.13" stroke-width="0.8"/><path d="M757.5 299.3L774.7 306.9L791.9 317L809.1 324.1L826.3 336.4L843.5 364.9L860.7 402.3L877.9 429.6L895.1 449.3L912.4 485.4L929.6 539.1L946.8 579L964 595.2L981.2 628.6L998.4 709L1015.6 797L1032.8 839.8L1050 860.3" fill="none" stroke="#e9e4d8" stroke-opacity="0.13" stroke-width="0.8"/><path d="M783.8 300.2L803.8 307.6L823.9 315.2L844 321.5L864 338.1L884.1 370.4L904.2 403L924.3 423.2L944.3 447.6L964.4 493.7L984.5 541.4L1004.6 563.6L1024.6 583.6L1044.7 645.9L1064.8 735.2L1084.9 790.8L1104.9 810.5L1125 859.2" fill="none" stroke="#e9e4d8" stroke-opacity="0.13" stroke-width="0.8"/><path d="M810 301.3L832.9 307.6L855.9 312.8L878.8 320.1L901.8 341.6L924.7 374.5L947.6 400.1L970.6 418L993.5 451.4L1016.5 500.6L1039.4 533.6L1062.4 547.9L1085.3 589.1L1108.2 671.7L1131.2 741L1154.1 765.9L1177.1 799.9L1200 883.4" fill="none" stroke="#e9e4d8" stroke-opacity="0.13" stroke-width="0.8"/><circle cx="944.3" cy="447.6" r="9" fill="url(#node)"/><circle cx="944.3" cy="447.6" r="2.4" fill="#edc27a"/><circle cx="137.6" cy="571.4" r="9" fill="url(#node)"/><circle cx="137.6" cy="571.4" r="2.4" fill="#edc27a"/><circle cx="652.1" cy="506.1" r="9" fill="url(#node)"/><circle cx="652.1" cy="506.1" r="2.4" fill="#edc27a"/><circle cx="600" cy="546.5" r="9" fill="url(#node)"/><circle cx="600" cy="546.5" r="2.4" fill="#edc27a"/><circle cx="91.8" cy="627.3" r="9" fill="url(#node)"/><circle cx="91.8" cy="627.3" r="2.4" fill="#edc27a"/><circle cx="732.8" cy="717.2" r="9" fill="url(#node)"/><circle cx="732.8" cy="717.2" r="2.4" fill="#edc27a"/><circle cx="311" cy="544.8" r="9" fill="url(#node)"/><circle cx="311" cy="544.8" r="2.4" fill="#edc27a"/><circle cx="796.8" cy="463.8" r="9" fill="url(#node)"/><circle cx="796.8" cy="463.8" r="2.4" fill="#edc27a"/><circle cx="455.7" cy="835.1" r="9" fill="url(#node)"/><circle cx="455.7" cy="835.1" r="2.4" fill="#edc27a"/><circle cx="1004.6" cy="563.6" r="9" fill="url(#node)"/><circle cx="1004.6" cy="563.6" r="2.4" fill="#edc27a"/><circle cx="960.7" cy="857.3" r="9" fill="url(#node)"/><circle cx="960.7" cy="857.3" r="2.4" fill="#edc27a"/><circle cx="137.6" cy="571.4" r="9" fill="url(#node)"/><circle cx="137.6" cy="571.4" r="2.4" fill="#edc27a"/><circle cx="600" cy="722.1" r="9" fill="url(#node)"/><circle cx="600" cy="722.1" r="2.4" fill="#edc27a"/><circle cx="868" cy="170" r="64" fill="url(#moon)"/><rect width="1200" height="900" fill="url(#vg)"/><rect width="1200" height="900" filter="url(#gr)" opacity="0.05"/></svg>
