<svg xmlns="http://www.w3.org/2000/svg" viewBox="0 0 1200 900" width="1200" height="900" role="img"><defs><radialGradient id="core"><stop offset="0%" stop-color="#6a55d6" stop-opacity="0.13"/><stop offset="100%" stop-color="#6a55d6" stop-opacity="0"/></radialGradient><radialGradient id="vg" cx="50%" cy="46%" r="72%"><stop offset="58%" stop-color="#000" stop-opacity="0"/><stop offset="100%" stop-color="#000" stop-opacity="0.55"/></radialGradient><filter id="gr" x="0" y="0" width="100%" height="100%"><feTurbulence type="fractalNoise" baseFrequency="0.9" numOctaves="2" seed="7" stitchTiles="stitch" result="n"/><feColorMatrix in="n" type="matrix" values="0 0 0 0 0.9 0 0 0 0 0.88 0 0 0 0 0.84 0 0 0 0.6 0"/><feComposite operator="in" in2="SourceGraphic"/></filter></defs><rect width="1200" height="900" fill="#0d0c12"/><circle cx="620" cy="460" r="430" fill="url(#core)"/><path d="M646.2 460L645.8 461.4L645.4 462.8L644.9 464.1L644.4 465.4L643.8 466.7L643.3 468L642.8 469.2L642.3 470.5L641.7 471.8L641.1 473L640.5 474.3L639.8 475.5L639 476.7L638.1 477.9L637.2 479L636.1 480L634.9 480.9L633.7 481.7L632.3 482.4L630.9 483L629.5 483.4L628 483.8L626.6 484L625.1 484.1L623.6 484.2L622.2 484.3L620.7 484.3L619.3 484.2L617.8 484.2L616.4 484L615 483.9L613.5 483.7L612.1 483.5L610.6 483.1L609.2 482.7L607.8 482.2L606.4 481.6L605.1 480.9L603.9 480L602.8 479.1L601.7 478.1L600.7 477L599.8 475.8L599 474.6L598.3 473.4L597.6 472.2L596.9 470.9L596.3 469.6L595.8 468.3L595.2 467L594.7 465.7L594.2 464.3L593.7 462.9L593.3 461.5L593 460L592.8 458.5L592.7 457L592.8 455.5L593 454L593.4 452.5L594 451.1L594.7 449.7L595.5 448.4L596.5 447.3L597.6 446.2L598.8 445.2L600 444.3L601.2 443.5L602.5 442.7L603.8 442L605 441.3L606.2 440.7L607.5 440.1L608.7 439.4L609.9 438.8L611.2 438.2L612.4 437.6L613.7 437.1L615.1 436.6L616.4 436.1L617.8 435.8L619.3 435.6L620.7 435.4L622.2 435.4L623.7 435.5L625.1 435.7L626.6 436L628 436.4L629.4 436.9L630.7 437.4L632.1 438L633.4 438.7L634.7 439.4L636 440.1L637.2 440.9L638.5 441.7L639.7 442.6L640.9 443.6L642 444.6L643.1 445.8L644 447L644.8 448.3L645.5 449.6L646.1 451.1L646.5 452.5L646.7 454L646.8 455.5L646.7 457.1L646.5 458.5L646.2 460Z" fill="none" stroke="#e9e4d8" stroke-opacity="0.22" stroke-width="0.8"/><path d="M658.5 460L657.9 462.1L657.3 464.1L656.6 466.1L655.9 468L655.2 469.9L654.5 471.8L653.8 473.7L653.1 475.6L652.3 477.5L651.5 479.4L650.5 481.3L649.5 483.2L648.3 485L647 486.7L645.6 488.3L643.9 489.8L642.2 491.1L640.3 492.3L638.3 493.2L636.2 494L634.1 494.7L631.9 495.2L629.7 495.5L627.5 495.7L625.4 495.9L623.2 496L621.1 496L618.9 496L616.8 495.9L614.6 495.8L612.5 495.6L610.3 495.3L608.2 495L606 494.5L603.9 493.9L601.8 493.1L599.8 492.1L597.9 491L596.1 489.8L594.4 488.4L592.8 486.8L591.4 485.2L590.1 483.5L588.8 481.7L587.7 479.9L586.7 478.1L585.7 476.2L584.8 474.3L583.9 472.4L583 470.4L582.2 468.4L581.4 466.4L580.7 464.3L580.2 462.2L579.7 460L579.5 457.8L579.4 455.5L579.6 453.3L580 451.1L580.7 448.9L581.6 446.8L582.7 444.9L584 443L585.5 441.3L587.1 439.7L588.9 438.3L590.6 437L592.5 435.7L594.3 434.6L596.1 433.5L597.9 432.5L599.7 431.5L601.5 430.5L603.2 429.5L605 428.5L606.8 427.5L608.7 426.6L610.6 425.8L612.6 425L614.7 424.3L616.8 423.8L618.9 423.5L621.1 423.3L623.3 423.3L625.5 423.5L627.6 423.8L629.8 424.2L631.9 424.8L634 425.5L636 426.3L638 427.2L640 428.2L641.9 429.2L643.9 430.3L645.8 431.4L647.6 432.7L649.5 434L651.2 435.5L652.8 437.1L654.4 438.8L655.7 440.6L656.9 442.6L657.9 444.6L658.6 446.8L659.1 449L659.4 451.2L659.4 453.4L659.3 455.7L659 457.9L658.5 460Z" fill="none" stroke="#e9e4d8" stroke-opacity="0.26" stroke-width="0.8"/><path d="M670.5 460L669.8 462.7L669 465.4L668.2 468L667.4 470.6L666.5 473.1L665.7 475.6L664.8 478.2L663.9 480.7L663 483.3L661.9 485.9L660.7 488.4L659.3 490.9L657.8 493.3L656 495.5L654 497.7L651.8 499.6L649.4 501.3L646.9 502.8L644.2 504L641.4 505L638.6 505.9L635.7 506.5L632.9 506.9L630 507.3L627.1 507.5L624.3 507.7L621.4 507.8L618.6 507.8L615.7 507.7L612.9 507.6L610 507.4L607.1 507.1L604.2 506.6L601.4 506L598.5 505.1L595.8 504L593.1 502.7L590.6 501.2L588.2 499.5L586 497.7L584 495.6L582.1 493.4L580.3 491.2L578.7 488.8L577.2 486.4L575.8 484L574.4 481.5L573.1 479L571.9 476.5L570.7 473.9L569.6 471.3L568.6 468.5L567.7 465.8L566.9 462.9L566.4 460L566.1 457L566.1 454.1L566.5 451.1L567.1 448.2L568.1 445.4L569.4 442.7L570.9 440.1L572.7 437.7L574.8 435.5L576.9 433.4L579.2 431.5L581.5 429.8L583.9 428.2L586.3 426.7L588.6 425.2L590.9 423.8L593.2 422.3L595.5 420.9L597.7 419.5L600.1 418.1L602.5 416.8L604.9 415.5L607.5 414.3L610.1 413.3L612.9 412.4L615.7 411.7L618.5 411.3L621.5 411L624.4 411L627.3 411.3L630.2 411.7L633 412.4L635.9 413.2L638.6 414.1L641.3 415.1L644 416.3L646.7 417.6L649.3 418.9L651.9 420.3L654.4 421.9L656.9 423.6L659.3 425.4L661.6 427.4L663.7 429.5L665.7 431.8L667.4 434.3L668.9 436.9L670.1 439.7L671 442.5L671.5 445.5L671.8 448.4L671.8 451.4L671.6 454.3L671.1 457.2L670.5 460Z" fill="none" stroke="#e9e4d8" stroke-opacity="0.19" stroke-width="0.8"/><path d="M682.3 460L681.5 463.4L680.6 466.7L679.7 469.9L678.8 473.1L677.8 476.3L676.9 479.5L676 482.7L674.9 485.9L673.8 489.2L672.5 492.4L671 495.6L669.3 498.7L667.3 501.6L665 504.5L662.5 507L659.7 509.4L656.7 511.5L653.5 513.3L650.1 514.8L646.6 516L643.1 517L639.5 517.7L636 518.3L632.4 518.8L628.9 519.1L625.3 519.4L621.8 519.6L618.2 519.7L614.7 519.7L611.1 519.6L607.5 519.4L603.9 519L600.2 518.4L596.7 517.5L593.2 516.4L589.7 515L586.5 513.4L583.3 511.5L580.4 509.3L577.6 506.9L575.1 504.4L572.7 501.6L570.6 498.8L568.5 495.9L566.6 492.9L564.8 489.9L563.1 486.9L561.4 483.8L559.8 480.6L558.3 477.4L556.9 474.1L555.6 470.7L554.5 467.2L553.6 463.6L553 460L552.8 456.3L552.9 452.6L553.5 448.9L554.4 445.4L555.7 441.9L557.4 438.6L559.5 435.4L561.8 432.5L564.3 429.8L567 427.3L569.8 425L572.6 422.8L575.5 420.8L578.3 418.8L581.1 416.9L583.9 415L586.6 413.2L589.4 411.3L592.2 409.4L595.1 407.6L598 405.8L601.1 404.2L604.3 402.6L607.6 401.3L611 400.2L614.6 399.4L618.2 398.9L621.8 398.6L625.5 398.7L629.1 399L632.8 399.6L636.3 400.4L639.8 401.4L643.3 402.5L646.7 403.8L650.1 405.3L653.4 406.8L656.7 408.5L659.9 410.3L663.1 412.2L666.2 414.4L669.2 416.7L672 419.2L674.6 421.9L677 424.9L679 428L680.7 431.3L682.1 434.8L683.1 438.4L683.7 442L684 445.7L683.9 449.4L683.6 453L683 456.5L682.3 460Z" fill="none" stroke="#e9e4d8" stroke-opacity="0.18" stroke-width="0.8"/><path d="M693.9 460L693 464L692 467.9L691.1 471.8L690.2 475.7L689.2 479.5L688.2 483.4L687.2 487.3L686.1 491.2L684.7 495.1L683.2 499L681.4 502.8L679.3 506.5L676.9 510.1L674.1 513.4L671 516.5L667.6 519.2L663.9 521.6L660 523.7L656 525.4L651.8 526.9L647.6 528L643.3 528.9L639.1 529.7L634.8 530.3L630.6 530.7L626.4 531.1L622.1 531.4L617.9 531.6L613.6 531.7L609.3 531.7L604.9 531.4L600.6 530.9L596.2 530.2L592 529.2L587.8 527.8L583.7 526.1L579.8 524L576.1 521.7L572.6 519.1L569.3 516.2L566.3 513.1L563.5 509.8L560.8 506.5L558.4 503L556 499.5L553.8 495.9L551.7 492.2L549.6 488.6L547.7 484.8L545.8 480.9L544.1 477L542.5 472.9L541.3 468.7L540.3 464.4L539.7 460L539.5 455.6L539.8 451.2L540.6 446.8L541.9 442.6L543.6 438.5L545.8 434.6L548.3 430.9L551.1 427.5L554.1 424.3L557.3 421.3L560.6 418.6L563.9 415.9L567.2 413.5L570.4 411L573.7 408.7L576.9 406.3L580 403.9L583.3 401.5L586.6 399.2L590 396.9L593.5 394.7L597.2 392.6L601 390.8L605 389.2L609.2 387.9L613.5 386.9L617.8 386.3L622.2 386.1L626.6 386.2L631 386.6L635.3 387.3L639.6 388.3L643.9 389.5L648 390.9L652.1 392.5L656.2 394.2L660.2 396L664.2 398L668.1 400.2L671.9 402.5L675.6 405.1L679.1 407.9L682.4 411L685.4 414.4L688.2 417.9L690.5 421.8L692.4 425.8L693.9 430L695 434.3L695.6 438.7L695.8 443.1L695.7 447.4L695.3 451.7L694.7 455.9L693.9 460Z" fill="none" stroke="#e9e4d8" stroke-opacity="0.27" stroke-width="0.8"/><path d="M705.3 460L704.4 464.6L703.5 469.2L702.5 473.7L701.6 478.2L700.7 482.7L699.7 487.3L698.6 491.9L697.4 496.5L695.9 501.1L694.1 505.7L691.9 510.2L689.4 514.5L686.5 518.6L683.2 522.4L679.5 525.9L675.4 529L671.1 531.7L666.5 534.1L661.8 536L656.9 537.7L652 539L647.1 540.1L642.2 541L637.3 541.8L632.3 542.4L627.4 543L622.5 543.4L617.5 543.7L612.5 543.9L607.4 543.8L602.4 543.6L597.3 543L592.2 542.1L587.2 540.9L582.3 539.2L577.6 537.2L573.1 534.7L568.8 531.9L564.7 528.8L561 525.4L557.5 521.8L554.2 518L551.1 514.1L548.2 510.1L545.4 506L542.8 501.9L540.2 497.7L537.8 493.4L535.4 489L533.2 484.5L531.2 479.8L529.4 475L528 470.1L527 465.1L526.5 460L526.4 454.9L526.9 449.7L528 444.7L529.7 439.8L531.8 435.1L534.4 430.7L537.4 426.5L540.7 422.6L544.2 418.9L547.8 415.5L551.5 412.2L555.2 409.2L558.9 406.2L562.6 403.3L566.2 400.4L569.8 397.4L573.4 394.5L577 391.6L580.8 388.7L584.8 385.9L588.9 383.3L593.2 380.8L597.7 378.6L602.4 376.8L607.3 375.3L612.3 374.3L617.4 373.6L622.6 373.4L627.7 373.6L632.9 374.1L637.9 375L643 376.2L647.9 377.6L652.8 379.2L657.6 381L662.3 383L667 385.1L671.7 387.5L676.2 390L680.7 392.8L684.9 395.9L689 399.2L692.8 402.9L696.2 406.9L699.2 411.1L701.8 415.7L703.9 420.4L705.5 425.3L706.6 430.3L707.2 435.4L707.4 440.5L707.2 445.5L706.8 450.4L706.1 455.3L705.3 460Z" fill="none" stroke="#e9e4d8" stroke-opacity="0.25" stroke-width="0.8"/><path d="M716.6 460L715.7 465.3L714.9 470.5L714 475.6L713.2 480.8L712.3 486L711.3 491.3L710.2 496.6L708.8 501.9L707.2 507.2L705.1 512.5L702.6 517.6L699.6 522.5L696.2 527.1L692.3 531.4L688 535.3L683.3 538.8L678.2 541.8L673 544.4L667.6 546.6L662.1 548.4L656.5 550L650.9 551.3L645.3 552.4L639.7 553.3L634.1 554.1L628.5 554.9L622.8 555.5L617.1 555.9L611.4 556.2L605.6 556.2L599.8 555.9L593.9 555.2L588.1 554.1L582.4 552.6L576.9 550.7L571.5 548.2L566.4 545.4L561.5 542.1L557 538.5L552.7 534.6L548.7 530.4L544.9 526.1L541.4 521.7L538 517.2L534.8 512.6L531.7 507.9L528.7 503.1L525.8 498.2L523.1 493.2L520.6 488L518.3 482.7L516.4 477.2L514.8 471.6L513.8 465.8L513.3 460L513.5 454.2L514.3 448.4L515.7 442.7L517.7 437.2L520.3 431.9L523.3 426.9L526.8 422.2L530.5 417.8L534.5 413.6L538.5 409.7L542.6 406L546.6 402.4L550.7 398.9L554.6 395.4L558.6 392L562.5 388.5L566.5 385L570.7 381.5L575 378L579.4 374.7L584.2 371.6L589.1 368.8L594.3 366.3L599.8 364.2L605.4 362.6L611.2 361.4L617 360.8L623 360.6L628.9 360.9L634.7 361.6L640.6 362.6L646.3 364L652 365.6L657.5 367.4L663.1 369.5L668.5 371.7L673.9 374.2L679.2 376.9L684.4 379.8L689.4 383.1L694.3 386.6L698.8 390.6L703 394.8L706.8 399.5L710.1 404.4L712.9 409.6L715.1 415.1L716.8 420.7L717.9 426.5L718.5 432.2L718.7 438L718.5 443.6L718 449.2L717.3 454.7L716.6 460Z" fill="none" stroke="#e9e4d8" stroke-opacity="0.21" stroke-width="0.8"/><path d="M727.8 460L727.1 465.9L726.4 471.7L725.7 477.6L724.9 483.4L724.1 489.4L723.2 495.3L722 501.4L720.5 507.4L718.6 513.5L716.2 519.4L713.3 525.1L709.9 530.6L705.9 535.7L701.4 540.4L696.4 544.7L691.1 548.5L685.4 551.8L679.4 554.6L673.3 557L667.1 559.1L660.9 560.9L654.7 562.4L648.4 563.7L642.1 564.9L635.9 566L629.6 566.9L623.2 567.7L616.8 568.2L610.3 568.6L603.7 568.6L597.1 568.3L590.6 567.5L584.1 566.2L577.7 564.4L571.4 562.1L565.4 559.3L559.7 556L554.3 552.2L549.2 548.1L544.4 543.7L539.9 539.1L535.7 534.3L531.7 529.3L527.8 524.3L524.2 519.1L520.6 513.9L517.1 508.5L513.8 503.1L510.7 497.4L507.9 491.6L505.4 485.6L503.3 479.4L501.7 473L500.7 466.5L500.4 460L500.8 453.5L501.8 447L503.6 440.7L506.1 434.6L509.1 428.7L512.6 423.2L516.4 418L520.6 413.1L524.9 408.4L529.3 404L533.7 399.8L538 395.7L542.3 391.6L546.6 387.5L550.9 383.4L555.2 379.3L559.6 375.2L564.1 371.1L568.9 367.1L574 363.3L579.3 359.7L585 356.5L590.9 353.7L597.1 351.4L603.5 349.7L610 348.5L616.7 347.9L623.3 347.8L630 348.2L636.6 349L643.2 350.2L649.6 351.7L656 353.5L662.3 355.6L668.6 357.9L674.7 360.4L680.8 363.2L686.8 366.3L692.6 369.7L698.2 373.4L703.5 377.5L708.5 382L713.1 386.9L717.2 392.2L720.8 397.8L723.7 403.8L726 409.9L727.8 416.3L728.9 422.7L729.5 429.1L729.7 435.5L729.5 441.8L729.1 448L728.5 454L727.8 460Z" fill="none" stroke="#e9e4d8" stroke-opacity="0.30" stroke-width="0.8"/><path d="M739 460L738.5 466.5L738 473L737.5 479.5L736.9 486.1L736.2 492.8L735.3 499.5L734 506.3L732.4 513.1L730.2 519.8L727.5 526.3L724.2 532.7L720.2 538.7L715.7 544.3L710.5 549.4L704.9 554L698.8 558.1L692.4 561.7L685.8 564.8L679.1 567.5L672.2 569.8L665.3 571.8L658.4 573.5L651.5 575.1L644.6 576.6L637.7 577.9L630.6 579L623.6 580L616.4 580.7L609.2 581.1L601.9 581.2L594.5 580.8L587.2 579.8L580 578.3L572.9 576.2L566 573.5L559.4 570.3L553.1 566.5L547.1 562.3L541.5 557.7L536.2 552.8L531.2 547.7L526.5 542.4L522 536.9L517.7 531.4L513.5 525.7L509.4 519.9L505.5 514L501.8 507.9L498.4 501.7L495.2 495.2L492.5 488.5L490.3 481.5L488.7 474.5L487.8 467.3L487.7 460L488.3 452.8L489.7 445.6L491.9 438.7L494.7 432L498.2 425.7L502.1 419.6L506.3 413.9L510.8 408.5L515.5 403.3L520.1 398.4L524.8 393.6L529.4 388.9L533.9 384.1L538.4 379.4L543 374.7L547.6 369.9L552.4 365.1L557.4 360.4L562.7 355.8L568.4 351.5L574.4 347.5L580.7 344L587.4 340.9L594.4 338.5L601.5 336.7L608.9 335.5L616.3 334.9L623.7 334.9L631.1 335.4L638.5 336.4L645.8 337.8L653 339.5L660.1 341.5L667.1 343.8L674.1 346.4L680.9 349.2L687.7 352.3L694.3 355.7L700.7 359.5L706.9 363.8L712.7 368.4L718.2 373.5L723.1 379.1L727.5 385L731.2 391.4L734.3 398L736.7 404.9L738.5 411.9L739.6 419L740.3 426.1L740.5 433.1L740.4 440L740 446.8L739.6 453.4L739 460Z" fill="none" stroke="#e9e4d8" stroke-opacity="0.24" stroke-width="0.8"/><path d="M750.4 460L750.1 467.1L749.8 474.3L749.5 481.5L749.1 488.8L748.5 496.2L747.6 503.7L746.3 511.2L744.5 518.8L742 526.2L738.9 533.4L735.1 540.3L730.6 546.8L725.4 552.8L719.6 558.4L713.3 563.3L706.5 567.7L699.5 571.6L692.2 574.9L684.8 577.8L677.3 580.4L669.7 582.7L662.2 584.7L654.7 586.6L647.1 588.3L639.5 589.9L631.7 591.3L623.9 592.5L616 593.3L608 593.8L600 593.8L591.9 593.3L583.8 592.2L575.9 590.4L568.1 588L560.6 584.9L553.4 581.2L546.5 577L540 572.3L533.9 567.2L528.1 561.9L522.6 556.3L517.3 550.5L512.3 544.5L507.5 538.5L502.8 532.3L498.2 526L493.9 519.5L489.8 512.8L486 505.9L482.6 498.7L479.7 491.3L477.4 483.7L475.9 475.9L475.1 468L475.2 460L476.1 452.1L477.9 444.3L480.4 436.8L483.7 429.6L487.5 422.7L491.8 416.1L496.4 409.8L501.2 403.9L506 398.2L510.9 392.7L515.8 387.3L520.6 381.9L525.3 376.6L530 371.1L534.8 365.7L539.8 360.2L545 354.7L550.5 349.4L556.4 344.3L562.7 339.4L569.3 335.1L576.4 331.2L583.9 328L591.6 325.4L599.6 323.6L607.7 322.4L615.9 321.9L624.1 322L632.3 322.6L640.4 323.8L648.4 325.3L656.3 327.3L664.2 329.5L671.9 332L679.6 334.8L687.1 337.9L694.5 341.4L701.7 345.2L708.8 349.5L715.5 354.2L721.8 359.5L727.6 365.2L732.8 371.4L737.4 378.1L741.4 385.1L744.6 392.5L747 400L748.9 407.7L750.1 415.4L750.8 423.1L751.1 430.7L751.1 438.2L750.9 445.6L750.7 452.8L750.4 460Z" fill="none" stroke="#e9e4d8" stroke-opacity="0.26" stroke-width="0.8"/><path d="M761.9 460L761.9 467.8L761.9 475.6L761.9 483.6L761.6 491.6L761.1 499.8L760.2 508L758.8 516.3L756.7 524.5L753.9 532.6L750.4 540.4L746 547.9L740.9 554.9L735.1 561.4L728.6 567.3L721.6 572.5L714.2 577.2L706.4 581.3L698.5 585L690.4 588.2L682.3 591L674.2 593.6L666 595.9L657.8 598.1L649.6 600.2L641.3 602.1L632.9 603.7L624.3 605.1L615.7 606.1L606.9 606.6L598 606.6L589.2 605.9L580.4 604.6L571.8 602.5L563.3 599.7L555.2 596.2L547.4 592.1L540 587.4L532.9 582.2L526.3 576.7L519.9 570.9L513.9 564.8L508.2 558.5L502.6 552.1L497.2 545.6L492 538.9L487 532.1L482.2 525L477.7 517.7L473.6 510.1L470 502.3L467 494.2L464.7 485.8L463.2 477.3L462.6 468.6L463 460L464.2 451.4L466.4 443.1L469.3 435L472.9 427.2L477.1 419.7L481.7 412.6L486.5 405.9L491.6 399.4L496.6 393.1L501.6 387L506.6 380.9L511.5 374.9L516.4 368.8L521.4 362.6L526.5 356.4L531.8 350.2L537.4 344L543.4 338.1L549.9 332.4L556.8 327.1L564.2 322.4L572 318.3L580.3 314.9L588.8 312.3L597.6 310.4L606.5 309.3L615.5 308.9L624.5 309.1L633.4 309.9L642.3 311.2L651 313L659.7 315.1L668.2 317.5L676.7 320.3L685 323.3L693.2 326.8L701.3 330.6L709.2 334.8L716.7 339.6L723.9 344.9L730.7 350.7L736.8 357.1L742.4 363.9L747.2 371.3L751.2 379L754.5 387.1L757.1 395.3L759 403.6L760.3 411.9L761.1 420.2L761.6 428.4L761.8 436.4L761.9 444.4L761.9 452.2L761.9 460Z" fill="none" stroke="#e9e4d8" stroke-opacity="0.14" stroke-width="0.8"/><path d="M773.6 460L774 468.5L774.3 477L774.5 485.7L774.5 494.5L774.1 503.4L773.1 512.4L771.5 521.5L769.1 530.4L766 539.1L761.9 547.5L757 555.5L751.2 563L744.7 569.9L737.5 576.1L729.8 581.7L721.7 586.7L713.3 591.1L704.8 595L696.1 598.4L687.4 601.6L678.6 604.5L669.8 607.2L661 609.8L652.1 612.2L643.1 614.4L634 616.3L624.7 617.8L615.3 618.9L605.7 619.4L596.1 619.3L586.5 618.5L577 616.9L567.7 614.5L558.6 611.3L549.9 607.4L541.5 602.9L533.5 597.7L525.9 592.1L518.7 586.1L511.9 579.8L505.3 573.3L499 566.6L492.9 559.8L487 552.8L481.3 545.6L475.8 538.2L470.6 530.5L465.7 522.6L461.3 514.4L457.5 505.8L454.4 497L452.1 487.9L450.8 478.6L450.4 469.3L451 460L452.6 450.8L455.1 441.8L458.4 433.2L462.4 424.8L466.9 416.8L471.7 409.2L476.8 401.9L481.9 394.8L487.1 387.9L492.2 381.1L497.2 374.4L502.3 367.6L507.3 360.7L512.5 353.8L517.8 346.8L523.5 339.8L529.6 333L536.1 326.5L543.2 320.3L550.8 314.6L559 309.6L567.6 305.3L576.7 301.8L586 299.1L595.6 297.2L605.3 296.2L615.1 295.9L624.9 296.3L634.6 297.3L644.1 298.8L653.6 300.7L663 303L672.3 305.6L681.4 308.6L690.4 311.9L699.3 315.7L708 319.9L716.5 324.6L724.6 329.8L732.2 335.7L739.4 342.1L745.9 349.1L751.6 356.7L756.6 364.7L760.9 373.1L764.3 381.8L766.9 390.6L768.9 399.6L770.4 408.5L771.4 417.3L772 426.1L772.5 434.7L772.9 443.2L773.3 451.6L773.6 460Z" fill="none" stroke="#e9e4d8" stroke-opacity="0.31" stroke-width="0.8"/><path d="M785.7 460L786.4 469.1L787.1 478.4L787.6 487.8L787.7 497.4L787.3 507.1L786.2 516.9L784.4 526.7L781.7 536.3L778 545.7L773.4 554.7L767.9 563.1L761.5 571L754.3 578.3L746.4 584.8L738 590.7L729.2 596L720.2 600.7L711 604.9L701.7 608.7L692.4 612.2L683.1 615.5L673.7 618.6L664.2 621.6L654.7 624.3L645 626.8L635.1 628.9L625.1 630.7L614.9 631.8L604.6 632.4L594.2 632.1L583.9 631.1L573.7 629.2L563.7 626.4L553.9 622.9L544.6 618.5L535.6 613.5L527.1 607.9L519 601.8L511.2 595.4L503.8 588.7L496.7 581.8L489.9 574.6L483.2 567.4L476.8 559.9L470.5 552.2L464.5 544.3L458.9 536L453.7 527.5L449.1 518.6L445.1 509.3L442 499.7L439.8 489.9L438.6 480L438.5 470L439.4 460L441.3 450.2L444.2 440.6L447.8 431.4L452 422.5L456.7 414L461.7 405.8L466.9 397.9L472.2 390.2L477.4 382.7L482.5 375.2L487.6 367.6L492.7 360.1L497.9 352.4L503.2 344.6L508.9 336.9L514.9 329.2L521.5 321.7L528.7 314.6L536.4 307.9L544.8 301.9L553.7 296.6L563.2 292.1L573.1 288.6L583.3 285.9L593.7 284.2L604.2 283.2L614.7 283.1L625.2 283.7L635.7 284.8L646 286.4L656.2 288.5L666.3 291L676.2 293.8L686.1 297L695.8 300.6L705.4 304.7L714.7 309.3L723.7 314.4L732.3 320.2L740.4 326.6L747.9 333.7L754.7 341.4L760.7 349.6L765.9 358.3L770.2 367.3L773.7 376.6L776.5 386.1L778.7 395.6L780.3 405.1L781.6 414.5L782.5 423.7L783.4 432.9L784.1 441.9L784.9 450.9L785.7 460Z" fill="none" stroke="#e9e4d8" stroke-opacity="0.29" stroke-width="0.8"/><path d="M798.1 460L799.3 469.8L800.2 479.9L800.9 490.1L801.2 500.4L800.7 510.9L799.5 521.5L797.4 532L794.3 542.3L790.2 552.2L784.9 561.8L778.7 570.7L771.6 579L763.7 586.6L755.1 593.5L746.1 599.7L736.7 605.3L727 610.3L717.2 614.8L707.4 619L697.5 622.9L687.6 626.6L677.6 630.1L667.5 633.5L657.3 636.6L646.9 639.3L636.3 641.7L625.5 643.6L614.5 644.8L603.4 645.3L592.3 644.9L581.2 643.6L570.3 641.4L559.7 638.3L549.3 634.3L539.4 629.5L529.8 624L520.8 618L512.1 611.5L503.8 604.7L495.9 597.5L488.2 590.2L480.8 582.7L473.5 575L466.5 567L459.8 558.9L453.3 550.4L447.3 541.5L441.8 532.3L436.9 522.7L432.9 512.7L429.8 502.5L427.7 492L426.7 481.3L426.8 470.6L428 460L430.3 449.6L433.4 439.4L437.3 429.6L441.8 420.2L446.6 411.1L451.8 402.4L457 393.9L462.2 385.5L467.4 377.3L472.5 369L477.6 360.7L482.7 352.3L488.1 343.7L493.6 335.2L499.6 326.6L506.1 318.2L513.3 310.1L521 302.5L529.5 295.4L538.7 289L548.4 283.6L558.7 279L569.5 275.4L580.5 272.8L591.7 271.2L603 270.4L614.4 270.4L625.6 271.1L636.8 272.4L647.8 274.2L658.7 276.5L669.5 279.1L680.2 282.1L690.7 285.6L701.1 289.5L711.3 293.9L721.2 298.9L730.8 304.5L739.8 310.8L748.3 317.8L756.2 325.5L763.2 333.8L769.5 342.7L774.8 352L779.3 361.7L783 371.6L786 381.7L788.4 391.7L790.2 401.7L791.8 411.6L793.1 421.3L794.4 431L795.6 440.7L796.9 450.3L798.1 460Z" fill="none" stroke="#e9e4d8" stroke-opacity="0.15" stroke-width="0.8"/><path d="M810.9 460L812.5 470.6L813.8 481.3L814.7 492.3L815 503.5L814.5 514.8L813 526.1L810.6 537.3L807 548.3L802.3 558.8L796.4 568.8L789.5 578.2L781.7 586.9L773 594.8L763.8 602L754.1 608.5L744 614.4L733.8 619.8L723.5 624.7L713.1 629.3L702.6 633.7L692.1 637.8L681.5 641.7L670.8 645.5L659.9 648.9L648.8 652L637.4 654.6L625.9 656.6L614.1 657.8L602.3 658.2L590.4 657.6L578.6 656.1L567 653.5L555.7 650L544.8 645.5L534.2 640.3L524.1 634.4L514.5 628L505.3 621.1L496.4 613.8L487.9 606.4L479.6 598.6L471.6 590.7L463.8 582.6L456.3 574.2L449 565.5L442.1 556.5L435.7 547L429.9 537.1L424.9 526.8L420.8 516.2L417.7 505.2L415.8 493.9L415 482.6L415.4 471.2L416.9 460L419.5 449L422.9 438.3L427 427.9L431.6 417.9L436.5 408.3L441.7 398.9L446.8 389.7L452 380.7L457.1 371.7L462.2 362.6L467.2 353.4L472.4 344.2L477.9 334.8L483.7 325.4L490.1 316.1L497.1 307L504.8 298.3L513.3 290.1L522.6 282.7L532.5 276.1L543.1 270.5L554.3 265.9L565.9 262.4L577.8 259.9L589.8 258.4L601.9 257.8L614 257.9L626 258.8L637.9 260.2L649.6 262.2L661.2 264.6L672.7 267.4L684.1 270.6L695.3 274.3L706.4 278.5L717.2 283.2L727.6 288.6L737.7 294.8L747.2 301.6L756.1 309.2L764.3 317.5L771.6 326.4L778 336L783.6 345.9L788.2 356.2L792.1 366.7L795.3 377.2L798 387.8L800.2 398.3L802.1 408.7L803.9 418.9L805.7 429.2L807.4 439.4L809.2 449.6L810.9 460Z" fill="none" stroke="#e9e4d8" stroke-opacity="0.16" stroke-width="0.8"/><path d="M824.1 460L826.1 471.3L827.7 482.9L828.8 494.7L829 506.7L828.4 518.7L826.7 530.8L823.8 542.7L819.7 554.2L814.3 565.3L807.7 575.8L800.1 585.6L791.6 594.7L782.2 602.9L772.3 610.5L762 617.3L751.4 623.5L740.6 629.3L729.7 634.6L718.7 639.6L707.7 644.5L696.7 649.1L685.5 653.5L674.1 657.6L662.5 661.5L650.7 664.8L638.6 667.6L626.2 669.6L613.7 670.8L601.1 671.1L588.5 670.2L576 668.4L563.8 665.4L551.8 661.5L540.2 656.6L529.1 651L518.5 644.7L508.3 637.8L498.5 630.6L489.1 623L480 615.1L471.1 607.1L462.5 598.8L454.1 590.2L446 581.4L438.2 572.2L430.9 562.5L424.1 552.4L418.1 541.9L413 530.9L408.9 519.5L405.9 507.8L404.1 495.9L403.6 483.8L404.3 471.8L406.1 460L408.8 448.4L412.4 437.1L416.7 426.2L421.3 415.7L426.3 405.4L431.3 395.4L436.4 385.5L441.4 375.7L446.4 365.9L451.4 356L456.4 345.9L461.7 335.8L467.4 325.5L473.5 315.3L480.3 305.2L487.9 295.5L496.2 286.3L505.5 277.7L515.5 269.9L526.4 263.2L537.9 257.5L549.9 252.9L562.4 249.5L575.1 247.1L587.9 245.8L600.8 245.3L613.6 245.7L626.3 246.7L638.9 248.3L651.4 250.3L663.7 252.9L675.9 255.8L688 259.2L699.8 263.1L711.5 267.6L722.9 272.8L733.9 278.6L744.5 285.2L754.5 292.6L763.7 300.8L772.1 309.7L779.7 319.3L786.4 329.4L792.1 340L797 350.8L801.1 361.8L804.6 372.9L807.6 383.9L810.2 394.8L812.7 405.7L815 416.5L817.3 427.2L819.6 438L821.9 448.9L824.1 460Z" fill="none" stroke="#e9e4d8" stroke-opacity="0.21" stroke-width="0.8"/><path d="M837.8 460L840.2 472.1L842 484.5L843.2 497.1L843.4 509.9L842.5 522.7L840.4 535.5L837 548L832.3 560.2L826.2 571.8L818.9 582.7L810.6 592.9L801.3 602.3L791.3 610.9L780.7 618.8L769.8 626L758.6 632.6L747.3 638.7L735.9 644.5L724.4 650L712.9 655.3L701.3 660.5L689.5 665.3L677.5 669.9L665.2 674.1L652.6 677.7L639.7 680.6L626.6 682.7L613.3 683.8L600 683.8L586.6 682.8L573.5 680.5L560.5 677.2L548 672.9L535.8 667.6L524.1 661.5L512.9 654.8L502.2 647.6L491.8 640L481.8 632.1L472.1 623.9L462.6 615.5L453.4 606.8L444.4 597.9L435.7 588.5L427.5 578.8L419.7 568.6L412.7 557.9L406.5 546.6L401.3 534.9L397.2 522.8L394.3 510.4L392.7 497.8L392.4 485.1L393.3 472.4L395.3 460L398.3 447.8L402 436L406.3 424.5L411 413.3L415.8 402.5L420.8 391.8L425.7 381.2L430.5 370.6L435.3 359.9L440.2 349.1L445.2 338.1L450.6 327L456.5 315.9L463 304.9L470.3 294.1L478.5 283.8L487.6 274.1L497.6 265.2L508.5 257.2L520.3 250.3L532.7 244.6L545.6 240.1L558.9 236.8L572.4 234.6L586.1 233.4L599.7 233.2L613.3 233.7L626.7 234.8L640 236.5L653.1 238.7L666.2 241.3L679 244.4L691.7 248L704.3 252.2L716.6 257L728.6 262.5L740.1 268.8L751.2 275.9L761.5 283.8L771.1 292.6L779.8 302.1L787.7 312.3L794.5 323L800.5 334.1L805.7 345.4L810.1 356.9L814 368.5L817.4 379.9L820.5 391.3L823.5 402.6L826.4 413.9L829.3 425.2L832.2 436.6L835.1 448.2L837.8 460Z" fill="none" stroke="#e9e4d8" stroke-opacity="0.19" stroke-width="0.8"/><path d="M851.9 460L854.6 472.9L856.7 486.1L857.8 499.5L857.9 513.1L856.7 526.7L854.1 540.2L850.2 553.4L844.7 566.1L838 578.2L830 589.5L820.9 600.1L810.9 609.8L800.2 618.8L789 627L777.5 634.5L765.8 641.6L754 648.2L742.1 654.5L730.2 660.5L718.2 666.3L706 672L693.6 677.3L680.9 682.3L667.9 686.8L654.5 690.6L640.9 693.6L627 695.7L613 696.7L598.8 696.5L584.8 695.1L570.9 692.5L557.4 688.8L544.2 684L531.4 678.3L519.2 671.9L507.4 664.8L496.1 657.3L485.1 649.4L474.5 641.2L464.1 632.7L454 623.9L444.2 614.9L434.6 605.5L425.4 595.7L416.7 585.4L408.6 574.6L401.3 563.2L394.9 551.3L389.7 538.9L385.7 526.1L382.9 512.9L381.5 499.6L381.4 486.3L382.6 473L384.8 460L387.8 447.3L391.6 434.8L395.9 422.8L400.4 411L405.1 399.4L409.8 388L414.5 376.6L419.1 365.2L423.7 353.6L428.5 341.9L433.6 330L439.1 318L445.3 306.1L452.2 294.3L460.1 282.8L468.9 271.9L478.8 261.8L489.7 252.6L501.6 244.5L514.2 237.6L527.5 232L541.3 227.6L555.5 224.4L569.9 222.4L584.3 221.4L598.6 221.3L612.9 221.9L627 223.2L641 225L654.9 227.2L668.6 230L682.1 233.2L695.5 237L708.7 241.4L721.6 246.5L734.1 252.4L746.2 259.1L757.7 266.7L768.4 275.2L778.3 284.6L787.4 294.7L795.5 305.4L802.6 316.7L808.9 328.3L814.3 340.1L819.1 352.1L823.4 364L827.3 375.9L831 387.7L834.6 399.5L838.2 411.3L841.8 423.2L845.4 435.2L848.8 447.4L851.9 460Z" fill="none" stroke="#e9e4d8" stroke-opacity="0.24" stroke-width="0.8"/><path d="M866.5 460L869.5 473.7L871.6 487.7L872.7 502L872.5 516.4L870.9 530.7L867.8 544.9L863.2 558.7L857.1 571.9L849.5 584.4L840.8 596.2L830.9 607.1L820.3 617.2L809 626.5L797.2 635.1L785.2 643L773 650.5L760.8 657.6L748.4 664.4L736 671L723.4 677.4L710.7 683.6L697.6 689.4L684.3 694.8L670.6 699.6L656.5 703.6L642.1 706.7L627.4 708.7L612.6 709.5L597.7 709L583 707.3L568.4 704.3L554.2 700.2L540.5 695L527.2 688.9L514.3 682.1L502 674.8L490 666.9L478.5 658.7L467.2 650.2L456.2 641.5L445.5 632.4L435 623L424.9 613.2L415.1 602.9L406 592L397.6 580.6L390 568.5L383.5 555.9L378.3 542.8L374.3 529.3L371.7 515.4L370.5 501.4L370.6 487.5L371.9 473.6L374.2 460L377.4 446.7L381.1 433.7L385.3 421L389.6 408.6L394 396.3L398.5 384.1L402.8 371.9L407.2 359.6L411.7 347.1L416.4 334.4L421.5 321.6L427.3 308.7L433.8 295.9L441.2 283.4L449.8 271.4L459.4 260L470.1 249.6L481.9 240.2L494.7 232L508.3 225.1L522.5 219.6L537.2 215.4L552.2 212.4L567.4 210.6L582.5 209.7L597.6 209.7L612.6 210.5L627.4 211.8L642 213.7L656.5 216L670.9 218.8L685.1 222.2L699.2 226.1L713 230.8L726.5 236.2L739.6 242.5L752.1 249.7L764 257.8L775.2 266.8L785.4 276.7L794.8 287.4L803.1 298.7L810.6 310.4L817.2 322.5L823 334.8L828.2 347.1L833 359.4L837.5 371.7L841.9 384L846.2 396.2L850.5 408.5L854.8 421L859 433.7L862.9 446.7L866.5 460Z" fill="none" stroke="#e9e4d8" stroke-opacity="0.11" stroke-width="0.8"/><path d="M881.5 460L884.7 474.5L886.8 489.4L887.7 504.5L887.2 519.6L885.1 534.7L881.4 549.5L876 563.9L869.2 577.6L860.9 590.6L851.3 602.7L840.8 614L829.5 624.4L817.6 634.1L805.3 643.1L792.8 651.5L780.2 659.5L767.5 667.1L754.7 674.5L741.9 681.7L728.8 688.7L715.4 695.3L701.8 701.6L687.7 707.4L673.3 712.4L658.4 716.5L643.2 719.6L627.8 721.5L612.2 722.1L596.6 721.3L581.2 719.2L566 715.9L551.2 711.3L536.8 705.8L522.9 699.4L509.5 692.3L496.6 684.6L484 676.5L471.8 668L459.9 659.3L448.3 650.3L436.9 640.9L425.8 631.1L415.1 620.9L404.9 610.1L395.3 598.6L386.6 586.6L378.8 573.8L372.3 560.5L367 546.6L363.2 532.4L360.7 517.9L359.7 503.2L359.9 488.6L361.3 474.2L363.7 460L366.8 446.1L370.4 432.5L374.4 419.2L378.4 406.1L382.5 393.1L386.6 380.1L390.7 367L394.8 353.7L399.1 340.3L403.8 326.6L409.1 312.9L415.1 299.1L422.1 285.6L430.1 272.4L439.3 259.9L449.8 248.1L461.5 237.4L474.2 227.9L487.9 219.7L502.5 213L517.6 207.6L533.2 203.5L549 200.7L564.9 199.1L580.8 198.4L596.6 198.5L612.2 199.3L627.7 200.7L643 202.6L658.2 204.9L673.2 207.8L688.1 211.3L702.8 215.4L717.2 220.3L731.3 226.1L744.9 232.7L758 240.4L770.3 249L781.8 258.6L792.4 269L802 280.2L810.7 292L818.5 304.2L825.5 316.7L831.8 329.3L837.5 342.1L842.9 354.8L848.1 367.5L853.2 380.1L858.2 392.8L863.3 405.7L868.3 418.8L873.1 432.1L877.6 445.9L881.5 460Z" fill="none" stroke="#e9e4d8" stroke-opacity="0.17" stroke-width="0.8"/><path d="M896.9 460L900.1 475.4L902.2 491.1L902.8 507L901.8 522.9L899.2 538.7L894.7 554.1L888.6 569L881 583.2L871.9 596.6L861.6 609.1L850.4 620.7L838.5 631.5L826.1 641.6L813.3 651L800.4 659.9L787.4 668.4L774.3 676.7L761.1 684.7L747.8 692.5L734.2 700L720.3 707.2L705.9 713.9L691.2 720L676 725.2L660.4 729.5L644.4 732.5L628.2 734.2L611.8 734.5L595.5 733.4L579.4 731L563.6 727.2L548.2 722.3L533.2 716.4L518.7 709.7L504.8 702.3L491.2 694.3L478 686L465.2 677.4L452.6 668.4L440.3 659.1L428.2 649.4L416.5 639.3L405.3 628.6L394.6 617.2L384.6 605.2L375.7 592.5L367.8 579.1L361.2 565L355.9 550.4L352.2 535.5L349.9 520.3L349 505L349.3 489.8L350.8 474.8L353.1 460L356.1 445.5L359.5 431.3L363.1 417.3L366.8 403.5L370.5 389.7L374.3 375.8L378 361.8L381.9 347.6L386.1 333.2L390.8 318.6L396.3 304L402.7 289.4L410.2 275.1L418.9 261.3L428.9 248.3L440.3 236.3L452.9 225.4L466.7 215.9L481.4 207.8L496.9 201.1L512.9 195.9L529.3 192.1L545.9 189.5L562.6 188L579.2 187.4L595.6 187.6L611.9 188.4L628 189.8L644 191.7L659.8 194.1L675.5 197L691 200.6L706.3 204.9L721.4 210L736 216.1L750.2 223.2L763.7 231.3L776.4 240.4L788.3 250.4L799.3 261.4L809.3 273L818.3 285.3L826.5 297.9L833.9 310.8L840.7 323.8L847.1 336.9L853.2 349.9L859.1 363L865 376.1L870.8 389.3L876.6 402.7L882.3 416.4L887.7 430.5L892.6 445L896.9 460Z" fill="none" stroke="#e9e4d8" stroke-opacity="0.32" stroke-width="0.8"/><path d="M912.5 460L915.8 476.2L917.6 492.8L917.9 509.5L916.3 526.2L913 542.6L907.9 558.6L901 574L892.5 588.6L882.7 602.4L871.7 615.3L859.8 627.3L847.4 638.5L834.5 649L821.3 658.9L808 668.3L794.6 677.4L781.2 686.3L767.6 694.9L753.7 703.3L739.6 711.5L725.1 719.2L710.1 726.3L694.7 732.7L678.7 738.1L662.3 742.3L645.5 745.2L628.5 746.7L611.5 746.8L594.5 745.3L577.7 742.5L561.2 738.4L545.2 733.1L529.7 726.8L514.6 719.8L500 712.2L485.8 704.1L472 695.6L458.5 686.7L445.2 677.6L432.2 668L419.6 658L407.2 647.5L395.4 636.3L384.3 624.4L374 611.7L364.8 598.3L356.8 584.2L350.2 569.5L345 554.2L341.3 538.5L339.1 522.7L338.3 506.8L338.7 491L340.1 475.4L342.3 460L345.1 444.9L348.2 430.1L351.4 415.4L354.7 400.8L358 386.2L361.3 371.4L364.8 356.5L368.5 341.3L372.6 325.9L377.4 310.4L383.2 294.8L390 279.5L398.2 264.6L407.7 250.3L418.6 236.9L430.9 224.6L444.6 213.7L459.3 204.2L475 196.2L491.4 189.7L508.4 184.7L525.6 181.1L543 178.7L560.3 177.3L577.6 176.8L594.7 177L611.6 177.8L628.4 179.2L645 181L661.4 183.4L677.8 186.4L693.9 190L709.9 194.5L725.5 199.9L740.7 206.3L755.4 213.7L769.3 222.3L782.5 231.8L794.8 242.4L806.1 253.8L816.5 265.9L825.9 278.5L834.6 291.5L842.5 304.8L850 318.1L857 331.5L863.8 344.9L870.5 358.4L877.2 371.9L883.9 385.6L890.5 399.6L896.8 414L902.8 428.9L908.1 444.2L912.5 460Z" fill="none" stroke="#e9e4d8" stroke-opacity="0.17" stroke-width="0.8"/><path d="M928.4 460L931.5 477.1L933.1 494.5L932.8 512L930.7 529.4L926.6 546.4L920.6 563L912.9 578.8L903.7 593.9L893.1 608.1L881.5 621.3L869 633.7L856.1 645.3L842.7 656.3L829.2 666.7L815.6 676.7L801.9 686.5L788.1 696L774.1 705.3L759.8 714.3L745.1 723L730 731.2L714.3 738.7L698.1 745.3L681.4 750.8L664.2 755L646.6 757.8L628.9 759.1L611.1 758.8L593.4 757L576 753.8L558.9 749.3L542.3 743.7L526.2 737.1L510.5 729.9L495.3 722.1L480.5 713.8L466 705.1L451.8 696.1L437.8 686.8L424.2 677L410.8 666.6L397.9 655.7L385.6 644L374 631.5L363.5 618.3L354 604.2L345.9 589.4L339.3 573.9L334.2 557.9L330.6 541.6L328.5 525.1L327.7 508.6L328.1 492.2L329.3 476L331.3 460L333.8 444.3L336.5 428.8L339.3 413.4L342.1 398L345 382.5L347.9 366.8L351 350.9L354.6 334.7L358.7 318.4L363.8 301.9L369.9 285.6L377.3 269.5L386.2 254L396.6 239.3L408.4 225.6L421.8 213.2L436.4 202.3L452.2 192.9L468.9 185L486.2 178.8L504 174L522 170.6L540.1 168.3L558.2 167L576 166.5L593.8 166.7L611.3 167.4L628.7 168.7L645.9 170.5L663 172.8L680 175.8L696.8 179.5L713.4 184.2L729.6 189.8L745.3 196.5L760.5 204.4L774.9 213.3L788.5 223.4L801.2 234.4L813 246.2L823.8 258.7L833.7 271.7L842.8 285.1L851.4 298.6L859.5 312.2L867.3 325.9L874.9 339.7L882.5 353.5L890 367.5L897.5 381.8L904.8 396.4L911.8 411.5L918.3 427.1L923.9 443.3L928.4 460Z" fill="none" stroke="#e9e4d8" stroke-opacity="0.26" stroke-width="0.8"/><path d="M944.4 460L947.3 478L948.4 496.2L947.6 514.4L944.7 532.5L939.8 550.2L933.1 567.2L924.5 583.5L914.5 599L903.2 613.5L891 627.2L878 640L864.6 652L851 663.5L837.1 674.5L823.2 685.2L809.2 695.6L795.1 705.8L780.7 715.8L765.9 725.4L750.7 734.7L734.9 743.3L718.5 751.2L701.6 757.9L684.1 763.5L666.1 767.6L647.8 770.2L629.3 771.2L610.8 770.6L592.4 768.4L574.3 764.8L556.7 760L539.5 754.1L522.8 747.3L506.5 739.9L490.6 731.9L475.1 723.5L460 714.8L445 705.6L430.4 696.1L416 686L402 675.3L388.5 663.9L375.7 651.7L363.8 638.7L352.9 624.8L343.4 610L335.2 594.4L328.5 578.2L323.5 561.6L319.9 544.6L317.8 527.5L317 510.3L317.3 493.3L318.4 476.6L320 460L322.1 443.6L324.3 427.4L326.6 411.3L328.9 395L331.3 378.6L333.9 362L336.8 345.1L340.2 327.9L344.5 310.6L349.8 293.3L356.5 276.2L364.6 259.5L374.3 243.5L385.6 228.4L398.5 214.6L412.9 202.2L428.6 191.3L445.4 182L463 174.4L481.3 168.4L499.9 163.8L518.6 160.5L537.4 158.3L556.1 157L574.5 156.5L592.9 156.6L611 157.2L629 158.4L646.8 160.1L664.6 162.3L682.2 165.3L699.6 169.1L716.8 174L733.6 179.8L749.9 186.9L765.6 195.1L780.5 204.5L794.6 214.9L807.7 226.4L819.8 238.6L831.1 251.5L841.6 264.8L851.3 278.4L860.6 292.2L869.4 306.1L878 320.1L886.5 334.2L895 348.4L903.4 362.9L911.7 377.8L919.7 393.1L927.3 409L934.1 425.4L939.9 442.4L944.4 460Z" fill="none" stroke="#e9e4d8" stroke-opacity="0.14" stroke-width="0.8"/><path d="M960.4 460L962.9 478.8L963.5 497.8L962 516.8L958.4 535.5L952.7 553.8L945.1 571.3L935.7 588.1L924.9 603.9L913 618.9L900.2 632.9L886.9 646.1L873.1 658.7L859.1 670.7L845.1 682.3L830.9 693.7L816.6 704.8L802.1 715.7L787.3 726.4L772.1 736.7L756.3 746.5L739.8 755.5L722.8 763.6L705 770.5L686.7 776L667.9 780L648.8 782.4L629.6 783L610.4 782.1L591.4 779.5L572.7 775.6L554.5 770.5L536.7 764.4L519.3 757.4L502.4 749.9L485.9 741.8L469.8 733.3L453.9 724.5L438.2 715.2L422.8 705.5L407.8 695.1L393.1 684.1L379.1 672.2L365.9 659.5L353.6 645.8L342.5 631.2L332.7 615.7L324.5 599.5L317.9 582.6L312.8 565.2L309.3 547.6L307.2 529.8L306.2 512.1L306.3 494.6L307.1 477.2L308.4 460L309.9 443L311.6 426L313.4 409.1L315.2 392L317.1 374.6L319.4 357L322.1 339.1L325.5 321L330 302.8L335.8 284.7L343 266.8L351.9 249.6L362.5 233.1L374.9 217.8L388.8 203.9L404.3 191.5L421.1 180.7L438.9 171.7L457.5 164.3L476.5 158.4L495.9 154L515.4 150.9L534.8 148.7L554 147.4L573.1 146.8L592 146.7L610.7 147.2L629.3 148.2L647.8 149.7L666.1 151.9L684.4 154.9L702.5 158.8L720.3 163.8L737.7 169.9L754.5 177.2L770.7 185.8L786.1 195.6L800.6 206.5L814.2 218.3L826.8 230.9L838.6 244L849.7 257.6L860.1 271.5L870.1 285.6L879.7 299.7L889.3 314L898.7 328.5L908.1 343.1L917.3 358.2L926.4 373.6L935.1 389.7L943.1 406.3L950.2 423.6L956 441.6L960.4 460Z" fill="none" stroke="#e9e4d8" stroke-opacity="0.16" stroke-width="0.8"/><path d="M976.3 460L978.4 479.7L978.3 499.5L976.1 519.2L971.6 538.5L965 557.3L956.6 575.3L946.5 592.5L935 608.7L922.5 624L909.3 638.5L895.5 652.2L881.5 665.3L867.3 677.9L853 690.2L838.7 702.3L824.1 714.1L809.3 725.8L794.1 737.1L778.3 748L761.9 758.3L744.8 767.7L727 776L708.4 783L689.3 788.4L669.8 792.2L649.9 794.3L630 794.7L610.1 793.3L590.4 790.5L571.1 786.2L552.3 780.9L533.9 774.6L515.9 767.5L498.4 759.9L481.2 751.8L464.3 743.2L447.7 734.3L431.3 724.9L415.2 715L399.5 704.3L384.2 692.9L369.7 680.6L356 667.3L343.4 653L332 637.7L322.2 621.5L313.9 604.5L307.3 586.9L302.2 568.9L298.6 550.6L296.4 532.2L295.3 513.9L295.1 495.8L295.5 477.8L296.3 460L297.3 442.3L298.4 424.6L299.6 406.8L300.9 388.8L302.4 370.5L304.4 351.9L307 333L310.6 314L315.4 294.9L321.7 276L329.7 257.5L339.4 239.8L351 223L364.5 207.6L379.6 193.6L396.1 181.3L414 170.7L432.7 161.9L452.2 154.7L472.1 149.1L492.2 144.8L512.3 141.7L532.2 139.5L552.1 138.1L571.7 137.3L591.1 137L610.4 137.3L629.6 138L648.7 139.4L667.7 141.5L686.6 144.4L705.3 148.4L723.7 153.6L741.7 159.9L759.1 167.6L775.8 176.6L791.7 186.7L806.7 197.9L820.8 210.1L833.9 223L846.3 236.4L858 250.3L869.2 264.4L880 278.7L890.6 293.1L901 307.7L911.4 322.5L921.6 337.6L931.8 353.2L941.6 369.4L950.8 386.2L959.2 403.6L966.5 421.8L972.3 440.7L976.3 460Z" fill="none" stroke="#e9e4d8" stroke-opacity="0.16" stroke-width="0.8"/><path d="M992.1 460L993.6 480.5L992.8 501.1L989.7 521.4L984.3 541.3L976.9 560.6L967.6 579.1L956.8 596.6L944.7 613.3L931.7 629L918.1 643.9L904.1 658.2L889.9 671.8L875.5 685.1L861.1 698.2L846.5 711L831.7 723.6L816.6 736L800.9 748L784.6 759.4L767.5 770.2L749.7 779.9L731.1 788.3L711.8 795.3L691.9 800.7L671.6 804.2L651 806L630.3 806L609.8 804.4L589.5 801.2L569.6 796.7L550.1 791.1L531.1 784.7L512.5 777.6L494.3 769.9L476.4 761.8L458.8 753.3L441.4 744.3L424.3 734.8L407.5 724.6L391.1 713.6L375.2 701.8L360.1 688.9L346.1 675L333.2 660.1L321.7 644.1L311.7 627.1L303.4 609.5L296.7 591.2L291.6 572.5L287.9 553.6L285.5 534.7L284.2 515.8L283.6 497.1L283.5 478.5L283.7 460L284.2 441.6L284.7 423.1L285.3 404.4L286.1 385.5L287.2 366.2L289 346.6L291.6 326.8L295.4 306.8L300.7 286.9L307.7 267.3L316.5 248.3L327.2 230.2L339.9 213.2L354.5 197.7L370.7 183.8L388.4 171.6L407.2 161.3L426.9 152.6L447.2 145.7L467.9 140.2L488.6 136L509.3 132.9L529.8 130.6L550.1 129L570.3 128L590.2 127.4L610.1 127.4L629.9 127.9L649.6 129L669.3 131L688.8 134L708.2 138L727.2 143.3L745.7 150L763.7 157.9L780.9 167.2L797.3 177.7L812.8 189.2L827.5 201.7L841.3 214.9L854.3 228.6L866.7 242.6L878.7 256.9L890.4 271.4L901.9 286.1L913.3 301L924.6 316.2L935.7 331.9L946.7 348.1L957.1 365L966.8 382.6L975.5 400.9L982.8 420L988.4 439.8L992.1 460Z" fill="none" stroke="#e9e4d8" stroke-opacity="0.32" stroke-width="0.8"/><path d="M1007.5 460L1008.3 481.3L1006.7 502.6L1002.8 523.6L996.5 544.1L988.3 563.8L978.2 582.7L966.7 600.7L954.1 617.7L940.7 633.9L926.8 649.3L912.6 664.1L898.2 678.4L883.8 692.4L869.2 706.2L854.5 719.8L839.4 733.2L823.9 746.3L807.8 758.9L790.9 771L773.2 782.1L754.6 792L735.3 800.6L715.1 807.5L694.4 812.7L673.3 816L652 817.5L630.6 817.1L609.4 815.1L588.5 811.7L568 807L548 801.3L528.3 794.8L509.1 787.7L490.2 780.1L471.6 772L453.2 763.4L435.1 754.4L417.2 744.7L399.6 734.3L382.6 723L366.2 710.7L350.6 697.4L336.2 682.8L323 667.2L311.3 650.4L301.3 632.8L292.9 614.4L286.1 595.5L280.9 576.1L277.1 556.7L274.5 537.1L272.7 517.7L271.7 498.4L271.1 479.2L270.7 460L270.5 440.8L270.3 421.5L270.4 401.9L270.7 382L271.6 361.8L273.3 341.2L276 320.5L280.2 299.6L286.1 279L293.8 258.8L303.6 239.3L315.4 220.9L329.2 203.8L344.9 188.3L362.3 174.5L381.1 162.5L400.9 152.4L421.5 144L442.6 137.2L463.9 131.8L485.2 127.6L506.4 124.4L527.4 121.9L548.2 120L568.9 118.7L589.4 117.8L609.8 117.4L630.2 117.6L650.5 118.6L670.9 120.5L691.1 123.4L711 127.5L730.7 133L749.8 139.9L768.4 148.1L786.1 157.7L803.1 168.5L819.2 180.4L834.4 193.1L848.8 206.5L862.6 220.4L875.8 234.6L888.6 249.1L901.2 263.9L913.7 278.8L926 294.1L938.3 309.8L950.3 326L962 342.9L973 360.5L983.1 379L991.9 398.2L999.1 418.2L1004.4 438.9L1007.5 460Z" fill="none" stroke="#e9e4d8" stroke-opacity="0.18" stroke-width="0.8"/><path d="M1022.5 460L1022.6 482.1L1020.1 504.1L1015.3 525.7L1008.1 546.6L999.1 566.9L988.3 586.2L976.3 604.5L963.2 622L949.5 638.6L935.4 654.6L921.1 670L906.7 685L892.2 699.8L877.5 714.4L862.6 728.8L847.3 742.9L831.4 756.8L814.7 770L797.3 782.5L778.9 794L759.5 804.1L739.4 812.7L718.4 819.5L696.9 824.5L675 827.5L653 828.6L631 828L609.1 825.7L587.6 822.1L566.5 817.3L545.8 811.5L525.5 805L505.6 797.9L486 790.3L466.7 782.3L447.5 773.8L428.6 764.7L410 754.9L391.7 744.2L374 732.5L357 719.8L341 705.8L326.2 690.6L312.9 674.2L301 656.8L290.8 638.4L282.4 619.4L275.5 599.8L270.2 579.8L266.1 559.8L263.1 539.7L261 519.6L259.4 499.7L258.2 479.9L257.1 460L256.2 440L255.5 419.8L255 399.4L254.9 378.5L255.6 357.3L257.3 335.8L260.4 314.1L265 292.5L271.6 271.1L280.3 250.4L291.1 230.6L304 212L319 194.8L335.9 179.4L354.4 165.8L374.2 154L395 144.1L416.4 135.9L438.2 129.2L460.1 123.8L481.9 119.5L503.6 116.1L525.1 113.4L546.4 111.2L567.5 109.4L588.5 108.1L609.5 107.4L630.5 107.3L651.5 108L672.5 109.8L693.3 112.7L713.9 116.9L734.2 122.5L754 129.7L773.1 138.2L791.4 148.1L808.9 159.2L825.6 171.3L841.5 184.3L856.6 197.9L871.1 211.9L885.2 226.3L899 241L912.5 256L926 271.2L939.3 286.9L952.5 303.1L965.3 319.9L977.6 337.5L989.1 356L999.4 375.3L1008.2 395.5L1015.2 416.5L1020 438L1022.5 460Z" fill="none" stroke="#e9e4d8" stroke-opacity="0.15" stroke-width="0.8"/><path d="M1037 460L1036.2 482.8L1032.9 505.5L1027.1 527.6L1019.2 549.1L1009.3 569.7L998 589.5L985.4 608.3L972.1 626.2L958.2 643.3L944 659.9L929.6 676L915.2 691.7L900.7 707.3L885.9 722.7L870.8 737.9L855.2 752.9L838.9 767.4L821.8 781.2L803.6 794.1L784.5 805.8L764.4 816.1L743.4 824.6L721.7 831.3L699.4 836L676.7 838.7L654 839.6L631.3 838.7L608.8 836.2L586.7 832.4L565 827.4L543.7 821.7L522.7 815.2L502.1 808.2L481.8 800.8L461.7 792.8L441.7 784.3L422 775.2L402.6 765.2L383.7 754.2L365.3 742.1L347.9 728.8L331.5 714.2L316.3 698.4L302.7 681.3L290.7 663.1L280.5 644.1L271.9 624.3L264.9 604.1L259.3 583.6L254.9 562.9L251.6 542.3L248.9 521.7L246.7 501.1L244.8 480.6L243 460L241.5 439.2L240.1 418.2L239.1 396.7L238.8 374.9L239.4 352.7L241.3 330.3L244.7 307.8L250 285.4L257.4 263.4L267.1 242.3L279 222.2L293.2 203.5L309.4 186.3L327.5 171L347.1 157.6L367.8 146.1L389.5 136.3L411.6 128.3L434 121.6L456.5 116.2L478.8 111.8L500.9 108.1L522.8 104.9L544.5 102.3L566.1 100.1L587.6 98.3L609.2 97.2L630.8 96.8L652.5 97.3L674.1 98.9L695.6 101.8L716.9 106.1L737.8 111.9L758.2 119.3L777.9 128.1L796.8 138.3L815 149.6L832.3 162L848.8 175.1L864.7 188.9L880.1 203.1L895.1 217.7L909.8 232.5L924.3 247.7L938.8 263.3L953.1 279.4L967.1 296.2L980.7 313.7L993.5 332.1L1005.3 351.4L1015.7 371.7L1024.4 392.8L1031 414.7L1035.3 437.2L1037 460Z" fill="none" stroke="#d8a24a" stroke-opacity="0.85" stroke-width="1.7"/><path d="M1050.9 460L1049.2 483.6L1045 506.8L1038.3 529.5L1029.6 551.4L1019.1 572.5L1007.2 592.6L994.3 611.8L980.7 630.3L966.7 648L952.5 665.2L938.2 682L923.9 698.5L909.3 714.9L894.5 731.2L879.3 747.2L863.3 762.9L846.6 778.1L828.8 792.4L810 805.7L790.1 817.6L769.2 827.9L747.4 836.4L724.8 842.9L701.8 847.3L678.4 849.8L654.9 850.3L631.6 849.1L608.5 846.5L585.8 842.6L563.4 837.6L541.5 831.9L519.9 825.6L498.6 818.8L477.5 811.4L456.5 803.6L435.8 795.1L415.3 785.8L395.2 775.6L375.5 764.3L356.6 751.8L338.6 737.9L321.9 722.7L306.5 706.1L292.6 688.3L280.5 669.5L270.1 649.7L261.3 629.3L254.1 608.4L248.3 587.3L243.5 566.1L239.6 544.9L236.4 523.7L233.5 502.6L230.9 481.4L228.4 460L226.2 438.4L224.3 416.4L222.9 394L222.4 371.2L223.1 348.1L225.3 324.8L229.2 301.5L235.3 278.4L243.7 256L254.4 234.5L267.6 214.2L283 195.4L300.4 178.4L319.6 163.3L340.2 150L361.9 138.7L384.3 129.1L407.1 121.1L430.1 114.5L453 108.9L475.7 104.2L498.2 100.1L520.5 96.5L542.6 93.3L564.7 90.6L586.7 88.3L608.9 86.7L631.1 86L653.4 86.2L675.8 87.7L698 90.6L719.9 95.1L741.5 101.1L762.5 108.7L782.8 117.8L802.4 128.2L821.2 139.8L839.1 152.3L856.4 165.6L873.1 179.5L889.4 193.9L905.3 208.6L921 223.7L936.6 239.2L952 255.2L967.2 271.8L982 289.1L996.2 307.4L1009.5 326.6L1021.5 346.8L1031.9 368.1L1040.3 390.2L1046.4 413L1050 436.4L1050.9 460Z" fill="none" stroke="#e9e4d8" stroke-opacity="0.10" stroke-width="0.8"/><path d="M1064.2 460L1061.5 484.2L1056.4 508.1L1048.9 531.3L1039.4 553.6L1028.4 575.1L1016.1 595.7L1002.9 615.4L989.2 634.3L975.3 652.6L961.2 670.5L947 688.1L932.7 705.5L918.2 722.7L903.3 739.9L887.8 756.7L871.5 773.2L854.3 788.9L835.9 803.7L816.4 817.3L795.7 829.4L774 839.6L751.3 848L727.9 854.2L704.1 858.4L680 860.5L655.9 860.8L631.9 859.5L608.2 856.7L584.9 852.8L561.9 847.9L539.3 842.3L517 836.2L494.9 829.5L473 822.4L451.3 814.6L429.8 806.1L408.5 796.7L387.6 786.3L367.3 774.6L347.8 761.5L329.4 747.1L312.2 731.2L296.6 713.9L282.6 695.4L270.3 675.8L259.7 655.3L250.7 634.3L243.3 612.8L237 591.2L231.8 569.4L227.4 547.6L223.5 525.9L219.9 504.1L216.5 482.2L213.3 460L210.5 437.5L208.1 414.6L206.5 391.3L205.9 367.6L206.8 343.5L209.4 319.3L214 295.3L221 271.7L230.4 248.8L242.4 227L256.8 206.6L273.4 187.9L292 171L312.3 156.1L333.9 143.1L356.5 131.9L379.6 122.4L402.9 114.4L426.3 107.6L449.6 101.8L472.6 96.6L495.5 92.1L518.1 87.9L540.7 84.1L563.2 80.8L585.8 78L608.6 76L631.5 74.9L654.5 74.9L677.5 76.3L700.4 79.3L723 83.8L745.2 90L766.9 97.9L787.8 107.2L808.1 117.8L827.5 129.6L846.3 142.3L864.3 155.8L881.9 169.8L899.1 184.3L916 199.2L932.7 214.5L949.3 230.3L965.6 246.8L981.7 263.9L997.2 281.9L1011.9 301L1025.5 321.1L1037.6 342.3L1047.8 364.5L1055.8 387.6L1061.2 411.4L1064.1 435.6L1064.2 460Z" fill="none" stroke="#e9e4d8" stroke-opacity="0.18" stroke-width="0.8"/><path d="M1076.7 460L1073.1 484.9L1067.1 509.2L1058.8 532.9L1048.7 555.7L1037.2 577.6L1024.6 598.6L1011.4 618.8L997.7 638.3L983.9 657.3L970 675.9L956 694.3L941.8 712.6L927.3 730.8L912.3 748.7L896.6 766.4L879.9 783.5L862.1 799.8L843 815L822.7 828.9L801.2 841L778.6 851.2L755.2 859.3L731 865.3L706.4 869.2L681.6 871.1L656.8 871.2L632.2 869.7L607.9 866.9L583.9 863L560.3 858.3L537.1 852.9L514 847L491.2 840.5L468.5 833.5L446 825.9L423.6 817.3L401.5 807.8L379.9 797L359 784.9L339 771.3L320.1 756.2L302.6 739.6L286.7 721.6L272.5 702.4L260 682.1L249.2 661L240 639.3L232.2 617.3L225.6 595.1L219.9 572.8L214.8 550.5L210.1 528.1L205.8 505.6L201.7 483L197.8 460L194.4 436.6L191.6 412.8L189.8 388.5L189.4 363.9L190.5 338.9L193.7 314L199.2 289.3L207.2 265.2L217.8 242L231 220L246.6 199.6L264.5 180.9L284.3 164.2L305.6 149.5L328.1 136.6L351.4 125.6L375.1 116.1L398.9 108L422.7 100.9L446.2 94.7L469.6 89.1L492.7 83.9L515.7 79.1L538.7 74.7L561.7 70.7L584.9 67.4L608.2 64.9L631.8 63.4L655.5 63.3L679.2 64.6L702.8 67.6L726.2 72.3L749.1 78.7L771.4 86.7L793 96.3L813.9 107.2L834.1 119.1L853.6 132L872.5 145.6L891 159.7L909.1 174.4L927 189.5L944.8 205.1L962.3 221.2L979.6 238.1L996.4 255.9L1012.6 274.7L1027.7 294.6L1041.4 315.6L1053.4 337.8L1063.3 361L1070.7 385.1L1075.5 409.8L1077.5 434.9L1076.7 460Z" fill="none" stroke="#e9e4d8" stroke-opacity="0.13" stroke-width="0.8"/><path d="M1088.4 460L1083.9 485.5L1077.1 510.3L1068.2 534.5L1057.6 557.7L1045.7 580L1033 601.5L1019.8 622.2L1006.3 642.3L992.6 662L978.9 681.5L965.1 700.7L951.1 719.9L936.6 739L921.5 757.8L905.4 776.2L888.3 794L869.9 810.8L850.1 826.4L829 840.3L806.7 852.5L783.3 862.5L758.9 870.5L734 876.2L708.6 879.9L683.1 881.5L657.7 881.5L632.5 879.9L607.6 877.1L583 873.3L558.8 868.8L534.8 863.7L511 858.1L487.4 851.9L463.9 845L440.5 837.4L417.3 828.8L394.5 819L372.2 807.9L350.6 795.3L330.1 781.2L310.8 765.4L293 748.1L276.9 729.3L262.4 709.4L249.8 688.4L238.7 666.7L229.2 644.4L221 621.9L213.9 599.1L207.5 576.3L201.8 553.4L196.4 530.4L191.2 507.2L186.4 483.8L181.9 460L178 435.7L175 411L173.2 385.8L172.9 360.2L174.6 334.4L178.5 308.8L184.9 283.5L194.1 259L205.9 235.5L220.4 213.4L237.3 193.1L256.3 174.5L277.2 158L299.5 143.4L322.8 130.7L346.6 119.7L370.8 110.1L395 101.8L419 94.4L442.9 87.6L466.5 81.4L489.9 75.5L513.2 70L536.6 64.8L560.1 60.2L583.9 56.3L607.9 53.3L632.2 51.6L656.6 51.3L681 52.6L705.3 55.6L729.4 60.5L753 67.1L776 75.4L798.3 85.1L820 96.2L840.9 108.3L861.2 121.3L881 135L900.4 149.3L919.6 164.1L938.5 179.4L957.2 195.3L975.7 211.9L993.8 229.4L1011.3 247.9L1027.9 267.4L1043.3 288.3L1057.1 310.3L1068.9 333.5L1078.3 357.7L1085.1 382.7L1089 408.3L1090.1 434.2L1088.4 460Z" fill="none" stroke="#e9e4d8" stroke-opacity="0.17" stroke-width="0.8"/><path d="M1099.3 460L1094 486L1086.4 511.4L1077 535.9L1066 559.6L1054 582.3L1041.3 604.3L1028.2 625.6L1014.9 646.4L1001.6 666.9L988.2 687.2L974.6 707.3L960.7 727.4L946.2 747.4L930.9 767.1L914.5 786.2L896.8 804.6L877.7 821.8L857.2 837.6L835.3 851.7L812.1 863.8L787.8 873.7L762.6 881.4L736.9 886.9L710.8 890.3L684.7 891.8L658.6 891.6L632.8 890.1L607.3 887.4L582.1 883.9L557.2 879.6L532.4 874.8L507.9 869.4L483.4 863.5L459.1 856.8L434.9 849.2L410.9 840.5L387.3 830.5L364.3 819L342.2 805.8L321.2 791L301.6 774.6L283.5 756.5L267.1 737.1L252.4 716.4L239.5 694.8L228.2 672.4L218.3 649.6L209.7 626.5L201.9 603.2L194.9 579.8L188.4 556.4L182.2 532.7L176.3 508.9L170.8 484.7L165.7 460L161.5 434.8L158.3 409.1L156.5 383L156.6 356.6L158.9 330L163.8 303.7L171.3 278L181.6 253.1L194.7 229.4L210.5 207.4L228.7 187L248.9 168.7L270.8 152.3L293.9 137.8L317.8 125.2L342.2 114.1L366.7 104.4L391.2 95.7L415.4 87.8L439.4 80.4L463.2 73.4L486.9 66.8L510.6 60.4L534.4 54.5L558.5 49.2L582.8 44.7L607.5 41.4L632.5 39.3L657.7 38.9L682.9 40.2L707.9 43.3L732.7 48.4L757 55.2L780.7 63.7L803.8 73.6L826.2 84.9L847.9 97.1L869.1 110.3L889.8 124.1L910.2 138.5L930.3 153.5L950.2 169L969.9 185.3L989.3 202.4L1008.2 220.5L1026.2 239.8L1043.2 260.2L1058.8 282L1072.4 305L1083.8 329.3L1092.6 354.5L1098.7 380.5L1101.8 406.9L1102 433.5L1099.3 460Z" fill="none" stroke="#e9e4d8" stroke-opacity="0.16" stroke-width="0.8"/><path d="M1109.4 460L1103.4 486.5L1095.2 512.3L1085.3 537.3L1074.1 561.4L1062.1 584.6L1049.5 607.1L1036.7 629.1L1023.8 650.6L1010.8 671.9L997.8 693.1L984.4 714.2L970.6 735.2L956 756.1L940.5 776.6L923.6 796.4L905.4 815.3L885.6 832.9L864.3 848.8L841.5 862.9L817.4 874.9L792.2 884.7L766.3 892.1L739.8 897.4L713 900.6L686.2 902L659.5 901.8L633.1 900.3L607 897.8L581.1 894.6L555.5 890.7L530 886.2L504.7 881.1L479.4 875.4L454.2 868.8L429.1 861.2L404.3 852.4L380 842L356.4 830.1L333.7 816.4L312.3 800.9L292.3 783.7L273.9 764.9L257.3 744.7L242.4 723.4L229.2 701.1L217.6 678.2L207.3 654.8L198 631.2L189.7 607.4L181.9 583.5L174.6 559.4L167.6 535.2L161 510.6L154.8 485.5L149.3 460L144.8 433.9L141.6 407.3L140.1 380.3L140.7 353L143.8 325.8L149.6 298.9L158.3 272.7L169.9 247.6L184.4 223.8L201.4 201.8L220.8 181.6L242.1 163.3L264.8 147.1L288.7 132.7L313.2 120L337.9 108.8L362.7 98.8L387.3 89.6L411.7 81.1L435.9 72.9L459.9 65.1L483.8 57.6L507.8 50.4L532.1 43.7L556.8 37.7L581.8 32.7L607.2 28.9L632.9 26.7L658.8 26.1L684.8 27.4L710.6 30.7L736.1 35.9L761.2 42.9L785.6 51.6L809.4 61.8L832.6 73.2L855.2 85.6L877.2 98.9L898.9 112.8L920.2 127.4L941.4 142.6L962.3 158.4L982.9 175.2L1003 192.8L1022.6 211.6L1041.1 231.7L1058.3 253.1L1073.8 275.9L1087.2 300L1098.1 325.2L1106.3 351.4L1111.5 378.3L1113.7 405.6L1113 432.9L1109.4 460Z" fill="none" stroke="#e9e4d8" stroke-opacity="0.32" stroke-width="0.8"/><path d="M1118.8 460L1112.1 487L1103.4 513.2L1093.2 538.6L1082 563.1L1070.1 586.9L1057.8 610L1045.4 632.6L1032.9 654.9L1020.4 677.1L1007.7 699.2L994.6 721.3L980.8 743.2L966.1 765L950.2 786.2L932.9 806.7L914 826L893.4 843.9L871.2 860L847.6 874L822.6 885.9L796.6 895.4L769.8 902.6L742.6 907.7L715.1 910.7L687.7 912.1L660.4 912L633.4 910.7L606.7 908.5L580.1 905.5L553.8 902L527.6 897.9L501.4 893.2L475.3 887.7L449.2 881.2L423.3 873.5L397.7 864.4L372.7 853.7L348.4 841.2L325.3 826.9L303.4 810.8L283.1 792.8L264.4 773.3L247.5 752.4L232.4 730.4L218.9 707.5L206.8 684L196 660.1L186.2 636L177.1 611.7L168.6 587.2L160.5 562.6L152.8 537.6L145.4 512.3L138.7 486.4L132.8 460L128.2 433L125.1 405.5L124 377.6L125.3 349.6L129.3 321.7L136.3 294.3L146.2 267.8L159.1 242.5L174.9 218.7L193.2 196.7L213.6 176.6L235.9 158.5L259.4 142.3L283.9 127.9L308.7 115.1L333.8 103.6L358.7 93.1L383.4 83.4L407.9 74L432.1 65.1L456.3 56.3L480.5 47.9L504.9 39.8L529.7 32.3L554.9 25.6L580.6 20.1L606.8 16L633.3 13.5L660 12.9L686.7 14.3L713.3 17.8L739.6 23.2L765.4 30.4L790.6 39.3L815.2 49.7L839.2 61.2L862.6 73.8L885.6 87.1L908.2 101.2L930.5 115.9L952.6 131.4L974.5 147.7L995.9 164.9L1016.8 183.2L1036.9 202.8L1055.8 223.7L1073.1 246.1L1088.4 270L1101.4 295.1L1111.8 321.4L1119.2 348.6L1123.5 376.4L1124.8 404.4L1123.1 432.4L1118.8 460Z" fill="none" stroke="#e9e4d8" stroke-opacity="0.28" stroke-width="0.8"/><path d="M1127.4 460L1120.2 487.5L1111.2 514.1L1100.9 539.9L1089.8 564.9L1078.2 589.2L1066.3 612.9L1054.4 636.2L1042.4 659.4L1030.4 682.5L1018 705.6L1005.1 728.6L991.3 751.5L976.5 774.1L960.2 796L942.3 817L922.6 836.7L901.2 854.8L878.2 871L853.6 885L827.7 896.6L800.9 905.9L773.3 913L745.4 917.8L717.3 920.8L689.2 922.2L661.4 922.2L633.7 921.2L606.3 919.3L579.1 916.8L552 913.7L525 910L498 905.6L471 900.2L444.1 893.8L417.3 886L391 876.7L365.3 865.5L340.5 852.5L316.8 837.5L294.6 820.6L273.9 801.9L255 781.6L237.8 760L222.4 737.4L208.5 713.9L196 689.9L184.6 665.5L174.1 640.9L164.3 616.1L155 591.1L146.1 565.8L137.6 540.1L129.6 514L122.4 487.3L116.3 460L111.7 432.1L108.9 403.7L108.4 375L110.5 346.3L115.6 317.8L123.7 290L134.9 263.2L149.2 237.8L166.2 214L185.7 192L207.2 172.1L230.3 154.1L254.4 137.9L279.3 123.4L304.4 110.4L329.6 98.5L354.6 87.4L379.3 76.8L403.8 66.7L428.2 56.7L452.5 47L477 37.5L501.9 28.5L527.2 20.3L553 13L579.5 7L606.4 2.5L633.7 -0.1L661.2 -0.6L688.8 0.9L716.1 4.5L743.2 10.1L769.7 17.6L795.7 26.7L821.1 37.3L845.9 49L870.2 61.6L894.2 75.1L917.7 89.3L941.1 104.3L964.1 120.1L986.8 136.8L1009.1 154.6L1030.6 173.6L1051.1 194L1070.2 216L1087.4 239.4L1102.5 264.3L1115 290.5L1124.6 317.8L1131.2 345.9L1134.6 374.5L1135 403.3L1132.5 431.9L1127.4 460Z" fill="none" stroke="#e9e4d8" stroke-opacity="0.12" stroke-width="0.8"/><path d="M1135.5 460L1127.9 487.9L1118.7 514.9L1108.5 541.2L1097.7 566.6L1086.5 591.5L1075.1 615.9L1063.8 640L1052.4 664.1L1040.8 688.1L1028.8 712.2L1016 736.2L1002.2 760L987 783.4L970.2 806L951.7 827.5L931.2 847.5L909 865.7L885 881.9L859.5 895.7L832.7 907.2L805.1 916.3L776.7 923.1L748.1 927.9L719.4 930.9L690.7 932.4L662.3 932.6L634 931.9L606 930.5L578.1 928.4L550.2 925.8L522.4 922.5L494.5 918.3L466.6 913.1L438.8 906.7L411.3 898.7L384.2 889L357.9 877.3L332.5 863.7L308.4 848L285.8 830.3L264.8 810.9L245.6 789.9L228.1 767.6L212.3 744.3L198 720.3L185 695.8L173 671L161.8 645.9L151.3 620.6L141.1 595L131.4 569.1L122.2 542.7L113.7 515.8L106.1 488.2L99.9 460L95.4 431.2L93.1 402L93.3 372.5L96.4 343.1L102.6 314.1L112 286L124.5 259L140.1 233.5L158.3 209.7L178.9 187.9L201.3 168L225.1 150L249.7 133.8L274.9 119.1L300.2 105.7L325.4 93.2L350.3 81.4L375 69.9L399.5 58.8L423.9 47.8L448.4 37L473.3 26.5L498.6 16.6L524.5 7.6L551.1 -0.3L578.2 -6.7L606 -11.4L634.1 -14L662.5 -14.5L690.8 -12.9L719 -9L746.8 -3.1L774.1 4.6L800.9 13.9L827.1 24.6L852.8 36.4L878 49.2L902.9 62.8L927.4 77.3L951.7 92.5L975.7 108.7L999.2 125.9L1022.2 144.3L1044.2 164.1L1065 185.5L1084.1 208.4L1101.2 232.9L1115.9 258.8L1127.7 286.1L1136.6 314.4L1142.3 343.4L1144.8 372.8L1144.4 402.2L1141.1 431.4L1135.5 460Z" fill="none" stroke="#e9e4d8" stroke-opacity="0.29" stroke-width="0.8"/><path d="M1143 460L1135.2 488.3L1126 515.7L1116.1 542.4L1105.6 568.4L1095 593.9L1084.3 619.1L1073.7 644L1062.8 669L1051.7 694L1040 719.1L1027.3 744.1L1013.3 768.7L997.8 792.8L980.4 816L961.1 837.9L939.8 858.2L916.6 876.5L891.7 892.6L865.3 906.3L837.7 917.5L809.2 926.5L780.1 933.2L750.9 937.9L721.5 941L692.3 942.6L663.2 943.2L634.4 943L605.7 942L577 940.4L548.4 938.2L519.7 935.3L490.9 931.4L462.2 926.3L433.5 919.8L405.2 911.6L377.4 901.4L350.4 889.2L324.5 874.8L300 858.4L277 840L255.8 819.8L236.3 798.1L218.5 775.2L202.3 751.3L187.5 726.8L173.9 701.8L161.3 676.5L149.3 651L137.9 625.1L127 599L116.5 572.4L106.7 545.3L97.7 517.5L89.9 489.1L83.7 460L79.5 430.3L77.8 400.3L78.9 370.1L83 340.1L90.4 310.7L101.1 282.3L115 255.1L131.8 229.6L151.2 205.9L172.8 184.1L195.9 164.2L220.2 146.2L245.2 129.8L270.5 114.8L295.8 100.8L320.9 87.7L345.7 75L370.3 62.5L394.8 50.3L419.3 38.1L444.1 26.3L469.3 14.8L495.1 4L521.7 -5.8L549 -14.2L577 -20.9L605.5 -25.8L634.5 -28.4L663.7 -28.8L692.9 -26.9L721.9 -22.8L750.5 -16.7L778.6 -8.7L806.2 0.8L833.3 11.7L859.8 23.6L886 36.6L911.8 50.4L937.3 65L962.5 80.6L987.3 97.2L1011.6 115L1035.1 134.2L1057.5 154.8L1078.5 177.1L1097.6 201.1L1114.3 226.7L1128.5 253.7L1139.6 282L1147.7 311.3L1152.5 341.1L1154.2 371.3L1152.9 401.3L1149.1 431L1143 460Z" fill="none" stroke="#e9e4d8" stroke-opacity="0.15" stroke-width="0.8"/><path d="M1150.1 460L1142.2 488.7L1133.3 516.5L1123.8 543.7L1113.9 570.3L1104 596.4L1094.1 622.4L1084.1 648.3L1073.8 674.2L1063.1 700.2L1051.6 726.3L1038.9 752.2L1024.7 777.7L1008.7 802.5L990.7 826.2L970.6 848.4L948.4 868.8L924.2 887.1L898.3 903.1L871 916.6L842.5 927.7L813.2 936.5L783.5 943.1L753.6 947.9L723.7 951.1L693.8 953.1L664.2 954.1L634.7 954.3L605.3 953.9L575.9 952.8L546.4 951.1L516.9 948.5L487.3 944.8L457.6 939.8L428.1 933.1L399 924.5L370.6 913.8L343 901L316.6 885.9L291.7 868.7L268.4 849.5L246.8 828.6L227 806.3L208.9 782.7L192.2 758.4L176.9 733.4L162.7 707.9L149.3 682.2L136.6 656.1L124.4 629.8L112.7 603L101.5 575.7L91.1 547.9L81.8 519.3L73.9 490L67.9 460L64.2 429.5L63.2 398.7L65.2 367.8L70.5 337.3L79.2 307.6L91.2 278.9L106.4 251.6L124.4 226.1L144.8 202.4L167.2 180.6L190.9 160.7L215.6 142.6L240.8 125.9L266.1 110.4L291.3 95.8L316.2 81.7L340.8 68L365.3 54.5L389.7 41.1L414.4 27.8L439.4 14.8L465.1 2.3L491.5 -9.3L518.7 -19.8L546.8 -28.6L575.7 -35.7L605.1 -40.5L635 -43.1L665 -43.3L695.1 -41.2L724.9 -36.8L754.3 -30.4L783.2 -22.2L811.6 -12.5L839.5 -1.5L867 10.7L894 23.8L920.7 37.8L947.2 52.7L973.2 68.6L998.9 85.8L1023.8 104.2L1047.8 124.2L1070.5 145.8L1091.5 169.1L1110.4 194.2L1126.7 220.8L1140.2 248.9L1150.7 278.2L1157.9 308.4L1161.8 339L1162.7 369.8L1160.8 400.4L1156.5 430.6L1150.1 460Z" fill="none" stroke="#e9e4d8" stroke-opacity="0.15" stroke-width="0.8"/><path d="M1156.9 460L1149.2 489.1L1140.7 517.4L1131.7 545L1122.6 572.2L1113.5 599.1L1104.3 625.9L1095.1 652.7L1085.4 679.7L1075.1 706.7L1063.7 733.7L1050.9 760.5L1036.3 786.8L1019.7 812.2L1001 836.3L980 858.8L956.8 879.3L931.7 897.6L904.8 913.4L876.6 926.8L847.3 937.7L817.2 946.4L786.9 953L756.3 957.9L725.8 961.4L695.4 963.7L665.2 965.2L635.1 966L604.9 966.1L574.8 965.6L544.5 964.3L514 962L483.5 958.5L453 953.4L422.7 946.5L392.9 937.5L363.7 926.2L335.6 912.7L308.8 896.9L283.5 878.9L259.9 859L238 837.4L217.8 814.4L199.3 790.3L182.2 765.4L166.3 739.9L151.4 714.1L137.2 687.9L123.7 661.4L110.7 634.5L98.2 607.1L86.4 579.1L75.6 550.4L66 521L58.2 490.8L52.5 460L49.4 428.7L49.3 397.1L52.4 365.7L58.9 334.7L68.9 304.7L82.3 275.8L98.6 248.5L117.7 222.9L139 199.3L162 177.5L186.2 157.5L211.1 139L236.3 121.9L261.4 105.8L286.4 90.4L311 75.3L335.5 60.5L359.8 45.8L384.3 31.1L409.1 16.6L434.4 2.5L460.6 -11L487.6 -23.4L515.7 -34.4L544.6 -43.6L574.3 -50.8L604.7 -55.7L635.4 -58.1L666.3 -58.1L697.2 -55.6L727.8 -51L758.1 -44.3L787.8 -35.8L817.1 -25.9L845.8 -14.7L874.2 -2.4L902.1 10.9L929.8 25.1L957.1 40.4L984 56.8L1010.3 74.5L1035.8 93.6L1060.2 114.5L1083 137.1L1103.9 161.4L1122.5 187.6L1138.3 215.3L1151.2 244.5L1160.8 274.8L1167.2 305.8L1170.3 337.1L1170.5 368.5L1168.1 399.6L1163.4 430.2L1156.9 460Z" fill="none" stroke="#e9e4d8" stroke-opacity="0.16" stroke-width="0.8"/><line x1="1083.6" y1="460" x2="1099.6" y2="460" stroke="#e9e4d8" stroke-opacity="0.5" stroke-width="1"/><line x1="1090.8" y1="499.5" x2="1097.8" y2="500.1" stroke="#e9e4d8" stroke-opacity="0.22" stroke-width="1"/><line x1="1085.4" y1="538.8" x2="1092.3" y2="540" stroke="#e9e4d8" stroke-opacity="0.22" stroke-width="1"/><line x1="1076.5" y1="577.4" x2="1083.3" y2="579.2" stroke="#e9e4d8" stroke-opacity="0.22" stroke-width="1"/><line x1="1064.1" y1="615.2" x2="1070.7" y2="617.5" stroke="#e9e4d8" stroke-opacity="0.22" stroke-width="1"/><line x1="1048.3" y1="651.7" x2="1054.7" y2="654.6" stroke="#e9e4d8" stroke-opacity="0.22" stroke-width="1"/><line x1="1021.5" y1="682.5" x2="1035.3" y2="690.2" stroke="#e9e4d8" stroke-opacity="0.5" stroke-width="1"/><line x1="1007.1" y1="720.2" x2="1012.9" y2="724.1" stroke="#e9e4d8" stroke-opacity="0.22" stroke-width="1"/><line x1="982" y1="751.6" x2="987.4" y2="755.9" stroke="#e9e4d8" stroke-opacity="0.22" stroke-width="1"/><line x1="954.2" y1="780.8" x2="959.1" y2="785.6" stroke="#e9e4d8" stroke-opacity="0.22" stroke-width="1"/><line x1="923.8" y1="807.6" x2="928.3" y2="812.7" stroke="#e9e4d8" stroke-opacity="0.22" stroke-width="1"/><line x1="891.1" y1="831.6" x2="895.1" y2="837.2" stroke="#e9e4d8" stroke-opacity="0.22" stroke-width="1"/><line x1="851.8" y1="845.4" x2="859.8" y2="858.7" stroke="#e9e4d8" stroke-opacity="0.5" stroke-width="1"/><line x1="819.7" y1="871.2" x2="822.7" y2="877.3" stroke="#e9e4d8" stroke-opacity="0.22" stroke-width="1"/><line x1="781.6" y1="886.3" x2="784" y2="892.6" stroke="#e9e4d8" stroke-opacity="0.22" stroke-width="1"/><line x1="742.3" y1="898.2" x2="744.1" y2="904.7" stroke="#e9e4d8" stroke-opacity="0.22" stroke-width="1"/><line x1="702.1" y1="906.8" x2="703.3" y2="913.4" stroke="#e9e4d8" stroke-opacity="0.22" stroke-width="1"/><line x1="661.2" y1="912" x2="661.8" y2="918.7" stroke="#e9e4d8" stroke-opacity="0.22" stroke-width="1"/><line x1="620" y1="905.1" x2="620" y2="920.4" stroke="#e9e4d8" stroke-opacity="0.5" stroke-width="1"/><line x1="578.8" y1="912" x2="578.2" y2="918.7" stroke="#e9e4d8" stroke-opacity="0.22" stroke-width="1"/><line x1="537.9" y1="906.8" x2="536.7" y2="913.4" stroke="#e9e4d8" stroke-opacity="0.22" stroke-width="1"/><line x1="497.7" y1="898.2" x2="495.9" y2="904.7" stroke="#e9e4d8" stroke-opacity="0.22" stroke-width="1"/><line x1="458.4" y1="886.3" x2="456" y2="892.6" stroke="#e9e4d8" stroke-opacity="0.22" stroke-width="1"/><line x1="420.3" y1="871.2" x2="417.3" y2="877.3" stroke="#e9e4d8" stroke-opacity="0.22" stroke-width="1"/><line x1="388.2" y1="845.4" x2="380.2" y2="858.7" stroke="#e9e4d8" stroke-opacity="0.5" stroke-width="1"/><line x1="348.9" y1="831.6" x2="344.9" y2="837.2" stroke="#e9e4d8" stroke-opacity="0.22" stroke-width="1"/><line x1="316.2" y1="807.6" x2="311.7" y2="812.7" stroke="#e9e4d8" stroke-opacity="0.22" stroke-width="1"/><line x1="285.8" y1="780.8" x2="280.9" y2="785.6" stroke="#e9e4d8" stroke-opacity="0.22" stroke-width="1"/><line x1="258" y1="751.6" x2="252.6" y2="755.9" stroke="#e9e4d8" stroke-opacity="0.22" stroke-width="1"/><line x1="232.9" y1="720.2" x2="227.1" y2="724.1" stroke="#e9e4d8" stroke-opacity="0.22" stroke-width="1"/><line x1="218.5" y1="682.5" x2="204.7" y2="690.2" stroke="#e9e4d8" stroke-opacity="0.5" stroke-width="1"/><line x1="191.7" y1="651.7" x2="185.3" y2="654.6" stroke="#e9e4d8" stroke-opacity="0.22" stroke-width="1"/><line x1="175.9" y1="615.2" x2="169.3" y2="617.5" stroke="#e9e4d8" stroke-opacity="0.22" stroke-width="1"/><line x1="163.5" y1="577.4" x2="156.7" y2="579.2" stroke="#e9e4d8" stroke-opacity="0.22" stroke-width="1"/><line x1="154.6" y1="538.8" x2="147.7" y2="540" stroke="#e9e4d8" stroke-opacity="0.22" stroke-width="1"/><line x1="149.2" y1="499.5" x2="142.2" y2="500.1" stroke="#e9e4d8" stroke-opacity="0.22" stroke-width="1"/><line x1="156.4" y1="460" x2="140.4" y2="460" stroke="#e9e4d8" stroke-opacity="0.5" stroke-width="1"/><line x1="149.2" y1="420.5" x2="142.2" y2="419.9" stroke="#e9e4d8" stroke-opacity="0.22" stroke-width="1"/><line x1="154.6" y1="381.2" x2="147.7" y2="380" stroke="#e9e4d8" stroke-opacity="0.22" stroke-width="1"/><line x1="163.5" y1="342.6" x2="156.7" y2="340.8" stroke="#e9e4d8" stroke-opacity="0.22" stroke-width="1"/><line x1="175.9" y1="304.8" x2="169.3" y2="302.5" stroke="#e9e4d8" stroke-opacity="0.22" stroke-width="1"/><line x1="191.7" y1="268.3" x2="185.3" y2="265.4" stroke="#e9e4d8" stroke-opacity="0.22" stroke-width="1"/><line x1="218.5" y1="237.5" x2="204.7" y2="229.8" stroke="#e9e4d8" stroke-opacity="0.5" stroke-width="1"/><line x1="232.9" y1="199.8" x2="227.1" y2="195.9" stroke="#e9e4d8" stroke-opacity="0.22" stroke-width="1"/><line x1="258" y1="168.4" x2="252.6" y2="164.1" stroke="#e9e4d8" stroke-opacity="0.22" stroke-width="1"/><line x1="285.8" y1="139.2" x2="280.9" y2="134.4" stroke="#e9e4d8" stroke-opacity="0.22" stroke-width="1"/><line x1="316.2" y1="112.4" x2="311.7" y2="107.3" stroke="#e9e4d8" stroke-opacity="0.22" stroke-width="1"/><line x1="348.9" y1="88.4" x2="344.9" y2="82.8" stroke="#e9e4d8" stroke-opacity="0.22" stroke-width="1"/><line x1="388.2" y1="74.6" x2="380.2" y2="61.3" stroke="#e9e4d8" stroke-opacity="0.5" stroke-width="1"/><line x1="420.3" y1="48.8" x2="417.3" y2="42.7" stroke="#e9e4d8" stroke-opacity="0.22" stroke-width="1"/><line x1="458.4" y1="33.7" x2="456" y2="27.4" stroke="#e9e4d8" stroke-opacity="0.22" stroke-width="1"/><line x1="497.7" y1="21.8" x2="495.9" y2="15.3" stroke="#e9e4d8" stroke-opacity="0.22" stroke-width="1"/><line x1="537.9" y1="13.2" x2="536.7" y2="6.6" stroke="#e9e4d8" stroke-opacity="0.22" stroke-width="1"/><line x1="578.8" y1="8" x2="578.2" y2="1.3" stroke="#e9e4d8" stroke-opacity="0.22" stroke-width="1"/><line x1="620" y1="14.9" x2="620" y2="-0.4" stroke="#e9e4d8" stroke-opacity="0.5" stroke-width="1"/><line x1="661.2" y1="8" x2="661.8" y2="1.3" stroke="#e9e4d8" stroke-opacity="0.22" stroke-width="1"/><line x1="702.1" y1="13.2" x2="703.3" y2="6.6" stroke="#e9e4d8" stroke-opacity="0.22" stroke-width="1"/><line x1="742.3" y1="21.8" x2="744.1" y2="15.3" stroke="#e9e4d8" stroke-opacity="0.22" stroke-width="1"/><line x1="781.6" y1="33.7" x2="784" y2="27.4" stroke="#e9e4d8" stroke-opacity="0.22" stroke-width="1"/><line x1="819.7" y1="48.8" x2="822.7" y2="42.7" stroke="#e9e4d8" stroke-opacity="0.22" stroke-width="1"/><line x1="851.8" y1="74.6" x2="859.8" y2="61.3" stroke="#e9e4d8" stroke-opacity="0.5" stroke-width="1"/><line x1="891.1" y1="88.4" x2="895.1" y2="82.8" stroke="#e9e4d8" stroke-opacity="0.22" stroke-width="1"/><line x1="923.8" y1="112.4" x2="928.3" y2="107.3" stroke="#e9e4d8" stroke-opacity="0.22" stroke-width="1"/><line x1="954.2" y1="139.2" x2="959.1" y2="134.4" stroke="#e9e4d8" stroke-opacity="0.22" stroke-width="1"/><line x1="982" y1="168.4" x2="987.4" y2="164.1" stroke="#e9e4d8" stroke-opacity="0.22" stroke-width="1"/><line x1="1007.1" y1="199.8" x2="1012.9" y2="195.9" stroke="#e9e4d8" stroke-opacity="0.22" stroke-width="1"/><line x1="1021.5" y1="237.5" x2="1035.3" y2="229.8" stroke="#e9e4d8" stroke-opacity="0.5" stroke-width="1"/><line x1="1048.3" y1="268.3" x2="1054.7" y2="265.4" stroke="#e9e4d8" stroke-opacity="0.22" stroke-width="1"/><line x1="1064.1" y1="304.8" x2="1070.7" y2="302.5" stroke="#e9e4d8" stroke-opacity="0.22" stroke-width="1"/><line x1="1076.5" y1="342.6" x2="1083.3" y2="340.8" stroke="#e9e4d8" stroke-opacity="0.22" stroke-width="1"/><line x1="1085.4" y1="381.2" x2="1092.3" y2="380" stroke="#e9e4d8" stroke-opacity="0.22" stroke-width="1"/><line x1="1090.8" y1="420.5" x2="1097.8" y2="419.9" stroke="#e9e4d8" stroke-opacity="0.22" stroke-width="1"/><line x1="620" y1="40" x2="620" y2="860" stroke="#e9e4d8" stroke-opacity="0.1" stroke-width="1"/><line x1="60" y1="460" x2="1140" y2="460" stroke="#e9e4d8" stroke-opacity="0.1" stroke-width="1"/><circle cx="620" cy="460" r="3.5" fill="#d8a24a"/><rect width="1200" height="900" fill="url(#vg)"/><rect width="1200" height="900" filter="url(#gr)" opacity="0.05"/></svg>
