<svg xmlns="http://www.w3.org/2000/svg" viewBox="0 0 1200 900" width="1200" height="900" role="img"><defs><radialGradient id="halo"><stop offset="55%" stop-color="#d8a24a" stop-opacity="0"/><stop offset="78%" stop-color="#d8a24a" stop-opacity="0.32"/><stop offset="100%" stop-color="#d8a24a" stop-opacity="0"/></radialGradient><radialGradient id="rim"><stop offset="80%" stop-color="#edc27a" stop-opacity="0.9"/><stop offset="100%" stop-color="#d8a24a" stop-opacity="0.25"/></radialGradient><radialGradient id="sheen" cx="38%" cy="30%" r="80%"><stop offset="0%" stop-color="#6a55d6" stop-opacity="0.2"/><stop offset="100%" stop-color="#000" stop-opacity="0"/></radialGradient><radialGradient id="vg" cx="50%" cy="46%" r="72%"><stop offset="58%" stop-color="#000" stop-opacity="0"/><stop offset="100%" stop-color="#000" stop-opacity="0.55"/></radialGradient><filter id="gr" x="0" y="0" width="100%" height="100%"><feTurbulence type="fractalNoise" baseFrequency="0.9" numOctaves="2" seed="7" stitchTiles="stitch" result="n"/><feColorMatrix in="n" type="matrix" values="0 0 0 0 0.9 0 0 0 0 0.88 0 0 0 0 0.84 0 0 0 0.6 0"/><feComposite operator="in" in2="SourceGraphic"/></filter></defs><rect width="1200" height="900" fill="#0b0b10"/><circle cx="1191.8" cy="539.1" r="1.4" fill="#e9e4d8" fill-opacity="0.29"/><circle cx="71" cy="803.1" r="0.7" fill="#e9e4d8" fill-opacity="0.11"/><circle cx="34.4" cy="609.4" r="1.5" fill="#e9e4d8" fill-opacity="0.40"/><circle cx="751.6" cy="899.7" r="0.6" fill="#e9e4d8" fill-opacity="0.43"/><circle cx="625.6" cy="752" r="0.8" fill="#e9e4d8" fill-opacity="0.38"/><circle cx="283.9" cy="790.4" r="1.4" fill="#e9e4d8" fill-opacity="0.35"/><circle cx="319.2" cy="442.7" r="1.5" fill="#e9e4d8" fill-opacity="0.44"/><circle cx="399.7" cy="413.4" r="0.8" fill="#e9e4d8" fill-opacity="0.53"/><circle cx="836.1" cy="183.6" r="1.1" fill="#e9e4d8" fill-opacity="0.50"/><circle cx="847.6" cy="562.3" r="0.7" fill="#e9e4d8" fill-opacity="0.16"/><circle cx="658.5" cy="658.3" r="0.8" fill="#e9e4d8" fill-opacity="0.17"/><circle cx="267.2" cy="387.1" r="0.9" fill="#e9e4d8" fill-opacity="0.48"/><circle cx="725.6" cy="367.5" r="1.4" fill="#e9e4d8" fill-opacity="0.49"/><circle cx="1127.7" cy="474.8" r="1.4" fill="#e9e4d8" fill-opacity="0.16"/><circle cx="1157.5" cy="476.2" r="1.3" fill="#e9e4d8" fill-opacity="0.13"/><circle cx="11.7" cy="384.2" r="1.2" fill="#e9e4d8" fill-opacity="0.49"/><circle cx="289.3" cy="126.9" r="1.6" fill="#e9e4d8" fill-opacity="0.47"/><circle cx="113" cy="446.6" r="0.6" fill="#e9e4d8" fill-opacity="0.43"/><circle cx="663.4" cy="157" r="1.4" fill="#e9e4d8" fill-opacity="0.27"/><circle cx="472.9" cy="286.6" r="1.5" fill="#e9e4d8" fill-opacity="0.40"/><circle cx="1109.2" cy="219.9" r="0.7" fill="#e9e4d8" fill-opacity="0.22"/><circle cx="780.2" cy="84" r="1.0" fill="#e9e4d8" fill-opacity="0.51"/><circle cx="954" cy="229.3" r="0.8" fill="#e9e4d8" fill-opacity="0.16"/><circle cx="676.2" cy="253.1" r="0.7" fill="#e9e4d8" fill-opacity="0.34"/><circle cx="645.5" cy="345.6" r="1.3" fill="#e9e4d8" fill-opacity="0.11"/><circle cx="1085.3" cy="698.9" r="0.7" fill="#e9e4d8" fill-opacity="0.48"/><circle cx="206.7" cy="52.7" r="0.9" fill="#e9e4d8" fill-opacity="0.31"/><circle cx="143.6" cy="752.4" r="1.6" fill="#e9e4d8" fill-opacity="0.42"/><circle cx="60.4" cy="169.2" r="1.5" fill="#e9e4d8" fill-opacity="0.26"/><circle cx="1110" cy="477.7" r="0.7" fill="#e9e4d8" fill-opacity="0.50"/><circle cx="263" cy="103.1" r="1.2" fill="#e9e4d8" fill-opacity="0.51"/><circle cx="832.8" cy="506.5" r="0.9" fill="#e9e4d8" fill-opacity="0.19"/><circle cx="109.8" cy="468.3" r="0.8" fill="#e9e4d8" fill-opacity="0.13"/><circle cx="81.6" cy="620" r="1.1" fill="#e9e4d8" fill-opacity="0.16"/><circle cx="339.4" cy="590.6" r="0.8" fill="#e9e4d8" fill-opacity="0.38"/><circle cx="1178.4" cy="290.8" r="1.1" fill="#e9e4d8" fill-opacity="0.55"/><circle cx="699.6" cy="741.5" r="1.3" fill="#e9e4d8" fill-opacity="0.40"/><circle cx="158.9" cy="740.5" r="1.0" fill="#e9e4d8" fill-opacity="0.53"/><circle cx="1009.6" cy="462.7" r="0.8" fill="#e9e4d8" fill-opacity="0.25"/><circle cx="77.3" cy="500.2" r="0.8" fill="#e9e4d8" fill-opacity="0.35"/><circle cx="976.8" cy="828.2" r="0.6" fill="#e9e4d8" fill-opacity="0.33"/><circle cx="814.4" cy="656.4" r="0.6" fill="#e9e4d8" fill-opacity="0.13"/><circle cx="810.3" cy="728.5" r="1.2" fill="#e9e4d8" fill-opacity="0.32"/><circle cx="343.9" cy="111.7" r="0.8" fill="#e9e4d8" fill-opacity="0.27"/><circle cx="707.3" cy="195.9" r="1.1" fill="#e9e4d8" fill-opacity="0.48"/><circle cx="274.8" cy="471.2" r="1.3" fill="#e9e4d8" fill-opacity="0.26"/><circle cx="154.7" cy="250" r="1.4" fill="#e9e4d8" fill-opacity="0.48"/><circle cx="654.8" cy="356.6" r="0.8" fill="#e9e4d8" fill-opacity="0.35"/><circle cx="273" cy="652.7" r="1.2" fill="#e9e4d8" fill-opacity="0.35"/><circle cx="702.2" cy="103.1" r="1.0" fill="#e9e4d8" fill-opacity="0.43"/><circle cx="828.4" cy="823.5" r="0.8" fill="#e9e4d8" fill-opacity="0.29"/><circle cx="871" cy="553.4" r="1.4" fill="#e9e4d8" fill-opacity="0.28"/><circle cx="906.7" cy="652.2" r="1.3" fill="#e9e4d8" fill-opacity="0.23"/><circle cx="412.8" cy="847.8" r="1.1" fill="#e9e4d8" fill-opacity="0.22"/><circle cx="160.9" cy="725.4" r="1.2" fill="#e9e4d8" fill-opacity="0.54"/><circle cx="904.8" cy="423" r="0.6" fill="#e9e4d8" fill-opacity="0.36"/><circle cx="962.5" cy="53" r="1.1" fill="#e9e4d8" fill-opacity="0.38"/><circle cx="121.1" cy="708.4" r="1.3" fill="#e9e4d8" fill-opacity="0.15"/><circle cx="1038.7" cy="612.6" r="1.4" fill="#e9e4d8" fill-opacity="0.49"/><circle cx="74.8" cy="98.9" r="1.1" fill="#e9e4d8" fill-opacity="0.27"/><circle cx="959.4" cy="603.4" r="1.4" fill="#e9e4d8" fill-opacity="0.55"/><circle cx="316.9" cy="897.3" r="0.9" fill="#e9e4d8" fill-opacity="0.52"/><circle cx="818.2" cy="892.2" r="1.0" fill="#e9e4d8" fill-opacity="0.39"/><circle cx="163.1" cy="151.7" r="1.5" fill="#e9e4d8" fill-opacity="0.17"/><circle cx="49.9" cy="173.7" r="0.7" fill="#e9e4d8" fill-opacity="0.28"/><circle cx="704.5" cy="238.9" r="0.5" fill="#e9e4d8" fill-opacity="0.43"/><circle cx="372.4" cy="362.6" r="1.0" fill="#e9e4d8" fill-opacity="0.29"/><circle cx="1079.9" cy="610.3" r="0.8" fill="#e9e4d8" fill-opacity="0.42"/><circle cx="936.1" cy="457.8" r="0.9" fill="#e9e4d8" fill-opacity="0.47"/><circle cx="43" cy="70.4" r="1.3" fill="#e9e4d8" fill-opacity="0.19"/><circle cx="387.3" cy="708.5" r="1.0" fill="#e9e4d8" fill-opacity="0.54"/><circle cx="330.9" cy="294" r="0.8" fill="#e9e4d8" fill-opacity="0.15"/><circle cx="451.9" cy="725.7" r="1.3" fill="#e9e4d8" fill-opacity="0.23"/><circle cx="559.5" cy="891.6" r="0.6" fill="#e9e4d8" fill-opacity="0.45"/><circle cx="254.8" cy="823.7" r="0.7" fill="#e9e4d8" fill-opacity="0.36"/><circle cx="1072.8" cy="238.1" r="0.6" fill="#e9e4d8" fill-opacity="0.26"/><circle cx="171" cy="485.2" r="1.3" fill="#e9e4d8" fill-opacity="0.52"/><circle cx="175.8" cy="98" r="0.9" fill="#e9e4d8" fill-opacity="0.20"/><circle cx="9.5" cy="750.4" r="1.2" fill="#e9e4d8" fill-opacity="0.49"/><circle cx="454.6" cy="777" r="1.0" fill="#e9e4d8" fill-opacity="0.54"/><circle cx="1185.6" cy="499.5" r="1.2" fill="#e9e4d8" fill-opacity="0.52"/><circle cx="851.4" cy="501.6" r="1.1" fill="#e9e4d8" fill-opacity="0.42"/><circle cx="401.9" cy="353.5" r="0.8" fill="#e9e4d8" fill-opacity="0.10"/><circle cx="846.1" cy="829.7" r="0.9" fill="#e9e4d8" fill-opacity="0.25"/><circle cx="905.3" cy="469.6" r="1.4" fill="#e9e4d8" fill-opacity="0.51"/><circle cx="99.4" cy="95.2" r="0.8" fill="#e9e4d8" fill-opacity="0.26"/><circle cx="692.6" cy="528.6" r="1.5" fill="#e9e4d8" fill-opacity="0.11"/><circle cx="871.8" cy="75.8" r="1.4" fill="#e9e4d8" fill-opacity="0.50"/><circle cx="614.6" cy="391.3" r="0.6" fill="#e9e4d8" fill-opacity="0.14"/><circle cx="1197.4" cy="510.1" r="1.1" fill="#e9e4d8" fill-opacity="0.14"/><circle cx="95.9" cy="162" r="1.4" fill="#e9e4d8" fill-opacity="0.10"/><circle cx="633.8" cy="282.3" r="1.4" fill="#e9e4d8" fill-opacity="0.45"/><circle cx="1058.9" cy="93.5" r="1.4" fill="#e9e4d8" fill-opacity="0.33"/><circle cx="825" cy="851" r="0.6" fill="#e9e4d8" fill-opacity="0.13"/><circle cx="325.1" cy="252.5" r="1.1" fill="#e9e4d8" fill-opacity="0.47"/><circle cx="60.3" cy="441.6" r="0.6" fill="#e9e4d8" fill-opacity="0.19"/><circle cx="1173.2" cy="459.2" r="0.8" fill="#e9e4d8" fill-opacity="0.52"/><circle cx="756.8" cy="176.1" r="0.6" fill="#e9e4d8" fill-opacity="0.22"/><circle cx="565.6" cy="78.6" r="1.1" fill="#e9e4d8" fill-opacity="0.32"/><circle cx="937.9" cy="774.5" r="1.6" fill="#e9e4d8" fill-opacity="0.11"/><circle cx="436.2" cy="79.6" r="1.1" fill="#e9e4d8" fill-opacity="0.41"/><circle cx="759" cy="282.1" r="1.5" fill="#e9e4d8" fill-opacity="0.16"/><circle cx="952.1" cy="161.2" r="1.5" fill="#e9e4d8" fill-opacity="0.44"/><circle cx="728.9" cy="97.5" r="0.6" fill="#e9e4d8" fill-opacity="0.12"/><circle cx="1179.5" cy="693" r="0.7" fill="#e9e4d8" fill-opacity="0.38"/><circle cx="1175.4" cy="300.9" r="1.0" fill="#e9e4d8" fill-opacity="0.20"/><circle cx="160.4" cy="113" r="1.1" fill="#e9e4d8" fill-opacity="0.51"/><circle cx="105.1" cy="70.7" r="1.6" fill="#e9e4d8" fill-opacity="0.28"/><circle cx="1080.3" cy="405.3" r="0.9" fill="#e9e4d8" fill-opacity="0.38"/><circle cx="213.5" cy="366.4" r="1.1" fill="#e9e4d8" fill-opacity="0.48"/><circle cx="600" cy="440" r="230" fill="none" stroke="#e9e4d8" stroke-opacity="0.16" stroke-width="1"/><circle cx="600" cy="440" r="286" fill="none" stroke="#e9e4d8" stroke-opacity="0.14" stroke-width="1"/><circle cx="600" cy="440" r="342" fill="none" stroke="#e9e4d8" stroke-opacity="0.12" stroke-width="1"/><circle cx="600" cy="440" r="398" fill="none" stroke="#e9e4d8" stroke-opacity="0.10" stroke-width="1"/><circle cx="600" cy="440" r="454" fill="none" stroke="#e9e4d8" stroke-opacity="0.08" stroke-width="1"/><circle cx="600" cy="440" r="510" fill="none" stroke="#e9e4d8" stroke-opacity="0.06" stroke-width="1"/><path d="M 266.6 287.2 A 366.7 366.7 0 0 1 389.7 139.5" fill="none" stroke="#e9e4d8" stroke-opacity="0.43" stroke-width="1.6" stroke-linecap="round"/><path d="M 977.3 254.2 A 420.6 420.6 0 0 1 593.4 860.6" fill="none" stroke="#e9e4d8" stroke-opacity="0.39" stroke-width="1.3" stroke-linecap="round"/><path d="M 238 35.7 A 542.7 542.7 0 0 1 1071.5 171.4" fill="none" stroke="#e9e4d8" stroke-opacity="0.38" stroke-width="1.9" stroke-linecap="round"/><circle cx="1071.5" cy="171.4" r="3" fill="#e9e4d8" fill-opacity="0.85"/><path d="M 349.6 140.4 A 390.4 390.4 0 0 1 649.2 52.7" fill="none" stroke="#e9e4d8" stroke-opacity="0.37" stroke-width="2.0" stroke-linecap="round"/><circle cx="649.2" cy="52.7" r="3" fill="#e9e4d8" fill-opacity="0.85"/><path d="M 381.5 337.2 A 241.4 241.4 0 0 1 467.1 238.5" fill="none" stroke="#d8a24a" stroke-opacity="0.75" stroke-width="1.6" stroke-linecap="round"/><path d="M 714 695 A 279.3 279.3 0 0 1 410.7 645.4" fill="none" stroke="#e9e4d8" stroke-opacity="0.28" stroke-width="1.1" stroke-linecap="round"/><circle cx="410.7" cy="645.4" r="3" fill="#e9e4d8" fill-opacity="0.85"/><path d="M 220.7 621.2 A 420.4 420.4 0 0 1 485.8 35.4" fill="none" stroke="#d8a24a" stroke-opacity="0.85" stroke-width="1.7" stroke-linecap="round"/><path d="M 379.4 906.8 A 516.2 516.2 0 0 1 134.2 662.7" fill="none" stroke="#e9e4d8" stroke-opacity="0.38" stroke-width="2.3" stroke-linecap="round"/><circle cx="134.2" cy="662.7" r="3" fill="#e9e4d8" fill-opacity="0.85"/><path d="M 410.3 780.4 A 389.6 389.6 0 0 1 213.1 394.2" fill="none" stroke="#d8a24a" stroke-opacity="0.72" stroke-width="1.7" stroke-linecap="round"/><path d="M 726 721.8 A 308.7 308.7 0 0 1 550.6 744.7" fill="none" stroke="#e9e4d8" stroke-opacity="0.38" stroke-width="1.4" stroke-linecap="round"/><circle cx="550.6" cy="744.7" r="3" fill="#e9e4d8" fill-opacity="0.85"/><path d="M 729.1 785.5 A 368.8 368.8 0 0 1 537 803.4" fill="none" stroke="#e9e4d8" stroke-opacity="0.43" stroke-width="1.9" stroke-linecap="round"/><circle cx="537" cy="803.4" r="3" fill="#e9e4d8" fill-opacity="0.85"/><path d="M 879.1 206.1 A 364.1 364.1 0 0 1 963 469.5" fill="none" stroke="#d8a24a" stroke-opacity="0.60" stroke-width="2.3" stroke-linecap="round"/><circle cx="963" cy="469.5" r="3" fill="#edc27a" fill-opacity="0.85"/><path d="M 94.4 541.8 A 515.8 515.8 0 0 1 211.3 100.9" fill="none" stroke="#d8a24a" stroke-opacity="0.68" stroke-width="1.1" stroke-linecap="round"/><circle cx="211.3" cy="100.9" r="3" fill="#edc27a" fill-opacity="0.85"/><circle cx="600" cy="440" r="195" fill="url(#halo)"/><circle cx="600" cy="440" r="150" fill="url(#rim)"/><circle cx="600" cy="440" r="142" fill="#0b0b10"/><circle cx="600" cy="440" r="142" fill="url(#sheen)"/><rect width="1200" height="900" fill="url(#vg)"/><rect width="1200" height="900" filter="url(#gr)" opacity="0.05"/></svg>
