<svg xmlns="http://www.w3.org/2000/svg" viewBox="0 0 1600 1000" width="1600" height="1000" role="img"><path d="M965.9 723.1 L961.4 733.2 L957.1 743.3 L953.1 753.6 L949.4 763.9 L945.9 774.4 L942.8 784.9 L940.1 795.6 L937.8 806.3 L935.9 817.2 L934.6 828.1 L933.8 839.1 L933.6 850.1 L934.1 861 L935.4 872 L937.4 882.8 L940.3 893.4 L944 903.7 L948.7 913.7 L954.3 923.1 L960.9 932 L968.4 940 L976.7 947.2 L985.8 953.4 L995.6 958.5 L1005.8 962.5 L1016.4 965.4 L1027.3 967.1 L1038.3 967.7 L1049.3 967.3 L1060.2 966 L1071 963.7 L1081.5 960.7 L1091.9 957 L1102 952.7 L1111.9 947.9 L1121.5 942.5 L1130.9 936.8 L1140.1 930.7 L1149 924.3 L1157.7 917.6 L1166.3 910.7 L1174.6 903.5 L1182.8 896.2 L1190.9 888.7 L1198.8 881 L1206.5 873.2 L1214.2 865.3 L1221.7 857.3 L1229.2 849.2 L1236.5 841.1 L1243.8 832.8 L1251 824.5 L1258.1 816.1 L1265.2 807.7 L1272.2 799.2 L1279.1 790.6 L1286 782 L1292.8 773.4 L1299.6 764.8 L1306.4 756.1" fill="none" stroke="#f0f0f5" stroke-opacity="0.13" stroke-width="0.8" stroke-linecap="round"/><path d="M570 414.7 L580.6 417.6 L590.8 421.9 L600.2 427.5 L608.7 434.5 L616 442.7 L622.2 451.8 L627.1 461.7 L630.8 472 L633.2 482.7 L634.6 493.7 L635.1 504.6 L634.7 515.6 L633.6 526.6 L631.9 537.4 L629.6 548.2 L626.9 558.9 L623.8 569.4 L620.4 579.9 L616.7 590.2 L612.7 600.5 L608.5 610.7 L604.2 620.8 L599.7 630.8 L595.1 640.8 L590.3 650.7 L585.5 660.6 L580.6 670.4 L575.6 680.2 L570.5 690 L565.4 699.7 L560.2 709.5 L555 719.2 L549.8 728.8 L544.6 738.5 L539.3 748.2 L534 757.8 L528.8 767.5 L523.5 777.1" fill="none" stroke="#f0f0f5" stroke-opacity="0.09" stroke-width="1.2" stroke-linecap="round"/><path d="M694.5 -30.4 L688.1 -39.4 L680.9 -47.6 L672.9 -55.2 L664.3 -62.1 L655.2 -68.3 L645.7 -73.8 L636 -78.9 L626 -83.6 L615.9 -88 L605.8 -92.2 L595.6 -96.3 L585.4 -100.5 L575.3 -104.8 L565.2 -109.3 L555.4 -114.2 L545.7 -119.5 L536.4 -125.3 L527.4 -131.6 L518.9 -138.6 L511 -146.3 L503.8 -154.6 L497.5 -163.6 L492 -173.1 L487.6 -183.2 L484.1 -193.6 L481.8 -204.4 L480.4 -215.3 L480 -226.3 L480.5 -237.3 L481.8 -248.2 L483.9 -259 L486.5 -269.7 L489.8 -280.2 L493.4 -290.6 L497.5 -300.8 L501.9 -310.9 L506.6 -320.8 L511.6 -330.6" fill="none" stroke="#f0f0f5" stroke-opacity="0.07" stroke-width="0.9" stroke-linecap="round"/><path d="M620.3 873.4 L611 879.1 L601.7 885.1 L592.5 891.1 L583.4 897.4 L574.5 903.7 L565.6 910.3 L556.9 917 L548.3 923.8 L539.8 930.8 L531.5 938 L523.3 945.3 L515.2 952.8 L507.2 960.4 L499.4 968.2 L491.8 976 L484.3 984.1 L476.9 992.2 L469.6 1000.5 L462.5 1008.9 L455.5 1017.4 L448.7 1026 L442 1034.7 L435.4 1043.5 L428.9 1052.4 L422.6 1061.4 L416.4 1070.5 L410.2 1079.6 L404.3 1088.8 L398.4 1098.1 L392.6 1107.5 L386.9 1116.9 L381.4 1126.4 L375.9 1136 L370.6 1145.6 L365.3 1155.3 L360.2 1165 L355.2 1174.8 L350.2 1184.6 L345.4 1194.5 L340.6 1204.4 L336 1214.4 L331.4 1224.4 L327 1234.4 L322.6 1244.5 L318.3 1254.7 L314.2 1264.9 L310.1 1275.1 L306.1 1285.3 L302.3 1295.6 L298.5 1306 L294.8 1316.3 L291.3 1326.7 L287.8 1337.2 L284.4 1347.7 L281.2 1358.2 L278.1 1368.7 L275.1 1379.3 L272.2 1389.9" fill="none" stroke="#f0f0f5" stroke-opacity="0.14" stroke-width="1.0" stroke-linecap="round"/><path d="M31.1 933.4 L41.5 929.7 L52 926.3 L62.5 923.1 L73.1 920.2 L83.8 917.7 L94.6 915.5 L105.5 913.8 L116.4 912.6 L127.4 911.9 L138.4 911.8 L149.3 912.4 L160.3 913.7 L171.1 915.7 L181.7 918.6 L192.1 922.3 L202.1 926.9 L211.6 932.3 L220.7 938.5 L229.1 945.6 L236.9 953.3 L244 961.7 L250.4 970.7 L256 980.2 L260.8 990.1 L265 1000.2 L268.5 1010.7 L271.3 1021.3 L273.5 1032.1 L275.2 1043 L276.4 1053.9 L277.2 1064.9 L277.5 1075.9 L277.5 1086.9 L277.2 1097.9 L276.6 1108.8 L275.7 1119.8 L274.6 1130.7 L273.3 1141.7" fill="none" stroke="#f0f0f5" stroke-opacity="0.09" stroke-width="1.1" stroke-linecap="round"/><path d="M1021.8 694.7 L1020.1 705.6 L1019 716.5 L1018.4 727.5 L1018.5 738.5 L1019.3 749.4 L1021 760.3 L1023.4 771 L1026.8 781.5 L1031.2 791.6 L1036.5 801.3 L1042.7 810.3 L1050 818.6 L1058.1 826 L1067 832.4 L1076.6 837.8 L1086.8 842 L1097.3 845.1 L1108.2 847 L1119.1 847.7 L1130.1 847.4 L1141.1 846.2 L1151.9 844.1 L1162.5 841.1 L1172.9 837.5 L1183 833.3 L1192.9 828.5 L1202.6 823.2 L1212 817.5 L1221.1 811.4 L1230.1 805.1 L1238.9 798.4 L1247.4 791.5 L1255.8 784.4 L1264 777.1 L1272.1 769.6 L1280 761.9 L1287.8 754.2 L1295.5 746.3 L1303 738.3 L1310.5 730.2 L1317.8 722 L1325.1 713.8 L1332.3 705.4 L1339.4 697.1 L1346.4 688.6 L1353.4 680.1 L1360.3 671.6 L1367.2 663 L1374 654.3 L1380.8 645.7 L1387.5 637 L1394.2 628.2 L1400.9 619.5 L1407.5 610.7 L1414 601.8 L1420.6 593 L1427.1 584.1 L1433.6 575.3 L1440.1 566.4" fill="none" stroke="#f0f0f5" stroke-opacity="0.12" stroke-width="0.9" stroke-linecap="round"/><path d="M1213.7 256.2 L1204 261.4 L1194 266.1 L1183.9 270.5 L1173.6 274.4 L1163.2 277.8 L1152.6 280.8 L1141.9 283.4 L1131.1 285.5 L1120.3 287.2 L1109.3 288.5 L1098.4 289.4 L1087.4 290 L1076.4 290.4 L1065.4 290.5 L1054.4 290.5 L1043.4 290.3 L1032.4 290.2 L1021.4 290 L1010.4 290 L999.4 290.2 L988.4 290.6 L977.4 291.3 L966.5 292.4 L955.6 293.8 L944.8 295.8 L934 298.1 L923.4 301 L912.9 304.4 L902.6 308.3 L892.5 312.7 L882.7 317.5 L873 322.8 L863.6 328.5 L854.4 334.5 L845.5 340.9 L836.8 347.7 L828.3 354.7 L820.1 362 L812 369.4 L804.1 377.1 L796.4 385 L788.9 393" fill="none" stroke="#f0f0f5" stroke-opacity="0.08" stroke-width="1.1" stroke-linecap="round"/><path d="M32.6 643.4 L37 633.4 L41.2 623.2 L45.2 613 L49.1 602.7 L52.9 592.3 L56.4 581.9 L59.9 571.5 L63.2 561 L66.4 550.5 L69.5 539.9 L72.6 529.4 L75.5 518.8 L78.4 508.1 L81.3 497.5 L84.1 486.9 L86.9 476.2 L89.6 465.6 L92.4 455 L95.2 444.3 L98.1 433.7 L100.9 423.1 L103.9 412.5 L106.9 401.9 L109.9 391.3 L113 380.8 L116.2 370.2 L119.5 359.8 L122.9 349.3 L126.4 338.9 L130 328.4 L133.6 318.1 L137.4 307.7 L141.3 297.4 L145.2 287.2 L149.3 276.9 L153.4 266.8 L157.6 256.6 L161.9 246.5 L166.3 236.4 L170.8 226.4 L175.4 216.3 L180 206.4 L184.7 196.4 L189.5 186.5 L194.4 176.7 L199.3 166.8 L204.3 157 L209.3 147.2 L214.4 137.5" fill="none" stroke="#f0f0f5" stroke-opacity="0.08" stroke-width="1.2" stroke-linecap="round"/><path d="M-40.7 356.4 L-29.7 357 L-18.8 356.5 L-7.9 355 L2.9 352.5 L13.3 349.2 L23.6 345.1 L33.5 340.4 L43.1 335 L52.4 329.1 L61.4 322.8 L70.1 316 L78.4 308.9 L86.6 301.5 L94.4 293.8 L102 285.9 L109.4 277.7 L116.6 269.4 L123.6 260.9 L130.5 252.3 L137.2 243.6 L143.7 234.7 L150.1 225.8 L156.4 216.8 L162.7 207.7 L168.8 198.6 L174.8 189.4 L180.8 180.2 L186.7 170.9 L192.6 161.6 L198.4 152.3 L204.2 142.9 L210 133.5 L215.7 124.2 L221.5 114.8" fill="none" stroke="#f0f0f5" stroke-opacity="0.06" stroke-width="1.2" stroke-linecap="round"/><path d="M749.4 217.9 L758.6 224 L766.6 231.5 L773.3 240.2 L778.6 249.9 L782.4 260.2 L784.9 270.9 L786.2 281.8 L786.3 292.8 L785.6 303.8 L784 314.7 L781.8 325.5 L779 336.1 L775.7 346.6 L772 357 L768 367.2 L763.7 377.3 L759.1 387.3 L754.4 397.3 L749.4 407.1 L744.4 416.9 L739.2 426.6 L733.9 436.2 L728.5 445.8 L723 455.3 L717.5 464.8 L711.9 474.3 L706.3 483.8 L700.6 493.2 L694.9 502.6 L689.2 512 L683.4 521.4 L677.7 530.7 L671.9 540.1 L666.1 549.5 L660.3 558.8 L654.5 568.2 L648.7 577.5 L642.9 586.8 L637.1 596.2 L631.3 605.5 L625.5 614.9 L619.7 624.2 L613.9 633.6" fill="none" stroke="#f0f0f5" stroke-opacity="0.06" stroke-width="1.2" stroke-linecap="round"/><path d="M1384.6 625.8 L1391.7 617.5 L1398.8 609 L1405.8 600.6 L1412.8 592 L1419.6 583.5 L1426.5 574.8 L1433.2 566.2 L1440 557.5 L1446.7 548.7 L1453.3 540 L1459.9 531.2 L1466.5 522.3 L1473 513.5 L1479.5 504.6 L1486 495.7 L1492.4 486.8 L1498.8 477.9 L1505.2 468.9 L1511.5 459.9 L1517.9 450.9 L1524.2 441.9 L1530.4 432.9 L1536.7 423.8 L1542.9 414.8 L1549.1 405.7 L1555.3 396.6 L1561.5 387.5 L1567.7 378.4 L1573.8 369.2 L1579.9 360.1 L1586 351 L1592.1 341.8 L1598.2 332.6 L1604.2 323.4 L1610.3 314.2 L1616.3 305 L1622.3 295.8 L1628.3 286.6 L1634.2 277.3 L1640.2 268.1 L1646.1 258.8 L1652.1 249.6 L1658 240.3 L1663.9 231 L1669.7 221.7 L1675.6 212.4 L1681.5 203.1 L1687.3 193.7 L1693.1 184.4 L1698.9 175.1 L1704.7 165.7 L1710.5 156.3 L1716.2 147 L1722 137.6 L1727.7 128.2 L1733.4 118.8" fill="none" stroke="#f0f0f5" stroke-opacity="0.08" stroke-width="0.8" stroke-linecap="round"/><path d="M274.5 630.7 L283 623.7 L291.5 616.7 L300 609.8 L308.7 603 L317.4 596.4 L326.3 589.8 L335.3 583.5 L344.5 577.4 L353.7 571.5 L363.2 565.9 L372.9 560.6 L382.7 555.7 L392.8 551.2 L403 547.3 L413.5 543.9 L424.2 541.3 L435 539.4 L446 538.4 L457 538.5 L467.9 539.7 L478.6 542.1 L489 545.8 L498.8 550.8 L507.9 557 L516 564.4 L523.2 572.8 L529.2 582 L534 591.9 L537.7 602.2 L540.4 612.9 L542.1 623.8 L542.9 634.7 L543 645.7 L542.4 656.7 L541.1 667.6 L539.4 678.5 L537.2 689.3 L534.7 700 L531.8 710.6 L528.6 721.1 L525.1 731.6 L521.5 741.9 L517.7 752.3 L513.7 762.5 L509.5 772.7 L505.3 782.8 L500.9 792.9 L496.5 803 L492 813 L487.4 823" fill="none" stroke="#f0f0f5" stroke-opacity="0.13" stroke-width="0.8" stroke-linecap="round"/><path d="M-18.2 752.8 L-11.8 743.9 L-5.6 734.8 L0.4 725.5 L6.2 716.2 L11.8 706.7 L17.2 697.1 L22.4 687.5 L27.4 677.7 L32.3 667.8 L36.9 657.8 L41.4 647.8 L45.6 637.6 L49.7 627.4 L53.6 617.1 L57.3 606.8 L60.9 596.4 L64.3 585.9 L67.5 575.4 L70.7 564.9 L73.6 554.3 L76.5 543.7 L79.3 533 L82 522.3 L84.6 511.7 L87.2 501 L89.7 490.3 L92.2 479.5 L94.7 468.8 L97.2 458.1 L99.7 447.4 L102.2 436.7 L104.8 426 L107.5 415.3 L110.2 404.7 L112.9 394 L115.8 383.4 L118.8 372.8 L121.8 362.2 L125 351.7 L128.2 341.2 L131.6 330.7 L135 320.3 L138.6 309.9 L142.3 299.5 L146.1 289.2 L150 278.9 L154 268.7 L158.1 258.4 L162.3 248.3 L166.6 238.2 L171 228.1 L175.4 218 L180 208 L184.6 198 L189.3 188.1 L194.1 178.2 L199 168.3 L203.9 158.5 L208.9 148.7 L213.9 138.9 L219 129.2 L224.2 119.4 L229.4 109.7" fill="none" stroke="#f0f0f5" stroke-opacity="0.13" stroke-width="1.3" stroke-linecap="round"/><path d="M1098.2 869 L1109.2 869.3 L1120.2 868.6 L1131 867 L1141.8 864.5 L1152.3 861.2 L1162.6 857.3 L1172.6 852.9 L1182.4 847.9 L1191.9 842.4 L1201.3 836.5 L1210.3 830.3 L1219.2 823.8 L1227.9 817.1 L1236.4 810.1 L1244.7 802.9 L1252.8 795.5 L1260.8 787.9 L1268.7 780.2 L1276.4 772.4 L1284 764.5 L1291.6 756.4 L1299 748.3 L1306.3 740.1 L1313.5 731.8 L1320.7 723.5 L1327.8 715.1 L1334.8 706.6 L1341.8 698.1 L1348.7 689.5 L1355.5 680.9 L1362.3 672.3 L1369.1 663.6 L1375.8 654.9 L1382.5 646.1 L1389.1 637.3 L1395.7 628.6 L1402.3 619.7 L1408.8 610.9 L1415.3 602 L1421.8 593.1 L1428.3 584.2 L1434.7 575.3" fill="none" stroke="#f0f0f5" stroke-opacity="0.12" stroke-width="1.2" stroke-linecap="round"/><path d="M52.7 441.7 L58.1 432.1 L63.4 422.5 L68.7 412.8 L73.9 403.1 L79.1 393.4 L84.2 383.7 L89.3 373.9 L94.3 364.2 L99.4 354.4 L104.4 344.6 L109.3 334.8 L114.3 325 L119.3 315.1 L124.2 305.3 L129.2 295.5 L134.2 285.7 L139.1 275.9 L144.1 266.1 L149.1 256.3 L154.2 246.5 L159.2 236.7 L164.3 227 L169.4 217.2 L174.5 207.5 L179.6 197.8 L184.8 188 L190 178.3 L195.2 168.7 L200.4 159 L205.7 149.3 L211 139.7 L216.3 130.1 L221.7 120.5 L227.1 110.9 L232.5 101.3 L237.9 91.7 L243.4 82.2 L248.8 72.6 L254.3 63.1 L259.9 53.6 L265.4 44.1 L271 34.6 L276.6 25.1 L282.2 15.7 L287.8 6.2 L293.5 -3.2 L299.2 -12.6 L304.9 -22 L310.6 -31.4 L316.3 -40.8 L322.1 -50.2 L327.8 -59.6 L333.6 -68.9" fill="none" stroke="#f0f0f5" stroke-opacity="0.11" stroke-width="1.0" stroke-linecap="round"/><path d="M1557.9 636.1 L1561.2 625.6 L1564.5 615.1 L1567.9 604.6 L1571.3 594.2 L1574.7 583.7 L1578.2 573.3 L1581.7 562.9 L1585.3 552.4 L1588.9 542 L1592.5 531.7 L1596.2 521.3 L1599.9 510.9 L1603.6 500.6 L1607.4 490.3 L1611.2 479.9 L1615 469.6 L1618.9 459.3 L1622.9 449.1 L1626.8 438.8 L1630.8 428.6 L1634.8 418.3 L1638.9 408.1 L1643 397.9 L1647.1 387.7 L1651.2 377.5 L1655.4 367.3 L1659.6 357.2 L1663.9 347 L1668.1 336.9 L1672.4 326.7 L1676.8 316.6 L1681.1 306.5 L1685.5 296.4 L1689.9 286.4 L1694.3 276.3 L1698.8 266.2 L1703.2 256.2 L1707.7 246.1 L1712.2 236.1 L1716.8 226.1 L1721.3 216.1 L1725.9 206.1 L1730.5 196.1 L1735.1 186.1 L1739.7 176.1 L1744.4 166.1 L1749 156.2 L1753.7 146.2 L1758.4 136.2 L1763.1 126.3 L1767.8 116.4 L1772.5 106.4 L1777.3 96.5 L1782 86.6 L1786.8 76.7 L1791.6 66.8" fill="none" stroke="#f0f0f5" stroke-opacity="0.10" stroke-width="1.0" stroke-linecap="round"/><path d="M620.5 18.1 L612.8 10.2 L604.5 3 L595.7 -3.7 L586.6 -9.9 L577.3 -15.6 L567.7 -21.1 L558.1 -26.4 L548.4 -31.6 L538.7 -36.9 L529.1 -42.2 L519.6 -47.7 L510.3 -53.6 L501.2 -59.8 L492.5 -66.5 L484.1 -73.7 L476.3 -81.4 L469.2 -89.7 L462.7 -98.7 L457.1 -108.1 L452.3 -118 L448.5 -128.3 L445.7 -139 L443.8 -149.8 L442.9 -160.8 L442.9 -171.8 L443.7 -182.7 L445.2 -193.6 L447.4 -204.4 L450.2 -215.1 L453.4 -225.6 L457.1 -235.9 L461.2 -246.1 L465.6 -256.2 L470.3 -266.2 L475.2 -276 L480.3 -285.8 L485.6 -295.4 L491 -305 L496.5 -314.5 L502.2 -324 L507.9 -333.4 L513.7 -342.7 L519.5 -352 L525.5 -361.3 L531.4 -370.5 L537.4 -379.7" fill="none" stroke="#f0f0f5" stroke-opacity="0.13" stroke-width="1.1" stroke-linecap="round"/><path d="M1139.7 966.3 L1147.4 958.5 L1155.1 950.5 L1162.6 942.5 L1170 934.4 L1177.4 926.2 L1184.6 918 L1191.8 909.6 L1198.9 901.2 L1206 892.8 L1213 884.3 L1219.9 875.8 L1226.8 867.2 L1233.6 858.6 L1240.4 849.9 L1247.2 841.3 L1253.9 832.6 L1260.6 823.8 L1267.3 815.1 L1273.9 806.3 L1280.5 797.5 L1287.1 788.7 L1293.7 779.9 L1300.2 771 L1306.7 762.2 L1313.2 753.3 L1319.7 744.4 L1326.2 735.5 L1332.6 726.6 L1339 717.6 L1345.4 708.7 L1351.8 699.8 L1358.2 690.8 L1364.6 681.8 L1371 672.9" fill="none" stroke="#f0f0f5" stroke-opacity="0.13" stroke-width="1.1" stroke-linecap="round"/><path d="M15.5 468.5 L22.4 460 L29.2 451.3 L35.8 442.5 L42.2 433.6 L48.5 424.6 L54.7 415.5 L60.7 406.3 L66.7 397 L72.5 387.7 L78.3 378.3 L83.9 368.9 L89.5 359.4 L95 349.9 L100.5 340.4 L105.9 330.8 L111.3 321.2 L116.6 311.6 L121.9 301.9 L127.2 292.3 L132.4 282.6 L137.7 272.9 L142.9 263.3 L148.2 253.6 L153.4 243.9 L158.6 234.2 L163.8 224.6 L169.1 214.9 L174.3 205.2 L179.6 195.6 L184.9 185.9 L190.2 176.3 L195.5 166.6 L200.8 157 L206.1 147.4 L211.5 137.8 L216.9 128.2 L222.3 118.6 L227.7 109 L233.1 99.5 L238.6 89.9 L244.1 80.4" fill="none" stroke="#f0f0f5" stroke-opacity="0.15" stroke-width="1.2" stroke-linecap="round"/><path d="M1182.7 260.2 L1172.2 263.5 L1161.6 266.5 L1150.9 268.9 L1140.1 271 L1129.2 272.6 L1118.3 273.8 L1107.3 274.6 L1096.3 275.1 L1085.3 275.4 L1074.3 275.4 L1063.3 275.2 L1052.3 275 L1041.3 274.8 L1030.3 274.6 L1019.3 274.5 L1008.3 274.7 L997.4 275 L986.4 275.7 L975.4 276.8 L964.5 278.3 L953.7 280.2 L943 282.6 L932.4 285.5 L921.9 288.9 L911.6 292.9 L901.6 297.3 L891.7 302.2 L882.1 307.5 L872.7 313.3 L863.6 319.4 L854.7 325.8 L846 332.6 L837.6 339.7 L829.3 347 L821.3 354.5 L813.5 362.2 L805.8 370.1 L798.3 378.1 L790.9 386.3 L783.7 394.6 L776.6 403 L769.6 411.5 L762.8 420.1 L756 428.8 L749.2 437.5 L742.6 446.2 L736 455.1" fill="none" stroke="#f0f0f5" stroke-opacity="0.09" stroke-width="1.1" stroke-linecap="round"/><path d="M1211.7 934.6 L1216.9 924.8 L1222.1 915.2 L1227.5 905.6 L1232.9 896 L1238.4 886.5 L1244 877 L1249.6 867.5 L1255.3 858.1 L1261 848.7 L1266.8 839.4 L1272.6 830.1 L1278.5 820.7 L1284.4 811.5 L1290.3 802.2 L1296.3 792.9 L1302.2 783.7 L1308.2 774.5 L1314.3 765.3 L1320.3 756.1 L1326.4 746.9 L1332.4 737.7 L1338.5 728.6 L1344.6 719.4 L1350.7 710.2 L1356.8 701.1 L1362.9 692 L1369.1 682.8 L1375.2 673.7 L1381.3 664.6 L1387.5 655.4 L1393.6 646.3 L1399.7 637.2 L1405.9 628 L1412 618.9 L1418.2 609.8 L1424.3 600.7 L1430.4 591.5 L1436.6 582.4" fill="none" stroke="#f0f0f5" stroke-opacity="0.14" stroke-width="1.2" stroke-linecap="round"/><path d="M38.6 951.7 L49.3 949 L60 946.8 L70.9 944.9 L81.8 943.4 L92.7 942.4 L103.7 942 L114.7 942.1 L125.7 942.9 L136.6 944.3 L147.4 946.5 L158 949.5 L168.3 953.3 L178.3 957.9 L187.9 963.3 L197 969.5 L205.5 976.5 L213.3 984.2 L220.5 992.5 L227 1001.3 L232.8 1010.7 L237.9 1020.5 L242.3 1030.5 L246 1040.9 L249.1 1051.5 L251.6 1062.2 L253.6 1073 L255.1 1083.9 L256.2 1094.8 L256.9 1105.8 L257.2 1116.8 L257.1 1127.8 L256.8 1138.8 L256.3 1149.8 L255.5 1160.8 L254.5 1171.7 L253.3 1182.6 L252 1193.6 L250.5 1204.5 L249 1215.4 L247.3 1226.2 L245.5 1237.1 L243.7 1247.9 L241.8 1258.8 L239.9 1269.6 L237.9 1280.4 L235.9 1291.2 L233.9 1302 L231.8 1312.9 L229.8 1323.7 L227.8 1334.5 L225.8 1345.3 L223.8 1356.1 L221.8 1366.9 L219.9 1377.8 L218 1388.6" fill="none" stroke="#dd8568" stroke-opacity="0.42" stroke-width="1.3" stroke-linecap="round"/><path d="M133.2 826.6 L143.3 822.3 L153.6 818.4 L164 814.7 L174.5 811.5 L185.1 808.6 L195.9 806.3 L206.7 804.5 L217.7 803.3 L228.6 802.8 L239.6 803.1 L250.6 804.2 L261.4 806.2 L272 809.2 L282.3 813.1 L292.1 818 L301.4 823.9 L310.1 830.7 L318 838.3 L325 846.8 L331.3 855.8 L336.7 865.4 L341.2 875.4 L344.9 885.8 L347.8 896.4 L350 907.2 L351.6 918.1 L352.5 929 L352.9 940 L352.9 951 L352.4 962 L351.5 973 L350.3 983.9 L348.8 994.8 L347.1 1005.7 L345.1 1016.5 L342.9 1027.3 L340.6 1038 L338 1048.7 L335.4 1059.4 L332.7 1070.1 L329.8 1080.7 L326.9 1091.3 L323.9 1101.9 L320.8 1112.4 L317.7 1123 L314.5 1133.5 L311.3 1144 L308.1 1154.5 L304.8 1165.1 L301.6 1175.6 L298.4 1186.1 L295.1 1196.6 L291.9 1207.1" fill="none" stroke="#f0f0f5" stroke-opacity="0.12" stroke-width="0.8" stroke-linecap="round"/><path d="M562.2 371.3 L573 369.3 L584 368.4 L595 368.6 L605.9 370.2 L616.4 373.2 L626.5 377.7 L635.8 383.6 L644.1 390.8 L651.2 399.2 L657 408.5 L661.6 418.5 L664.8 429.1 L666.9 439.9 L667.9 450.8 L668 461.8 L667.2 472.8 L665.8 483.7 L663.8 494.5 L661.2 505.2 L658.2 515.8 L654.8 526.2 L651.1 536.6 L647.2 546.9 L643 557.1 L638.6 567.1 L634.1 577.2 L629.4 587.1 L624.6 597 L619.6 606.8 L614.6 616.6 L609.5 626.4 L604.4 636.1 L599.2 645.8 L593.9 655.4 L588.6 665.1 L583.3 674.7 L577.9 684.3 L572.5 693.9 L567.1 703.5 L561.7 713.1 L556.3 722.6 L550.9 732.2 L545.4 741.8 L540 751.3 L534.6 760.9 L529.2 770.5 L523.7 780 L518.3 789.6 L512.9 799.2 L507.5 808.8" fill="none" stroke="#f0f0f5" stroke-opacity="0.14" stroke-width="1.1" stroke-linecap="round"/><path d="M262.2 263.8 L259.1 253.3 L256.2 242.7 L253.7 232 L251.5 221.2 L249.8 210.3 L248.6 199.4 L247.8 188.4 L247.4 177.4 L247.6 166.4 L248.2 155.4 L249.3 144.5 L250.8 133.6 L252.7 122.8 L255 112 L257.6 101.3 L260.6 90.7 L263.9 80.3 L267.5 69.8 L271.3 59.5 L275.4 49.3 L279.7 39.2 L284.1 29.1 L288.7 19.1 L293.5 9.2 L298.4 -0.6 L303.4 -10.4 L308.5 -20.2 L313.8 -29.8 L319.1 -39.5 L324.5 -49.1 L329.9 -58.6 L335.4 -68.1 L341 -77.6 L346.6 -87.1 L352.2 -96.5 L357.9 -105.9 L363.7 -115.3 L369.4 -124.7 L375.2 -134 L381.1 -143.4 L386.9 -152.7 L392.8 -162 L398.7 -171.3 L404.6 -180.6 L410.5 -189.8 L416.5 -199.1 L422.4 -208.3 L428.4 -217.5 L434.4 -226.8 L440.4 -236 L446.4 -245.2 L452.5 -254.4 L458.5 -263.6 L464.6 -272.8" fill="none" stroke="#dd8568" stroke-opacity="0.60" stroke-width="1.3" stroke-linecap="round"/><path d="M1633.5 959.8 L1643.7 955.6 L1654.1 952 L1664.7 949 L1675.4 946.7 L1686.3 945.1 L1697.3 944.3 L1708.3 944.3 L1719.2 945.1 L1730.1 946.7 L1740.8 949.2 L1751.3 952.5 L1761.5 956.6 L1771.4 961.5 L1780.9 967.1 L1789.9 973.3 L1798.6 980.2 L1806.7 987.5 L1814.4 995.4 L1821.7 1003.6 L1828.5 1012.3 L1834.9 1021.2 L1841 1030.4 L1846.6 1039.8 L1851.9 1049.5 L1857 1059.2 L1861.7 1069.2 L1866.2 1079.2 L1870.5 1089.3 L1874.6 1099.5 L1878.6 1109.8 L1882.5 1120.1 L1886.2 1130.4 L1889.9 1140.8 L1893.6 1151.2 L1897.2 1161.5 L1900.9 1171.9 L1904.7 1182.2 L1908.5 1192.5 L1912.5 1202.8 L1916.6 1213 L1920.9 1223.1 L1925.5 1233.1 L1930.3 1243 L1935.4 1252.8 L1940.9 1262.3 L1946.7 1271.6 L1953 1280.7 L1959.7 1289.4 L1967 1297.6 L1974.7 1305.5 L1982.9 1312.7 L1991.7 1319.4 L2001 1325.3 L2010.8 1330.4" fill="none" stroke="#f0f0f5" stroke-opacity="0.09" stroke-width="1.3" stroke-linecap="round"/><path d="M140.3 -12.3 L148.8 -5.4 L158.2 0.3 L168.3 4.7 L178.9 7.7 L189.8 9.3 L200.8 9.4 L211.8 8.2 L222.5 5.8 L232.9 2.4 L243 -2 L252.7 -7.1 L262.1 -13 L271 -19.4 L279.6 -26.2 L287.9 -33.5 L295.9 -41 L303.6 -48.9 L311.1 -57 L318.3 -65.2 L325.4 -73.6 L332.3 -82.2 L339.1 -90.8 L345.8 -99.6 L352.3 -108.4 L358.8 -117.3 L365.2 -126.3 L371.6 -135.2 L377.9 -144.3 L384.1 -153.3 L390.3 -162.4 L396.5 -171.5 L402.7 -180.6 L408.8 -189.7 L414.9 -198.9 L421.1 -208 L427.2 -217.2 L433.3 -226.3" fill="none" stroke="#f0f0f5" stroke-opacity="0.05" stroke-width="0.8" stroke-linecap="round"/><path d="M1414.1 454.8 L1424.5 451.2 L1434.6 446.9 L1444.5 442.1 L1454.1 436.8 L1463.5 431.1 L1472.7 425 L1481.6 418.6 L1490.4 411.9 L1498.9 405 L1507.2 397.8 L1515.4 390.5 L1523.4 382.9 L1531.3 375.2 L1539 367.4 L1546.6 359.5 L1554.1 351.4 L1561.5 343.2 L1568.8 335 L1575.9 326.7 L1583 318.2 L1590 309.8 L1597 301.2 L1603.8 292.6 L1610.6 283.9 L1617.3 275.2 L1624 266.5 L1630.6 257.7 L1637.1 248.8 L1643.6 240 L1650 231 L1656.4 222.1 L1662.8 213.1 L1669.1 204.1 L1675.4 195.1 L1681.6 186 L1687.8 176.9 L1694 167.8 L1700.1 158.7 L1706.2 149.5 L1712.3 140.3 L1718.3 131.1 L1724.3 121.9 L1730.3 112.7 L1736.2 103.4 L1742.2 94.2 L1748.1 84.9 L1753.9 75.6 L1759.8 66.3 L1765.6 57 L1771.4 47.6 L1777.2 38.3 L1783 28.9 L1788.7 19.5 L1794.5 10.1" fill="none" stroke="#dd8568" stroke-opacity="0.64" stroke-width="1.3" stroke-linecap="round"/><path d="M1039.3 501.4 L1029.8 506.9 L1020.1 512.2 L1010.3 517.1 L1000.3 521.8 L990.2 526.1 L980 530.2 L969.7 534 L959.2 537.4 L948.7 540.6 L938.1 543.6 L927.4 546.3 L916.7 548.7 L906 551 L895.2 553.1 L884.4 555.2 L873.5 557.1 L862.7 559 L851.9 560.9 L841 562.8 L830.2 564.9 L819.4 567 L808.7 569.4 L798 571.9 L787.3 574.7 L776.8 577.8 L766.3 581.1 L755.9 584.8 L745.7 588.8 L735.6 593.1 L725.6 597.8 L715.8 602.8 L706.2 608.1 L696.8 613.8 L687.5 619.8 L678.5 626 L669.6 632.6 L661 639.4 L652.5 646.4 L644.3 653.7 L636.2 661.1 L628.3 668.8 L620.6 676.6 L613 684.6 L605.6 692.7 L598.3 701 L591.2 709.3 L584.2 717.8 L577.3 726.4 L570.5 735.1 L563.9 743.8 L557.3 752.7 L550.9 761.6 L544.5 770.6 L538.2 779.6 L532 788.7 L525.9 797.8 L519.8 807 L513.8 816.2 L507.9 825.5 L502 834.8 L496.2 844.1" fill="none" stroke="#f0f0f5" stroke-opacity="0.12" stroke-width="0.7" stroke-linecap="round"/><path d="M1340.8 616.1 L1350.1 610.4 L1359.3 604.3 L1368.2 597.8 L1376.9 591.1 L1385.4 584.2 L1393.8 577 L1402 569.6 L1410 562.1 L1417.9 554.4 L1425.6 546.6 L1433.3 538.7 L1440.8 530.7 L1448.2 522.6 L1455.5 514.3 L1462.7 506 L1469.9 497.7 L1476.9 489.2 L1483.9 480.8 L1490.8 472.2 L1497.7 463.6 L1504.5 455 L1511.2 446.3 L1517.9 437.5 L1524.6 428.8 L1531.2 420 L1537.7 411.1 L1544.2 402.3 L1550.7 393.4 L1557.1 384.4 L1563.5 375.5 L1569.9 366.5 L1576.2 357.5 L1582.5 348.5 L1588.8 339.5 L1595.1 330.4 L1601.3 321.4 L1607.5 312.3 L1613.6 303.2 L1619.8 294 L1625.9 284.9 L1632 275.7 L1638.1 266.6 L1644.1 257.4 L1650.1 248.2 L1656.1 239 L1662.1 229.7 L1668.1 220.5 L1674.1 211.2 L1680 202 L1685.9 192.7 L1691.8 183.4 L1697.7 174.1 L1703.5 164.8 L1709.3 155.5 L1715.2 146.1 L1721 136.8 L1726.8 127.4 L1732.5 118.1 L1738.3 108.7 L1744 99.3 L1749.7 89.9 L1755.5 80.5" fill="none" stroke="#dd8568" stroke-opacity="0.60" stroke-width="1.3" stroke-linecap="round"/><path d="M1361.1 342.5 L1368.8 350.3 L1377.5 357.1 L1386.9 362.7 L1397 367.1 L1407.5 370.3 L1418.4 372.2 L1429.3 372.9 L1440.3 372.5 L1451.2 371 L1462 368.7 L1472.5 365.6 L1482.8 361.8 L1492.9 357.3 L1502.7 352.3 L1512.3 346.9 L1521.6 341 L1530.6 334.8 L1539.5 328.2 L1548.1 321.4 L1556.6 314.4 L1564.8 307.1 L1572.9 299.7 L1580.9 292 L1588.6 284.3 L1596.3 276.4 L1603.8 268.3 L1611.2 260.2 L1618.5 252 L1625.7 243.7 L1632.8 235.2 L1639.8 226.8 L1646.7 218.2 L1653.6 209.6 L1660.3 200.9 L1667 192.2 L1673.7 183.4 L1680.3 174.6 L1686.8 165.8 L1693.2 156.9 L1699.6 147.9 L1706 138.9 L1712.3 129.9 L1718.6 120.9 L1724.8 111.8 L1731 102.7 L1737.1 93.6 L1743.3 84.5 L1749.3 75.3 L1755.4 66.1 L1761.4 56.9 L1767.3 47.6 L1773.3 38.4 L1779.2 29.1 L1785.1 19.8 L1791 10.5" fill="none" stroke="#f0f0f5" stroke-opacity="0.12" stroke-width="1.1" stroke-linecap="round"/><path d="M1460.4 801.7 L1462.4 790.9 L1464.4 780.1 L1466.6 769.3 L1468.8 758.5 L1471.1 747.7 L1473.4 737 L1475.9 726.3 L1478.4 715.6 L1481 704.9 L1483.7 694.2 L1486.5 683.6 L1489.4 672.9 L1492.3 662.3 L1495.4 651.8 L1498.5 641.2 L1501.7 630.7 L1505 620.2 L1508.4 609.8 L1511.9 599.3 L1515.5 588.9 L1519.2 578.6 L1522.9 568.2 L1526.7 557.9 L1530.6 547.6 L1534.6 537.4 L1538.7 527.1 L1542.8 516.9 L1547 506.8 L1551.2 496.6 L1555.6 486.5 L1560 476.4 L1564.4 466.4 L1568.9 456.3 L1573.5 446.3 L1578.1 436.3 L1582.8 426.4 L1587.5 416.4 L1592.2 406.5 L1597 396.6 L1601.9 386.7 L1606.7 376.9 L1611.7 367 L1616.6 357.2 L1621.6 347.4 L1626.6 337.6 L1631.7 327.8 L1636.7 318.1 L1641.8 308.3 L1646.9 298.6 L1652.1 288.9" fill="none" stroke="#f0f0f5" stroke-opacity="0.12" stroke-width="0.9" stroke-linecap="round"/><path d="M255.9 902.6 L263.9 910.2 L271.2 918.4 L277.7 927.3 L283.4 936.7 L288.3 946.5 L292.5 956.7 L295.9 967.2 L298.7 977.8 L300.8 988.6 L302.4 999.5 L303.4 1010.4 L304 1021.4 L304.1 1032.4 L303.9 1043.4 L303.3 1054.4 L302.5 1065.4 L301.3 1076.3 L300 1087.2 L298.4 1098.1 L296.6 1109 L294.7 1119.8 L292.7 1130.6 L290.5 1141.4 L288.2 1152.2 L285.9 1162.9 L283.4 1173.6 L280.9 1184.4 L278.4 1195.1 L275.8 1205.7 L273.2 1216.4 L270.5 1227.1 L267.9 1237.8 L265.2 1248.5 L262.5 1259.1 L259.9 1269.8 L257.2 1280.5 L254.6 1291.2 L252 1301.8 L249.4 1312.5 L246.9 1323.2 L244.4 1333.9 L241.9 1344.7" fill="none" stroke="#f0f0f5" stroke-opacity="0.13" stroke-width="0.8" stroke-linecap="round"/><path d="M1154.8 455.6 L1149.9 465.5 L1145.1 475.4 L1140.6 485.4 L1136.3 495.5 L1132.2 505.7 L1128.3 516.1 L1124.8 526.5 L1121.6 537 L1118.8 547.6 L1116.4 558.4 L1114.5 569.2 L1113.2 580.1 L1112.4 591.1 L1112.3 602.1 L1112.9 613.1 L1114.3 624 L1116.6 634.8 L1119.8 645.3 L1123.9 655.5 L1129.1 665.2 L1135.3 674.2 L1142.5 682.6 L1150.6 690 L1159.5 696.4 L1169.2 701.8 L1179.3 705.9 L1189.9 708.9 L1200.8 710.7 L1211.8 711.3 L1222.8 710.9 L1233.7 709.5 L1244.5 707.3 L1255 704.2 L1265.4 700.5 L1275.5 696.2 L1285.3 691.3 L1295 686 L1304.3 680.2 L1313.5 674.1 L1322.4 667.7 L1331.1 661 L1339.7 654 L1348 646.9 L1356.2 639.6 L1364.3 632 L1372.2 624.4 L1379.9 616.6" fill="none" stroke="#f0f0f5" stroke-opacity="0.07" stroke-width="0.9" stroke-linecap="round"/><path d="M478 283.3 L477.7 272.3 L476.6 261.3 L474.7 250.5 L472 239.8 L468.5 229.4 L464.3 219.2 L459.4 209.4 L453.9 199.9 L447.9 190.6 L441.5 181.7 L434.6 173.1 L427.6 164.7 L420.3 156.4 L413 148.2 L405.6 140 L398.3 131.8 L391.1 123.5 L384.2 115 L377.5 106.2 L371.2 97.2 L365.3 87.9 L359.9 78.3 L355.2 68.4 L351 58.2 L347.6 47.8 L344.9 37.1 L342.9 26.3 L341.7 15.3 L341.2 4.4 L341.4 -6.6 L342.2 -17.6 L343.7 -28.5 L345.7 -39.3 L348.2 -50 L351.1 -60.6 L354.5 -71.1 L358.2 -81.5 L362.2 -91.7 L366.5 -101.8 L371 -111.9 L375.7 -121.8 L380.6 -131.6 L385.7 -141.4 L390.9 -151.1 L396.2 -160.7 L401.7 -170.3 L407.2 -179.8 L412.8 -189.3 L418.4 -198.7 L424.2 -208.1 L429.9 -217.5 L435.8 -226.8 L441.6 -236.1 L447.5 -245.4 L453.4 -254.7 L459.4 -263.9 L465.4 -273.1 L471.4 -282.3 L477.4 -291.5" fill="none" stroke="#f0f0f5" stroke-opacity="0.06" stroke-width="1.0" stroke-linecap="round"/><path d="M799.6 499.4 L789.3 503.3 L779.2 507.6 L769.2 512.3 L759.5 517.3 L749.9 522.8 L740.6 528.5 L731.4 534.7 L722.5 541.1 L713.8 547.8 L705.2 554.7 L696.9 562 L688.8 569.4 L680.9 577 L673.1 584.8 L665.5 592.8 L658.1 600.9 L650.8 609.1 L643.7 617.5 L636.7 625.9 L629.8 634.5 L623 643.2 L616.3 651.9 L609.7 660.7 L603.2 669.6 L596.7 678.5 L590.4 687.5 L584.1 696.5 L577.9 705.6 L571.7 714.7 L565.6 723.9 L559.6 733 L553.6 742.3 L547.7 751.5 L541.8 760.8 L535.9 770.1 L530.1 779.5 L524.4 788.9 L518.7 798.3 L513 807.7 L507.3 817.1 L501.7 826.6 L496.2 836.1 L490.6 845.6 L485.1 855.1 L479.6 864.6 L474.2 874.2 L468.8 883.8 L463.5 893.4 L458.1 903 L452.8 912.7 L447.6 922.3 L442.3 932 L437.2 941.7 L432 951.4 L426.9 961.1 L421.8 970.9 L416.7 980.7 L411.7 990.5 L406.8 1000.3 L401.8 1010.1 L396.9 1020" fill="none" stroke="#f0f0f5" stroke-opacity="0.07" stroke-width="1.0" stroke-linecap="round"/><path d="M927.8 749.3 L922.2 758.7 L916.6 768.2 L911.1 777.7 L905.8 787.3 L900.5 797 L895.5 806.8 L890.6 816.6 L885.9 826.6 L881.4 836.6 L877.1 846.7 L873 857 L869.3 867.3 L865.8 877.7 L862.6 888.3 L859.8 898.9 L857.4 909.6 L855.4 920.5 L854 931.4 L853 942.3 L852.6 953.3 L852.8 964.3 L853.7 975.3 L855.4 986.1 L857.8 996.9 L861.1 1007.4 L865.2 1017.6 L870.2 1027.3 L876.2 1036.6 L883 1045.2 L890.8 1053 L899.3 1060 L908.5 1065.9 L918.4 1070.9 L928.7 1074.7 L939.4 1077.3 L950.3 1078.9 L961.3 1079.4 L972.2 1078.8 L983.1 1077.4 L993.9 1075.1 L1004.5 1072 L1014.8 1068.2 L1024.9 1063.9 L1034.7 1059 L1044.4 1053.6 L1053.7 1047.8 L1062.9 1041.7 L1071.8 1035.3 L1080.5 1028.6 L1089 1021.6 L1097.3 1014.4 L1105.5 1007.1 L1113.6 999.6 L1121.4 991.9 L1129.2 984.1 L1136.8 976.2 L1144.4 968.2 L1151.8 960.1 L1159.2 951.9 L1166.4 943.6 L1173.6 935.3 L1180.8 926.9 L1187.8 918.5" fill="none" stroke="#f0f0f5" stroke-opacity="0.08" stroke-width="0.9" stroke-linecap="round"/><path d="M866 698.3 L856.3 703.5 L846.5 708.5 L836.6 713.4 L826.7 718.1 L816.7 722.7 L806.6 727.1 L796.5 731.4 L786.4 735.7 L776.2 739.9 L766 744 L755.8 748.1 L745.5 752.1 L735.3 756.2 L725.1 760.3 L714.9 764.5 L704.8 768.7 L694.7 773.1 L684.6 777.6 L674.7 782.2 L664.7 786.9 L654.9 791.8 L645.1 796.9 L635.5 802.2 L626 807.7 L616.6 813.4 L607.3 819.3 L598.1 825.4 L589.1 831.7 L580.2 838.2 L571.5 844.9 L562.9 851.8 L554.5 858.9 L546.3 866.2 L538.2 873.6 L530.2 881.2 L522.4 889 L514.8 896.9 L507.3 904.9 L499.9 913.1 L492.7 921.4 L485.6 929.8" fill="none" stroke="#f0f0f5" stroke-opacity="0.06" stroke-width="0.9" stroke-linecap="round"/><path d="M1579 396.8 L1584.4 387.2 L1589.7 377.6 L1595.1 368 L1600.5 358.5 L1605.9 348.9 L1611.4 339.3 L1616.8 329.8 L1622.3 320.2 L1627.8 310.7 L1633.3 301.2 L1638.8 291.6 L1644.3 282.1 L1649.8 272.6 L1655.3 263.1 L1660.8 253.6 L1666.4 244.1 L1671.9 234.6 L1677.4 225 L1683 215.5 L1688.5 206 L1694 196.5 L1699.6 187 L1705.1 177.5 L1710.6 168 L1716.2 158.5 L1721.7 149 L1727.2 139.5 L1732.7 130 L1738.2 120.4 L1743.8 110.9 L1749.3 101.4 L1754.8 91.9 L1760.2 82.3 L1765.7 72.8 L1771.2 63.3 L1776.7 53.7 L1782.2 44.2 L1787.6 34.6 L1793.1 25.1 L1798.5 15.5 L1804 6 L1809.4 -3.6 L1814.8 -13.2 L1820.3 -22.7 L1825.7 -32.3 L1831.1 -41.9 L1836.5 -51.5 L1841.9 -61 L1847.3 -70.6 L1852.7 -80.2 L1858.1 -89.8 L1863.5 -99.4 L1868.8 -109 L1874.2 -118.6 L1879.6 -128.2" fill="none" stroke="#f0f0f5" stroke-opacity="0.08" stroke-width="1.3" stroke-linecap="round"/><path d="M2.8 240.8 L13.2 244.3 L23.9 246.6 L34.9 247.7 L45.9 247.6 L56.8 246.4 L67.6 244.1 L78.1 240.9 L88.3 236.9 L98.3 232.1 L107.8 226.7 L117.1 220.7 L126 214.3 L134.5 207.4 L142.8 200.1 L150.8 192.6 L158.6 184.8 L166.1 176.8 L173.4 168.5 L180.5 160.1 L187.4 151.6 L194.2 142.9 L200.8 134.2 L207.4 125.3 L213.8 116.4 L220.1 107.3 L226.3 98.3 L232.5 89.2 L238.6 80 L244.6 70.8 L250.6 61.6 L256.6 52.4 L262.5 43.1 L268.4 33.8 L274.3 24.5 L280.2 15.2 L286.1 5.9 L291.9 -3.4" fill="none" stroke="#f0f0f5" stroke-opacity="0.15" stroke-width="1.1" stroke-linecap="round"/><path d="M299.3 451.4 L299.6 440.4 L299.4 429.4 L298.7 418.4 L297.5 407.5 L295.8 396.6 L293.7 385.8 L291.2 375.1 L288.3 364.5 L285.2 354 L281.8 343.5 L278.3 333.1 L274.6 322.7 L270.9 312.3 L267.2 302 L263.6 291.6 L260.2 281.1 L256.9 270.6 L253.9 260.1 L251.2 249.4 L248.8 238.7 L246.8 227.8 L245.2 217 L244.1 206 L243.4 195 L243.2 184 L243.4 173 L244.1 162.1 L245.2 151.1 L246.8 140.2 L248.7 129.4 L251 118.7 L253.7 108 L256.7 97.4 L260 86.9 L263.6 76.5 L267.4 66.2" fill="none" stroke="#f0f0f5" stroke-opacity="0.05" stroke-width="1.1" stroke-linecap="round"/><path d="M757.7 24.9 L762.3 14.9 L766.4 4.7 L770.1 -5.6 L773.1 -16.2 L775.6 -26.9 L777.2 -37.8 L778 -48.8 L777.8 -59.8 L776.6 -70.7 L774.2 -81.5 L770.6 -91.9 L765.9 -101.8 L760.1 -111.1 L753.2 -119.7 L745.5 -127.5 L737 -134.5 L727.9 -140.7 L718.3 -146.1 L708.4 -150.8 L698.2 -155 L687.8 -158.7 L677.3 -162 L666.8 -165.2 L656.2 -168.1 L645.6 -171.1 L635.1 -174.2 L624.5 -177.4 L614.1 -180.9 L603.8 -184.9 L593.8 -189.3 L584 -194.2 L574.5 -199.9 L565.5 -206.2 L557.1 -213.3 L549.4 -221.1 L542.5 -229.7 L536.6 -239 L531.7 -248.9 L527.9 -259.2 L525.3 -269.9 L523.7 -280.8 L523.2 -291.7 L523.6 -302.7 L524.9 -313.7 L527 -324.5 L529.7 -335.1 L533 -345.6 L536.7 -356 L540.9 -366.1 L545.4 -376.2 L550.2 -386.1 L555.2 -395.8 L560.5 -405.5 L565.9 -415.1" fill="none" stroke="#f0f0f5" stroke-opacity="0.12" stroke-width="1.0" stroke-linecap="round"/><path d="M565.5 163.3 L563 152.6 L559.6 142.1 L555.2 132 L550 122.3 L544 113.1 L537.4 104.3 L530.2 96.1 L522.4 88.2 L514.4 80.7 L506 73.6 L497.4 66.7 L488.7 60 L480 53.3 L471.3 46.6 L462.6 39.8 L454.2 32.8 L445.9 25.5 L438 17.9 L430.5 9.8 L423.4 1.4 L416.9 -7.5 L411.1 -16.8 L406 -26.6 L401.8 -36.7 L398.3 -47.2 L395.8 -57.9 L394.1 -68.7 L393.2 -79.7 L393.2 -90.7 L393.9 -101.7 L395.2 -112.6 L397.3 -123.4 L399.8 -134.1 L402.9 -144.7 L406.4 -155.1 L410.2 -165.4 L414.4 -175.6 L418.9 -185.6 L423.6 -195.6 L428.5 -205.4 L433.6 -215.2 L438.8 -224.9 L444.2 -234.4 L449.7 -244 L455.3 -253.5 L460.9 -262.9" fill="none" stroke="#f0f0f5" stroke-opacity="0.05" stroke-width="1.1" stroke-linecap="round"/><path d="M311.5 799.4 L320.5 805.7 L328.9 812.8 L336.4 820.8 L343.1 829.6 L348.9 838.9 L353.9 848.7 L357.9 859 L361.2 869.5 L363.7 880.2 L365.4 891 L366.6 902 L367.2 913 L367.2 924 L366.8 935 L366 945.9 L364.8 956.9 L363.3 967.8 L361.5 978.6 L359.5 989.4 L357.3 1000.2 L354.9 1010.9 L352.3 1021.6 L349.6 1032.3 L346.8 1042.9 L343.8 1053.5 L340.8 1064.1 L337.6 1074.6 L334.4 1085.2 L331.2 1095.7 L327.9 1106.2 L324.6 1116.6 L321.2 1127.1 L317.8 1137.6 L314.4 1148.1 L311 1158.5 L307.6 1169 L304.2 1179.4 L300.8 1189.9 L297.5 1200.4 L294.1 1210.8 L290.8 1221.3 L287.5 1231.8 L284.2 1242.3 L281 1252.8 L277.8 1263.4 L274.6 1273.9 L271.5 1284.4 L268.4 1295 L265.4 1305.6 L262.5 1316.2" fill="none" stroke="#f0f0f5" stroke-opacity="0.10" stroke-width="0.9" stroke-linecap="round"/><path d="M615.3 666.8 L608.3 675.3 L601.4 683.9 L594.6 692.5 L587.9 701.3 L581.3 710.1 L574.8 718.9 L568.4 727.9 L562.1 736.9 L555.8 745.9 L549.6 755 L543.5 764.2 L537.5 773.4 L531.5 782.6 L525.6 791.9 L519.7 801.2 L513.9 810.5 L508.1 819.9 L502.4 829.2 L496.7 838.7 L491.1 848.1 L485.5 857.6 L479.9 867.1 L474.4 876.6 L468.9 886.1 L463.5 895.7 L458.1 905.3 L452.8 914.9 L447.5 924.6 L442.2 934.2 L437 943.9 L431.8 953.6 L426.6 963.3 L421.5 973 L416.4 982.8 L411.4 992.6 L406.4 1002.4 L401.4 1012.2 L396.5 1022 L391.6 1031.9" fill="none" stroke="#f0f0f5" stroke-opacity="0.12" stroke-width="0.9" stroke-linecap="round"/><path d="M721.3 733.3 L711.1 737.3 L700.9 741.4 L690.7 745.7 L680.7 750.2 L670.7 754.8 L660.9 759.7 L651.1 764.8 L641.5 770.1 L631.9 775.6 L622.6 781.4 L613.3 787.3 L604.3 793.5 L595.3 800 L586.6 806.6 L578 813.5 L569.5 820.5 L561.2 827.8 L553.1 835.2 L545.2 842.8 L537.4 850.6 L529.7 858.5 L522.2 866.5 L514.9 874.7 L507.7 883 L500.6 891.5 L493.7 900 L486.9 908.6 L480.2 917.4 L473.6 926.2 L467.2 935.1 L460.9 944.1 L454.6 953.2 L448.5 962.3 L442.5 971.5 L436.5 980.8 L430.7 990.1 L424.9 999.4 L419.2 1008.9 L413.7 1018.3 L408.1 1027.9 L402.7 1037.4 L397.4 1047 L392.1 1056.7 L386.9 1066.4 L381.8 1076.1 L376.7 1085.9 L371.7 1095.7 L366.8 1105.5 L361.9 1115.4 L357.2 1125.3 L352.4 1135.2 L347.8 1145.2 L343.2 1155.2 L338.7 1165.3 L334.3 1175.3 L329.9 1185.4 L325.6 1195.6 L321.4 1205.7" fill="none" stroke="#f0f0f5" stroke-opacity="0.12" stroke-width="0.8" stroke-linecap="round"/><path d="M927.2 243.2 L917.7 248.8 L908.5 254.7 L899.5 261 L890.7 267.7 L882.2 274.6 L873.8 281.8 L865.7 289.3 L857.8 296.9 L850.1 304.7 L842.5 312.7 L835.1 320.8 L827.9 329.1 L820.7 337.4 L813.7 345.9 L806.7 354.4 L799.9 363 L793.1 371.7 L786.4 380.4 L779.8 389.2 L773.2 398.1 L766.7 406.9 L760.3 415.8 L753.9 424.8 L747.5 433.7 L741.2 442.7 L734.9 451.7 L728.6 460.8 L722.4 469.9 L716.2 478.9 L710 488 L703.8 497.2 L697.7 506.3 L691.6 515.4 L685.5 524.6 L679.4 533.8 L673.4 543 L667.4 552.2 L661.3 561.4 L655.4 570.6 L649.4 579.8 L643.4 589.1 L637.5 598.4 L631.6 607.6 L625.7 616.9 L619.8 626.2 L613.9 635.5 L608.1 644.8 L602.3 654.2 L596.5 663.5 L590.7 672.9 L584.9 682.2 L579.1 691.6 L573.4 701 L567.7 710.4 L562 719.8 L556.3 729.2 L550.6 738.6 L545 748.1" fill="none" stroke="#f0f0f5" stroke-opacity="0.12" stroke-width="0.9" stroke-linecap="round"/><path d="M583 841.3 L574.2 847.9 L565.6 854.7 L557.1 861.6 L548.7 868.8 L540.5 876.1 L532.5 883.6 L524.6 891.3 L516.9 899.1 L509.3 907.1 L501.8 915.2 L494.5 923.4 L487.4 931.8 L480.3 940.2 L473.5 948.8 L466.7 957.5 L460.1 966.3 L453.5 975.1 L447.1 984.1 L440.9 993.1 L434.7 1002.2 L428.6 1011.4 L422.6 1020.6 L416.8 1029.9 L411 1039.3 L405.3 1048.7 L399.7 1058.2 L394.2 1067.7 L388.8 1077.3 L383.5 1086.9 L378.3 1096.6 L373.1 1106.3 L368.1 1116.1 L363.1 1125.9 L358.2 1135.7 L353.3 1145.6 L348.6 1155.5 L343.9 1165.5 L339.3 1175.5 L334.8 1185.5 L330.4 1195.6 L326 1205.7 L321.7 1215.8 L317.5 1226 L313.4 1236.2 L309.4 1246.4 L305.4 1256.7 L301.6 1267 L297.8 1277.3 L294.1 1287.7 L290.4 1298.1 L286.9 1308.5 L283.5 1318.9" fill="none" stroke="#f0f0f5" stroke-opacity="0.05" stroke-width="1.2" stroke-linecap="round"/><path d="M256.5 -34.1 L266.7 -38.4 L276.4 -43.5 L285.7 -49.3 L294.7 -55.7 L303.3 -62.6 L311.5 -69.9 L319.5 -77.5 L327.2 -85.3 L334.6 -93.4 L341.9 -101.7 L349 -110.1 L355.9 -118.6 L362.7 -127.3 L369.4 -136 L375.9 -144.8 L382.4 -153.7 L388.8 -162.7 L395.2 -171.6 L401.5 -180.6 L407.8 -189.7 L414 -198.7 L420.2 -207.8 L426.4 -216.9 L432.6 -226 L438.7 -235.1 L444.9 -244.3 L451 -253.4 L457.2 -262.5 L463.3 -271.7 L469.4 -280.8 L475.6 -289.9 L481.7 -299.1 L487.8 -308.2 L494 -317.3 L500.1 -326.4 L506.3 -335.6 L512.4 -344.7 L518.6 -353.8 L524.8 -362.9 L530.9 -372 L537.1 -381.1 L543.3 -390.2 L549.5 -399.3 L555.7 -408.4 L561.9 -417.4 L568.1 -426.5 L574.3 -435.6" fill="none" stroke="#f0f0f5" stroke-opacity="0.14" stroke-width="1.3" stroke-linecap="round"/><path d="M-41 181.8 L-35.4 191.2 L-28.8 200.1 L-21.5 208.2 L-13.3 215.6 L-4.3 221.9 L5.3 227.2 L15.5 231.4 L26.2 234.3 L37 235.9 L48 236.4 L59 235.7 L69.8 233.9 L80.5 231.1 L90.9 227.4 L100.9 223 L110.6 217.8 L120 212.1 L129 205.8 L137.7 199.1 L146.1 192 L154.3 184.5 L162.1 176.8 L169.7 168.9 L177.1 160.7 L184.3 152.4 L191.3 143.9 L198.1 135.3 L204.8 126.6 L211.4 117.7 L217.8 108.8 L224.2 99.9 L230.4 90.8 L236.6 81.7 L242.8 72.6 L248.8 63.4 L254.9 54.2" fill="none" stroke="#dd8568" stroke-opacity="0.41" stroke-width="1.3" stroke-linecap="round"/><path d="M256.5 658.3 L265.3 651.7 L274.2 645.2 L283.2 638.9 L292.3 632.7 L301.5 626.8 L310.9 621.1 L320.5 615.6 L330.2 610.5 L340.1 605.7 L350.2 601.3 L360.5 597.4 L371 594.1 L381.7 591.5 L392.5 589.6 L403.4 588.5 L414.4 588.4 L425.4 589.4 L436.2 591.5 L446.7 594.8 L456.7 599.3 L466.1 605.1 L474.6 612 L482.2 619.9 L488.8 628.7 L494.3 638.3 L498.7 648.4 L502 658.8 L504.4 669.6 L505.9 680.5 L506.6 691.5 L506.5 702.5 L505.8 713.4 L504.6 724.4 L502.9 735.2 L500.8 746 L498.4 756.8 L495.6 767.4 L492.5 778 L489.3 788.5 L485.8 798.9 L482.1 809.3 L478.3 819.6 L474.4 829.9 L470.3 840.1 L466.1 850.3 L461.9 860.4 L457.6 870.5 L453.2 880.6 L448.8 890.7 L444.3 900.8 L439.8 910.8 L435.3 920.8 L430.7 930.8" fill="none" stroke="#f0f0f5" stroke-opacity="0.14" stroke-width="1.2" stroke-linecap="round"/><path d="M972.5 912.3 L979.8 920.5 L988 927.8 L996.9 934.2 L1006.6 939.5 L1016.7 943.7 L1027.3 946.8 L1038.1 948.7 L1049.1 949.5 L1060.1 949.2 L1071 948 L1081.8 945.9 L1092.4 943 L1102.8 939.5 L1113 935.2 L1122.9 930.5 L1132.6 925.2 L1142 919.5 L1151.2 913.5 L1160.2 907.1 L1168.9 900.5 L1177.5 893.6 L1185.9 886.5 L1194.1 879.2 L1202.2 871.7 L1210.1 864.1 L1217.9 856.3 L1225.6 848.4 L1233.1 840.4 L1240.6 832.3 L1248 824.2 L1255.2 815.9 L1262.4 807.6 L1269.6 799.2 L1276.6 790.8 L1283.6 782.3 L1290.6 773.8 L1297.5 765.2 L1304.3 756.6 L1311.1 747.9" fill="none" stroke="#f0f0f5" stroke-opacity="0.13" stroke-width="0.9" stroke-linecap="round"/><path d="M1587.6 864.4 L1594.3 855.6 L1601.2 847.1 L1608.3 838.6 L1615.5 830.3 L1622.9 822.2 L1630.5 814.3 L1638.3 806.5 L1646.4 799 L1654.6 791.7 L1663.1 784.7 L1671.8 778 L1680.8 771.6 L1690 765.6 L1699.5 760 L1709.2 754.9 L1719.1 750.2 L1729.3 746.1 L1739.7 742.5 L1750.3 739.6 L1761.1 737.3 L1772 735.8 L1783 735.1 L1794 735.1 L1804.9 736 L1815.8 737.8 L1826.5 740.4 L1836.9 743.8 L1847.1 748 L1856.9 753 L1866.3 758.7 L1875.3 765 L1883.8 772 L1891.9 779.4 L1899.5 787.4 L1906.7 795.7 L1913.4 804.5 L1919.7 813.5 L1925.6 822.7 L1931.2 832.2 L1936.4 841.9 L1941.4 851.7 L1946 861.7 L1950.5 871.7 L1954.7 881.9 L1958.8 892.1" fill="none" stroke="#f0f0f5" stroke-opacity="0.11" stroke-width="0.9" stroke-linecap="round"/><path d="M1177.3 99.3 L1166.3 98.5 L1155.3 97.8 L1144.3 97.2 L1133.3 96.7 L1122.4 96.5 L1111.4 96.7 L1100.4 97.2 L1089.4 98.2 L1078.5 99.6 L1067.7 101.6 L1057 104.2 L1046.4 107.3 L1036.1 110.9 L1025.9 115.1 L1015.9 119.8 L1006.3 125 L996.8 130.7 L987.6 136.7 L978.7 143.1 L970 149.9 L961.5 156.9 L953.3 164.2 L945.2 171.7 L937.4 179.4 L929.7 187.2 L922.2 195.3 L914.8 203.4 L907.5 211.7 L900.4 220.1 L893.4 228.5 L886.4 237.1 L879.6 245.6 L872.8 254.3 L866.1 263 L859.4 271.8 L852.8 280.6 L846.2 289.4 L839.7 298.2 L833.2 307.1 L826.8 316.1 L820.4 325 L814 333.9 L807.6 342.9 L801.3 351.9 L795 360.9 L788.7 370 L782.4 379 L776.2 388.1 L770 397.1 L763.7 406.2 L757.6 415.3 L751.4 424.4 L745.2 433.5 L739.1 442.6 L732.9 451.8 L726.8 460.9 L720.7 470 L714.6 479.2 L708.5 488.4" fill="none" stroke="#f0f0f5" stroke-opacity="0.09" stroke-width="0.8" stroke-linecap="round"/><path d="M269.4 500.6 L271.1 489.7 L272.3 478.8 L273 467.8 L273.2 456.8 L273 445.8 L272.3 434.8 L271.2 423.9 L269.6 413 L267.7 402.2 L265.5 391.4 L263 380.7 L260.3 370 L257.4 359.4 L254.4 348.8 L251.3 338.2 L248.3 327.7 L245.3 317.1 L242.4 306.5 L239.7 295.8 L237.2 285.1 L234.9 274.3 L233 263.5 L231.4 252.6 L230.2 241.7 L229.3 230.7 L228.9 219.7 L228.9 208.7 L229.3 197.8 L230.1 186.8 L231.3 175.8 L233 165 L234.9 154.2 L237.3 143.4 L240 132.7 L242.9 122.1 L246.2 111.6 L249.8 101.2 L253.5 90.9 L257.5 80.6 L261.7 70.5 L266.1 60.4 L270.6 50.4 L275.3 40.4 L280.1 30.5 L285.1 20.7 L290.1 10.9 L295.2 1.2 L300.5 -8.5 L305.8 -18.1 L311.1 -27.7 L316.6 -37.3 L322.1 -46.8 L327.6 -56.3 L333.2 -65.8 L338.9 -75.2 L344.5 -84.7 L350.2 -94.1 L356 -103.4" fill="none" stroke="#f0f0f5" stroke-opacity="0.08" stroke-width="0.7" stroke-linecap="round"/><path d="M1356.1 219.2 L1355.2 230.2 L1355.1 241.2 L1355.7 252.2 L1357.1 263.1 L1359.5 273.8 L1362.9 284.3 L1367.4 294.3 L1372.9 303.8 L1379.6 312.6 L1387.2 320.5 L1395.8 327.3 L1405.3 333 L1415.3 337.5 L1425.8 340.7 L1436.7 342.6 L1447.6 343.3 L1458.6 342.9 L1469.5 341.5 L1480.3 339.2 L1490.8 336.1 L1501.2 332.3 L1511.2 327.8 L1521 322.8 L1530.6 317.3 L1539.9 311.5 L1548.9 305.2 L1557.8 298.7 L1566.4 291.9 L1574.8 284.8 L1583.1 277.5 L1591.1 270.1 L1599.1 262.4 L1606.8 254.6 L1614.5 246.7 L1622 238.7 L1629.4 230.5 L1636.6 222.3 L1643.8 213.9 L1650.9 205.5 L1657.9 197 L1664.8 188.5 L1671.6 179.8 L1678.4 171.1 L1685 162.4 L1691.6 153.6 L1698.2 144.8 L1704.7 135.9 L1711.1 127 L1717.5 118 L1723.9 109 L1730.1 100 L1736.4 90.9 L1742.6 81.9" fill="none" stroke="#f0f0f5" stroke-opacity="0.12" stroke-width="1.0" stroke-linecap="round"/><path d="M849 727.5 L839.5 733.1 L829.9 738.5 L820.3 743.7 L810.6 748.8 L800.8 753.9 L790.9 758.8 L781 763.6 L771.1 768.3 L761.1 773 L751.1 777.6 L741.1 782.1 L731.1 786.7 L721.1 791.2 L711.1 795.8 L701.1 800.4 L691.1 805 L681.2 809.8 L671.3 814.6 L661.5 819.5 L651.7 824.6 L642 829.8 L632.4 835.1 L622.9 840.7 L613.5 846.3 L604.1 852.2 L594.9 858.2 L585.9 864.4 L576.9 870.8 L568.1 877.3 L559.4 884.1 L550.8 891 L542.4 898.1 L534.2 905.4 L526.1 912.8 L518.1 920.4 L510.3 928.1 L502.6 936 L495.1 944 L487.7 952.2 L480.4 960.5 L473.3 968.8 L466.3 977.3 L459.5 986 L452.8 994.7 L446.2 1003.5 L439.7 1012.4 L433.4 1021.4 L427.1 1030.4 L421 1039.6 L415 1048.8 L409.1 1058.1 L403.3 1067.4 L397.6 1076.8 L392 1086.3 L386.5 1095.8 L381.1 1105.4 L375.8 1115 L370.6 1124.7 L365.4 1134.4 L360.4 1144.2 L355.4 1154" fill="none" stroke="#f0f0f5" stroke-opacity="0.09" stroke-width="1.0" stroke-linecap="round"/><path d="M237.8 758.5 L248.7 756.6 L259.6 755.4 L270.6 755 L281.6 755.4 L292.5 756.6 L303.3 758.9 L313.8 762.1 L323.9 766.4 L333.5 771.8 L342.5 778.1 L350.8 785.4 L358.2 793.5 L364.7 802.4 L370.4 811.8 L375.1 821.8 L378.9 832.1 L381.9 842.7 L384.1 853.4 L385.6 864.3 L386.5 875.3 L386.7 886.3 L386.5 897.3 L385.8 908.3 L384.8 919.2 L383.3 930.1 L381.6 941 L379.6 951.8 L377.3 962.6 L374.9 973.3 L372.2 984 L369.4 994.6 L366.5 1005.2 L363.4 1015.8 L360.3 1026.3 L357 1036.8 L353.7 1047.3 L350.3 1057.7 L346.8 1068.2 L343.3 1078.6 L339.8 1089 L336.2 1099.4 L332.7 1109.9 L329.1 1120.2 L325.5 1130.6 L321.9 1141 L318.3 1151.4 L314.7 1161.8 L311.1 1172.2 L307.5 1182.6 L304 1193 L300.5 1203.5 L297 1213.9 L293.5 1224.3 L290.1 1234.8 L286.7 1245.3 L283.4 1255.8 L280.1 1266.3 L276.9 1276.8" fill="none" stroke="#f0f0f5" stroke-opacity="0.11" stroke-width="0.8" stroke-linecap="round"/><path d="M7 784.1 L13.8 775.5 L20.5 766.7 L27 757.8 L33.3 748.8 L39.4 739.7 L45.4 730.5 L51.1 721.1 L56.7 711.6 L62.1 702 L67.2 692.3 L72.1 682.4 L76.8 672.5 L81.3 662.4 L85.5 652.3 L89.5 642 L93.2 631.7 L96.7 621.2 L99.9 610.7 L103 600.1 L105.8 589.5 L108.3 578.8 L110.7 568.1 L112.8 557.3 L114.8 546.5 L116.6 535.6 L118.2 524.7 L119.7 513.8 L121.1 502.9 L122.4 492 L123.7 481.1 L124.8 470.1 L126 459.2 L127.2 448.3 L128.4 437.3 L129.6 426.4 L130.9 415.5" fill="none" stroke="#f0f0f5" stroke-opacity="0.15" stroke-width="0.9" stroke-linecap="round"/><path d="M263.6 695.8 L273.8 691.7 L284.2 688.2 L294.8 685.1 L305.5 682.7 L316.4 680.9 L327.3 679.9 L338.3 679.8 L349.3 680.6 L360.1 682.4 L370.7 685.3 L381 689.3 L390.7 694.5 L399.7 700.8 L408 708 L415.3 716.2 L421.7 725.2 L427.1 734.8 L431.5 744.9 L434.9 755.3 L437.5 766 L439.2 776.9 L440.2 787.8 L440.5 798.8 L440.3 809.8 L439.5 820.8 L438.3 831.7 L436.6 842.6 L434.7 853.4 L432.4 864.2 L429.8 874.9 L427 885.5 L424 896.1 L420.9 906.6 L417.6 917.1 L414.1 927.6 L410.5 938 L406.9 948.3" fill="none" stroke="#f0f0f5" stroke-opacity="0.07" stroke-width="0.8" stroke-linecap="round"/><path d="M461 485 L471.7 482.1 L482.5 480.1 L493.4 479.1 L504.4 479.1 L515.4 480.3 L526.1 482.8 L536.4 486.6 L546.1 491.8 L555 498.3 L562.9 505.9 L569.7 514.6 L575.3 524 L579.7 534.1 L582.9 544.6 L585.1 555.4 L586.2 566.3 L586.6 577.3 L586.1 588.3 L585 599.3 L583.3 610.1 L581.1 620.9 L578.5 631.6 L575.5 642.2 L572.2 652.7 L568.7 663.1 L564.9 673.4 L560.9 683.7 L556.8 693.9 L552.5 704 L548 714.1 L543.5 724.1 L538.8 734.1 L534.1 744 L529.3 753.9 L524.5 763.8 L519.6 773.6 L514.7 783.5 L509.7 793.3 L504.7 803.1 L499.7 812.8 L494.6 822.6 L489.6 832.4 L484.5 842.2 L479.4 851.9 L474.4 861.7 L469.3 871.4 L464.2 881.2 L459.2 891 L454.1 900.8 L449.1 910.5 L444.1 920.3 L439.1 930.1 L434.1 939.9 L429.1 949.7 L424.2 959.6 L419.2 969.4 L414.3 979.2 L409.5 989.1 L404.6 999 L399.8 1008.9 L395 1018.8 L390.3 1028.7" fill="none" stroke="#f0f0f5" stroke-opacity="0.14" stroke-width="0.8" stroke-linecap="round"/><path d="M1102.2 92.1 L1091.2 93.2 L1080.3 94.7 L1069.5 96.8 L1058.8 99.4 L1048.3 102.6 L1038 106.4 L1027.8 110.7 L1017.9 115.5 L1008.3 120.7 L998.9 126.4 L989.7 132.5 L980.8 139 L972.2 145.8 L963.8 152.9 L955.5 160.2 L947.5 167.7 L939.7 175.5 L932.1 183.4 L924.6 191.4 L917.2 199.6 L910 207.9 L902.8 216.3 L895.8 224.7 L888.9 233.3 L882 241.9 L875.3 250.5 L868.5 259.3 L861.9 268 L855.3 276.8 L848.7 285.6 L842.2 294.5 L835.7 303.4 L829.3 312.3 L822.9 321.2 L816.5 330.2 L810.1 339.2 L803.8 348.2 L797.5 357.2 L791.2 366.2 L785 375.3 L778.7 384.3 L772.5 393.4 L766.3 402.4 L760.1 411.5 L753.9 420.6 L747.7 429.7 L741.6 438.9 L735.4 448 L729.3 457.1 L723.2 466.3 L717.1 475.4 L711 484.6 L704.9 493.8 L698.9 503 L692.8 512.2 L686.8 521.4 L680.8 530.6 L674.8 539.8 L668.8 549" fill="none" stroke="#f0f0f5" stroke-opacity="0.11" stroke-width="1.3" stroke-linecap="round"/><path d="M22 329.5 L32.3 325.7 L42.3 321.2 L52.1 316 L61.4 310.3 L70.5 304.1 L79.3 297.4 L87.8 290.4 L95.9 283 L103.9 275.4 L111.5 267.5 L119 259.4 L126.2 251.2 L133.3 242.7 L140.2 234.1 L146.9 225.4 L153.5 216.6 L159.9 207.7 L166.3 198.7 L172.5 189.7 L178.7 180.6 L184.8 171.4 L190.8 162.2 L196.8 153 L202.7 143.7 L208.5 134.4 L214.4 125 L220.2 115.7 L225.9 106.3 L231.7 97 L237.4 87.6 L243.2 78.2 L248.9 68.8 L254.6 59.4 L260.3 50 L266 40.6 L271.8 31.2 L277.5 21.8 L283.2 12.4 L288.9 3 L294.7 -6.3 L300.4 -15.7 L306.2 -25.1 L312 -34.5 L317.8 -43.8 L323.6 -53.2 L329.4 -62.5 L335.2 -71.8 L341 -81.2 L346.9 -90.5 L352.7 -99.8 L358.6 -109.1 L364.5 -118.4 L370.4 -127.7 L376.3 -137 L382.2 -146.2 L388.1 -155.5 L394.1 -164.8 L400 -174 L406 -183.3" fill="none" stroke="#dd8568" stroke-opacity="0.60" stroke-width="1.3" stroke-linecap="round"/><path d="M1587.6 70.4 L1598.3 73 L1609.2 74.3 L1620.2 74.4 L1631.2 73.4 L1642 71.4 L1652.6 68.4 L1662.9 64.7 L1673 60.4 L1682.8 55.4 L1692.4 49.9 L1701.6 44 L1710.7 37.7 L1719.4 31.1 L1728 24.1 L1736.3 17 L1744.5 9.6 L1752.4 2 L1760.2 -5.8 L1767.9 -13.7 L1775.3 -21.8 L1782.7 -29.9 L1789.9 -38.2 L1797 -46.6 L1804 -55.1 L1810.9 -63.7 L1817.7 -72.3 L1824.5 -81 L1831.1 -89.8 L1837.7 -98.6 L1844.1 -107.5 L1850.6 -116.4 L1856.9 -125.4 L1863.2 -134.4 L1869.4 -143.5 L1875.6 -152.6 L1881.8 -161.7 L1887.9 -170.9 L1893.9 -180.1 L1899.9 -189.3 L1905.9 -198.5 L1911.8 -207.8 L1917.7 -217.1 L1923.6 -226.4 L1929.4 -235.7 L1935.2 -245 L1941 -254.4" fill="none" stroke="#f0f0f5" stroke-opacity="0.14" stroke-width="0.8" stroke-linecap="round"/><path d="M1100.8 827.1 L1111.4 829.8 L1122.3 831.4 L1133.3 831.8 L1144.3 831.2 L1155.2 829.7 L1165.9 827.3 L1176.5 824.2 L1186.8 820.3 L1196.9 815.9 L1206.7 810.9 L1216.3 805.5 L1225.6 799.7 L1234.7 793.6 L1243.6 787.1 L1252.3 780.4 L1260.8 773.4 L1269.1 766.2 L1277.3 758.8 L1285.3 751.3 L1293.2 743.6 L1300.9 735.8 L1308.6 727.9 L1316.1 719.9 L1323.5 711.7 L1330.8 703.5 L1338.1 695.3 L1345.2 686.9 L1352.3 678.5 L1359.4 670 L1366.3 661.5 L1373.2 653 L1380.1 644.3 L1386.9 635.7 L1393.6 627 L1400.3 618.3 L1407 609.5 L1413.6 600.8 L1420.2 592 L1426.8 583.1 L1433.3 574.3 L1439.8 565.4 L1446.3 556.5 L1452.7 547.6 L1459.1 538.7 L1465.5 529.7 L1471.9 520.7 L1478.2 511.8 L1484.6 502.8 L1490.9 493.7 L1497.2 484.7 L1503.4 475.7 L1509.7 466.6 L1515.9 457.6 L1522.1 448.5 L1528.3 439.4" fill="none" stroke="#f0f0f5" stroke-opacity="0.14" stroke-width="1.1" stroke-linecap="round"/><path d="M1135.3 745.6 L1145.4 750.1 L1155.8 753.5 L1166.6 755.7 L1177.6 756.7 L1188.6 756.7 L1199.5 755.7 L1210.3 753.8 L1221 751 L1231.4 747.5 L1241.6 743.4 L1251.6 738.7 L1261.3 733.5 L1270.8 727.9 L1280 722 L1289 715.7 L1297.8 709.1 L1306.4 702.2 L1314.8 695.1 L1323.1 687.9 L1331.2 680.4 L1339.1 672.8 L1346.9 665.1 L1354.6 657.2 L1362.2 649.2 L1369.7 641.1 L1377 633 L1384.3 624.7 L1391.5 616.4 L1398.6 608 L1405.7 599.6 L1412.7 591.1 L1419.6 582.5 L1426.4 573.9 L1433.3 565.3 L1440 556.6 L1446.7 547.9 L1453.4 539.1 L1460 530.4 L1466.6 521.5 L1473.1 512.7 L1479.6 503.8 L1486.1 495 L1492.6 486 L1499 477.1 L1505.4 468.2 L1511.7 459.2 L1518.1 450.2 L1524.4 441.2 L1530.7 432.2 L1536.9 423.1 L1543.2 414.1 L1549.4 405 L1555.6 395.9 L1561.8 386.8 L1568 377.7 L1574.1 368.6 L1580.2 359.4 L1586.3 350.3 L1592.4 341.1 L1598.5 331.9 L1604.5 322.8 L1610.6 313.6 L1616.6 304.4" fill="none" stroke="#f0f0f5" stroke-opacity="0.06" stroke-width="0.9" stroke-linecap="round"/><path d="M495.3 963.8 L487.8 971.9 L480.4 980 L473.1 988.3 L466 996.6 L459 1005.1 L452.2 1013.7 L445.4 1022.4 L438.8 1031.2 L432.3 1040.1 L426 1049.1 L419.7 1058.1 L413.6 1067.3 L407.6 1076.5 L401.7 1085.8 L395.9 1095.1 L390.2 1104.5 L384.7 1114 L379.2 1123.6 L373.8 1133.2 L368.5 1142.8 L363.4 1152.5 L358.3 1162.3 L353.3 1172.1 L348.4 1181.9 L343.6 1191.8 L338.9 1201.8 L334.3 1211.8 L329.8 1221.8 L325.4 1231.9 L321.1 1242 L316.8 1252.2 L312.7 1262.3 L308.7 1272.6 L304.7 1282.8 L300.9 1293.2 L297.1 1303.5 L293.5 1313.9 L289.9 1324.3 L286.5 1334.7 L283.1 1345.2 L279.9 1355.7 L276.8 1366.3 L273.8 1376.8 L270.9 1387.5 L268.1 1398.1 L265.4 1408.8 L262.9 1419.5 L260.5 1430.2 L258.2 1441 L256.1 1451.8" fill="none" stroke="#f0f0f5" stroke-opacity="0.09" stroke-width="0.9" stroke-linecap="round"/><path d="M1006.5 356.5 L995.5 356.7 L984.5 356.9 L973.5 357.2 L962.5 357.6 L951.5 358.2 L940.5 359 L929.6 360.1 L918.7 361.6 L907.8 363.5 L897.1 365.7 L886.4 368.5 L875.9 371.6 L865.5 375.3 L855.3 379.4 L845.3 384 L835.5 389 L825.9 394.4 L816.6 400.2 L807.5 406.4 L798.6 412.9 L789.9 419.6 L781.5 426.7 L773.3 434 L765.3 441.5 L757.4 449.2 L749.8 457.1 L742.2 465.2 L734.9 473.4 L727.7 481.7 L720.6 490.1 L713.6 498.6 L706.7 507.2 L700 515.8 L693.3 524.6 L686.7 533.4 L680.1 542.2 L673.7 551.1 L667.3 560.1 L660.9 569.1 L654.7 578.1 L648.4 587.1 L642.2 596.2 L636.1 605.4 L630 614.5 L623.9 623.7" fill="none" stroke="#f0f0f5" stroke-opacity="0.07" stroke-width="1.0" stroke-linecap="round"/><path d="M1204.2 841.3 L1213 834.7 L1221.6 827.9 L1230 820.8 L1238.3 813.6 L1246.4 806.1 L1254.4 798.5 L1262.2 790.8 L1269.9 783 L1277.5 775 L1285 766.9 L1292.4 758.8 L1299.7 750.5 L1306.9 742.2 L1314 733.9 L1321.1 725.4 L1328.1 717 L1335 708.4 L1341.9 699.9 L1348.8 691.2 L1355.6 682.6 L1362.3 673.9 L1369 665.2 L1375.7 656.4 L1382.3 647.7 L1388.9 638.9 L1395.5 630 L1402 621.2 L1408.5 612.3 L1415 603.4 L1421.5 594.5 L1427.9 585.6 L1434.3 576.7 L1440.7 567.7 L1447.1 558.7 L1453.4 549.8 L1459.7 540.8 L1466 531.8 L1472.3 522.7 L1478.6 513.7 L1484.9 504.7 L1491.1 495.6 L1497.3 486.5 L1503.6 477.5 L1509.8 468.4 L1515.9 459.3 L1522.1 450.2 L1528.3 441 L1534.4 431.9 L1540.5 422.8 L1546.6 413.6 L1552.7 404.5 L1558.8 395.3 L1564.9 386.1 L1571 377 L1577 367.8" fill="none" stroke="#f0f0f5" stroke-opacity="0.13" stroke-width="0.7" stroke-linecap="round"/><path d="M390.4 -13.3 L386.8 -23.7 L384.1 -34.4 L382.2 -45.2 L381.1 -56.1 L380.8 -67.1 L381.3 -78.1 L382.5 -89.1 L384.3 -99.9 L386.6 -110.7 L389.5 -121.3 L392.8 -131.8 L396.5 -142.1 L400.5 -152.4 L404.9 -162.5 L409.5 -172.5 L414.3 -182.4 L419.2 -192.2 L424.4 -201.9 L429.7 -211.5 L435.1 -221.1 L440.6 -230.6 L446.2 -240.1 L451.9 -249.5 L457.6 -258.9 L463.5 -268.2 L469.3 -277.5 L475.2 -286.8 L481.1 -296.1 L487.1 -305.3 L493.1 -314.5 L499.2 -323.7 L505.2 -332.9 L511.3 -342.1 L517.4 -351.3 L523.5 -360.4 L529.6 -369.5 L535.7 -378.7 L541.9 -387.8 L548.1 -396.9 L554.2 -406 L560.4 -415.1 L566.6 -424.2 L572.8 -433.3 L579.1 -442.3 L585.3 -451.4 L591.5 -460.5 L597.8 -469.5" fill="none" stroke="#f0f0f5" stroke-opacity="0.10" stroke-width="0.9" stroke-linecap="round"/><path d="M929.2 371 L918.3 372.3 L907.4 374 L896.6 376 L885.9 378.5 L875.3 381.4 L864.8 384.8 L854.5 388.6 L844.3 392.9 L834.4 397.6 L824.7 402.8 L815.2 408.3 L806 414.3 L796.9 420.6 L788.1 427.2 L779.5 434 L771.2 441.2 L763 448.6 L755 456.1 L747.3 463.9 L739.7 471.9 L732.2 480 L724.9 488.2 L717.7 496.5 L710.7 505 L703.7 513.5 L696.9 522.1 L690.1 530.8 L683.5 539.6 L676.9 548.4 L670.4 557.3 L664 566.2 L657.6 575.1 L651.3 584.1 L645 593.2 L638.8 602.3 L632.7 611.4 L626.5 620.5 L620.5 629.7 L614.4 638.9" fill="none" stroke="#dd8568" stroke-opacity="0.43" stroke-width="1.3" stroke-linecap="round"/><path d="M1162.8 270 L1152.1 272.7 L1141.4 274.9 L1130.5 276.7 L1119.6 278.1 L1108.6 279.1 L1097.7 279.7 L1086.7 280.1 L1075.7 280.2 L1064.7 280.2 L1053.7 280 L1042.7 279.8 L1031.7 279.6 L1020.7 279.5 L1009.7 279.6 L998.7 279.8 L987.7 280.4 L976.7 281.3 L965.8 282.6 L954.9 284.4 L944.2 286.6 L933.5 289.3 L923 292.5 L912.6 296.3 L902.5 300.5 L892.5 305.2 L882.8 310.3 L873.3 315.9 L864.1 321.9 L855.1 328.2 L846.3 334.8 L837.8 341.8 L829.5 349 L821.4 356.4 L813.4 364 L805.7 371.9 L798.1 379.8 L790.7 388 L783.4 396.2 L776.3 404.6 L769.3 413 L762.3 421.6 L755.5 430.2 L748.7 438.9 L742.1 447.6 L735.5 456.4 L729 465.3 L722.5 474.2 L716.1 483.1 L709.7 492.1 L703.4 501.1 L697.1 510.1 L690.9 519.2 L684.7 528.3 L678.5 537.4 L672.4 546.5 L666.2 555.6 L660.2 564.8" fill="none" stroke="#f0f0f5" stroke-opacity="0.10" stroke-width="0.9" stroke-linecap="round"/><path d="M530.7 760.2 L525.5 769.9 L520.4 779.6 L515.2 789.3 L510 799 L504.8 808.7 L499.5 818.4 L494.3 828.1 L489.1 837.8 L483.9 847.5 L478.7 857.2 L473.6 866.9 L468.4 876.6 L463.2 886.3 L458.1 896 L453 905.8 L447.9 915.5 L442.8 925.3 L437.7 935 L432.7 944.8 L427.7 954.6 L422.7 964.4 L417.7 974.2 L412.8 984.1 L407.9 993.9 L403 1003.8 L398.2 1013.7 L393.4 1023.5 L388.6 1033.5 L383.9 1043.4 L379.2 1053.3 L374.6 1063.3 L369.9 1073.3 L365.4 1083.3 L360.8 1093.3" fill="none" stroke="#f0f0f5" stroke-opacity="0.10" stroke-width="1.3" stroke-linecap="round"/><path d="M1052.4 469.9 L1042.6 474.8 L1032.6 479.4 L1022.4 483.6 L1012.2 487.6 L1001.8 491.2 L991.3 494.5 L980.7 497.4 L970 500.1 L959.3 502.5 L948.5 504.7 L937.7 506.6 L926.8 508.4 L915.9 510 L905 511.5 L894.1 512.9 L883.2 514.4 L872.3 515.9 L861.4 517.5 L850.6 519.2 L839.7 521.1 L828.9 523.2 L818.2 525.6 L807.5 528.3 L797 531.3 L786.5 534.6 L776.1 538.3 L765.9 542.4 L755.8 546.8 L745.9 551.6 L736.2 556.8 L726.7 562.3 L717.4 568.1 L708.3 574.3 L699.4 580.8 L690.7 587.5 L682.2 594.5 L673.9 601.7 L665.8 609.1 L657.8 616.7 L650.1 624.6 L642.5 632.5 L635.1 640.6 L627.8 648.9" fill="none" stroke="#f0f0f5" stroke-opacity="0.14" stroke-width="1.3" stroke-linecap="round"/><path d="M736.7 504.6 L728.3 511.7 L720.1 519 L712.1 526.6 L704.3 534.3 L696.7 542.2 L689.2 550.3 L681.9 558.5 L674.7 566.8 L667.6 575.2 L660.6 583.8 L653.8 592.4 L647.1 601.1 L640.4 609.8 L633.9 618.7 L627.4 627.6 L621 636.5 L614.6 645.5 L608.4 654.5 L602.2 663.6 L596 672.7 L589.9 681.9 L583.8 691.1 L577.8 700.3 L571.9 709.5 L565.9 718.8 L560 728.1 L554.2 737.4 L548.4 746.7 L542.6 756.1 L536.9 765.5 L531.2 774.9 L525.5 784.3 L519.8 793.7 L514.2 803.2 L508.6 812.7 L503.1 822.2 L497.6 831.7 L492.1 841.2 L486.6 850.8 L481.2 860.3 L475.8 869.9 L470.4 879.5" fill="none" stroke="#f0f0f5" stroke-opacity="0.06" stroke-width="0.8" stroke-linecap="round"/><path d="M939.5 1042.5 L949.9 1046.3 L960.6 1048.9 L971.5 1050.3 L982.5 1050.7 L993.4 1050.1 L1004.3 1048.6 L1015.1 1046.2 L1025.6 1043.1 L1035.9 1039.2 L1046 1034.8 L1055.8 1029.9 L1065.4 1024.5 L1074.8 1018.7 L1083.9 1012.5 L1092.8 1006 L1101.5 999.3 L1110 992.3 L1118.3 985.1 L1126.5 977.8 L1134.5 970.2 L1142.3 962.5 L1150.1 954.7 L1157.7 946.8 L1165.3 938.8 L1172.7 930.7 L1180 922.5 L1187.3 914.2 L1194.5 905.9 L1201.6 897.5 L1208.6 889.1 L1215.6 880.6 L1222.6 872 L1229.4 863.5 L1236.3 854.8 L1243.1 846.2 L1249.9 837.5 L1256.6 828.8 L1263.3 820.1 L1269.9 811.3 L1276.6 802.6 L1283.2 793.8 L1289.7 784.9 L1296.3 776.1 L1302.8 767.3 L1309.4 758.4 L1315.8 749.5 L1322.3 740.6 L1328.8 731.7 L1335.2 722.8 L1341.6 713.9 L1348.1 704.9 L1354.5 696 L1360.8 687 L1367.2 678.1 L1373.6 669.1 L1379.9 660.1" fill="none" stroke="#f0f0f5" stroke-opacity="0.05" stroke-width="1.0" stroke-linecap="round"/><path d="M237.5 146.6 L240 135.9 L242.8 125.2 L245.9 114.7 L249.3 104.2 L253 93.8 L256.8 83.5 L260.9 73.3 L265.2 63.2 L269.7 53.1 L274.3 43.2 L279 33.2 L283.9 23.4 L288.9 13.6 L294 3.8 L299.2 -5.9 L304.5 -15.5 L309.8 -25.1 L315.2 -34.7 L320.7 -44.3 L326.2 -53.8 L331.8 -63.3 L337.4 -72.7 L343.1 -82.2 L348.8 -91.6 L354.5 -101 L360.2 -110.3 L366 -119.7 L371.8 -129 L377.7 -138.3 L383.5 -147.6 L389.4 -156.9 L395.3 -166.2 L401.2 -175.5 L407.2 -184.8 L413.1 -194" fill="none" stroke="#f0f0f5" stroke-opacity="0.10" stroke-width="0.8" stroke-linecap="round"/><path d="M929.2 64.8 L931.3 75.6 L932 86.6 L931.6 97.6 L930.2 108.5 L928.1 119.3 L925.3 129.9 L921.9 140.4 L918.1 150.7 L913.9 160.8 L909.4 170.9 L904.6 180.8 L899.6 190.6 L894.4 200.3 L889.1 209.9 L883.6 219.4 L878 228.9 L872.3 238.3 L866.6 247.7 L860.7 257 L854.9 266.3 L848.9 275.6 L843 284.8 L837 294.1 L831 303.3 L824.9 312.5 L818.8 321.6 L812.8 330.8 L806.7 340 L800.6 349.1 L794.5 358.3 L788.4 367.4 L782.3 376.6 L776.2 385.7 L770.1 394.9 L764 404 L757.9 413.2 L751.8 422.3 L745.7 431.5 L739.6 440.7 L733.5 449.8 L727.4 459 L721.4 468.2 L715.3 477.4 L709.3 486.6 L703.2 495.8 L697.2 505 L691.2 514.2 L685.2 523.4 L679.2 532.6 L673.2 541.9 L667.3 551.1 L661.3 560.3 L655.4 569.6 L649.5 578.9 L643.5 588.1 L637.6 597.4 L631.7 606.7 L625.9 616 L620 625.3" fill="none" stroke="#f0f0f5" stroke-opacity="0.13" stroke-width="1.0" stroke-linecap="round"/><path d="M965.3 158.2 L956.8 165.1 L948.5 172.3 L940.4 179.8 L932.5 187.4 L924.8 195.2 L917.2 203.2 L909.8 211.3 L902.5 219.6 L895.3 227.9 L888.3 236.4 L881.3 244.9 L874.4 253.5 L867.6 262.1 L860.9 270.8 L854.2 279.5 L847.6 288.3 L841 297.1 L834.5 306 L828 314.9 L821.6 323.8 L815.1 332.7 L808.8 341.7 L802.4 350.7 L796.1 359.7 L789.8 368.7 L783.5 377.7 L777.2 386.8 L771 395.8 L764.8 404.9 L758.6 414 L752.4 423.1 L746.2 432.2 L740 441.3 L733.9 450.4 L727.8 459.5 L721.7 468.7 L715.6 477.8 L709.5 487 L703.4 496.2 L697.3 505.4 L691.3 514.6 L685.3 523.8 L679.3 533 L673.3 542.2 L667.3 551.4 L661.3 560.7 L655.4 569.9 L649.4 579.2 L643.5 588.4 L637.6 597.7 L631.7 607 L625.8 616.3 L619.9 625.6 L614.1 634.9" fill="none" stroke="#f0f0f5" stroke-opacity="0.09" stroke-width="1.3" stroke-linecap="round"/><path d="M1456.5 331.6 L1467.5 331.1 L1478.4 329.5 L1489.1 327.1 L1499.7 323.8 L1509.9 319.9 L1519.9 315.4 L1529.7 310.3 L1539.2 304.8 L1548.5 298.8 L1557.5 292.5 L1566.3 285.9 L1574.9 279.1 L1583.3 272 L1591.5 264.6 L1599.6 257.1 L1607.4 249.5 L1615.2 241.7 L1622.8 233.7 L1630.3 225.7 L1637.6 217.5 L1644.9 209.2 L1652.1 200.9 L1659.1 192.4 L1666.1 183.9 L1673 175.3 L1679.8 166.7 L1686.5 158 L1693.2 149.2 L1699.7 140.4 L1706.3 131.6 L1712.8 122.7 L1719.2 113.8 L1725.5 104.8 L1731.9 95.8 L1738.1 86.7 L1744.4 77.7 L1750.5 68.6 L1756.7 59.5 L1762.8 50.3 L1768.9 41.1 L1774.9 31.9 L1780.9 22.7 L1786.9 13.5 L1792.8 4.2 L1798.7 -5.1 L1804.6 -14.4 L1810.4 -23.7 L1816.2 -33 L1822 -42.4 L1827.8 -51.7 L1833.6 -61.1 L1839.3 -70.5" fill="none" stroke="#f0f0f5" stroke-opacity="0.12" stroke-width="0.7" stroke-linecap="round"/><path d="M447.6 693.2 L452.7 702.9 L456.8 713.1 L459.9 723.7 L462.1 734.4 L463.5 745.4 L464.2 756.3 L464.2 767.3 L463.6 778.3 L462.5 789.3 L461 800.2 L459.1 811 L456.8 821.8 L454.2 832.5 L451.4 843.1 L448.4 853.7 L445.2 864.2 L441.8 874.6 L438.2 885.1 L434.5 895.4 L430.7 905.7 L426.9 916 L422.9 926.3 L418.9 936.5 L414.8 946.7 L410.6 956.9 L406.4 967.1 L402.2 977.3 L398 987.4 L393.7 997.6 L389.4 1007.7 L385.2 1017.8 L380.9 1027.9 L376.6 1038.1 L372.3 1048.2 L368 1058.3 L363.7 1068.5 L359.5 1078.6 L355.3 1088.8 L351 1098.9 L346.9 1109.1 L342.7 1119.3 L338.6 1129.5 L334.5 1139.7 L330.4 1149.9 L326.4 1160.2 L322.4 1170.4 L318.5 1180.7 L314.6 1191 L310.7 1201.3 L306.9 1211.6 L303.1 1221.9 L299.4 1232.3 L295.8 1242.7 L292.2 1253.1 L288.7 1263.5 L285.2 1273.9" fill="none" stroke="#f0f0f5" stroke-opacity="0.06" stroke-width="0.7" stroke-linecap="round"/><path d="M1377.7 992.5 L1378.2 981.6 L1378.7 970.6 L1379.3 959.6 L1379.9 948.6 L1380.6 937.6 L1381.3 926.6 L1382.1 915.7 L1383.1 904.7 L1384.1 893.8 L1385.2 882.8 L1386.5 871.9 L1387.8 861 L1389.3 850.1 L1391 839.2 L1392.8 828.4 L1394.7 817.5 L1396.7 806.7 L1399 795.9 L1401.3 785.2 L1403.8 774.5 L1406.5 763.8 L1409.3 753.2 L1412.2 742.6 L1415.3 732 L1418.5 721.5 L1421.9 711 L1425.4 700.6 L1429 690.2 L1432.7 679.9 L1436.6 669.6 L1440.5 659.3 L1444.6 649.1 L1448.8 638.9 L1453.1 628.8 L1457.4 618.7 L1461.9 608.6 L1466.5 598.6 L1471.1 588.6" fill="none" stroke="#f0f0f5" stroke-opacity="0.07" stroke-width="1.0" stroke-linecap="round"/><path d="M1395.1 897.1 L1396.2 886.1 L1397.4 875.2 L1398.7 864.3 L1400.1 853.3 L1401.6 842.5 L1403.2 831.6 L1405 820.7 L1406.9 809.9 L1408.9 799.1 L1411.1 788.3 L1413.4 777.5 L1415.8 766.8 L1418.4 756.1 L1421.1 745.4 L1423.9 734.8 L1426.9 724.2 L1430 713.7 L1433.2 703.2 L1436.6 692.7 L1440.1 682.3 L1443.7 671.9 L1447.4 661.5 L1451.3 651.2 L1455.2 640.9 L1459.3 630.7 L1463.4 620.5 L1467.7 610.4 L1472 600.3 L1476.4 590.2 L1481 580.2 L1485.5 570.2 L1490.2 560.2 L1494.9 550.3 L1499.7 540.4 L1504.6 530.5 L1509.5 520.7 L1514.5 510.9 L1519.5 501.1 L1524.6 491.3 L1529.7 481.6 L1534.9 471.9 L1540.1 462.2 L1545.3 452.5 L1550.6 442.9 L1555.9 433.2" fill="none" stroke="#f0f0f5" stroke-opacity="0.12" stroke-width="0.9" stroke-linecap="round"/><path d="M1369.7 435.5 L1380.5 437.1 L1391.5 437.5 L1402.5 436.8 L1413.4 435.1 L1424.1 432.6 L1434.6 429.3 L1444.9 425.3 L1454.9 420.8 L1464.6 415.7 L1474.1 410.1 L1483.4 404.2 L1492.4 397.9 L1501.2 391.4 L1509.8 384.5 L1518.3 377.4 L1526.5 370.2 L1534.6 362.7 L1542.5 355.1 L1550.3 347.3 L1558 339.4 L1565.5 331.4 L1572.9 323.2 L1580.2 315 L1587.4 306.7 L1594.5 298.3 L1601.5 289.9 L1608.5 281.3 L1615.4 272.7 L1622.2 264.1 L1628.9 255.4 L1635.6 246.6 L1642.2 237.8 L1648.7 229 L1655.2 220.1 L1661.7 211.2 L1668.1 202.3 L1674.4 193.3 L1680.7 184.3" fill="none" stroke="#f0f0f5" stroke-opacity="0.08" stroke-width="0.9" stroke-linecap="round"/><path d="M1155.5 279.4 L1144.8 282.1 L1134 284.3 L1123.1 286.1 L1112.2 287.4 L1101.3 288.4 L1090.3 289.1 L1079.3 289.5 L1068.3 289.6 L1057.3 289.6 L1046.3 289.5 L1035.3 289.3 L1024.3 289.2 L1013.3 289.1 L1002.3 289.3 L991.3 289.6 L980.3 290.2 L969.4 291.2 L958.5 292.6 L947.6 294.4 L936.9 296.7 L926.2 299.5 L915.7 302.8 L905.4 306.5 L895.2 310.8 L885.3 315.5 L875.6 320.7 L866.1 326.3 L856.9 332.3 L847.9 338.7 L839.2 345.3 L830.7 352.3 L822.4 359.5 L814.3 366.9 L806.4 374.6 L798.6 382.4 L791.1 390.4 L783.7 398.6 L776.4 406.8 L769.3 415.2 L762.2 423.6 L755.3 432.2 L748.5 440.8 L741.8 449.5 L735.1 458.3 L728.5 467.1 L722 475.9 L715.5 484.8 L709.1 493.8 L702.8 502.8 L696.5 511.8 L690.2 520.8 L684 529.9 L677.8 539 L671.6 548.1 L665.5 557.2 L659.4 566.4 L653.3 575.5 L647.3 584.7" fill="none" stroke="#f0f0f5" stroke-opacity="0.13" stroke-width="1.3" stroke-linecap="round"/><path d="M281.7 63.7 L284.5 53.1 L287.6 42.5 L291 32.1 L294.7 21.7 L298.7 11.5 L302.9 1.3 L307.4 -8.7 L312 -18.7 L316.7 -28.6 L321.7 -38.5 L326.7 -48.3 L331.9 -58 L337.1 -67.6 L342.5 -77.2 L347.9 -86.8 L353.4 -96.3 L359 -105.8 L364.6 -115.3 L370.3 -124.7 L376 -134.1 L381.7 -143.5 L387.5 -152.8 L393.3 -162.2 L399.2 -171.5 L405 -180.8 L410.9 -190.1 L416.9 -199.3 L422.8 -208.6 L428.8 -217.8 L434.8 -227.1 L440.7 -236.3 L446.8 -245.5 L452.8 -254.7 L458.8 -263.9 L464.9 -273.1 L470.9 -282.3 L477 -291.4 L483.1 -300.6 L489.2 -309.8 L495.3 -318.9 L501.4 -328.1 L507.6 -337.2 L513.7 -346.3 L519.8 -355.4" fill="none" stroke="#f0f0f5" stroke-opacity="0.14" stroke-width="0.8" stroke-linecap="round"/><path d="M486.6 845.8 L481.4 855.4 L476.1 865.1 L470.8 874.8 L465.6 884.4 L460.4 894.1 L455.2 903.8 L450 913.5 L444.9 923.3 L439.8 933 L434.7 942.7 L429.6 952.5 L424.6 962.3 L419.6 972.1 L414.6 981.9 L409.7 991.7 L404.8 1001.6 L399.9 1011.4 L395.1 1021.3 L390.3 1031.2 L385.5 1041.1 L380.8 1051.1 L376.1 1061 L371.4 1071 L366.8 1081 L362.3 1091 L357.8 1101 L353.3 1111.1 L348.9 1121.1 L344.5 1131.2 L340.1 1141.3 L335.9 1151.5 L331.6 1161.6 L327.5 1171.8 L323.3 1182 L319.3 1192.2 L315.3 1202.5 L311.3 1212.7 L307.4 1223 L303.6 1233.3 L299.8 1243.7 L296.1 1254 L292.5 1264.4 L288.9 1274.8 L285.4 1285.2 L282 1295.7 L278.7 1306.2 L275.4 1316.7 L272.2 1327.2 L269.1 1337.8 L266.1 1348.3" fill="none" stroke="#f0f0f5" stroke-opacity="0.13" stroke-width="0.8" stroke-linecap="round"/><path d="M1175 600.3 L1181.3 609.3 L1188.7 617.5 L1197 624.7 L1206 630.9 L1215.8 636 L1226.1 639.8 L1236.8 642.5 L1247.7 644 L1258.7 644.4 L1269.6 643.7 L1280.5 642.1 L1291.2 639.6 L1301.8 636.4 L1312 632.5 L1322.1 628 L1331.9 622.9 L1341.4 617.5 L1350.7 611.6 L1359.8 605.4 L1368.7 598.9 L1377.3 592.1 L1385.8 585.1 L1394.1 577.9 L1402.2 570.5 L1410.2 562.9 L1418.1 555.2 L1425.8 547.4 L1433.4 539.4 L1440.9 531.4 L1448.3 523.2 L1455.6 515 L1462.8 506.7 L1469.9 498.3 L1476.9 489.8 L1483.9 481.3 L1490.8 472.8 L1497.7 464.2 L1504.5 455.5 L1511.2 446.8 L1517.9 438.1 L1524.5 429.3 L1531.1 420.5 L1537.6 411.6 L1544.1 402.8 L1550.6 393.9 L1557 384.9 L1563.4 376 L1569.8 367 L1576.1 358 L1582.4 349 L1588.7 340" fill="none" stroke="#dd8568" stroke-opacity="0.43" stroke-width="1.3" stroke-linecap="round"/><path d="M1475.8 431.7 L1484.5 424.9 L1492.9 417.8 L1501.2 410.6 L1509.3 403.1 L1517.2 395.5 L1525 387.8 L1532.7 379.9 L1540.2 371.9 L1547.6 363.8 L1555 355.6 L1562.2 347.3 L1569.3 338.9 L1576.4 330.4 L1583.4 321.9 L1590.2 313.4 L1597.1 304.7 L1603.8 296.1 L1610.5 287.3 L1617.2 278.6 L1623.7 269.7 L1630.3 260.9 L1636.7 252 L1643.2 243.1 L1649.6 234.1 L1655.9 225.1 L1662.2 216.1 L1668.5 207.1 L1674.7 198 L1680.9 188.9 L1687.1 179.8 L1693.2 170.7 L1699.3 161.5 L1705.4 152.3 L1711.4 143.1 L1717.4 133.9 L1723.4 124.7 L1729.3 115.5 L1735.3 106.2 L1741.2 96.9 L1747 87.6 L1752.9 78.3 L1758.7 69 L1764.5 59.6 L1770.3 50.3 L1776.1 40.9 L1781.9 31.5 L1787.6 22.2 L1793.3 12.8 L1799 3.3 L1804.7 -6.1" fill="none" stroke="#f0f0f5" stroke-opacity="0.07" stroke-width="0.8" stroke-linecap="round"/><path d="M323.9 387.8 L322 377 L319.6 366.3 L316.8 355.6 L313.6 345.1 L310.1 334.7 L306.3 324.4 L302.2 314.1 L298 304 L293.7 293.9 L289.4 283.7 L285.1 273.6 L281 263.4 L277 253.2 L273.3 242.8 L269.8 232.4 L266.7 221.8 L264 211.1 L261.8 200.4 L260 189.5 L258.7 178.6 L257.8 167.6 L257.5 156.6 L257.7 145.6 L258.4 134.7 L259.5 123.7 L261.1 112.8 L263.2 102 L265.6 91.3 L268.4 80.6 L271.5 70.1 L274.9 59.6 L278.6 49.3 L282.5 39 L286.7 28.8 L291.1 18.7 L295.6 8.7" fill="none" stroke="#f0f0f5" stroke-opacity="0.12" stroke-width="0.9" stroke-linecap="round"/><path d="M464.1 256.6 L461.2 246 L457.5 235.6 L453.1 225.5 L448.1 215.7 L442.6 206.2 L436.5 197.1 L430.1 188.1 L423.3 179.5 L416.3 171 L409.2 162.6 L402 154.3 L394.8 145.9 L387.7 137.5 L380.8 129 L374.1 120.2 L367.8 111.3 L361.8 102 L356.3 92.5 L351.4 82.6 L347 72.5 L343.4 62.2 L340.4 51.6 L338.1 40.8 L336.6 29.9 L335.8 19 L335.6 8 L336.2 -3 L337.3 -14 L339.1 -24.8 L341.3 -35.6 L344.1 -46.3 L347.2 -56.8 L350.7 -67.2 L354.6 -77.5 L358.7 -87.7 L363.1 -97.8 L367.7 -107.8 L372.5 -117.7 L377.5 -127.5 L382.6 -137.2 L387.9 -146.9 L393.2 -156.5 L398.7 -166.1 L404.2 -175.6 L409.8 -185 L415.5 -194.4 L421.2 -203.8 L427 -213.2 L432.9 -222.5 L438.7 -231.8 L444.6 -241.1 L450.6 -250.4 L456.5 -259.6 L462.5 -268.8" fill="none" stroke="#f0f0f5" stroke-opacity="0.10" stroke-width="1.1" stroke-linecap="round"/><path d="M488.7 617.1 L494.9 626.1 L500 635.9 L504 646.1 L507 656.7 L509.1 667.5 L510.2 678.5 L510.6 689.4 L510.3 700.4 L509.5 711.4 L508 722.3 L506.2 733.2 L503.9 743.9 L501.3 754.6 L498.4 765.2 L495.3 775.8 L491.9 786.2 L488.3 796.6 L484.6 807 L480.7 817.3 L476.7 827.5 L472.5 837.7 L468.3 847.9 L464 858 L459.7 868.1 L455.2 878.2 L450.8 888.2 L446.2 898.2 L441.7 908.3 L437.1 918.3 L432.5 928.3 L427.9 938.2 L423.3 948.2 L418.7 958.2 L414.1 968.2 L409.4 978.2 L404.8 988.2 L400.2 998.1 L395.6 1008.1 L391 1018.1 L386.5 1028.1 L381.9 1038.2 L377.4 1048.2 L372.9 1058.2 L368.4 1068.3 L364 1078.3 L359.6 1088.4 L355.2 1098.5 L350.8 1108.6 L346.5 1118.7 L342.3 1128.9 L338 1139 L333.9 1149.2 L329.7 1159.4 L325.6 1169.6 L321.6 1179.8 L317.6 1190.1 L313.6 1200.3 L309.8 1210.6 L305.9 1220.9 L302.1 1231.3 L298.4 1241.6 L294.8 1252 L291.2 1262.4" fill="none" stroke="#f0f0f5" stroke-opacity="0.07" stroke-width="1.0" stroke-linecap="round"/><path d="M1079.4 406.4 L1069.1 410.1 L1058.6 413.4 L1048 416.4 L1037.3 419 L1026.5 421.2 L1015.7 423.2 L1004.8 424.8 L993.9 426.1 L983 427.3 L972 428.2 L961 429.1 L950.1 429.8 L939.1 430.6 L928.1 431.4 L917.2 432.2 L906.2 433.2 L895.3 434.5 L884.4 435.9 L873.5 437.7 L862.7 439.8 L852 442.3 L841.4 445.2 L830.9 448.4 L820.5 452.1 L810.3 456.3 L800.3 460.8 L790.5 465.8 L780.9 471.1 L771.5 476.9 L762.3 482.9 L753.4 489.3 L744.6 496 L736.1 502.9 L727.8 510.1 L719.7 517.6 L711.7 525.2 L704 533 L696.4 541 L689 549.1 L681.7 557.3 L674.6 565.7 L667.5 574.2 L660.6 582.7 L653.8 591.4 L647.1 600.1 L640.5 608.9 L634 617.7 L627.5 626.6 L621.2 635.6 L614.8 644.6 L608.6 653.7 L602.4 662.8 L596.3 671.9 L590.2 681 L584.1 690.2 L578.1 699.5 L572.2 708.7 L566.2 718 L560.4 727.3 L554.5 736.6" fill="none" stroke="#f0f0f5" stroke-opacity="0.07" stroke-width="1.2" stroke-linecap="round"/><path d="M1207.4 993.2 L1210.7 982.7 L1214.1 972.3 L1217.8 961.9 L1221.7 951.6 L1225.8 941.4 L1230 931.3 L1234.4 921.2 L1238.9 911.1 L1243.6 901.2 L1248.4 891.3 L1253.3 881.4 L1258.3 871.7 L1263.4 861.9 L1268.6 852.2 L1273.9 842.6 L1279.3 833 L1284.7 823.4 L1290.3 813.9 L1295.8 804.4 L1301.4 795 L1307.1 785.5 L1312.8 776.1 L1318.6 766.8 L1324.4 757.4 L1330.2 748.1 L1336 738.8 L1341.9 729.5 L1347.8 720.2 L1353.8 710.9 L1359.7 701.7 L1365.7 692.4 L1371.7 683.2 L1377.7 674 L1383.7 664.8 L1389.7 655.6 L1395.8 646.4 L1401.8 637.2 L1407.9 628 L1413.9 618.8 L1420 609.7" fill="none" stroke="#f0f0f5" stroke-opacity="0.07" stroke-width="0.8" stroke-linecap="round"/><path d="M470.1 709.2 L472.2 720 L473.6 730.9 L474.2 741.9 L474.1 752.9 L473.5 763.9 L472.3 774.9 L470.7 785.7 L468.7 796.5 L466.4 807.3 L463.7 818 L460.8 828.6 L457.7 839.1 L454.4 849.6 L450.9 860.1 L447.3 870.5 L443.5 880.8 L439.7 891.1 L435.7 901.4 L431.7 911.6 L427.6 921.8 L423.4 932 L419.2 942.1 L414.9 952.3 L410.6 962.4 L406.3 972.5 L402 982.6 L397.6 992.7 L393.3 1002.8 L388.9 1012.9 L384.5 1023 L380.2 1033.1 L375.8 1043.2 L371.5 1053.3 L367.1 1063.4 L362.8 1073.5 L358.5 1083.7 L354.3 1093.8" fill="none" stroke="#f0f0f5" stroke-opacity="0.14" stroke-width="1.3" stroke-linecap="round"/><path d="M1489.6 494.1 L1496 485.1 L1502.3 476.1 L1508.5 467.1 L1514.8 458 L1521.1 449 L1527.3 439.9 L1533.5 430.8 L1539.7 421.7 L1545.8 412.6 L1552 403.5 L1558.1 394.4 L1564.3 385.2 L1570.4 376.1 L1576.5 366.9 L1582.5 357.8 L1588.6 348.6 L1594.6 339.4 L1600.7 330.2 L1606.7 321 L1612.7 311.8 L1618.7 302.5 L1624.6 293.3 L1630.6 284 L1636.5 274.8 L1642.4 265.5 L1648.4 256.2 L1654.3 247 L1660.1 237.7 L1666 228.4 L1671.9 219 L1677.7 209.7 L1683.5 200.4 L1689.4 191.1 L1695.2 181.7 L1700.9 172.4 L1706.7 163 L1712.5 153.6 L1718.2 144.2 L1724 134.9 L1729.7 125.5 L1735.4 116.1 L1741.1 106.6 L1746.8 97.2 L1752.4 87.8 L1758.1 78.4 L1763.7 68.9 L1769.4 59.5" fill="none" stroke="#f0f0f5" stroke-opacity="0.08" stroke-width="1.3" stroke-linecap="round"/><path d="M1355.5 671.8 L1362.6 663.4 L1369.6 654.9 L1376.6 646.4 L1383.5 637.8 L1390.3 629.2 L1397.1 620.5 L1403.8 611.9 L1410.5 603.1 L1417.2 594.4 L1423.8 585.6 L1430.4 576.8 L1437 568 L1443.5 559.1 L1450 550.2 L1456.4 541.3 L1462.9 532.4 L1469.3 523.4 L1475.7 514.5 L1482 505.5 L1488.4 496.5 L1494.7 487.5 L1501 478.5 L1507.2 469.5 L1513.5 460.4 L1519.7 451.3 L1525.9 442.3 L1532.1 433.2 L1538.3 424.1 L1544.5 415 L1550.6 405.9 L1556.8 396.7 L1562.9 387.6 L1569 378.4 L1575.1 369.3 L1581.2 360.1 L1587.2 350.9 L1593.3 341.7 L1599.3 332.5 L1605.3 323.3 L1611.3 314.1 L1617.3 304.9 L1623.2 295.6 L1629.2 286.4 L1635.1 277.1 L1641.1 267.8 L1647 258.6 L1652.9 249.3 L1658.8 240 L1664.6 230.7 L1670.5 221.4 L1676.3 212.1 L1682.2 202.7 L1688 193.4" fill="none" stroke="#f0f0f5" stroke-opacity="0.10" stroke-width="0.8" stroke-linecap="round"/><path d="M957.2 579.6 L947.2 584.2 L937.1 588.6 L926.9 592.7 L916.5 596.5 L906.2 600.1 L895.7 603.5 L885.2 606.7 L874.6 609.7 L864 612.5 L853.3 615.3 L842.6 617.9 L831.9 620.5 L821.2 623.1 L810.5 625.6 L799.9 628.2 L789.2 630.9 L778.6 633.8 L768 636.7 L757.4 639.9 L746.9 643.2 L736.5 646.8 L726.2 650.7 L716 654.8 L706 659.2 L696 663.9 L686.2 668.9 L676.6 674.1 L667.1 679.7 L657.8 685.6 L648.6 691.7 L639.7 698.1 L630.9 704.7 L622.3 711.6 L613.9 718.7 L605.7 726 L597.6 733.5 L589.8 741.2 L582.1 749 L574.5 757 L567.1 765.2 L559.8 773.4 L552.7 781.8 L545.8 790.3 L538.9 798.9 L532.2 807.6 L525.5 816.4 L519 825.3 L512.6 834.2 L506.3 843.2 L500 852.2 L493.9 861.4 L487.8 870.6 L481.8 879.8 L475.9 889.1 L470.1 898.4 L464.3 907.7 L458.6 917.2 L453 926.6 L447.4 936.1 L441.9 945.6 L436.4 955.1 L431 964.7 L425.7 974.3" fill="none" stroke="#f0f0f5" stroke-opacity="0.11" stroke-width="1.1" stroke-linecap="round"/><path d="M119.6 153.2 L130.3 150.6 L140.7 147 L150.8 142.5 L160.5 137.4 L169.8 131.6 L178.8 125.2 L187.5 118.5 L195.8 111.3 L203.9 103.8 L211.7 96 L219.2 88 L226.5 79.8 L233.7 71.4 L240.6 62.9 L247.4 54.3 L254.1 45.5 L260.7 36.7 L267.1 27.8 L273.5 18.8 L279.8 9.8 L286 0.7 L292.2 -8.4 L298.3 -17.5 L304.4 -26.7 L310.4 -35.8 L316.5 -45 L322.5 -54.3 L328.5 -63.5 L334.4 -72.7 L340.4 -82 L346.4 -91.2 L352.3 -100.5 L358.3 -109.7 L364.2 -119 L370.2 -128.2 L376.1 -137.5 L382.1 -146.7 L388.1 -155.9 L394.1 -165.2 L400 -174.4" fill="none" stroke="#f0f0f5" stroke-opacity="0.10" stroke-width="0.7" stroke-linecap="round"/><path d="M372.1 441 L375.5 430.5 L378.3 419.9 L380.7 409.2 L382.5 398.3 L383.7 387.4 L384.4 376.4 L384.3 365.4 L383.7 354.4 L382.4 343.5 L380.4 332.7 L377.8 322 L374.6 311.5 L370.9 301.1 L366.7 290.9 L362.1 280.9 L357.1 271.1 L351.9 261.4 L346.5 251.9 L341 242.4 L335.4 232.9 L329.8 223.4 L324.4 213.8 L319.1 204.2 L314.1 194.4 L309.4 184.4 L305 174.3 L301.1 164.1 L297.7 153.6 L294.9 143 L292.6 132.2 L290.8 121.4 L289.7 110.4 L289.2 99.4 L289.2 88.4 L289.9 77.4 L291 66.5 L292.7 55.6 L294.8 44.8 L297.3 34.1 L300.3 23.5 L303.6 13 L307.2 2.6 L311.1 -7.6" fill="none" stroke="#dd8568" stroke-opacity="0.44" stroke-width="1.3" stroke-linecap="round"/><path d="M690.7 721.8 L680.6 726.3 L670.7 731.1 L660.9 736.1 L651.3 741.4 L641.7 746.9 L632.4 752.6 L623.1 758.6 L614.1 764.9 L605.2 771.3 L596.5 778 L587.9 784.9 L579.5 792.1 L571.3 799.4 L563.2 806.9 L555.4 814.5 L547.6 822.3 L540 830.3 L532.6 838.4 L525.3 846.7 L518.2 855.1 L511.2 863.5 L504.3 872.1 L497.6 880.8 L491 889.6 L484.4 898.5 L478 907.4 L471.7 916.4 L465.5 925.5 L459.4 934.6 L453.4 943.9 L447.5 953.1 L441.6 962.4 L435.9 971.8 L430.2 981.2 L424.6 990.7 L419.1 1000.2 L413.6 1009.8 L408.2 1019.4 L402.9 1029 L397.7 1038.7 L392.5 1048.4 L387.4 1058.1 L382.3 1067.9 L377.4 1077.7 L372.4 1087.5 L367.6 1097.4 L362.8 1107.3 L358.1 1117.2 L353.4 1127.2 L348.8 1137.2 L344.3 1147.2 L339.8 1157.3 L335.4 1167.3 L331 1177.4 L326.8 1187.6" fill="none" stroke="#f0f0f5" stroke-opacity="0.10" stroke-width="0.7" stroke-linecap="round"/><path d="M56.4 387.9 L63.2 379.3 L69.8 370.5 L76.3 361.7 L82.7 352.7 L88.9 343.6 L95 334.5 L101.1 325.3 L107 316 L112.8 306.7 L118.6 297.3 L124.3 287.9 L130 278.5 L135.6 269 L141.2 259.6 L146.7 250.1 L152.2 240.5 L157.7 231 L163.1 221.4 L168.6 211.9 L174 202.3 L179.4 192.7 L184.9 183.2 L190.3 173.6 L195.7 164 L201.1 154.5 L206.6 144.9 L212 135.4 L217.5 125.8 L223 116.3 L228.5 106.7 L234 97.2 L239.5 87.7 L245 78.2 L250.6 68.7 L256.1 59.2 L261.7 49.7 L267.3 40.3 L272.9 30.8 L278.6 21.3 L284.2 11.9 L289.9 2.5 L295.6 -6.9 L301.3 -16.3" fill="none" stroke="#f0f0f5" stroke-opacity="0.12" stroke-width="1.3" stroke-linecap="round"/><path d="M8.1 382.3 L17.8 377.1 L27.1 371.4 L36.2 365.1 L45 358.5 L53.4 351.5 L61.6 344.1 L69.6 336.5 L77.3 328.7 L84.8 320.6 L92 312.4 L99.1 303.9 L106 295.4 L112.7 286.7 L119.3 277.9 L125.8 269 L132.1 260 L138.4 250.9 L144.5 241.8 L150.5 232.6 L156.5 223.3 L162.4 214.1 L168.3 204.7 L174.1 195.4 L179.8 186 L185.5 176.6 L191.2 167.2 L196.9 157.8 L202.5 148.4 L208.2 138.9 L213.8 129.4 L219.4 120 L225 110.5 L230.6 101.1 L236.3 91.6 L241.9 82.1 L247.5 72.7 L253.1 63.2 L258.7 53.8 L264.4 44.4 L270.1 34.9 L275.7 25.5 L281.4 16.1 L287.1 6.7 L292.8 -2.7" fill="none" stroke="#f0f0f5" stroke-opacity="0.10" stroke-width="0.9" stroke-linecap="round"/><path d="M953.2 663.3 L945.3 670.9 L937.3 678.5 L929.2 685.9 L921 693.2 L912.7 700.5 L904.3 707.6 L895.9 714.7 L887.3 721.6 L878.7 728.4 L870 735.1 L861.2 741.7 L852.3 748.2 L843.3 754.5 L834.2 760.7 L825.1 766.9 L815.9 772.9 L806.6 778.7 L797.2 784.5 L787.8 790.2 L778.3 795.8 L768.8 801.3 L759.2 806.7 L749.6 812.1 L740 817.4 L730.3 822.6 L720.6 827.9 L710.9 833.1 L701.2 838.3 L691.6 843.5 L681.9 848.7 L672.2 854 L662.6 859.3 L653 864.7 L643.5 870.2 L634 875.8 L624.6 881.4 L615.2 887.2 L605.9 893.1 L596.8 899.2 L587.6 905.3 L578.6 911.7 L569.8 918.1 L561 924.8 L552.3 931.5 L543.7 938.4 L535.3 945.5 L527 952.7 L518.9 960.1 L510.8 967.6 L502.9 975.3 L495.2 983.1 L487.5 991 L480 999.1 L472.7 1007.2 L465.5 1015.5 L458.4 1024 L451.4 1032.5 L444.6 1041.1" fill="none" stroke="#f0f0f5" stroke-opacity="0.11" stroke-width="1.3" stroke-linecap="round"/><path d="M978.8 1045.6 L989.8 1045.7 L1000.8 1044.7 L1011.6 1042.9 L1022.3 1040.2 L1032.8 1036.8 L1043 1032.8 L1053 1028.2 L1062.7 1023.1 L1072.2 1017.5 L1081.5 1011.6 L1090.5 1005.3 L1099.3 998.7 L1108 991.9 L1116.4 984.8 L1124.7 977.6 L1132.8 970.2 L1140.7 962.6 L1148.6 954.8 L1156.3 947 L1163.9 939 L1171.4 931 L1178.8 922.8 L1186.1 914.6 L1193.3 906.3 L1200.5 898 L1207.5 889.6 L1214.6 881.1 L1221.5 872.6 L1228.5 864.1 L1235.3 855.5 L1242.2 846.8 L1249 838.2 L1255.7 829.5 L1262.4 820.8 L1269.1 812 L1275.7 803.3 L1282.4 794.5 L1289 785.7 L1295.5 776.9" fill="none" stroke="#dd8568" stroke-opacity="0.51" stroke-width="1.3" stroke-linecap="round"/><path d="M861.8 270.3 L855.1 279 L848.5 287.7 L841.8 296.5 L835.3 305.4 L828.8 314.2 L822.3 323.1 L815.9 332 L809.5 341 L803.1 349.9 L796.7 358.9 L790.4 367.9 L784.1 377 L777.9 386 L771.6 395 L765.4 404.1 L759.2 413.2 L753 422.3 L746.8 431.4 L740.6 440.5 L734.5 449.6 L728.3 458.7 L722.2 467.9 L716.1 477 L710 486.2 L704 495.4 L697.9 504.6 L691.9 513.7 L685.8 522.9 L679.8 532.2 L673.8 541.4 L667.8 550.6 L661.9 559.8 L655.9 569.1 L650 578.3 L644 587.6 L638.1 596.9 L632.2 606.2 L626.3 615.5 L620.5 624.8 L614.6 634.1 L608.8 643.4 L603 652.7 L597.2 662.1 L591.4 671.4 L585.6 680.8 L579.9 690.2 L574.1 699.6 L568.4 709 L562.7 718.4 L557 727.8 L551.4 737.2 L545.8 746.7 L540.1 756.1" fill="none" stroke="#f0f0f5" stroke-opacity="0.09" stroke-width="1.2" stroke-linecap="round"/><path d="M865 749.3 L856.5 756.2 L847.8 763 L839.1 769.7 L830.2 776.2 L821.4 782.7 L812.4 789.1 L803.4 795.4 L794.3 801.6 L785.1 807.7 L775.9 813.7 L766.7 819.6 L757.3 825.5 L748 831.3 L738.6 837 L729.2 842.7 L719.8 848.4 L710.3 854 L700.9 859.6 L691.4 865.2 L681.9 870.9 L672.5 876.5 L663.1 882.2 L653.7 887.9 L644.3 893.6 L634.9 899.4 L625.7 905.3 L616.4 911.3 L607.3 917.4 L598.2 923.6 L589.2 929.9 L580.2 936.3 L571.4 942.8 L562.6 949.5 L554 956.3 L545.4 963.2" fill="none" stroke="#f0f0f5" stroke-opacity="0.12" stroke-width="1.0" stroke-linecap="round"/><path d="M1072.6 414.2 L1062.2 417.9 L1051.7 421.2 L1041.1 424.1 L1030.4 426.7 L1019.6 429 L1008.8 430.9 L997.9 432.5 L987 433.9 L976.1 435 L965.1 436 L954.2 436.9 L943.2 437.7 L932.2 438.5 L921.3 439.4 L910.3 440.3 L899.4 441.4 L888.4 442.7 L877.5 444.3 L866.7 446.2 L855.9 448.4 L845.2 451 L834.6 453.9 L824.2 457.3 L813.9 461.1 L803.7 465.3 L793.7 470 L783.9 475 L774.4 480.4 L765 486.2 L755.9 492.3 L746.9 498.7 L738.2 505.5 L729.8 512.5 L721.5 519.7 L713.4 527.2 L705.5 534.8 L697.8 542.6 L690.2 550.6 L682.8 558.8 L675.5 567 L668.4 575.4 L661.4 583.9 L654.5 592.5 L647.7 601.1 L641 609.9 L634.4 618.7 L627.9 627.5 L621.5 636.4 L615.1 645.4 L608.8 654.4 L602.6 663.5 L596.4 672.6 L590.3 681.7" fill="none" stroke="#f0f0f5" stroke-opacity="0.05" stroke-width="1.2" stroke-linecap="round"/><path d="M1651.8 442.8 L1655.9 432.6 L1660 422.4 L1664 412.2 L1668.1 402 L1672.3 391.8 L1676.4 381.6 L1680.5 371.4 L1684.7 361.2 L1688.9 351 L1693 340.8 L1697.2 330.7 L1701.4 320.5 L1705.7 310.3 L1709.9 300.2 L1714.1 290 L1718.3 279.9 L1722.6 269.7 L1726.9 259.6 L1731.1 249.5 L1735.4 239.3 L1739.7 229.2 L1744 219.1 L1748.3 208.9 L1752.6 198.8 L1756.9 188.7 L1761.2 178.6 L1765.5 168.5 L1769.8 158.3 L1774.2 148.2 L1778.5 138.1 L1782.9 128 L1787.2 117.9 L1791.6 107.8 L1796 97.7 L1800.4 87.6 L1804.8 77.6 L1809.2 67.5 L1813.6 57.4 L1818 47.3 L1822.4 37.3 L1826.9 27.2 L1831.3 17.1 L1835.8 7.1 L1840.3 -3 L1844.8 -13 L1849.3 -23 L1853.8 -33.1 L1858.3 -43.1 L1862.9 -53.1 L1867.4 -63.1 L1872 -73.1 L1876.6 -83.1" fill="none" stroke="#f0f0f5" stroke-opacity="0.11" stroke-width="1.2" stroke-linecap="round"/><path d="M203.2 138.3 L209.3 129.2 L215.3 120 L221.3 110.8 L227.2 101.5 L233.1 92.2 L239 82.9 L244.9 73.6 L250.7 64.3 L256.5 54.9 L262.3 45.6 L268.1 36.2 L273.9 26.9 L279.6 17.5 L285.4 8.1 L291.2 -1.2 L297 -10.6 L302.8 -19.9 L308.6 -29.3 L314.4 -38.6 L320.2 -48 L326 -57.3 L331.8 -66.6 L337.7 -76 L343.5 -85.3 L349.4 -94.6 L355.2 -103.9 L361.1 -113.2 L367 -122.5 L372.9 -131.8 L378.8 -141 L384.7 -150.3 L390.7 -159.6 L396.6 -168.8 L402.6 -178.1 L408.6 -187.3 L414.5 -196.5 L420.5 -205.7 L426.5 -215 L432.6 -224.2 L438.6 -233.4 L444.6 -242.6 L450.7 -251.8 L456.7 -260.9 L462.8 -270.1 L468.9 -279.3" fill="none" stroke="#f0f0f5" stroke-opacity="0.05" stroke-width="1.0" stroke-linecap="round"/></svg>
