<svg xmlns="http://www.w3.org/2000/svg" viewBox="0 0 240 240" width="240" height="240" role="img"><path d="M136.3 120L136.4 121.1L136.4 122.3L136.2 123.4L135.9 124.6L135.6 125.7L135.1 126.7L134.6 127.7L133.9 128.7L133.3 129.7L132.6 130.6L131.8 131.4L131 132.2L130.1 132.9L129.2 133.6L128.2 134.2L127.1 134.6L126 134.9L124.9 135.1L123.8 135.2L122.7 135.1L121.6 135L120.5 134.8L119.5 134.6L118.5 134.4L117.5 134.3L116.5 134.2L115.4 134.2L114.3 134.1L113.1 134.1L111.9 134L110.7 133.9L109.4 133.5L108.2 133.1L107.1 132.4L106.2 131.6L105.4 130.6L104.9 129.4L104.5 128.2L104.4 126.9L104.5 125.7L104.7 124.4L104.9 123.2L105.2 122.1L105.5 121L105.7 120L105.8 119L105.9 118L105.8 117L105.8 115.9L105.7 114.8L105.7 113.6L105.8 112.5L106 111.3L106.4 110.2L107 109.1L107.8 108.2L108.6 107.4L109.6 106.7L110.7 106.2L111.8 105.8L112.9 105.5L114.1 105.3L115.2 105.1L116.2 104.9L117.3 104.7L118.4 104.5L119.5 104.3L120.6 104.1L121.7 103.9L122.8 103.9L124 103.9L125.2 104.1L126.3 104.5L127.3 105L128.3 105.7L129.1 106.5L129.9 107.3L130.6 108.2L131.2 109.2L131.7 110.2L132.3 111.1L132.8 112L133.3 113L133.8 113.9L134.3 114.8L134.8 115.8L135.3 116.8L135.7 117.8L136 118.9L136.3 120Z" fill="none" stroke="#f0f0f5" stroke-opacity="0.24" stroke-width="1"/><path d="M147.8 120L147.9 122L147.8 123.9L147.5 125.8L147 127.7L146.3 129.6L145.4 131.3L144.5 133L143.5 134.7L142.3 136.2L141.1 137.7L139.8 139.1L138.4 140.5L136.9 141.7L135.3 142.7L133.6 143.6L131.8 144.3L130 144.7L128.1 145L126.3 145.1L124.4 145.1L122.6 145L120.9 144.8L119.1 144.6L117.4 144.5L115.7 144.5L113.9 144.5L112 144.6L110 144.7L108 144.6L105.9 144.5L103.8 144.1L101.7 143.4L99.8 142.4L98.1 141.1L96.8 139.5L95.7 137.7L95 135.6L94.6 133.5L94.6 131.3L94.7 129.2L95.1 127.1L95.4 125.2L95.8 123.4L96 121.7L96.1 120L96.1 118.3L95.9 116.6L95.6 114.8L95.4 112.9L95.2 111L95.2 109L95.4 106.9L96 105L96.8 103.1L97.9 101.5L99.3 100L100.9 98.8L102.6 97.8L104.5 97L106.4 96.4L108.2 95.9L110.1 95.4L111.9 95L113.7 94.6L115.4 94.1L117.2 93.7L119.1 93.2L120.9 92.9L122.9 92.6L124.8 92.6L126.8 92.8L128.7 93.3L130.5 94L132.2 94.9L133.8 96.1L135.2 97.5L136.4 99L137.6 100.5L138.6 102L139.6 103.6L140.5 105.1L141.5 106.6L142.5 108.1L143.4 109.6L144.4 111.1L145.4 112.7L146.2 114.4L146.9 116.2L147.5 118.1L147.8 120Z" fill="none" stroke="#f0f0f5" stroke-opacity="0.18" stroke-width="1"/><path d="M159.6 120L159.6 122.8L159.3 125.5L158.7 128.2L157.9 130.9L156.9 133.4L155.7 135.9L154.3 138.2L152.8 140.5L151.3 142.7L149.5 144.8L147.7 146.8L145.7 148.6L143.6 150.2L141.3 151.6L138.9 152.8L136.4 153.7L133.9 154.3L131.3 154.7L128.7 154.9L126.2 154.9L123.7 154.9L121.2 154.9L118.8 154.9L116.3 155.1L113.8 155.3L111.1 155.5L108.4 155.7L105.5 155.9L102.5 155.8L99.6 155.4L96.6 154.6L93.9 153.4L91.4 151.7L89.3 149.6L87.7 147.1L86.5 144.3L85.8 141.4L85.5 138.3L85.5 135.3L85.8 132.5L86.1 129.7L86.4 127.1L86.6 124.7L86.6 122.3L86.4 120L85.9 117.6L85.4 115.1L84.8 112.5L84.3 109.8L84.1 106.9L84.2 104.1L84.7 101.2L85.6 98.5L87 96L88.8 93.8L90.9 91.9L93.3 90.4L95.9 89.1L98.5 88.1L101.1 87.2L103.6 86.5L106.2 85.7L108.6 85L111.1 84.2L113.6 83.4L116.1 82.7L118.7 82L121.3 81.5L124.1 81.2L126.8 81.3L129.6 81.7L132.2 82.5L134.7 83.7L137 85.1L139.1 86.9L141 88.8L142.8 90.8L144.4 92.9L145.9 95L147.4 97L148.9 99L150.4 101L151.9 103L153.4 105.1L154.9 107.3L156.3 109.6L157.5 112L158.5 114.6L159.2 117.3L159.6 120Z" fill="none" stroke="#f0f0f5" stroke-opacity="0.28" stroke-width="1"/><path d="M171.4 120L171.2 123.6L170.7 127.1L169.8 130.6L168.7 134L167.3 137.2L165.7 140.3L163.9 143.4L162 146.3L160 149.1L157.8 151.7L155.4 154.2L152.9 156.5L150.1 158.5L147.2 160.3L144.1 161.7L140.9 162.8L137.6 163.6L134.4 164.2L131.1 164.5L127.9 164.8L124.7 165.1L121.6 165.3L118.4 165.7L115.1 166.2L111.8 166.7L108.2 167.2L104.5 167.6L100.7 167.7L96.9 167.4L93.1 166.6L89.5 165.3L86.2 163.3L83.3 160.8L80.9 157.7L79.2 154.2L78 150.5L77.4 146.6L77.2 142.8L77.2 139L77.4 135.5L77.6 132.2L77.6 129L77.4 126L76.8 123L76.1 120L75.1 116.9L74.1 113.5L73.2 110.1L72.6 106.4L72.4 102.7L72.7 98.9L73.7 95.4L75.2 92L77.3 89L79.9 86.3L82.8 84.1L86 82.3L89.3 80.7L92.6 79.4L95.9 78.3L99.1 77.2L102.3 76.1L105.4 74.9L108.5 73.7L111.6 72.5L114.9 71.5L118.3 70.6L121.7 70L125.3 69.8L128.8 70L132.3 70.8L135.6 72L138.7 73.6L141.6 75.7L144.3 78L146.7 80.4L149 82.9L151.1 85.5L153.2 87.9L155.3 90.4L157.4 92.8L159.6 95.3L161.7 97.8L163.8 100.5L165.9 103.3L167.7 106.3L169.2 109.5L170.3 112.9L171.1 116.4L171.4 120Z" fill="none" stroke="#f0f0f5" stroke-opacity="0.24" stroke-width="1"/><path d="M183.1 120L182.7 124.4L181.9 128.7L180.7 132.9L179.2 137L177.4 140.9L175.5 144.7L173.3 148.4L171.1 151.9L168.6 155.3L165.9 158.5L163 161.5L159.9 164.3L156.5 166.7L152.9 168.8L149.1 170.5L145.3 171.8L141.4 172.9L137.4 173.7L133.6 174.4L129.7 175L125.8 175.6L122 176.3L118 177.2L113.9 178L109.6 178.9L105.2 179.5L100.5 179.9L95.8 179.9L91.1 179.2L86.6 177.8L82.4 175.7L78.7 172.8L75.6 169.3L73.2 165.2L71.5 160.7L70.3 156.1L69.8 151.4L69.5 146.8L69.5 142.5L69.4 138.4L69.1 134.6L68.6 130.9L67.7 127.4L66.4 123.7L65 120L63.4 116L62 111.8L60.8 107.4L60.2 102.9L60.3 98.3L61.1 93.8L62.6 89.5L64.9 85.6L67.9 82.1L71.3 79.1L75.1 76.6L79 74.5L83 72.7L87 71.1L90.9 69.5L94.6 68L98.3 66.4L102 64.7L105.8 63L109.7 61.4L113.7 60.1L117.9 59L122.2 58.4L126.5 58.4L130.8 58.9L134.9 60.1L138.9 61.8L142.6 64L146.1 66.5L149.3 69.3L152.3 72.2L155.1 75.1L157.9 77.9L160.6 80.8L163.4 83.6L166.3 86.4L169.1 89.3L172 92.4L174.7 95.7L177.2 99.2L179.3 103L181 107L182.3 111.3L182.9 115.6L183.1 120Z" fill="none" stroke="#f0f0f5" stroke-opacity="0.19" stroke-width="1"/><path d="M194.5 120L193.8 125.2L192.7 130.2L191.2 135.1L189.3 139.9L187.3 144.5L185 148.9L182.5 153.3L179.9 157.4L177 161.4L173.9 165.2L170.5 168.7L166.7 171.9L162.8 174.7L158.5 177.1L154.2 179.2L149.7 180.9L145.1 182.2L140.6 183.4L136.1 184.5L131.6 185.6L127 186.8L122.4 188L117.6 189.3L112.6 190.6L107.4 191.7L101.9 192.4L96.4 192.6L90.9 192.1L85.4 190.8L80.4 188.6L75.8 185.6L71.8 181.6L68.6 177L66.2 171.9L64.5 166.6L63.4 161.1L62.8 155.8L62.3 150.7L61.9 145.9L61.3 141.4L60.3 137.1L58.9 133L57.2 128.8L55.1 124.5L52.9 120L50.8 115.2L49 110L47.9 104.7L47.5 99.2L48 93.8L49.4 88.6L51.8 83.7L55 79.4L58.9 75.6L63.2 72.3L67.7 69.5L72.4 67.1L77 64.9L81.5 62.9L85.8 60.8L90.1 58.7L94.3 56.5L98.6 54.3L103.1 52.1L107.7 50.1L112.5 48.5L117.5 47.4L122.6 46.9L127.7 47.1L132.7 48.1L137.5 49.7L142.1 51.9L146.4 54.6L150.5 57.6L154.2 60.7L157.8 63.9L161.3 67.1L164.8 70.3L168.3 73.3L171.9 76.5L175.5 79.7L179.1 83.1L182.6 86.7L185.9 90.7L188.8 95L191.2 99.6L193 104.5L194.1 109.6L194.6 114.8L194.5 120Z" fill="none" stroke="#f0f0f5" stroke-opacity="0.17" stroke-width="1"/><path d="M205.6 120L204.6 125.9L203.1 131.7L201.3 137.3L199.2 142.7L196.8 148L194.3 153.1L191.6 158.1L188.6 162.9L185.3 167.5L181.8 171.8L177.8 175.8L173.6 179.5L169 182.7L164.2 185.5L159.2 188L154.2 190L149 191.9L143.9 193.6L138.8 195.2L133.6 196.9L128.3 198.7L122.8 200.5L117.1 202.2L111.2 203.8L105 204.9L98.7 205.5L92.3 205.3L86 204.2L80 202L74.5 198.8L69.7 194.6L65.6 189.6L62.4 184L60 177.9L58.3 171.8L57.1 165.7L56.2 159.9L55.3 154.4L54.2 149.3L52.7 144.5L50.8 139.8L48.4 135.2L45.6 130.5L42.7 125.4L39.8 120L37.3 114.2L35.4 108.1L34.5 101.8L34.6 95.5L35.8 89.4L38.2 83.6L41.5 78.3L45.7 73.5L50.4 69.4L55.5 65.9L60.8 62.8L66 60L71.1 57.4L76 54.8L80.8 52.1L85.5 49.3L90.3 46.4L95.2 43.6L100.3 40.9L105.6 38.6L111.3 36.9L117.1 35.8L122.9 35.6L128.8 36.1L134.5 37.5L140 39.7L145.2 42.3L150.1 45.4L154.7 48.8L159.2 52.2L163.4 55.6L167.7 59L172 62.3L176.4 65.6L180.8 69L185.2 72.6L189.6 76.5L193.6 80.8L197.3 85.6L200.5 90.7L203 96.2L204.7 102L205.7 108L206 114L205.6 120Z" fill="none" stroke="#dd8568" stroke-opacity="0.8" stroke-width="1.5"/><path d="M216.1 120L214.8 126.6L213.1 133.1L211 139.3L208.7 145.4L206.2 151.4L203.5 157.2L200.5 162.8L197.3 168.3L193.6 173.5L189.6 178.4L185.2 183L180.4 187.1L175.3 190.8L169.9 194L164.4 196.9L158.8 199.5L153.1 201.9L147.4 204.2L141.6 206.5L135.7 208.9L129.6 211.2L123.3 213.5L116.7 215.6L109.8 217.3L102.7 218.3L95.4 218.5L88.3 217.7L81.4 215.6L74.9 212.4L69.1 208.1L64.2 202.8L60.1 196.7L56.9 190.1L54.5 183.3L52.6 176.5L51.1 170.1L49.6 164L48 158.3L45.9 153L43.3 147.9L40.2 142.9L36.6 137.7L32.9 132.2L29.1 126.4L25.8 120L23.1 113.2L21.5 106.2L21.1 99L21.9 91.9L24.1 85.1L27.5 78.8L31.9 73.1L37 68.1L42.6 63.7L48.4 59.9L54.1 56.4L59.8 53.1L65.2 49.9L70.5 46.5L75.6 43.1L80.8 39.5L86 36L91.6 32.5L97.4 29.5L103.6 27L110 25.2L116.7 24.4L123.3 24.5L129.9 25.5L136.3 27.4L142.5 29.9L148.3 33L153.8 36.4L159 39.9L164.2 43.5L169.2 47L174.3 50.4L179.5 53.9L184.8 57.4L190.1 61.2L195.3 65.3L200.3 69.8L204.9 74.9L208.9 80.4L212.2 86.5L214.6 92.9L216.2 99.6L216.9 106.4L216.9 113.2L216.1 120Z" fill="none" stroke="#f0f0f5" stroke-opacity="0.28" stroke-width="1"/><path d="M226.1 120L224.6 127.3L222.7 134.4L220.5 141.4L218.1 148.1L215.5 154.8L212.7 161.3L209.5 167.6L205.9 173.7L202 179.5L197.5 185.1L192.6 190.2L187.4 194.8L181.7 199L175.8 202.8L169.8 206.2L163.6 209.4L157.4 212.5L151 215.5L144.6 218.5L137.9 221.5L131 224.4L123.7 227.1L116.2 229.3L108.3 230.9L100.3 231.5L92.3 231.1L84.5 229.3L77.1 226.2L70.3 221.8L64.4 216.3L59.4 209.9L55.3 202.8L52 195.5L49.4 188.2L47.2 181.1L45 174.5L42.7 168.3L39.9 162.6L36.6 157.1L32.7 151.8L28.3 146.3L23.7 140.5L19 134.2L14.7 127.4L11.1 120L8.7 112.2L7.6 104.2L8 96.2L9.9 88.4L13.2 81.1L17.6 74.4L23 68.4L29 63.2L35.3 58.5L41.6 54.2L47.7 50.2L53.6 46.3L59.3 42.3L64.8 38.1L70.2 33.8L75.8 29.4L81.7 25.2L87.9 21.3L94.5 17.9L101.5 15.3L108.8 13.7L116.3 13.2L123.7 13.7L131 15.2L138.1 17.5L144.8 20.4L151.3 23.8L157.4 27.3L163.4 30.9L169.4 34.5L175.3 38L181.4 41.5L187.5 45L193.7 48.8L199.8 53L205.8 57.7L211.3 63L216.2 68.9L220.3 75.3L223.6 82.3L225.8 89.6L227.1 97.2L227.6 104.9L227.2 112.5L226.1 120Z" fill="none" stroke="#f0f0f5" stroke-opacity="0.21" stroke-width="1"/><circle cx="120" cy="120" r="2.5" fill="#dd8568"/></svg>
